<?xml version="1.0" encoding="utf-8"?>
<!-- Generator: Adobe Illustrator 18.0.0, SVG Export Plug-In . SVG Version: 6.00 Build 0)  -->
<!DOCTYPE svg PUBLIC "-//W3C//DTD SVG 1.1//EN" "http://www.w3.org/Graphics/SVG/1.1/DTD/svg11.dtd">
<svg version="1.1" xmlns="http://www.w3.org/2000/svg" xmlns:xlink="http://www.w3.org/1999/xlink" x="0px" y="0px"
	 viewBox="0 0 503.5 581.1" style="enable-background:new 0 0 503.5 581.1;" xml:space="preserve">
<g id="Color_Pallete">
</g>
<g id="Favicon">
</g>
<g id="Brain">
</g>
<g id="Right_Brain_1_">
	<path style="fill:#26A69A;" d="M259.9,44.4c0,0,5.7-44.1,32.9-40.5c14.5-6.3,24.5,0.3,27.8,4.3c0,0,20.7-0.4,24,7.7
		c9.5,4,13.6,6.8,16.7,10.4c10.7,1.6,15.2,8.4,17.1,11c7.9,3.9,12.5,14.2,12.5,14.2s7.5,0.3,11.3,14.6c1.8,7.7,17,21.5,23.6,43
		c11.9,10.1,20.2,32.5,18.2,46.3c12.4,6.1,19.4,24.4,19.7,29.4c0.3,5,13.7,11.7,11.3,39.7c0,0,9.4,13.7,8.7,21
		c7.3,8,11.5,24.7,4.6,30.9c3.4,5.1,2.2,10.5,2.2,10.5c14.8,12,9.9,31.1,9.3,34.6c-1.6,9.8-0.3,26.2-4.5,26.6
		c2.4,4.9,11.4,18.5,3.2,38.4c2.5,19.7-7.8,45.7-15.7,47.5c2.2,13.8-6.2,28.6-10,29.5c-3.8,0.9-15.2,16.7-17.5,24.1
		c-2.3,7.4-20,23.1-23.3,23.1c-7.7,16-12.7,20.4-44.2,33.4c-13.8,5.3-18.8,20.6-47.1,25.6c0,5-19.3,6-21.7,3.7
		c-36.4,12-66.5,10-62.3-49.4l-6.4-169.4V144.9l1.7-86.7L259.9,44.4z"/>
	<path style="opacity:0.75;fill:#FFFFFF;" d="M243.7,44.4c0,0-5.7-44.1-32.9-40.5c-14.5-6.3-24.5,0.3-27.8,4.3c0,0-20.7-0.4-24,7.7
		c-9.5,4-13.6,6.8-16.7,10.4c-10.7,1.6-15.2,8.4-17.1,11c-7.9,3.9-12.5,14.2-12.5,14.2s-7.5,0.3-11.3,14.6c-1.8,7.7-17,21.5-23.6,43
		c-11.9,10.1-20.2,32.5-18.2,46.3c-12.4,6.1-19.4,24.4-19.7,29.4c-0.3,5-13.7,11.7-11.3,39.7c0,0-9.4,13.7-8.7,21
		c-7.3,8-11.5,24.7-4.6,30.9c-3.4,5.1-2.2,10.5-2.2,10.5c-14.8,12-9.9,31.1-9.3,34.6c1.6,9.8,0.3,26.2,4.5,26.6
		C6,353.1-3,366.6,5.1,386.6c-2.5,19.7,7.8,45.7,15.7,47.5c-2.2,13.8,6.2,28.6,10,29.5c3.8,0.9,15.2,16.7,17.5,24.1
		c2.3,7.4,20,23.1,23.3,23.1c7.7,16,12.7,20.4,44.2,33.4c13.8,5.3,18.8,20.6,47.1,25.6c0,5,19.3,6,21.7,3.7
		c36.4,12,66.5,10,62.3-49.4l6.4-169.4V144.9l-1.7-86.7L243.7,44.4z"/>
	<g>
		<path style="fill:#B2DFDB;" d="M306,85l-0.8-2.9c0.7-0.2,16.7-4.5,14.9-17.7c-1.3-9.4-8.3-13.5-12.4-15.1c-1.9-0.5-3.2-1-3.3-1
			l-13.8-5.5l14.7,2.7c0,0,1.3,0.3,3.2,1c3.4,0.8,9.1,1.6,13.3-1.2c3.6-2.4,5.5-7,5.7-13.6c0.1-5.2-1.5-9.2-4.7-11.9
			c-9-7.4-27.9-3.3-28.1-3.2l-2.8,0.6l1.1-2.6c1.6-4,1.6-7,0-8.5c-1.7-1.6-5.2-1.6-9.2,0.1c-8.5,3.6-22.7,17-22.3,44l-3,0
			c-0.4-28.6,15-42.9,24.1-46.8c5.2-2.2,9.8-2,12.5,0.5c1.3,1.2,3,4,1.5,9.3c5.8-0.9,20-2.4,28.1,4.3c4,3.3,6,8.1,5.8,14.3
			c-0.2,7.7-2.6,13.1-7.1,16.1c-2.6,1.7-5.5,2.3-8.2,2.4c3.6,2.8,7,7.2,8,13.9C325.3,79.8,306.2,85,306,85z"/>
		<path style="fill:#B2DFDB;" d="M263.2,116.5c-0.3-0.2-7.3-5.3-7-22.9c0.2-12.1,7.1-17.2,11.7-19.3c-4.1-2.3-9.8-7.9-9.8-20.6
			c0-8.2,4.6-15.4,13.4-20.9c6.5-4,12.8-5.7,13.1-5.8l0.7,2.9c-0.1,0-6.2,1.6-12.3,5.5c-7.9,5-11.9,11.1-11.9,18.3
			c0,17.3,11.3,19.2,11.4,19.3l9.4,1.5l-9.4,1.5c-0.5,0.1-13.1,2.3-13.3,17.8c-0.2,15.8,5.7,20.4,5.7,20.4L263.2,116.5z"/>
		<path style="fill:#B2DFDB;" d="M263.9,210.4c-4.7-8.9-7.4-21.3-8-36.8c-0.5-10.7,0.3-19.2,0.4-20.4c-3.9-44.7,19.5-49,20.5-49.1
			l0.5,3l-0.2-1.5l0.2,1.5c-0.9,0.1-21.7,4.1-18,46.1l0,0.1l0,0.1c0,0.4-3.3,35.3,7.3,55.6L263.9,210.4z"/>
		<path style="fill:#B2DFDB;" d="M264.2,239.3c-5.1-7.9-6.8-15.2-5-21.7c2-7.7,8.2-11.5,9.5-12.3c4.1-4.2,8.5-6.1,12.9-5.4
			c6.7,1,11.7,7.5,14.1,11.2c7.3-16.2,20-14.1,20.2-14.1l-0.5,3c-0.5-0.1-11.9-1.8-18,15l-1.2,3.3l-1.6-3.1
			c-0.1-0.1-5.7-11.2-13.5-12.4c-3.5-0.5-7,1-10.4,4.7l-0.2,0.2l-0.2,0.1c-0.1,0-6.4,3.4-8.2,10.5c-1.5,5.6,0.1,12.1,4.7,19.2
			L264.2,239.3z"/>
		<path style="fill:#B2DFDB;" d="M262.9,356.2c-1.2,0-2.3-0.3-3.2-1c-6.9-4.9-2.3-27-1.6-30.2c0.4-10.8,0.1-21-0.2-31
			c-0.8-29.5-1.5-54.9,18-71.7l2,2.3c-18.5,15.8-17.8,39.4-17,69.3c0.3,10,0.6,20.3,0.2,31.3l0,0.3c-2,9-3.7,24.4,0.4,27.2
			c1.2,0.9,3.2,0.5,5.8-1.2c6.3-3.9,11.1-5.6,14.6-6.8c6-2,8.4-2.9,10.9-12.1c3.6-13.3,9.6-17.2,12-18.3c1.6-0.7,2.9-0.8,3.8-0.4
			l-1.3,2.7c0.1,0,0.1,0,0.1,0.1c-0.9-0.2-7.9,2.2-11.8,16.7c-2.9,10.8-6.4,12-12.8,14.2c-3.5,1.2-8,2.7-14,6.5
			C266.6,355.5,264.6,356.2,262.9,356.2z"/>
		<path style="fill:#B2DFDB;" d="M300.3,322.3l-3-0.1c0.2-5.2,2.8-10.1,6.5-12.2c2.6-1.5,5.4-1.5,8.2,0l-1.4,2.7c-1.8-1-3.6-1-5.3,0
			C302.5,314.1,300.4,318.1,300.3,322.3z"/>
		<path style="fill:#B2DFDB;" d="M295.3,398.4c-8.2,0-17.5-5.4-20.6-9.3c-2.6-3.2-5.5-3.1-8.1-3.1c-2.2,0-4.9,0.1-5.8-2.7l-0.1-0.3
			l-0.1-0.9c-2.4-20.4-1.7-23.1,24.6-35.3c0.3-0.2,8.5-4.3,6.9-11.5l2.9-0.7c1.7,7.6-4.8,13-8.5,14.8
			c-25.3,11.7-25.1,13.3-22.9,32.2l0.1,0.7c0.2,0.5,0.7,0.6,2.9,0.5c2.8-0.1,7-0.1,10.5,4.2c2.9,3.6,14.6,10.3,22.4,7.4
			c4.9-1.8,7.2-7.2,6.9-16.1l0-0.2l0-0.2c0.1-0.6,3.3-15.7,16.8-23.6c9.6-5.6,21.9-6.1,36.5-1.3c23,7.5,34.1,2.4,39.4-3.2
			c7-7.5,7-19.1,3.7-27.4l-2.7-7l5.2,5.5c0,0,2.4,2.4,4.9,2c2.3-0.4,4-3.2,5-5.5c6.5-15.2,3.2-30.7-10.1-47.1l2.3-1.9
			c14.1,17.4,17.6,33.8,10.5,50.2c-1.8,4.3-4.3,6.7-7.2,7.3c-1.4,0.3-2.7,0-3.8-0.4c2.1,8.6,1.2,19.2-5.6,26.5
			c-5.9,6.2-18,11.9-42.5,4c-13.7-4.5-25.2-4.1-34,1.1c-11.6,6.8-15,19.9-15.3,21.5c0.4,12.7-4.6,17.3-8.9,18.8
			C298.9,398.2,297.1,398.4,295.3,398.4z"/>
		<path style="fill:#B2DFDB;" d="M276.7,456.8c-3.4,0-6.6-0.5-9.3-1.5c-3.3-1.2-5.7-3.4-7.2-6.7c-4.3-9.4,0.9-24.7,2.1-28
			c-10.8-21.3,0-36.5,0.4-37.1l2.4,1.8l-1.2-0.9l1.2,0.9c-0.4,0.6-10.3,14.7,0.1,34.6l0.3,0.6l-0.3,0.6c-0.1,0.2-6.6,17-2.4,26.3
			c1.1,2.5,2.9,4.2,5.5,5.1c16.6,5.9,41.9-7.7,47.1-21.8l0.4-1.1l1.1,0.1c0.1,0,12.8,0.9,20.1-8.5c6.5-8.4,7.1-22,1.9-40.7
			c-1.8-5.1-2.8-8.8-2.9-9.3l2.9-0.9c1.1,3,2,5.9,2.8,8.8c3.5,9.9,10.4,25.3,20.4,31c3.9,2.2,7.8,2.7,12,1.5
			c6.2-1.8,13.1-2.1,20.3-2.4c21.2-0.8,43.1-1.7,49.6-43.6l0.1-0.4l0.2-0.3c0.2-0.2,17.6-22.5,16.7-41.3c-1-19.8,2.9-30.5,3.1-30.9
			l2.8,1.1c0,0.1-3.9,10.7-2.9,29.7c1,19-14.8,40.1-17.1,43c-7,43.9-31.1,44.9-52.4,45.7c-7.1,0.3-13.7,0.5-19.6,2.3
			c-4.9,1.5-9.7,0.9-14.3-1.7c-6.6-3.7-11.8-11.1-15.7-18.6c1.6,12.5-0.2,22.2-5.4,28.9c-7.1,9.1-18.1,9.7-21.6,9.7
			c-3.3,7.9-11.2,14.9-21.6,19.5C289.6,455.3,282.8,456.8,276.7,456.8z"/>
		<path style="fill:#B2DFDB;" d="M329.8,411.5c-15.1-9.4-23.4-23.6-23.8-24.2l2.6-1.5c0.1,0.1,8.3,14.1,22.8,23.1L329.8,411.5z"/>
		<path style="fill:#B2DFDB;" d="M272.5,508.5c-0.2,0-0.4,0-0.6,0c-4.8-0.2-8.8-2.8-11.9-7.8c-13.8-22,6.6-47.5,6.8-47.7l2.3,1.9
			c-0.2,0.2-19.2,24.1-6.6,44.3c2.6,4.1,5.7,6.2,9.5,6.4c11.6,0.5,25.6-17.1,26.6-18.4c0.9-1.6,9.8-16.6,26.9-13.7l-0.5,3
			c-15.7-2.8-23.7,12.1-23.7,12.2l-0.1,0.2C300.5,489.6,286,508.5,272.5,508.5z"/>
		<path style="fill:#B2DFDB;" d="M290,581.1c-8.9,0-17.5-1.8-22.2-7.6c-27.9-25.5-4.6-69.6-4.3-70l2.6,1.4
			c-0.2,0.4-22.5,42.5,3.8,66.4l0.2,0.2c10.7,13.5,48,2.1,48.4,2l0.2-0.1l0.2,0c7.4,0.2,18.6-1,20.3-4.2l0.4-0.7l0.8-0.1
			c0.2,0,16.6-1.7,36-18.1c7.8-6.6,15.8-10.1,23.6-13.6c12.5-5.5,23.3-10.2,30.5-26.4l0.2-0.5l0.5-0.2c0,0,4.2-1.9,9.5-6.4
			c4.9-4.2,11.7-11.6,16.8-23.2l0.1-0.1c3.6-6.7,7.9-11,11.7-14.8c7.2-7.2,12.9-12.9,11.9-30.8l3-0.2c1,19.2-5.4,25.6-12.8,33.1
			c-3.8,3.8-7.8,7.8-11.2,14c-9.2,21.3-24.1,29.4-27.2,30.9c-7.7,16.8-19.4,22-31.8,27.4c-7.6,3.3-15.4,6.8-22.9,13.1
			c-18,15.3-33.3,18.3-36.9,18.8c-3.9,5.2-18.7,5.2-22.3,5.1C317,577.1,303.3,581.1,290,581.1z"/>
		<path style="fill:#B2DFDB;" d="M427.2,461.4l-0.6-2.9l0.3,1.5l-0.3-1.5c0.1,0,11.9-2.6,19-15.3c1.7-3,4.2-4.9,7.5-5.7
			c10.5-2.5,25.5,7.8,26.2,8.2l-1.7,2.5c-0.1-0.1-14.6-9.9-23.8-7.7c-2.5,0.6-4.3,2-5.5,4.2C440.5,458.6,427.8,461.3,427.2,461.4z"
			/>
		<path style="fill:#B2DFDB;" d="M466,441.8c-0.5,0-0.7,0-0.8,0l0.2-3c0.1,0,9.8,0.6,18.3-7.5c9.1-8.7,13.6-23.7,13.2-44.7l0-0.5
			l0.3-0.4c0,0,2.3-3.5,3-9.8c0.7-5.8,0.1-15.2-6.3-27.1l2.6-1.4c12.2,22.5,5,36.9,3.4,39.6c0.3,21.6-4.5,37.3-14.2,46.5
			C477.6,441.2,468.7,441.8,466,441.8z"/>
		<path style="fill:#B2DFDB;" d="M455.2,394.6l-2.2-2.1c1.9-2,4.6-4.6,7.8-7.7c13.5-13.1,36.2-35,35.7-47.6
			c-0.2-4.9,0.7-9.6,1.5-14.1c2.1-11.3,4-22-8.6-36.1l2.2-2c13.5,15.2,11.4,27.1,9.3,38.6c-0.8,4.6-1.6,8.9-1.4,13.5
			c0.6,14-21.8,35.6-36.6,49.9C459.8,390.1,457.1,392.7,455.2,394.6z"/>
		<path style="fill:#B2DFDB;" d="M482.5,311.2l-2.5-1.7c8.5-12.5,10.9-23,7.4-31.3c-3.9-9-14.3-13.6-22-14.8
			c-6.7-1.1-11.1,5.7-15.8,12.9c-3.2,5-6.3,9.7-10.2,11.9c-8.9,5.1-18,19.7-18,19.8l-2.6-1.6c0.4-0.6,9.6-15.4,19.1-20.8
			c3.4-1.9,6.2-6.3,9.2-11c4.7-7.3,10.1-15.6,18.8-14.2c8.5,1.3,19.9,6.5,24.3,16.6C494.2,286.3,491.6,297.8,482.5,311.2z"/>
		<path style="fill:#B2DFDB;" d="M490.2,279l-2.4-1.7c0.3-0.5,8.2-12-5.3-30.8l-0.2-0.3l0-0.4c0-0.2-1.6-17-12.6-23.6
			c-6.3-3.7-14.5-3.5-24.4,0.8l0,0c0,0-5,2.6-9.3,7.2c-5.5,6-7.2,12.5-4.9,19.2l4,11.7l-6.7-10.4c-0.4-0.6-10.1-15.3-26.3-6.2
			c-16.6,9.4-14.6,31-14.6,31.2l-3,0.3c-0.1-1-2.2-23.8,16.1-34.1c12.4-7,21.7-1.6,26.5,2.8c-0.9-15.3,16.7-24.4,16.9-24.5
			c11-4.7,20.1-4.9,27.2-0.7c11.4,6.8,13.6,22.6,13.9,25.5C499.6,265.5,490.6,278.5,490.2,279z"/>
		<path style="fill:#B2DFDB;" d="M476.4,224.9l-2.9-0.6c0-0.2,4-20.2-11-38.4l-0.3-0.3l-0.1-0.4c0-0.3-3.9-25.1-28.3-32.4l0.9-2.9
			c24.4,7.3,29.7,31,30.3,34.5C480.7,203.5,476.6,224,476.4,224.9z"/>
		<path style="fill:#B2DFDB;" d="M445.4,155.8l-2.9-0.7l1.5,0.3l-1.5-0.3c0-0.2,4.3-20.9-17.8-45l-0.2-0.3l-0.1-0.3
			c-0.1-0.2-5.2-17.5-17.1-32c-4.1-5-5.9-9.5-7.5-13.5c-3.1-7.9-5-12.7-23.8-13.3l0.1-3c19.7,0.7,22.8,5.9,26.4,15.2
			c1.5,3.8,3.2,8.1,7,12.7c11.6,14.1,16.8,30.2,17.6,32.8C450,133.6,445.6,154.9,445.4,155.8z"/>
		<path style="fill:#B2DFDB;" d="M389.4,51.8c-0.1-0.5-2.4-11.3-20-13.1l0.3-3c19.9,2.1,22.5,15,22.6,15.6L389.4,51.8l1.5-0.3
			L389.4,51.8z"/>
		<path style="fill:#B2DFDB;" d="M378.9,40.7c-0.4-0.7-9.3-16.3-36.6-15.3l-0.1-3c29.2-1,38.9,16.1,39.3,16.9L378.9,40.7z"/>
		<path style="fill:#B2DFDB;" d="M360.1,27.2c-0.1-0.1-5.8-7.6-15.8-9.8l-0.5-0.1l-0.3-0.4c-0.3-0.4-8.4-9.3-22.6-7.2l-0.9,0.1
			l-0.5-0.7c-0.3-0.4-8.3-10.6-26.1-3.8l-1.1-2.8c10.4-4,17.8-2.5,22.2-0.6c3.5,1.5,5.7,3.6,6.7,4.7c13.9-1.8,22.4,6,24.2,7.9
			c10.8,2.5,16.8,10.5,17.1,10.9L360.1,27.2l1.2-0.9L360.1,27.2z"/>
		<path style="fill:#B2DFDB;" d="M284.9,69.5c-0.1-0.1-12.6-8.4-9.4-21.6c2.4-10.5,10.9-14,18.5-17.2c5.1-2.1,9.8-4.1,12.8-7.8
			l2.3,1.9c-3.5,4.3-8.8,6.6-14,8.7c-7.5,3.1-14.7,6.1-16.7,15.1c-1.1,4.7-0.1,9.1,2.9,13.3c2.4,3.2,5.1,5.1,5.2,5.1L284.9,69.5z"/>
		<path style="fill:#B2DFDB;" d="M361.4,142.9h-3c0-19.7-20.6-33.9-39.6-35.8c-11.7-1.2-15-6.4-17.6-10.6c-2.1-3.4-3.6-5.8-9.1-5.8
			c-4.6,0-8-1.4-9.9-4c-2.7-3.8-1.5-8.9-1.1-10.3c-1.3-13.6,22.7-19.4,23.8-19.6l0.7,2.9c-0.2,0.1-22.8,5.5-21.4,16.7l0,0.3
			l-0.1,0.3c0,0-1.6,4.9,0.6,7.9c1.3,1.8,3.8,2.8,7.4,2.8c7.2,0,9.4,3.7,11.6,7.2c2.5,4,5,8.1,15.3,9.1
			C339.5,106.1,361.4,121.5,361.4,142.9z"/>
		<path style="fill:#B2DFDB;" d="M323,66.4l-2.4-1.7c0.2-0.3,4.9-6.7,17-4.9l-0.4,3C326.9,61.2,323.1,66.2,323,66.4z"/>
		<path style="fill:#B2DFDB;" d="M368.4,134.4l-3-0.2c0-0.1,0.6-8-2-16.2c-3.5-10.6-10.6-16.5-21.3-17.6
			c-28.3-2.8-29.5-20-29.6-20.7l3-0.2l-1.5,0.1l1.5-0.1c0,0.6,1.3,15.4,26.9,17.9C370.9,100.2,368.5,134,368.4,134.4z"/>
		<path style="fill:#B2DFDB;" d="M362,85.2l-0.2-3.5c-0.1-2.4-6.8-6.5-21.4-8.3l0.4-3c3.5,0.4,19.6,2.7,23.3,8.7
			c3.2-2.1,10.5-4.8,20.2,3.3l-1.9,2.3c-11-9.2-17.7-2.4-17.9-2.1L362,85.2z"/>
		<path style="fill:#B2DFDB;" d="M416.4,107.7c-0.3-2.6-1.3-4.5-3.2-5.9c-5.3-3.9-15.2-1.8-15.3-1.8l-3.5,0.7l1.9-3
			c3.3-5.1,4.2-9.8,2.6-13.9c-3.1-8.1-14.7-11.8-16-12.2c-2-0.2-20.1-2.5-30-19.4c-9.3-15.9-23.8-13.7-24.5-13.6l-0.5-3
			c0.2,0,17.1-2.6,27.5,15.1c9.5,16.1,27.7,17.9,27.8,17.9l0.3,0c0.6,0.2,14.3,4.1,18.1,14c1.6,4.2,1.2,8.9-1.4,13.8
			c3.8-0.4,10.2-0.4,14.5,2.8c2.6,1.9,4,4.6,4.4,8L416.4,107.7z"/>
		<path style="fill:#B2DFDB;" d="M383.8,71.6l-1-2.8c2.5-0.9,7.1-3.3,6.6-5.2l2.9-0.7C393.5,68.1,384.8,71.3,383.8,71.6z"/>
		<path style="fill:#B2DFDB;" d="M418.5,148.8l-2.4-1.9c0.1-0.2,12.1-15.5,10.3-27.4c-0.6-3.8-2.5-6.8-5.9-9.1
			c-15.1-8.1-21.8-0.7-27.2,5.3c-3.3,3.6-6.4,7.1-10.6,5.5c-7.8-2.9-14.6,7.3-14.7,7.4l-2.5-1.6c0.3-0.5,8.2-12.3,18.2-8.6
			c2.2,0.8,4.1-1.2,7.3-4.7c5.4-6,13.7-15.2,30.9-5.9l0.1,0.1c4.1,2.7,6.5,6.5,7.2,11.1C431.4,132.3,419,148.2,418.5,148.8z"/>
		<path style="fill:#B2DFDB;" d="M376.9,121c-9.7,0-14.8-6.7-15-7l2.4-1.8c0.2,0.3,5,6.5,14,5.8l0.2,3
			C377.9,120.9,377.4,121,376.9,121z"/>
		<path style="fill:#B2DFDB;" d="M385.6,103c-5.1,0-7.9-1.7-8.1-1.8l1.6-2.5l-0.8,1.3l0.8-1.3c0.3,0.2,6.5,3.8,17.9-1.4l1.3,2.7
			C393.1,102.3,388.9,103,385.6,103z"/>
		<path style="fill:#B2DFDB;" d="M292.6,121.6c0,0,0.1-0.2,0-0.4l-3,0.4c-0.1-0.9-0.4-2.9,14.4-12.3V100h3v11l-0.7,0.4
			C300.3,115.3,293.3,120.3,292.6,121.6z"/>
		<path style="fill:#B2DFDB;" d="M306.7,111.2l-2.1-2.2c0.2-0.2,5.5-5.1,17.2-4.6l-0.1,3C311.2,107,306.7,111.2,306.7,111.2z"/>
		<path style="fill:#B2DFDB;" d="M335.7,232.3l-2.9-0.7c5.3-21.2,2.4-37.7-8.5-47.8c-9.5-8.8-21.7-9.7-23.3-9.2
			c-5.1,3.3-11.6,3.9-18.7,1.6c-5.3-1.7-9-4.4-9.2-4.5l1.7-2.4c0.1,0.1,14,9.8,24.6,2.8c2.2-1.4,14-0.1,23.6,6.9
			C333.1,186.2,343.4,201.3,335.7,232.3z"/>
		<path style="fill:#B2DFDB;" d="M335.1,275.3c-0.6-0.6-13.9-15.3-6.2-30.4c1.8-3.6,2.8-8.1,3.7-12.8c2.8-13.4,5.9-28.6,31.8-27.2
			c1-0.2,2.9,0,4.2,1.4c1.9,2.1,1.9,6.1,0,12.1c0.4,1.3,3.4,5.4,6.5,9.2c2.8-6.8,12.4-24.4,37.6-21.2c6.5,0.6,11.4-6,11.4-6.1
			l2.4,1.8c-0.2,0.3-5.9,8.1-14.2,7.3c-28.4-3.6-35,20.5-35.2,21.5l-0.7,2.8l-1.9-2.2c-9.5-11.2-9.2-13.2-8.7-14.1
			c2.1-6.5,1.1-8.5,0.6-9.1c-0.6-0.7-1.6-0.5-1.6-0.5l-0.2,0l-0.2,0c-23.5-1.3-26.1,11.4-28.9,24.8c-1,4.9-2,9.6-4,13.6
			c-6.8,13.2,5.6,26.8,5.7,27L335.1,275.3z"/>
		<path style="fill:#B2DFDB;" d="M369.7,209.1l-2.7-1.2c7.3-16.4,17.4-26.4,30-30c20.1-5.6,39,7.2,39.8,7.8l-1.7,2.5
			c-0.2-0.1-18.6-12.6-37.3-7.3C386,184.1,376.6,193.6,369.7,209.1z"/>
		<path style="fill:#B2DFDB;" d="M347,207.6c-1.4,0-2.8-0.2-4.1-0.5c-4.8-1.3-8.3-5-10.2-11c-3.2-9.9,0.6-14.5,4.4-16.6
			c1.4-0.8,3.1-1.4,4.8-1.7c-1.4-0.5-2.7-1.2-3.9-2.1c-0.4-0.3-0.7-0.6-1.1-0.9c-1.1,3.6-3.9,7.5-10,10.3l-1.3-2.7
			c7.7-3.6,8.9-8.6,8.8-11.7c-0.3-1-0.5-2-0.5-3.1l-0.5-9.6l3.4,9c0.3,0.9,0.6,2,0.7,3.2c0.5,1.3,1.3,2.3,2.4,3.2
			c4.2,3.4,12.8,3.9,25.6,1.6l0.7,2.9c-0.2,0.1-0.6,0.2-0.7,0.4c-0.2,1.1,1.7,3.7,4.1,6.1c0.7,0.6,1.4,1.2,1.9,1.7l-2.1,2.1
			c-0.4-0.4-1.1-1-1.8-1.7c-6.3-4.8-21.4-8.6-28.9-4.4c-4.1,2.3-5.1,6.7-3,13.1c1.6,5,4.3,8,8.2,9c10.2,2.8,26.7-8.7,34.8-15.9
			c3.4-3,2.2-6.8,0.5-10.9c-0.9-2.2-1.7-4-0.7-5.3l0.1-0.2c1-1,1.4-2.2,1.3-3.6c-0.7-6.6-12.8-16-17.5-19.1l-0.4-0.3l-0.2-0.4
			c-2.9-7-10.4-11.5-20.7-12.3c-13.2-1-26.9,4.4-31.7,12.5c-2.9,4.8-6.4,7.5-10.6,7.8c-7.8,0.6-14.6-7.3-14.9-7.6l2.3-1.9
			c0.1,0.1,6.1,7.1,12.3,6.6c3.1-0.3,5.9-2.4,8.2-6.3c4.7-7.9,18-15.2,34.5-14c11.3,0.9,19.7,5.8,23.1,13.7
			c2.7,1.8,17.6,12.3,18.4,21c0.2,2.2-0.4,4.1-1.9,5.8c0.1,0.5,0.5,1.6,0.9,2.5c1.5,3.6,4.1,9.6-1.2,14.4
			C378.3,192.4,360.7,207.6,347,207.6z M358.4,179c1.6,0.5,3.2,1,4.6,1.6c-0.3-0.7-0.5-1.5-0.5-2.2
			C361.2,178.6,359.8,178.8,358.4,179z"/>
		<path style="fill:#B2DFDB;" d="M398.9,179.9l-2.8-1.1c3.1-8.1-11.3-35.7-17.1-45.6l2.6-1.5C383.7,135.4,403,168.9,398.9,179.9z"/>
		<path style="fill:#B2DFDB;" d="M389.5,153.6c-2.6-7-0.8-14.6,5.3-22c4.5-5.4,9.6-8.8,9.9-8.9l1.6,2.5c-0.2,0.1-19.4,12.8-14,27.4
			L389.5,153.6z"/>
		<path style="fill:#B2DFDB;" d="M445.8,222.5l-2.4-1.8c0.1-0.2,13.7-18.2,5.2-37.1c-8.4-18.7-30.2-14.2-30.4-14.1l-3.3,0.7l1.7-2.9
			c5.4-9.5-4.8-27.8-4.9-27.9l2.6-1.5c0.4,0.8,9.6,17.2,6,28.3c6.6-0.6,23.5-0.4,31,16.2C460.6,202.9,446.4,221.7,445.8,222.5z"/>
		<path style="fill:#B2DFDB;" d="M278.5,306.6c-4-34.5,8.2-50.8,18.1-63.9c4.8-6.4,9-12,9.9-18.4c1.8-12.5,14.2-17.1,14.8-17.2
			l1,2.8l-0.5-1.4l0.5,1.4c-0.1,0-11.2,4.2-12.8,14.9c-1.1,7.1-5.4,13-10.5,19.7c-9.5,12.6-21.4,28.4-17.5,61.7L278.5,306.6z"/>
		<path style="fill:#B2DFDB;" d="M269,334.8c-1.3,0-2.1-0.1-2.2-0.1l0.4-3c0.1,0,7.6,0.9,13.1-3.5c3.4-2.7,5.4-6.8,6-12.2
			c1-8.7,6.9-14.7,16.3-16.3c7.7-1.4,16,0.5,17.7,4c0.1,0.2,10.2,19.7,20.6,19.7c0.1,0,0.2,0,0.3,0c4.8-0.2,9.1-4.8,12.8-13.6
			l2.8,1.2c-4.2,10-9.4,15.2-15.5,15.5c-0.1,0-0.3,0-0.4,0c-12.2,0-22.9-20.4-23.3-21.3c-0.8-1.6-7.3-3.6-14.5-2.3
			c-4.7,0.8-12.8,3.7-13.9,13.7c-0.7,6.3-3.1,11-7.1,14.2C277.6,334.3,272,334.8,269,334.8z"/>
		<path style="fill:#B2DFDB;" d="M344.4,299.3c-5-1.9-13.2-9.2-8.9-23.3c5.4-17.7,21.7-13.6,27.8-12.1l0.1,0
			c0.7,0.2,1.6,0.3,2.7,0.5c7,0.9,18.8,2.5,33.2,28.1l-2.6,1.5c-13.7-24.3-24.5-25.7-31-26.6c-1.1-0.2-2.1-0.3-3-0.5l-0.1,0
			c-9.7-2.5-20.1-3.2-24.2,10c-4.6,15,6.7,19.5,7.1,19.7L344.4,299.3z"/>
		
			<rect x="380.4" y="260.3" transform="matrix(0.4947 0.869 -0.869 0.4947 424.288 -197.3634)" style="fill:#B2DFDB;" width="3" height="11.8"/>
		<path style="fill:#B2DFDB;" d="M385.1,343.5c-1.4-0.9-35.3-22.1-31.1-39.9c2-8.4,7.8-11.6,12.3-12.7c7.8-2,17.3,0.5,20.7,4.1
			l-2.2,2c-2.3-2.5-10.5-5.1-17.7-3.2c-5.4,1.4-8.8,5-10.1,10.5c-3.7,15.8,29.4,36.5,29.7,36.7L385.1,343.5z"/>
		<path style="fill:#B2DFDB;" d="M363.8,294.6l-2.8-1.1c3.9-10-3.4-13.9-3.7-14l1.4-2.7C358.7,276.9,368.6,282.1,363.8,294.6z"/>
		<path style="fill:#B2DFDB;" d="M450.2,271.6c-7.7-13-4.8-22.5-2.8-29.5c1.1-3.9,2.1-7,1.1-9.6l2.8-1c1.2,3.6,0.2,7.2-1.1,11.5
			c-2,6.8-4.5,15.3,2.5,27.1L450.2,271.6z"/>
		<path style="fill:#B2DFDB;" d="M375.3,394.7c-1.7,0-3.3-0.3-4.7-1c-2.5-1.2-4.2-3.4-5.2-6.7c-5.2-17.4-22.2-25.3-22.4-25.4
			l1.2-2.7c0.8,0.3,18.5,8.5,24.1,27.3c0.7,2.5,1.9,4.1,3.6,4.9c4.6,2.2,13-1.3,22.8-5.3c9.5-3.9,20.2-8.4,30.7-9l0.2,3
			c-10,0.5-20.5,4.9-29.7,8.7C387.9,391.7,380.8,394.7,375.3,394.7z"/>
		<path style="fill:#B2DFDB;" d="M402.6,385.7l-0.9-2.9l0.4,1.4l-0.4-1.4c0.2-0.1,18.9-6.6,22.3-55.4l3,0.2
			C423.4,378.8,403.4,385.4,402.6,385.7z"/>
		<path style="fill:#B2DFDB;" d="M424,343.7l-0.4-3c0.8-0.1,20.4-3.6,21.5-40l3,0.1C446.9,340,425,343.6,424,343.7z"/>
		<path style="fill:#B2DFDB;" d="M475.8,328.9c-0.7,0-1.4-0.1-2-0.2c-8-1.4-12.5-10.6-12.7-11l2.7-1.3c0,0.1,4.1,8.2,10.5,9.3
			c3.5,0.6,7.2-0.9,10.9-4.6l2.1,2.2C483.5,327,479.6,328.9,475.8,328.9z"/>
		<path style="fill:#B2DFDB;" d="M439.4,404.9l-1.2-2.7c14.4-6.4,23.2-16.3,26-29.4c2.1-9.7,0-17.6,0-17.7l2.9-0.8
			C467.1,354.7,476.1,388.6,439.4,404.9z"/>
		<path style="fill:#B2DFDB;" d="M288.5,472.9l-1.4-2.7c1.5-0.8,36.3-18.8,50-16.5c11.4,2,25.9-13.3,28.2-15.8
			c0.6-6.5,2.8-25,8.9-26.3l0.6,2.9c-2.8,0.6-5.6,13-6.6,24.2l0,0.5l-0.3,0.4c-0.7,0.8-17.3,19.6-31.3,17.2
			C324,454.5,288.9,472.7,288.5,472.9z"/>
		<path style="fill:#B2DFDB;" d="M295,516.3c-4.3,0-7.7-1.3-7.8-1.4l1.1-2.8l-0.6,1.4l0.6-1.4c0.5,0.2,12.6,4.9,18.2-5.8l0.5-1
			l1.1,0.2c0.2,0,19,3.9,29.8-4.6c4.7-3.7,7.2-9.4,7.4-16.8c0.3-11.3,3.4-19.6,9.3-24.8c7-6.2,15.2-5.6,15.5-5.6l-0.3,3
			c-0.1,0-7.3-0.5-13.3,4.9c-5.2,4.7-8,12.3-8.3,22.7c-0.2,8.4-3.1,14.8-8.6,19.1c-10.4,8.2-26.7,6.1-31.1,5.3
			C305.1,514.8,299.5,516.3,295,516.3z"/>
		<path style="fill:#B2DFDB;" d="M375.1,468.8c-0.3-0.2-6.9-4.6-6.5-13c0.5-11,12.7-23,36.1-35.5l1.4,2.6
			c-27.9,14.9-34.2,26.2-34.5,33c-0.3,6.7,4.9,10.3,5.2,10.4L375.1,468.8z"/>
		<path style="fill:#B2DFDB;" d="M402.2,456.8l-0.2-3l0.1,1.5l-0.1-1.5c0.6,0,15-1.3,16.5-23.6l0-0.2l8.4-20.7l1.4,3.3
			c0,0.1,4.5,10.5,11.3,11.2c3.8,0.4,7.9-2.4,12-8.3c7.9-11.2,16-12.6,22-13.5c6.2-1,9.9-1.6,11.1-11.8l3,0.4
			c-1.5,12.4-7.1,13.3-13.6,14.4c-6,1-12.9,2.1-20,12.3c-4.8,6.9-9.8,10.1-14.8,9.6c-5.9-0.6-10.1-6.4-12.2-10l-5.6,13.9
			C419.7,455.4,402.4,456.8,402.2,456.8z"/>
		<path style="fill:#B2DFDB;" d="M387.2,497.6c-14.4,0-29.4-10.8-30.2-11.3l1.8-2.4c0.2,0.1,18.7,13.4,33.1,10.3
			c13.8-3,11.6-22.2,11.5-22.3l-0.3-2.7l2.5,1.1c8.3,3.8,15.2-1,18.6-6.3c2.8-4.3,4-10.3,0.3-13.6c-5.7-5-27,8.6-39,18.4l-1.9-2.3
			c3.4-2.7,33.3-26.5,42.8-18.3c4.4,3.8,4.5,11,0.3,17.5c-4,6.2-11.6,10.9-20.1,8.2c0.1,5.8-0.8,20.4-14,23.2
			C390.8,497.4,389,497.6,387.2,497.6z"/>
		<path style="fill:#B2DFDB;" d="M323.7,566c-3.7,0-8-0.8-13-2.4l0.9-2.9c10.3,3.3,17.6,2.9,21.6-1.1c7.9-8,1.1-28.1,1-28.3
			l-0.1-0.4l0.1-0.4c2.2-11.4-9.5-14.8-21.6-17.2L311,513c-5.8-1.2-11.4,11.7-14,19.5c7-3.2,13-2.9,16.9-1.9c5,1.2,8,3.7,8.1,3.8
			l-1.9,2.3c-0.4-0.4-10.5-8.5-24.8,0.1l-3.2,1.9l1-3.6c0.8-2.8,7.9-27.3,18.6-25.1l1.7,0.3c10,2,26.6,5.4,24.1,20.4
			c1,3,6.7,22.2-1.9,31C332.7,564.6,328.8,566,323.7,566z"/>
		<path style="fill:#B2DFDB;" d="M281.7,559.1c-15.6,0-25-33.7-25.4-35.1l2.9-0.8c2.6,9.3,11.7,33.4,22.9,32.9
			c5.4-0.2,10.2-1,14.9-1.8c8-1.3,15.5-2.5,25.1-0.9l-0.5,3c-9.1-1.5-16.4-0.4-24.1,0.9c-4.7,0.8-9.6,1.6-15.2,1.8
			C282,559.1,281.8,559.1,281.7,559.1z"/>
		<path style="fill:#B2DFDB;" d="M349.9,558.6c-0.6-0.6-13.6-14.2-10.1-27.4c2.2-8.1,10-14.1,23.4-17.8c10.3-2.8,15.3-6.3,20.1-9.6
			c6-4.2,11.7-8.1,26.8-9.2c14.3-1,17,6.9,17.4,10.3c1.3,9.5-7.2,21.3-17,23.4c-3.8,0.8-8,1.1-12,1.3c-13.2,0.8-25.7,1.6-28.7,20.8
			l-3-0.5c3.3-21.7,18.2-22.6,31.4-23.4c4.1-0.3,7.9-0.5,11.5-1.3c7.5-1.6,15.9-11.4,14.7-20.1c-0.8-5.6-5.9-8.3-14.3-7.7
			c-14.2,1-19.3,4.6-25.3,8.7c-4.8,3.3-10.2,7.1-21,10.1c-12.3,3.4-19.4,8.7-21.3,15.7c-3.1,11.6,9.2,24.4,9.3,24.5L349.9,558.6z"/>
		<path style="fill:#B2DFDB;" d="M453.8,487.8c-0.1-3-1-5-2.8-6.2c-4-2.7-11.8-0.7-14.5,0.3l-1.1-2.8c0.5-0.2,11.1-4.1,17.2,0
			c2.6,1.8,4,4.7,4.1,8.6L453.8,487.8z"/>
	</g>
	<g>
		<path style="fill:#B2DFDB;" d="M197.5,85c-0.2,0-19.3-5.2-17.1-21c0.9-6.7,4.3-11.1,8-13.9c-2.8-0.1-5.7-0.8-8.2-2.4
			c-4.5-2.9-6.9-8.4-7.1-16.1c-0.2-6.2,1.8-11,5.8-14.3C187,10.6,201.2,12,207,13c-1.4-5.3,0.3-8.1,1.5-9.3
			c2.6-2.5,7.3-2.7,12.5-0.5c9.1,3.9,24.5,18.2,24.1,46.8l-3,0c0.4-27-13.8-40.4-22.3-44c-4-1.7-7.5-1.7-9.2-0.1
			c-1.6,1.5-1.6,4.6,0,8.5l1.1,2.6l-2.8-0.6c-0.2,0-19.1-4.2-28.1,3.2c-3.3,2.7-4.9,6.7-4.7,11.9c0.2,6.7,2.1,11.3,5.7,13.6
			c4.2,2.8,9.9,2,13.3,1.2c1.9-0.7,3.2-1,3.2-1l14.7-2.7l-13.8,5.5c-0.2,0.1-1.5,0.6-3.5,1.1c-4.1,1.6-10.9,5.7-12.2,15.1
			c-1.8,13.2,14.2,17.5,14.9,17.7L197.5,85z"/>
		<path style="fill:#B2DFDB;" d="M240.3,116.5l-1.7-2.5c0,0,6-4.6,5.7-20.4C244.1,78.2,231.5,76,231,75.9l-9.2-1.5l9.2-1.5
			c0.5-0.1,11.4-2.1,11.4-19.3c0-7.2-4-13.4-11.9-18.3c-6.1-3.8-12.3-5.4-12.3-5.5l0.7-2.9c0.3,0.1,6.6,1.7,13.1,5.8
			c8.8,5.5,13.4,12.7,13.4,20.9c0,12.8-5.7,18.3-9.8,20.6c4.6,2.1,11.6,7.3,11.7,19.3C247.6,111.2,240.6,116.3,240.3,116.5z"/>
		<path style="fill:#B2DFDB;" d="M239.6,210.4L237,209c10.7-20.4,7.4-55.3,7.3-55.6l0-0.1l0-0.1c3.7-41.9-17.1-45.9-18-46.1l0.5-3
			c1,0.2,24.5,4.4,20.5,49.1c0.1,1.2,0.8,9.8,0.4,20.4C247,189.1,244.3,201.5,239.6,210.4z"/>
		<path style="fill:#B2DFDB;" d="M239.3,239.3l-2.5-1.6c4.6-7.1,6.2-13.6,4.7-19.2c-1.9-7.1-8.2-10.5-8.2-10.5l-0.2-0.1l-0.2-0.2
			c-3.5-3.6-7-5.2-10.4-4.7c-7.8,1.2-13.4,12.2-13.5,12.4l-1.6,3.1l-1.2-3.3c-6.2-17-17.9-15.1-18-15l-0.5-3
			c0.1,0,12.9-2.1,20.2,14.1c2.4-3.8,7.4-10.2,14.1-11.2c4.4-0.7,8.8,1.1,12.9,5.4c1.3,0.7,7.5,4.6,9.5,12.3
			C246,224.1,244.3,231.4,239.3,239.3z"/>
		<path style="fill:#B2DFDB;" d="M240.6,356.2c-1.7,0-3.7-0.7-5.9-2.1c-6-3.7-10.4-5.3-14-6.5c-6.4-2.2-9.9-3.4-12.8-14.2
			c-3.9-14.5-10.9-16.9-11.8-16.7c0,0,0.1,0,0.1-0.1l-1.3-2.7c0.9-0.5,2.3-0.3,3.8,0.4c2.4,1.1,8.4,5.1,12,18.3
			c2.5,9.2,5,10.1,10.9,12.1c3.5,1.2,8.3,2.8,14.6,6.8c2.6,1.6,4.6,2,5.8,1.2c4.1-2.9,2.4-18.2,0.4-27.2l0-0.3
			c-0.4-10.9-0.1-21.3,0.2-31.3c0.8-29.9,1.5-53.5-17-69.3l2-2.3c19.6,16.7,18.9,42.2,18,71.7c-0.3,9.9-0.6,20.2-0.2,31
			c0.7,3.1,5.3,25.3-1.6,30.2C242.8,355.9,241.8,356.2,240.6,356.2z"/>
		<path style="fill:#B2DFDB;" d="M203.2,322.3c-0.2-4.1-2.2-8.2-5-9.7c-1.7-1-3.5-1-5.3,0l-1.4-2.7c2.8-1.5,5.6-1.4,8.2,0
			c3.7,2.1,6.3,7,6.5,12.2L203.2,322.3z"/>
		<path style="fill:#B2DFDB;" d="M208.2,398.4c-1.8,0-3.6-0.3-5.2-0.9c-4.3-1.6-9.3-6.1-8.9-18.8c-0.4-1.6-3.7-14.7-15.4-21.5
			c-8.8-5.1-20.3-5.5-34-1.1c-24.5,8-36.6,2.2-42.5-4c-6.8-7.2-7.8-17.9-5.6-26.5c-1.1,0.4-2.4,0.7-3.8,0.4c-2.9-0.5-5.4-3-7.2-7.3
			c-7-16.4-3.6-32.8,10.5-50.2l2.3,1.9C85,287,81.7,302.4,88.3,317.6c1,2.3,2.6,5.1,5,5.5c2.5,0.5,4.9-1.9,4.9-2l5.2-5.5l-2.7,7
			c-3.2,8.2-3.3,19.9,3.7,27.4c5.3,5.6,16.4,10.7,39.4,3.2c14.6-4.7,26.8-4.3,36.5,1.3c13.5,7.9,16.7,23,16.8,23.6l0,0.2l0,0.2
			c-0.3,8.9,2,14.3,6.9,16.1c7.8,2.9,19.5-3.8,22.4-7.4c3.5-4.3,7.7-4.3,10.5-4.2c2.2,0,2.7-0.1,2.9-0.5l0.1-0.7
			c2.2-19,2.4-20.5-22.9-32.2c-3.7-1.8-10.3-7.3-8.5-14.8l2.9,0.7c-1.6,7.2,6.5,11.3,6.9,11.5c26.3,12.2,27,14.8,24.6,35.3l-0.2,1.2
			c-0.9,2.8-3.6,2.7-5.8,2.7c-2.6,0-5.6-0.1-8.1,3.1C225.6,393.1,216.3,398.4,208.2,398.4z"/>
		<path style="fill:#B2DFDB;" d="M226.8,456.8c-6,0-12.9-1.5-19.6-4.5c-10.5-4.6-18.3-11.7-21.6-19.5c-3.5,0-14.5-0.6-21.6-9.7
			c-5.2-6.7-7-16.4-5.4-28.9c-3.9,7.5-9.2,14.9-15.7,18.6c-4.6,2.6-9.4,3.2-14.3,1.7c-5.9-1.7-12.5-2-19.6-2.3
			c-21.3-0.8-45.4-1.8-52.4-45.7c-2.3-2.9-18-24.1-17.1-43c1-19.1-2.9-29.6-2.9-29.7l2.8-1.1c0.2,0.4,4.1,11.2,3.1,30.9
			c-1,18.9,16.5,41.1,16.7,41.3l0.2,0.3l0.1,0.4c6.6,41.9,28.5,42.7,49.6,43.6c7.2,0.3,14.1,0.6,20.3,2.4c4.2,1.2,8.1,0.7,12-1.5
			c9.9-5.6,16.8-21.1,20.4-31c0.8-2.8,1.7-5.8,2.8-8.8l2.9,0.9c-0.1,0.4-1.1,4.2-2.9,9.3c-5.2,18.7-4.6,32.3,1.9,40.7
			c7.4,9.5,20,8.5,20.1,8.5l1.1-0.1l0.4,1.1c5.2,14,30.5,27.7,47.1,21.8c2.5-0.9,4.3-2.6,5.5-5.1c4.2-9.3-2.3-26.1-2.4-26.3
			l-0.2-0.6l0.3-0.6c10.4-19.9,0.5-34,0.1-34.6l2.4-1.8c0.5,0.6,11.2,15.9,0.4,37.1c1.2,3.4,6.4,18.6,2.1,28
			c-1.5,3.2-3.9,5.5-7.2,6.7C233.3,456.3,230.2,456.8,226.8,456.8z"/>
		<path style="fill:#B2DFDB;" d="M173.7,411.5l-1.6-2.5c14.5-9,22.7-23,22.8-23.1l2.6,1.5C197.1,387.9,188.8,402.1,173.7,411.5z"/>
		<path style="fill:#B2DFDB;" d="M231,508.5c-13.5,0-28-18.9-28.6-19.7l-0.1-0.2c-0.3-0.6-8.1-15-23.7-12.2l-0.5-3
			c17-3,26,12.1,26.9,13.7c1.1,1.4,15,19,26.7,18.4c3.8-0.2,6.9-2.3,9.5-6.4c12.7-20.2-6.4-44-6.6-44.3l2.3-1.9
			c0.2,0.3,20.6,25.8,6.8,47.7c-3.1,5-7.1,7.6-11.9,7.8C231.4,508.5,231.2,508.5,231,508.5z"/>
		<path style="fill:#B2DFDB;" d="M213.5,581.1c-13.2,0-27-4-29.1-4.7c-3.7,0.1-18.4,0.1-22.3-5.1c-3.6-0.5-18.9-3.5-36.9-18.8
			c-7.4-6.3-15.3-9.8-22.9-13.1C89.8,534,78.1,528.9,70.4,512c-3.1-1.5-18-9.6-27.2-30.9c-3.4-6.2-7.3-10.2-11.2-14
			c-7.4-7.4-13.8-13.8-12.8-33.1l3,0.2c-0.9,17.9,4.7,23.6,11.9,30.8c3.8,3.8,8.1,8.1,11.7,14.8l0.1,0.1c5,11.6,11.9,19,16.8,23.2
			c5.3,4.6,9.4,6.4,9.5,6.4l0.5,0.2l0.2,0.5c7.2,16.2,18,20.9,30.5,26.4c7.8,3.4,15.8,6.9,23.6,13.6c19.3,16.4,35.8,18.1,36,18.1
			l0.8,0.1l0.4,0.7c1.6,3.2,12.8,4.4,20.3,4.2l0.2,0l0.2,0.1c0.4,0.1,37.7,11.5,48.4-2l0.2-0.2c26.3-23.9,4-66,3.8-66.4l2.6-1.4
			c0.2,0.4,23.6,44.5-4.3,70C230.9,579.3,222.3,581.1,213.5,581.1z"/>
		<path style="fill:#B2DFDB;" d="M76.3,461.4c-0.5-0.1-13.3-2.8-21-16.7c-1.3-2.3-3.1-3.6-5.5-4.2c-9.2-2.2-23.6,7.6-23.8,7.7
			l-1.7-2.5c0.6-0.4,15.7-10.7,26.2-8.2c3.3,0.8,5.8,2.7,7.5,5.7c7,12.7,18.9,15.2,19,15.3L76.3,461.4z"/>
		<path style="fill:#B2DFDB;" d="M37.5,441.8c-2.7,0-11.6-0.6-19.7-8.3C8,424.3,3.2,408.6,3.5,387C2,384.3-5.2,370,7,347.4l2.6,1.4
			c-6.5,12-7,21.3-6.3,27.1c0.7,6.2,3,9.7,3,9.8l0.3,0.4l0,0.5c-0.4,21,4.1,36,13.2,44.7c8.5,8.1,18.2,7.5,18.3,7.5l0.2,3
			C38.2,441.8,37.9,441.8,37.5,441.8z"/>
		<path style="fill:#B2DFDB;" d="M48.3,394.6c-1.9-2-4.6-4.6-7.7-7.6c-14.8-14.3-37.1-35.9-36.5-49.9c0.2-4.5-0.6-8.9-1.4-13.5
			c-2.1-11.5-4.2-23.4,9.3-38.6l2.2,2c-12.6,14.2-10.6,24.8-8.6,36.1c0.8,4.6,1.7,9.3,1.5,14.1c-0.5,12.7,22.1,34.5,35.6,47.6
			c3.1,3,5.8,5.7,7.8,7.7L48.3,394.6z"/>
		<path style="fill:#B2DFDB;" d="M21,311.2c-9.1-13.4-11.7-24.9-7.6-34.2c4.4-10.1,15.8-15.2,24.3-16.6c8.6-1.4,14,6.9,18.8,14.2
			c3,4.6,5.9,9,9.2,11c9.6,5.5,18.7,20.2,19.1,20.8l-2.6,1.6c-0.1-0.1-9.2-14.7-18-19.8c-4-2.3-7-7-10.2-11.9
			c-4.7-7.2-9.1-13.9-15.8-12.9c-7.7,1.2-18.1,5.8-22,14.8c-3.6,8.3-1.1,18.8,7.4,31.3L21,311.2z"/>
		<path style="fill:#B2DFDB;" d="M13.3,279c-0.4-0.5-9.4-13.5,5.1-34c0.3-2.8,2.6-18.6,13.9-25.5c7.1-4.3,16.3-4.1,27.1,0.6
			c0.3,0.1,17.8,9.3,17,24.6c4.8-4.5,14.1-9.9,26.5-2.8c18.3,10.4,16.2,33.2,16.1,34.1l-3-0.3c0-0.2,2-21.8-14.6-31.2
			c-16.2-9.2-25.9,5.5-26.3,6.2l-6.7,10.4l4-11.7c5.5-16.2-14.1-26.4-14.3-26.5c-9.9-4.2-18.1-4.5-24.3-0.8
			c-10.9,6.5-12.5,23.4-12.6,23.6l0,0.4l-0.2,0.3c-13.5,18.8-5.7,30.3-5.3,30.8L13.3,279z"/>
		<path style="fill:#B2DFDB;" d="M27.1,224.9c-0.2-0.9-4.3-21.4,11.4-40.6c0.6-3.5,5.9-27.2,30.3-34.5l0.9,2.9
			c-24.4,7.3-28.2,32.2-28.3,32.4l-0.1,0.4l-0.3,0.3c-15,18.2-11.1,38.2-11,38.4L27.1,224.9z"/>
		<path style="fill:#B2DFDB;" d="M58.1,155.8c-0.2-0.9-4.7-22.2,18.3-47.4c0.8-2.6,6-18.7,17.6-32.8c3.8-4.6,5.5-8.9,7-12.7
			c3.7-9.3,6.7-14.5,26.4-15.2l0.1,3c-18.7,0.6-20.6,5.4-23.8,13.3c-1.6,4-3.4,8.5-7.5,13.5c-12,14.6-17.1,31.9-17.1,32l-0.1,0.3
			l-0.2,0.3c-22.1,24.1-17.9,44.8-17.8,45L58.1,155.8z"/>
		<path style="fill:#B2DFDB;" d="M114.1,51.8l-3-0.5c0.1-0.5,2.7-13.5,22.6-15.6l0.3,3C116.4,40.6,114.1,51.7,114.1,51.8z"/>
		<path style="fill:#B2DFDB;" d="M124.6,40.7l-2.6-1.4c0.4-0.7,10.1-17.9,39.3-16.9l-0.1,3C133.8,24.5,124.7,40.5,124.6,40.7z"/>
		<path style="fill:#B2DFDB;" d="M143.4,27.2l-2.4-1.8c0.3-0.3,6.3-8.3,17.1-10.9c1.8-1.9,10.2-9.7,24.2-7.9c1-1.1,3.2-3.1,6.7-4.7
			c4.4-1.9,11.9-3.4,22.2,0.6l-1.1,2.8c-17.9-6.8-26,3.7-26.1,3.8l-0.5,0.7l-0.9-0.1c-14.4-2.2-22.6,7.1-22.6,7.2l-0.3,0.4l-0.5,0.1
			C149.2,19.6,143.5,27.1,143.4,27.2z"/>
		<path style="fill:#B2DFDB;" d="M218.6,69.5l-1.6-2.5c0,0,2.8-1.9,5.2-5.1c3.1-4.2,4.1-8.7,2.9-13.3c-2-9-9.2-12-16.7-15.1
			c-5.2-2.1-10.6-4.4-14-8.7l2.3-1.9c3,3.7,7.8,5.7,12.8,7.8c7.6,3.1,16.1,6.7,18.5,17.2C231.2,61.1,218.7,69.4,218.6,69.5z"/>
		<path style="fill:#B2DFDB;" d="M145.1,142.9h-3c0-21.4,22-36.8,42.3-38.8c10.3-1,12.8-5.1,15.3-9.1c2.2-3.5,4.5-7.2,11.6-7.2
			c3.6,0,6.1-0.9,7.4-2.8c2.2-3,0.6-7.9,0.6-7.9l-0.1-0.3l0-0.3c1.4-11.2-21.2-16.6-21.4-16.7l0.7-2.9c1,0.2,25.1,6,23.8,19.6
			c0.4,1.4,1.6,6.5-1.1,10.3c-1.9,2.7-5.2,4-9.9,4c-5.5,0-7,2.4-9.1,5.8c-2.6,4.2-5.8,9.4-17.6,10.6
			C165.6,108.9,145.1,123.2,145.1,142.9z"/>
		<path style="fill:#B2DFDB;" d="M180.5,66.4c-0.2-0.2-3.9-5.2-14.1-3.7l-0.4-3c12.1-1.8,16.8,4.6,17,4.9L180.5,66.4z"/>
		<path style="fill:#B2DFDB;" d="M135.1,134.4c0-0.3-2.5-34.2,26-36.9c25.6-2.5,26.8-17.3,26.9-17.9l3,0.2c0,0.7-1.3,18-29.6,20.7
			c-10.7,1-17.9,7-21.3,17.6c-2.6,8.1-2,16-2,16.1L135.1,134.4z"/>
		<path style="fill:#B2DFDB;" d="M141.5,85.2l-2.4-2.6c-0.3-0.3-6.9-7.1-17.9,2.1l-1.9-2.3c9.7-8.2,17-5.4,20.2-3.3
			c3.7-6,19.8-8.3,23.3-8.7l0.4,3c-14.6,1.8-21.3,5.9-21.4,8.3L141.5,85.2z"/>
		<path style="fill:#B2DFDB;" d="M87.1,107.7l-3-0.3c0.4-3.4,1.8-6.1,4.4-8c4.3-3.2,10.7-3.1,14.5-2.8c-2.5-4.9-3-9.6-1.4-13.8
			c3.8-9.9,17.5-13.9,18.1-14l0.3,0c0.2,0,18.4-1.8,27.8-17.9c10.4-17.7,27.4-15.1,27.5-15.1l-0.5,3c-0.6-0.1-15.1-2.2-24.5,13.6
			c-9.9,16.8-28,19.2-30,19.4c-1.3,0.4-12.9,4.1-16,12.2c-1.6,4.1-0.7,8.7,2.6,13.9l1.9,3l-3.5-0.7c-0.1,0-10-2-15.3,1.8
			C88.4,103.2,87.4,105.1,87.1,107.7z"/>
		<path style="fill:#B2DFDB;" d="M119.7,71.6c-1-0.4-9.8-3.6-8.6-8.8l2.9,0.7c-0.4,1.9,4.1,4.4,6.6,5.2L119.7,71.6z"/>
		<path style="fill:#B2DFDB;" d="M85,148.8c-0.5-0.7-12.9-16.6-10.9-29.7c0.7-4.6,3.2-8.4,7.2-11.1l0.1-0.1
			c17.2-9.3,25.5-0.2,30.9,5.9c3.2,3.5,5.1,5.5,7.3,4.7c10-3.7,17.9,8.1,18.2,8.6l-2.5,1.6c-0.1-0.1-6.9-10.3-14.7-7.4
			c-4.2,1.6-7.3-1.9-10.6-5.5c-5.4-6-12.1-13.4-27.2-5.3c-3.4,2.3-5.3,5.2-5.9,9.1c-1.9,11.9,10.1,27.2,10.3,27.4L85,148.8z"/>
		<path style="fill:#B2DFDB;" d="M126.6,121c-0.5,0-1,0-1.6-0.1l0.2-3c9.1,0.7,13.9-5.7,14-5.8l2.4,1.8
			C141.4,114.2,136.3,121,126.6,121z"/>
		<path style="fill:#B2DFDB;" d="M117.9,103c-3.3,0-7.5-0.7-12.6-3.1l1.3-2.7c11.5,5.3,17.8,1.5,17.9,1.4l1.6,2.5
			C125.8,101.3,123,103,117.9,103z"/>
		<path style="fill:#B2DFDB;" d="M210.9,121.6c-0.6-1.4-7.7-6.4-13.8-10.2l-0.7-0.4v-11h3v9.3c14.8,9.4,14.5,11.4,14.4,12.3l-3-0.4
			C210.8,121.5,210.9,121.6,210.9,121.6z"/>
		<path style="fill:#B2DFDB;" d="M196.8,111.2c0,0-4.7-4.2-15-3.8l-0.1-3c11.7-0.5,17,4.4,17.2,4.6L196.8,111.2l1-1.1L196.8,111.2z"
			/>
		<path style="fill:#B2DFDB;" d="M167.8,232.3c-7.7-30.9,2.6-46.1,12.6-53.4c9.6-7,21.4-8.3,23.6-6.9c10.7,7,24.5-2.6,24.7-2.7
			l1.7,2.4c-0.2,0.1-3.9,2.8-9.2,4.5c-7.1,2.3-13.6,1.7-18.7-1.6c-1.6-0.4-13.8,0.4-23.3,9.2c-10.8,10-13.8,26.5-8.5,47.8
			L167.8,232.3z"/>
		<path style="fill:#B2DFDB;" d="M168.4,275.3l-2.2-2c0.1-0.1,12.5-13.8,5.7-27c-2-4-3-8.6-4-13.6c-2.8-13.5-5.4-26.2-28.9-24.8
			l-0.2,0l-0.2,0c0,0-1-0.2-1.6,0.5c-0.5,0.6-1.5,2.6,0.6,9.1c0.4,0.9,0.7,2.9-8.7,14.1l-1.9,2.2l-0.7-2.8
			c-0.3-1-6.9-25.2-35.2-21.6c-8.3,0.7-14-7-14.2-7.3l2.4-1.8c0,0.1,5,6.7,11.5,6.1c25.1-3.2,34.7,14.3,37.5,21.2
			c3.1-3.9,6.1-8,6.5-9.2c-1.9-6-1.9-9.9,0-12.1c1.3-1.5,3.2-1.6,4.2-1.4c25.9-1.4,29.1,13.8,31.8,27.2c1,4.7,1.9,9.2,3.7,12.8
			C182.3,260,168.9,274.6,168.4,275.3z"/>
		<path style="fill:#B2DFDB;" d="M133.8,209.1c-6.9-15.5-16.3-25-28.1-28.3c-18.7-5.3-37.1,7.2-37.3,7.3l-1.7-2.5
			c0.8-0.6,19.8-13.4,39.8-7.8c12.6,3.6,22.7,13.6,30,30L133.8,209.1z"/>
		<path style="fill:#B2DFDB;" d="M156.5,207.6c-13.7,0-31.3-15.2-33.4-17.1c-5.3-4.7-2.7-10.7-1.2-14.4c0.4-0.8,0.8-2,0.9-2.5
			c-1.5-1.6-2.1-3.6-1.9-5.8c0.9-8.7,15.8-19.2,18.4-21c3.4-7.9,11.8-12.9,23.1-13.7c16.5-1.2,29.8,6.1,34.5,14
			c2.3,4,5.1,6.1,8.2,6.3c6.3,0.5,12.3-6.5,12.3-6.6l2.3,1.9c-0.3,0.3-7.1,8.2-14.9,7.6c-4.1-0.3-7.7-3-10.6-7.8
			c-4.8-8.1-18.4-13.5-31.7-12.5c-10.3,0.8-17.9,5.3-20.7,12.3l-0.2,0.4l-0.4,0.3c-4.6,3.1-16.8,12.5-17.5,19.1
			c-0.1,1.4,0.3,2.6,1.3,3.6l0.1,0.2c1,1.4,0.3,3.1-0.7,5.3c-1.8,4.2-3,7.9,0.5,10.9c8.1,7.2,24.6,18.7,34.8,15.9c3.9-1,6.5-4,8.2-9
			c2.1-6.4,1-10.8-3-13.1c-7.5-4.2-22.6-0.4-28.9,4.4c-0.8,0.7-1.4,1.3-1.8,1.7l-2.1-2.1c0.5-0.6,1.1-1.2,1.9-1.7
			c2.3-2.3,4.3-5,4.1-6.1c0-0.2-0.4-0.4-0.7-0.4l0.7-2.9c12.7,2.3,21.3,1.7,25.6-1.6c1.1-0.9,1.9-1.9,2.4-3.2
			c0.1-1.3,0.3-2.4,0.7-3.2l3.4-9l-0.5,9.6c-0.1,1.1-0.2,2.1-0.5,3.1c-0.1,3.1,1.1,8.1,8.8,11.6l-1.3,2.7c-6.1-2.8-8.9-6.7-10-10.3
			c-0.3,0.3-0.7,0.6-1.1,0.9c-1.1,0.9-2.4,1.6-3.9,2.1c1.8,0.4,3.4,0.9,4.8,1.7c3.8,2.1,7.6,6.7,4.4,16.6c-1.9,6-5.4,9.7-10.2,11
			C159.3,207.5,157.9,207.6,156.5,207.6z M141,178.5c0,0.7-0.2,1.4-0.5,2.2c1.5-0.6,3-1.2,4.6-1.6
			C143.7,178.8,142.3,178.6,141,178.5z"/>
		<path style="fill:#B2DFDB;" d="M104.6,179.9c-1.8-4.8,0.6-14.4,7.1-28.6c4.8-10.4,10.1-19.5,10.2-19.6l2.6,1.5
			c-5.8,9.9-20.2,37.5-17.1,45.6L104.6,179.9z"/>
		<path style="fill:#B2DFDB;" d="M114,153.6l-2.8-1.1c5.5-14.6-13.8-27.2-14-27.4l1.6-2.5c0.2,0.1,5.4,3.5,9.9,8.9
			C114.8,138.9,116.7,146.6,114,153.6z"/>
		<path style="fill:#B2DFDB;" d="M57.7,222.5c-0.6-0.8-14.8-19.6-5.5-40.2c7.5-16.6,24.4-16.9,31-16.2c-3.6-11.1,5.6-27.6,6-28.3
			l2.6,1.5c-0.1,0.2-10.3,18.5-4.9,27.9l1.7,2.9l-3.3-0.7c-0.1,0-5.6-1.2-12.2,0c-8.6,1.6-14.7,6.3-18.2,14.1
			c-8.5,18.9,5,37,5.2,37.1L57.7,222.5z"/>
		<path style="fill:#B2DFDB;" d="M225,306.6l-3-0.3c3.9-33.3-8-49.1-17.5-61.7c-5.1-6.7-9.5-12.6-10.5-19.7
			c-1.6-10.7-12.7-14.8-12.8-14.9l1-2.8c0.5,0.2,12.9,4.8,14.8,17.2c0.9,6.4,5.1,11.9,9.9,18.4C216.8,255.8,229.1,272,225,306.6z"/>
		<path style="fill:#B2DFDB;" d="M234.5,334.8c-3,0-8.6-0.6-13.2-4.2c-4-3.2-6.4-8-7.1-14.2c-1.1-10-9.2-12.9-13.9-13.7
			c-7.2-1.3-13.7,0.8-14.5,2.3c-0.5,0.9-11.3,21.8-23.7,21.3c-6.1-0.2-11.3-5.4-15.5-15.5l2.8-1.2c3.7,8.9,8,13.4,12.8,13.6
			c5.3,0.2,10.7-5.1,14.3-9.5c4-5,6.6-10.1,6.7-10.2c1.7-3.4,10-5.3,17.7-3.9c9.4,1.7,15.4,7.6,16.3,16.3c0.6,5.4,2.6,9.5,6,12.2
			c5.6,4.4,13,3.5,13.1,3.5l0.4,3C236.5,334.7,235.7,334.8,234.5,334.8z"/>
		<path style="fill:#B2DFDB;" d="M159.1,299.3l-1.1-2.8l0.5,1.4l-0.5-1.4c0.5-0.2,11.7-4.8,7.1-19.7c-4-13.2-14.5-12.5-24.2-10
			l-0.1,0c-0.9,0.2-1.9,0.4-3,0.5c-6.5,0.9-17.3,2.3-31,26.6l-2.6-1.5c14.4-25.6,26.2-27.2,33.2-28.1c1-0.1,1.9-0.3,2.7-0.5l0.1,0
			c6.1-1.6,22.4-5.7,27.8,12.1C172.3,290.1,164.1,297.4,159.1,299.3z"/>
		
			<rect x="115.7" y="264.7" transform="matrix(0.8689 0.4949 -0.4949 0.8689 147.6927 -25.3033)" style="fill:#B2DFDB;" width="11.8" height="3"/>
		<path style="fill:#B2DFDB;" d="M118.4,343.5l-1.6-2.5c0.3-0.2,33.4-21,29.7-36.7c-1.3-5.6-4.7-9.1-10.1-10.5
			c-7.1-1.9-15.4,0.7-17.7,3.2l-2.2-2c3.3-3.6,12.9-6.1,20.7-4.1c4.5,1.2,10.3,4.4,12.3,12.7C153.7,321.4,119.9,342.6,118.4,343.5z"
			/>
		<path style="fill:#B2DFDB;" d="M139.7,294.6c-4.8-12.5,5-17.7,5.1-17.8l1.4,2.7c-0.3,0.2-7.6,4.1-3.7,14L139.7,294.6z"/>
		<path style="fill:#B2DFDB;" d="M53.3,271.6l-2.6-1.5c7-11.8,4.5-20.3,2.5-27.1c-1.2-4.2-2.3-7.9-1.1-11.5l2.8,1
			c-0.9,2.7,0,5.8,1.1,9.6C58.2,249,61,258.6,53.3,271.6z"/>
		<path style="fill:#B2DFDB;" d="M128.2,394.7c-5.5,0-12.6-2.9-20.5-6.2c-9.2-3.8-19.7-8.2-29.7-8.7l0.2-3c10.5,0.5,21.2,5,30.7,9
			c9.7,4.1,18.1,7.5,22.8,5.3c1.7-0.8,2.9-2.4,3.6-4.9c5.6-18.8,23.3-27,24.1-27.3l1.2,2.7c-0.2,0.1-17.3,8-22.4,25.4
			c-1,3.3-2.7,5.6-5.2,6.7C131.5,394.4,129.9,394.7,128.2,394.7z"/>
		<path style="fill:#B2DFDB;" d="M100.9,385.7c-0.8-0.3-20.8-6.9-24.4-58l3-0.2c3.4,49.1,22.1,55.3,22.2,55.4L100.9,385.7z"/>
		<path style="fill:#B2DFDB;" d="M79.5,343.7c-0.9-0.1-22.9-3.8-24.1-42.8l3-0.1c1.1,36.4,20.7,39.8,21.5,40L79.5,343.7z"/>
		<path style="fill:#B2DFDB;" d="M27.7,328.9c-3.8,0-7.7-1.9-11.5-5.6l2.1-2.2c3.8,3.7,7.5,5.2,10.9,4.6c6.4-1.1,10.5-9.3,10.5-9.3
			l2.7,1.3c-0.2,0.4-4.7,9.6-12.7,11C29.1,328.9,28.4,328.9,27.7,328.9z"/>
		<path style="fill:#B2DFDB;" d="M64.1,404.9c-36.6-16.3-27.7-50.3-27.6-50.6l2.9,0.8c-0.4,1.3-8.3,31.8,25.9,47.1L64.1,404.9z"/>
		<path style="fill:#B2DFDB;" d="M215,472.9c-0.4-0.2-35.4-18.4-48.1-16.2c-14,2.4-30.6-16.4-31.3-17.2l-0.3-0.4l0-0.5
			c-0.9-11.2-3.8-23.6-6.6-24.2l0.6-2.9c6.1,1.3,8.3,19.9,8.9,26.3c2.3,2.5,16.8,17.8,28.2,15.8c13.7-2.4,48.6,15.7,50,16.5
			L215,472.9z"/>
		<path style="fill:#B2DFDB;" d="M208.5,516.3c-4.5,0-10.1-1.5-13.7-7.6c-4.4,0.8-20.7,2.8-31.1-5.3c-5.5-4.3-8.4-10.7-8.6-19.1
			c-0.3-10.4-3.1-18-8.3-22.7c-6-5.4-13.2-4.8-13.3-4.8l-0.3-3c0.3,0,8.6-0.6,15.5,5.6c5.9,5.2,9,13.6,9.3,24.8
			c0.2,7.4,2.7,13.1,7.4,16.8c10.7,8.5,29.6,4.6,29.7,4.6l1.1-0.2l0.5,1c5.6,10.8,17.7,6,18.2,5.8l1.1,2.8
			C216.2,515,212.8,516.3,208.5,516.3z"/>
		<path style="fill:#B2DFDB;" d="M128.4,468.8l-1.6-2.5l0.8,1.3l-0.8-1.2c0.2-0.2,5.5-3.7,5.2-10.4c-0.3-6.8-6.6-18-34.5-33l1.4-2.6
			c23.5,12.6,35.6,24.5,36.1,35.5C135.3,464.2,128.7,468.6,128.4,468.8z"/>
		<path style="fill:#B2DFDB;" d="M101.3,456.8c-0.2,0-17.5-1.4-19.3-26.2l-5.6-13.9c-2.1,3.7-6.3,9.4-12.2,10
			c-5,0.5-10-2.7-14.8-9.6c-7.1-10.2-14-11.3-20-12.3c-6.5-1.1-12.1-2-13.6-14.4l3-0.4c1.2,10.2,5,10.8,11.1,11.8
			c6,1,14.1,2.3,22,13.5c4.1,5.9,8.2,8.7,12,8.3c6.8-0.7,11.3-11.1,11.3-11.2l1.4-3.3l8.4,20.7l0,0.2c1.5,22.4,16.3,23.6,16.5,23.6
			L101.3,456.8z"/>
		<path style="fill:#B2DFDB;" d="M116.3,497.6c-1.8,0-3.6-0.2-5.4-0.6c-13.2-2.9-14.2-17.4-14-23.2c-8.5,2.6-16.1-2-20.1-8.2
			c-4.2-6.5-4.1-13.7,0.3-17.5c9.5-8.2,39.5,15.6,42.8,18.3l-1.9,2.3c-12-9.7-33.3-23.3-39-18.4c-3.7,3.2-2.5,9.3,0.3,13.6
			c3.4,5.3,10.3,10.1,18.6,6.3l2.4-1.1l-0.3,2.7c0,0-0.6,5,0.6,10.3c1.5,6.7,5.2,10.8,10.9,12c14.5,3.2,32.9-10.1,33.1-10.3l1.8,2.4
			C145.7,486.8,130.7,497.6,116.3,497.6z"/>
		<path style="fill:#B2DFDB;" d="M179.7,566c-5,0-8.9-1.4-11.7-4.3c-8.6-8.8-2.9-27.9-1.9-31c-2.6-15,14.1-18.3,24.1-20.4l1.7-0.3
			c10.7-2.2,17.8,22.3,18.6,25.1l1,3.6l-3.2-1.9c-14.4-8.7-24.7-0.2-24.8-0.1l-1.9-2.3c0.1-0.1,3.1-2.6,8.1-3.8
			c4-1,9.9-1.3,16.9,1.9c-2.6-7.8-8.2-20.7-14-19.5l-1.7,0.3c-12.2,2.5-23.8,5.8-21.6,17.2l0.1,0.4l-0.1,0.4
			c-0.1,0.2-6.8,20.2,1,28.3c4,4.1,11.2,4.4,21.6,1.1l0.9,2.9C187.8,565.2,183.5,566,179.7,566z"/>
		<path style="fill:#B2DFDB;" d="M221.8,559.1c-0.2,0-0.3,0-0.5,0c-5.6-0.3-10.5-1-15.2-1.8c-7.7-1.2-15-2.4-24.1-0.9l-0.5-3
			c9.6-1.6,17.1-0.4,25.1,0.9c4.6,0.7,9.4,1.5,14.9,1.8c0.1,0,0.2,0,0.3,0c11,0,20-23.7,22.5-32.9l2.9,0.8
			C246.9,525.4,237.4,559.1,221.8,559.1z"/>
		<path style="fill:#B2DFDB;" d="M153.6,558.6l-2.1-2.1c0.1-0.1,12.4-13,9.3-24.5c-1.9-7-9.1-12.3-21.3-15.7
			c-10.8-3-16.2-6.7-21-10.1c-5.9-4.1-11-7.7-25.3-8.7c-8.4-0.6-13.5,2.1-14.3,7.7c-1.2,8.7,7.2,18.4,14.7,20.1
			c3.6,0.8,7.4,1,11.5,1.3c13.2,0.8,28.1,1.7,31.4,23.4l-3,0.5c-2.9-19.3-15.4-20-28.7-20.8c-4-0.2-8.2-0.5-12-1.3
			c-9.8-2.1-18.4-13.9-17-23.4c0.5-3.4,3.2-11.3,17.4-10.3c15.1,1.1,20.7,5,26.8,9.2c4.8,3.3,9.8,6.8,20.1,9.6
			c13.4,3.7,21.2,9.7,23.4,17.8C167.3,544.5,154.2,558.1,153.6,558.6z"/>
		<path style="fill:#B2DFDB;" d="M49.7,487.8l-3-0.1c0.1-4,1.5-6.9,4.1-8.6c6.1-4.1,16.8-0.2,17.2,0l-1.1,2.8
			c-0.1,0-9.7-3.5-14.5-0.3C50.7,482.8,49.8,484.9,49.7,487.8z"/>
	</g>
	<path style="fill:#B2DFDB;" d="M243.4,44.4c0,0,4.4,1.2,7.5,10.5c0,0,9-16.1,9-10.5c0,0-3.3,25.5,12.3,30c0,0-27.1,6-8.2,40.9
		c0,0-9.6,14.3-6.4,37.9c-2.1,21.3,2.4,52,7.5,56.5c-6.9,8.2-6.2,18.6,0.3,28.7c-8.9,10.4-6.2,35.8-5.9,86.8
		c-5.3,22-2.2,33.3,7.5,28.2c9.6-5.1,20.8-9.5,20.8-9.5v3.1c0,0-29.3,10.9-26.6,24.1c0.8,10.1-0.4,9,1.9,13.2
		c-4.9,7-6.1,28.1,0.9,36.1c-7.8,20.3-1.7,32.4,3.1,33.3c-14.1,19-11.7,40.8-2.2,50.2c-9.2,21.1-7.5,20.8-7.5,20.8s-4.2-6.2-13,1.9
		c0,0,3.3-3.4-5.7-22.6c-1.2-3,21.8-13.6-3.1-50.2c14.4-10,5.2-28.3,4-33.3c0,0,11.2-16.3,0-36.1c4.4-11.2,9.9-24.5-23.8-37.3
		c-0.9-3.7,12.6,1.8,17.5,4.5c7.4,3.2,14.7,8,12.6-13.5c-2.1-20.8-2-34.5-1.4-63.8c1.9-26-6.3-35.8-6.3-35.8
		c12.6-13.2,1-31.6,0.3-28.7c14.3-40.8,7.2-47.9,7.5-56.5c3.8-28.3-6.4-37.9-6.4-37.9s20.4-29.4-8.2-40.9
		C247.6,69.2,243.8,48.7,243.4,44.4z"/>
	<g>
		<polygon style="fill:#B2DFDB;" points="127.6,120.1 139.6,114 136.5,126.7 		"/>
		<polygon style="fill:#B2DFDB;" points="187,105.2 197.9,100 197.9,110.1 		"/>
		<polygon style="fill:#B2DFDB;" points="139.6,176.7 149.1,178 142.2,181.5 137.5,182.6 		"/>
		<polygon style="fill:#B2DFDB;" points="158.8,176.7 167.6,172.2 170,178.1 177.2,183.6 172.2,190 168.9,183.8 164,179.3 		"/>
		<polygon style="fill:#B2DFDB;" points="127.6,193.2 134.1,206.2 148.4,206.2 138.1,199.7 		"/>
		<path style="fill:#B2DFDB;" d="M153.8,206.2c0,0,12.5,0,12.9-5l-0.1,17.3L153.8,206.2z"/>
		<path style="fill:#B2DFDB;" d="M189.8,198.5l34.5,2.7c0,0-12.2,2.6-16.8,13.4C203.9,202.4,194.7,199.1,189.8,198.5z"/>
		<path style="fill:#B2DFDB;" d="M68.3,228.7l29.8,12.6c0,0-12.7-6.9-24.2,8.6C76.6,232.3,68.3,228.7,68.3,228.7z"/>
		<polygon style="fill:#B2DFDB;" points="116.5,263.3 126.7,269.1 117.6,275.9 		"/>
		<path style="fill:#B2DFDB;" d="M98.1,123.9c0,0,14.9,17.6,11.4,36.5l10.7-22.6L98.1,123.9z"/>
		<path style="fill:#B2DFDB;" d="M98.1,323.2c0,0-18.1,55.9,46.2,31.5C144.2,354.7,91.7,374.5,98.1,323.2z"/>
		<path style="fill:#B2DFDB;" d="M170,426.7l-20.9-23.2l10.4-15C159.5,388.6,158,425.5,170,426.7z"/>
		<path style="fill:#B2DFDB;" d="M28,327.6c0,0,12.6,7.6,17.5,17.4c0,0-6.4-12.9-4.5-27C41,317.9,33.6,329.1,28,327.6z"/>
		<path style="fill:#B2DFDB;" d="M49.4,414.6c0,0,9.5,30.1,28.7,2.2c0.9,8.8,1.1,10.7,4,13.7c1,6.5-1,16,7.1,17.4
			c-4.2-8.7-7.1-21.1-7.1-21.1l-5.5-13.6C76.6,413.1,64.8,442.6,49.4,414.6z"/>
		<path style="fill:#B2DFDB;" d="M123.3,507.6l-12-12.1c0,0-26-17.3-36,6c-3.7,9.3-37.8-20.9-10.6-16.6l2.9-4.6
			c0,0-41.5-8.8-2.9,27.2c0,0,13.5,7.6,13.4,3.8C75.3,504.9,83.7,480.5,123.3,507.6z"/>
		<path style="fill:#B2DFDB;" d="M152.6,557.6l12.4-8.7c0,0,2.6-11.5,2.8-18c-4.5-14,23.9-20.5,30.7-18.4c-2.9-5.4-2.9-5.4-2.9-5.4
			s-21.9,3.6-28.9-3.4c-2.1,7.3-9.4,19.9-9.4,19.9C164.6,529.6,162.3,552.2,152.6,557.6z"/>
	</g>
	<g>
		<polygon style="fill:#B2DFDB;" points="376.6,120.1 364.6,114 367.7,126.7 		"/>
		<polygon style="fill:#B2DFDB;" points="317.2,105.2 306.3,100 306.3,110.1 		"/>
		<polygon style="fill:#B2DFDB;" points="364.6,176.7 355.1,178 362,181.5 366.7,182.6 		"/>
		<polygon style="fill:#B2DFDB;" points="345.4,176.7 336.6,172.2 334.2,178.1 327,183.6 332,190 335.3,183.8 340.2,179.3 		"/>
		<polygon style="fill:#B2DFDB;" points="376.6,193.2 370.1,206.2 355.8,206.2 366.1,199.7 		"/>
		<path style="fill:#B2DFDB;" d="M350.4,206.2c0,0-12.5,0-12.9-5l0.1,17.3L350.4,206.2z"/>
		<path style="fill:#B2DFDB;" d="M314.4,198.5l-34.5,2.7c0,0,12.2,2.6,16.8,13.4C300.3,202.4,309.5,199.1,314.4,198.5z"/>
		<path style="fill:#B2DFDB;" d="M435.9,228.7l-29.8,12.6c0,0,12.7-6.9,24.2,8.6C427.6,232.3,435.9,228.7,435.9,228.7z"/>
		<polygon style="fill:#B2DFDB;" points="387.7,263.3 377.5,269.1 386.6,275.9 		"/>
		<path style="fill:#B2DFDB;" d="M406.1,123.9c0,0-14.9,17.6-11.4,36.5L384,137.8L406.1,123.9z"/>
		<path style="fill:#B2DFDB;" d="M406.1,323.2c0,0,18.1,55.9-46.2,31.5C360,354.7,412.5,374.5,406.1,323.2z"/>
		<path style="fill:#B2DFDB;" d="M334.2,426.7l20.9-23.2l-10.4-15C344.7,388.6,346.2,425.5,334.2,426.7z"/>
		<path style="fill:#B2DFDB;" d="M476.2,327.6c0,0-12.6,7.6-17.5,17.4c0,0,6.4-12.9,4.5-27C463.2,317.9,470.6,329.1,476.2,327.6z"/>
		<path style="fill:#B2DFDB;" d="M454.8,414.6c0,0-9.5,30.1-28.7,2.2c-0.9,8.8-1.1,10.7-4,13.7c-1,6.5,1,16-7.1,17.4
			c4.2-8.7,7.1-21.1,7.1-21.1l5.5-13.6C427.6,413.1,439.4,442.6,454.8,414.6z"/>
		<path style="fill:#B2DFDB;" d="M380.9,507.6l12-12.1c0,0,26-17.3,36,6c3.7,9.3,37.8-20.9,10.6-16.6l-2.9-4.6
			c0,0,41.5-8.8,2.9,27.2c0,0-13.5,7.6-13.4,3.8C428.9,504.9,420.5,480.5,380.9,507.6z"/>
		<path style="fill:#B2DFDB;" d="M351.6,557.6l-12.4-8.7c0,0-2.6-11.5-2.8-18c4.5-14-23.9-20.5-30.7-18.4c2.9-5.4,2.9-5.4,2.9-5.4
			s21.9,3.6,28.9-3.4c2.1,7.3,9.4,19.9,9.4,19.9C339.6,529.6,341.9,552.2,351.6,557.6z"/>
	</g>
</g>
<g id="Left_Brain">
</g>
<g id="Home">
</g>
</svg>
