<?xml version="1.0" encoding="utf-8"?>
<!-- Generator: Adobe Illustrator 18.0.0, SVG Export Plug-In . SVG Version: 6.00 Build 0)  -->
<!DOCTYPE svg PUBLIC "-//W3C//DTD SVG 1.1//EN" "http://www.w3.org/Graphics/SVG/1.1/DTD/svg11.dtd">
<svg version="1.1" xmlns="http://www.w3.org/2000/svg" xmlns:xlink="http://www.w3.org/1999/xlink" x="0px" y="0px"
	 viewBox="0 0 503.5 581.1" style="enable-background:new 0 0 503.5 581.1;" xml:space="preserve">
<g id="Color_Pallete">
</g>
<g id="Favicon">
</g>
<g id="Brain">
	<path style="fill:#26A69A;" d="M259.9,44.4c0,0,5.7-44.1,32.9-40.5c14.5-6.3,24.5,0.3,27.8,4.3c0,0,20.7-0.4,24,7.7
		c9.5,4,13.6,6.8,16.7,10.4c10.7,1.6,15.2,8.4,17.1,11c7.9,3.9,12.5,14.2,12.5,14.2s7.5,0.3,11.3,14.6c1.8,7.7,17,21.5,23.6,43
		c11.9,10.1,20.2,32.5,18.2,46.3c12.4,6.1,19.4,24.4,19.7,29.4c0.3,5,13.7,11.7,11.3,39.7c0,0,9.4,13.7,8.7,21
		c7.3,8,11.5,24.7,4.6,30.9c3.4,5.1,2.2,10.5,2.2,10.5c14.8,12,9.9,31.1,9.3,34.6c-1.6,9.8-0.3,26.2-4.5,26.6
		c2.4,4.9,11.4,18.5,3.2,38.4c2.5,19.7-7.8,45.7-15.7,47.5c2.2,13.8-6.2,28.6-10,29.5c-3.8,0.9-15.2,16.7-17.5,24.1
		c-2.3,7.4-20,23.1-23.3,23.1c-7.7,16-12.7,20.4-44.2,33.4c-13.8,5.3-18.8,20.6-47.1,25.6c0,5-19.3,6-21.7,3.7
		c-36.4,12-66.5,10-62.3-49.4l-6.4-169.4V144.9l1.7-86.7L259.9,44.4z"/>
	<path style="fill:#F4B400;" d="M243.7,44.4c0,0-5.7-44.1-32.9-40.5c-14.5-6.3-24.5,0.3-27.8,4.3c0,0-20.7-0.4-24,7.7
		c-9.5,4-13.6,6.8-16.7,10.4c-10.7,1.6-15.2,8.4-17.1,11c-7.9,3.9-12.5,14.2-12.5,14.2s-7.5,0.3-11.3,14.6c-1.8,7.7-17,21.5-23.6,43
		c-11.9,10.1-20.2,32.5-18.2,46.3c-12.4,6.1-19.4,24.4-19.7,29.4c-0.3,5-13.7,11.7-11.3,39.7c0,0-9.4,13.7-8.7,21
		c-7.3,8-11.5,24.7-4.6,30.9c-3.4,5.1-2.2,10.5-2.2,10.5c-14.8,12-9.9,31.1-9.3,34.6c1.6,9.8,0.3,26.2,4.5,26.6
		C6,353.1-3,366.6,5.1,386.6c-2.5,19.7,7.8,45.7,15.7,47.5c-2.2,13.8,6.2,28.6,10,29.5c3.8,0.9,15.2,16.7,17.5,24.1
		c2.3,7.4,20,23.1,23.3,23.1c7.7,16,12.7,20.4,44.2,33.4c13.8,5.3,18.8,20.6,47.1,25.6c0,5,19.3,6,21.7,3.7
		c36.4,12,66.5,10,62.3-49.4l6.4-169.4V144.9l-1.7-86.7L243.7,44.4z"/>
	<path d="M251.6,522.7v-469c-0.4,0.8-0.7,1.2-0.7,1.2c-3.2-9.4-7.5-10.5-7.5-10.5c0.4,4.3,4.2,24.8-12.2,30
		c28.6,11.5,8.2,40.9,8.2,40.9s10.2,9.6,6.4,37.9c-0.3,8.5,6.8,15.7-7.5,56.5c0.7-2.8,12.3,15.5-0.3,28.7c0,0,8.3,9.8,6.3,35.8
		c-0.6,29.3-0.6,43,1.4,63.8c2.1,21.5-5.2,16.7-12.6,13.5c-4.9-2.7-18.4-8.2-17.5-4.5c33.7,12.9,28.3,26.1,23.8,37.3
		c11.2,19.9,0,36.1,0,36.1c1.2,5,10.4,23.3-4,33.3c24.9,36.7,2,47.2,3.1,50.2c9.1,19.2,5.7,22.6,5.7,22.6
		C247.3,524.1,249.7,523,251.6,522.7z"/>
	<g>
		<path d="M257.4,524.9c0,0,0-0.1-0.1-0.1C257.3,524.9,257.4,524.9,257.4,524.9z"/>
		<path d="M287.8,347.1V344c0,0-11.1,4.4-20.8,9.5c-9.6,5.1-12.8-6.2-7.5-28.2c-0.4-51-3-76.3,5.9-86.8c-6.5-10.1-7.2-20.6-0.3-28.7
			c-5.1-4.5-9.6-35.2-7.5-56.5c-3.3-23.7,6.4-37.9,6.4-37.9c-18.9-34.9,8.2-40.9,8.2-40.9c-15.7-4.5-12.3-30-12.3-30
			c0-5.5-9,10.5-9,10.5v467.9c3.8-0.9,5.8,1.3,6.3,1.9c-0.2-0.6,0.2-3.8,7.6-20.6c-9.5-9.4-11.9-31.2,2.2-50.2
			c-4.8-1-10.9-13-3.1-33.3c-7-8.1-5.8-29.2-0.9-36.1c-2.2-4.2-1-3.1-1.9-13.2C258.5,358,287.8,347.1,287.8,347.1z"/>
	</g>
</g>
<g id="Right_Brain_1_">
</g>
<g id="Left_Brain">
</g>
<g id="Home">
</g>
<g id="Home:_mobile">
</g>
<g id="Layer_7">
</g>
</svg>
