<?xml version="1.0" encoding="utf-8"?>
<!-- Generator: Adobe Illustrator 18.0.0, SVG Export Plug-In . SVG Version: 6.00 Build 0)  -->
<!DOCTYPE svg PUBLIC "-//W3C//DTD SVG 1.1//EN" "http://www.w3.org/Graphics/SVG/1.1/DTD/svg11.dtd">
<svg version="1.1" id="Layer_1" xmlns="http://www.w3.org/2000/svg" xmlns:xlink="http://www.w3.org/1999/xlink" x="0px" y="0px"
	 viewBox="0 0 473.7 473.7" enable-background="new 0 0 473.7 473.7" xml:space="preserve">
<g display="none">
	<g id="Monitor" display="inline">
		<path fill="#263238" d="M567,371.4c0,12.3-9.9,22.2-22.2,22.2H-10.8c-12.3,0-22.2-9.9-22.2-22.2V8.2C-33-4.1-23.1-14-10.8-14
			h555.6C557.1-14,567-4.1,567,8.2V371.4z"/>
		<rect x="-1.5" y="17.6" fill="#455A64" width="536.8" height="284.2"/>
		<polygon fill="#FFFFFF" points="409.1,442.4 124.9,442.4 194.2,393.6 341.1,393.6 		"/>
		<rect x="124.9" y="442.4" fill="#C2C2C2" width="284.2" height="17.3"/>
		<g>
			<g>
				<defs>
					<polygon id="SVGID_1_" points="400.3,442.4 135,442.4 194.2,393.6 341.1,393.6 					"/>
				</defs>
				<clipPath id="SVGID_2_">
					<use xlink:href="#SVGID_1_"  overflow="visible"/>
				</clipPath>
				<rect x="172.3" y="387.5" clip-path="url(#SVGID_2_)" fill="#455A64" width="189.5" height="13.2"/>
			</g>
		</g>
		<g>
			<g>
				<defs>
					<path id="SVGID_3_" d="M567,373.3c0,12.3-9.9,22.2-22.2,22.2H-10.8c-12.3,0-22.2-9.9-22.2-22.2V8.2C-33-4.1-23.1-14-10.8-14
						h555.6C557.1-14,567-4.1,567,8.2V373.3z"/>
				</defs>
				<clipPath id="SVGID_4_">
					<use xlink:href="#SVGID_3_"  overflow="visible"/>
				</clipPath>
				<rect x="-51.3" y="340.3" clip-path="url(#SVGID_4_)" fill="#FFFFFF" width="636.5" height="59.1"/>
			</g>
		</g>
	</g>
	<g display="inline">
		<defs>
			<rect id="SVGID_5_" x="-1.5" y="17.6" width="536.8" height="284.2"/>
		</defs>
		<clipPath id="SVGID_6_">
			<use xlink:href="#SVGID_5_"  overflow="visible"/>
		</clipPath>
		<g transform="matrix(1 0 0 1 3.814697e-06 0)" clip-path="url(#SVGID_6_)">
			
				<image overflow="visible" width="810" height="630" xlink:href="../../../_Raw Files/links/angDart_cropped.jpg"  transform="matrix(0.7743 0 0 0.7743 -49.706 -12.3594)">
			</image>
		</g>
	</g>
</g>
<g>
	<path fill="#F1592B" d="M449,0H24.7C11.1,0,0,11.1,0,24.7v345.4c0,13.6,11.1,24.7,24.7,24.7h370.1l78.9,78.9V370.1v-14.8V24.7
		C473.7,11.1,462.6,0,449,0z"/>
	<g>
		<g>
			<defs>
				<path id="SVGID_7_" d="M449,0H24.7C11.1,0,0,11.1,0,24.7v345.4c0,13.6,11.1,24.7,24.7,24.7h370.1l78.9,78.9V370.1v-14.8V24.7
					C473.7,11.1,462.6,0,449,0z"/>
			</defs>
			<clipPath id="SVGID_8_">
				<use xlink:href="#SVGID_7_"  overflow="visible"/>
			</clipPath>
			<g clip-path="url(#SVGID_8_)">
				
					<linearGradient id="SVGID_9_" gradientUnits="userSpaceOnUse" x1="890.1611" y1="-452.7632" x2="1698.4834" y2="-1261.0854" gradientTransform="matrix(0.25 0 0 -0.25 -23.2969 48.75)">
					<stop  offset="0" style="stop-color:#D74527"/>
					<stop  offset="0.5" style="stop-color:#C96F58;stop-opacity:0"/>
				</linearGradient>
				<polygon fill="url(#SVGID_9_)" points="321.6,39.6 319.8,41.4 315.8,49.3 335.5,69.1 335.5,335.5 335.5,345.4 315.8,355.3 
					157.9,355.3 140,346.3 277.9,485.4 522.9,242.5 				"/>
			</g>
		</g>
	</g>
	<g>
		<rect x="138.2" y="69.1" fill="#ECEFF0" width="197.4" height="266.4"/>
		<polygon fill="#FFFFFF" points="335.5,69.1 138.2,69.1 157.9,49.3 315.8,49.3 		"/>
		<rect x="138.2" y="335.5" fill="#FFFFFF" width="197.4" height="9.9"/>
		<polygon fill="#D8CCC8" points="315.8,355.3 157.9,355.3 138.2,345.4 335.5,345.4 		"/>
		<polygon fill="#D8CCC8" points="315.8,49.3 157.9,49.3 153,39.5 320.7,39.5 		"/>
		<polygon fill="#D8CCC8" points="335.5,69.1 138.2,69.1 138.2,276.3 		"/>
	</g>
	
		<linearGradient id="SVGID_10_" gradientUnits="userSpaceOnUse" x1="279.369" y1="166.7131" x2="1954.9965" y2="-1508.9141" gradientTransform="matrix(0.25 0 0 -0.25 -23.2969 48.75)">
		<stop  offset="0" style="stop-color:#FFFFFF"/>
		<stop  offset="1" style="stop-color:#FFFFFF;stop-opacity:0"/>
	</linearGradient>
	<path opacity="8.000000e-02" fill="url(#SVGID_10_)" enable-background="new    " d="M449,0H24.7C11.1,0,0,11.1,0,24.7v345.4
		c0,13.6,11.1,24.7,24.7,24.7h370.1l78.9,78.9V370.1v-14.8V24.7C473.7,11.1,462.6,0,449,0z"/>
</g>
</svg>
