<?xml version="1.0" encoding="utf-8"?>
<!-- Generator: Adobe Illustrator 17.1.0, SVG Export Plug-In . SVG Version: 6.00 Build 0)  -->
<!DOCTYPE svg PUBLIC "-//W3C//DTD SVG 1.1//EN" "http://www.w3.org/Graphics/SVG/1.1/DTD/svg11.dtd">
<svg version="1.1" id="Layer_8" xmlns="http://www.w3.org/2000/svg" xmlns:xlink="http://www.w3.org/1999/xlink" x="0px" y="0px"
	 viewBox="0 0 1200 355.6" enable-background="new 0 0 1200 355.6" xml:space="preserve">
<g>
	<path fill="#F1592B" d="M337,0H18.5C8.3,0,0,8.3,0,18.5v259.3c0,10.2,8.3,18.5,18.5,18.5h277.8l59.3,59.3v-77.8v-11.1V18.5
		C355.6,8.3,347.3,0,337,0z"/>
	<g opacity="0.5">
		<defs>
			<path id="SVGID_1_" opacity="0.5" d="M337,0H18.5C8.3,0,0,8.3,0,18.5v259.3c0,10.2,8.3,18.5,18.5,18.5h277.8l59.3,59.3v-77.8
				v-11.1V18.5C355.6,8.3,347.3,0,337,0z"/>
		</defs>
		<clipPath id="SVGID_2_">
			<use xlink:href="#SVGID_1_"  overflow="visible"/>
		</clipPath>
	</g>
	<g>
		<g>
			<path fill="#795649" d="M552.2,125.5h-19.6c14.9,12.5,22.4,26.7,22.4,42.8c0,10.4-2.7,19.4-8.2,27.2c-3.6,5.1-9.7,11-18.3,17.7
				c-5.9,5.9-8.8,11.1-8.8,15.5c0,4.8,2.8,9.4,8.2,13.6l11.4,8.9c8.9,6.7,15.1,12.8,18.6,18.1c5.3,7.6,7.9,16.4,7.9,26.3
				c0,16.1-7.1,29.8-21.2,41.2c-15.6,12.5-36.2,18.7-61.9,18.7c-21.7,0-38.7-4.7-51.2-13.9c-11.2-8.2-16.7-18.7-16.7-31.3
				c0-16.1,8.1-28.9,24.3-38.6c13.1-7.8,33.2-12.7,60.3-14.5c-6.3-8.1-9.5-15.1-9.5-21.1c0-3.1,1.1-7.1,3.2-12.1c-4.6,0-8,0-10.1,0
				c-16,0-29-5.2-38.9-15.5c-9-9.5-13.6-20.9-13.6-34.2c0-16.9,6.8-31.1,20.4-42.6c13.6-11.5,32.4-17.3,56.4-17.3h65L552.2,125.5z
				 M544.6,308.1c0-7.6-2.7-14.5-8.2-20.6c-4.2-4.6-13-11.7-26.2-21.2c-1.7-0.2-4.1-0.3-7.3-0.3c-12.2,0-23.3,1.7-33.2,5.1
				c-18.1,6.3-27.2,17.2-27.2,32.6c0,11.4,5.1,20.7,15.3,27.8c10.2,7.2,23.6,10.8,40.3,10.8c14.7,0,26.3-3.3,34.7-9.8
				C540.7,326.3,544.6,318.2,544.6,308.1z M497.9,215c8.4,0,15.6-3,21.5-8.9c5.3-5.3,7.9-13,7.9-23.1c0-13.3-3.4-25.8-10.1-37.6
				c-7.8-13.7-17.7-20.6-29.7-20.6c-10.9,0-19,4.7-24.3,13.9c-3.2,5.3-4.7,11.9-4.7,20c0,12.9,3.2,24.9,9.5,36.1
				C475.4,208.3,485.4,215,497.9,215z"/>
		</g>
		<g>
			<path fill="#795649" d="M642.1,171.6h-50.5l-11.7,31.6h-15.5l46.2-118.9h13.1l45.4,118.9h-15.5L642.1,171.6z M596.2,159.3h41.4
				l-20.5-56.4L596.2,159.3z"/>
			<path fill="#795649" d="M699.3,114.8l0.5,11.1c3.2-4,7-7.1,11.5-9.4c4.5-2.3,9.5-3.4,15.1-3.4c4.3,0,8.2,0.6,11.7,1.8
				c3.5,1.2,6.5,3,9,5.6c2.5,2.6,4.4,5.9,5.7,10c1.3,4,2,9,2,14.7v57.9h-15.2v-58.1c0-3.4-0.4-6.4-1.1-8.8c-0.8-2.4-1.9-4.4-3.4-5.9
				c-1.5-1.5-3.4-2.6-5.6-3.4c-2.2-0.7-4.8-1.1-7.7-1.1c-4.9,0-9.3,1.3-13,3.9c-3.7,2.6-6.6,6-8.7,10.3v63h-15.2v-88.4H699.3z"/>
			<path fill="#795649" d="M828.5,179.7c0-1.6-0.3-3.2-0.8-4.6c-0.5-1.5-1.6-2.8-3-4c-1.5-1.2-3.5-2.4-6.2-3.4c-2.6-1-6-2-10.1-2.9
				c-5-1.1-9.6-2.4-13.6-3.9c-4-1.5-7.4-3.3-10.2-5.3c-2.8-2-4.9-4.4-6.4-7.1c-1.5-2.7-2.2-5.9-2.2-9.5c0-3.5,0.8-6.8,2.3-9.9
				c1.6-3.1,3.8-5.9,6.7-8.2c2.9-2.4,6.3-4.3,10.4-5.6c4-1.4,8.6-2.1,13.5-2.1c5.3,0,10.1,0.7,14.2,2.2c4.2,1.4,7.7,3.4,10.6,5.9
				c2.9,2.5,5.1,5.4,6.7,8.8c1.5,3.4,2.3,6.9,2.3,10.7h-15.2c0-1.8-0.4-3.6-1.2-5.4c-0.8-1.8-2-3.5-3.6-4.9
				c-1.6-1.4-3.5-2.6-5.9-3.5c-2.3-0.9-5-1.3-7.9-1.3c-3.2,0-5.9,0.4-8.1,1.1c-2.2,0.7-4.1,1.7-5.5,2.9c-1.4,1.2-2.5,2.6-3.1,4.2
				c-0.7,1.5-1,3.1-1,4.8s0.2,3.1,0.7,4.4c0.5,1.3,1.4,2.5,2.8,3.6c1.4,1.1,3.4,2.1,5.9,3c2.6,0.9,5.9,1.8,10.1,2.7
				c5.4,1.1,10.1,2.5,14.2,4c4.1,1.6,7.6,3.4,10.3,5.5c2.8,2.1,4.9,4.5,6.3,7.3c1.4,2.8,2.1,5.9,2.1,9.5c0,3.9-0.8,7.4-2.5,10.6
				c-1.6,3.2-3.9,6-6.9,8.2c-3,2.3-6.6,4.1-10.8,5.3c-4.3,1.3-8.9,1.9-14.1,1.9c-5.9,0-11.1-0.8-15.6-2.5c-4.5-1.6-8.3-3.8-11.4-6.5
				c-3.1-2.7-5.4-5.8-7-9.2c-1.6-3.5-2.4-7-2.4-10.7h15.3c0.2,3.1,0.9,5.7,2.2,7.8c1.3,2.1,3,3.8,5,5.1c2,1.3,4.2,2.2,6.6,2.8
				c2.4,0.6,4.8,0.8,7.2,0.8c3.1,0,5.9-0.3,8.3-1c2.4-0.7,4.4-1.6,6-2.7c1.6-1.1,2.8-2.5,3.7-4C828.1,183.2,828.5,181.6,828.5,179.7
				z"/>
			<path fill="#795649" d="M884,171.2l2.4,13.1l2.8-13.1l18-56.4h12.2l18,56.4l3,14l2.9-14l14.3-56.4h15.2l-25.9,88.4h-12.3L917,149
				l-3.9-16.3l-3.8,16.3L892,203.2h-12.3l-25.8-88.4H869L884,171.2z"/>
			<path fill="#795649" d="M1022.3,204.8c-6.2,0-11.8-1.1-16.8-3.2c-5-2.1-9.3-5.1-12.9-8.9c-3.6-3.8-6.3-8.3-8.2-13.5
				c-1.9-5.2-2.9-11-2.9-17.2v-3.4c0-7.2,1.1-13.6,3.3-19.3c2.1-5.7,5-10.4,8.6-14.3c3.6-3.9,7.8-6.8,12.4-8.9
				c4.6-2,9.5-3.1,14.5-3.1c6.3,0,11.8,1.1,16.4,3.3c4.6,2.2,8.4,5.2,11.4,9.1c3,3.8,5.2,8.4,6.6,13.7c1.4,5.3,2.1,11,2.1,17.2v6.8
				h-60.2c0.1,4.1,0.8,7.9,2,11.4c1.2,3.5,3,6.6,5.3,9.2c2.3,2.6,5,4.7,8.2,6.2c3.2,1.5,6.8,2.3,10.9,2.3c5.4,0,9.9-1.1,13.6-3.3
				c3.7-2.2,7-5.1,9.8-8.7l9.3,7.2c-1.4,2.2-3.2,4.3-5.2,6.3c-2,2-4.4,3.9-7.1,5.5c-2.7,1.6-5.8,2.9-9.3,3.8
				C1030.7,204.3,1026.7,204.8,1022.3,204.8z M1020.4,125.6c-3.1,0-5.9,0.5-8.5,1.7c-2.6,1.1-4.9,2.7-6.9,4.9
				c-2,2.1-3.7,4.8-5.1,7.9c-1.3,3.2-2.3,6.8-2.7,10.9h44.5v-1.1c-0.2-2.9-0.6-5.9-1.4-8.8c-0.8-2.9-2-5.5-3.7-7.8
				c-1.7-2.3-3.8-4.1-6.5-5.6C1027.6,126.3,1024.3,125.6,1020.4,125.6z"/>
			<path fill="#795649" d="M1118.4,128.4c-1.3-0.2-2.5-0.4-3.6-0.4c-1.1-0.1-2.4-0.1-3.8-0.1c-5.3,0-9.5,1.1-12.9,3.4
				c-3.3,2.3-5.8,5.4-7.4,9.2v62.7h-15.2v-88.4h14.8l0.2,10.2c2.3-3.6,5.2-6.5,8.6-8.7c3.4-2.1,7.6-3.2,12.6-3.2
				c1.1,0,2.4,0.1,3.8,0.4c1.4,0.3,2.4,0.5,3,0.8V128.4z"/>
			<path fill="#795649" d="M1184.8,179.7c0-1.6-0.3-3.2-0.8-4.6c-0.5-1.5-1.6-2.8-3-4c-1.5-1.2-3.5-2.4-6.2-3.4c-2.6-1-6-2-10.1-2.9
				c-5-1.1-9.5-2.4-13.6-3.9c-4-1.5-7.4-3.3-10.2-5.3c-2.8-2-4.9-4.4-6.4-7.1c-1.5-2.7-2.2-5.9-2.2-9.5c0-3.5,0.8-6.8,2.3-9.9
				c1.6-3.1,3.8-5.9,6.6-8.2c2.9-2.4,6.3-4.3,10.4-5.6c4-1.4,8.6-2.1,13.5-2.1c5.3,0,10.1,0.7,14.2,2.2c4.2,1.4,7.7,3.4,10.6,5.9
				c2.9,2.5,5.1,5.4,6.7,8.8c1.5,3.4,2.3,6.9,2.3,10.7h-15.2c0-1.8-0.4-3.6-1.2-5.4c-0.8-1.8-2-3.5-3.6-4.9
				c-1.6-1.4-3.5-2.6-5.9-3.5c-2.3-0.9-5-1.3-7.9-1.3c-3.2,0-5.9,0.4-8.1,1.1c-2.2,0.7-4.1,1.7-5.5,2.9c-1.4,1.2-2.5,2.6-3.1,4.2
				c-0.7,1.5-1,3.1-1,4.8s0.3,3.1,0.7,4.4c0.5,1.3,1.4,2.5,2.8,3.6c1.4,1.1,3.4,2.1,5.9,3c2.5,0.9,5.9,1.8,10.1,2.7
				c5.4,1.1,10.1,2.5,14.2,4c4.1,1.6,7.6,3.4,10.3,5.5c2.8,2.1,4.9,4.5,6.3,7.3c1.4,2.8,2.1,5.9,2.1,9.5c0,3.9-0.8,7.4-2.4,10.6
				c-1.7,3.2-4,6-7,8.2c-3,2.3-6.6,4.1-10.8,5.3c-4.2,1.3-8.9,1.9-14.1,1.9c-5.9,0-11.1-0.8-15.6-2.5c-4.5-1.6-8.3-3.8-11.4-6.5
				c-3.1-2.7-5.4-5.8-7-9.2c-1.6-3.5-2.4-7-2.4-10.7h15.3c0.2,3.1,0.9,5.7,2.2,7.8c1.3,2.1,3,3.8,5,5.1c2,1.3,4.2,2.2,6.7,2.8
				c2.4,0.6,4.8,0.8,7.2,0.8c3.1,0,5.9-0.3,8.3-1c2.4-0.7,4.4-1.6,6-2.7c1.6-1.1,2.8-2.5,3.6-4
				C1184.4,183.2,1184.8,181.6,1184.8,179.7z"/>
		</g>
	</g>
	<g>
		<defs>
			<path id="SVGID_3_" d="M337,0H18.5C8.3,0,0,8.3,0,18.5v259.3c0,10.2,8.3,18.5,18.5,18.5h277.8l59.3,59.3v-77.8v-11.1V18.5
				C355.6,8.3,347.3,0,337,0z"/>
		</defs>
		<clipPath id="SVGID_4_">
			<use xlink:href="#SVGID_3_"  overflow="visible"/>
		</clipPath>
		<g clip-path="url(#SVGID_4_)">
			<linearGradient id="SVGID_5_" gradientUnits="userSpaceOnUse" x1="149.5473" y1="121.5448" x2="301.2313" y2="273.2289">
				<stop  offset="0" style="stop-color:#D74527"/>
				<stop  offset="0.5" style="stop-color:#C96F58;stop-opacity:0"/>
			</linearGradient>
			<polygon fill="url(#SVGID_5_)" points="241.4,29.7 240,31.1 237,37 251.9,51.9 251.9,251.9 251.9,259.3 237,266.7 118.5,266.7 
				105.1,259.9 208.6,364.3 392.5,182 			"/>
		</g>
	</g>
	<g>
		<rect x="103.7" y="51.9" fill="#ECEFF0" width="148.1" height="200"/>
		<polygon fill="#FFFFFF" points="251.9,51.9 103.7,51.9 118.5,37 237,37 		"/>
		<rect x="103.7" y="251.9" fill="#FFFFFF" width="148.1" height="7.4"/>
		<polygon fill="#D8CCC8" points="237,266.7 118.5,266.7 103.7,259.3 251.9,259.3 		"/>
		<polygon fill="#D8CCC8" points="237,37 118.5,37 114.8,29.6 240.7,29.6 		"/>
		<polygon fill="#D8CCC8" points="251.9,51.9 103.7,51.9 103.7,207.4 		"/>
	</g>
	<linearGradient id="SVGID_6_" gradientUnits="userSpaceOnUse" x1="34.9379" y1="5.308" x2="349.3766" y2="319.7467">
		<stop  offset="0" style="stop-color:#FFFFFF"/>
		<stop  offset="1" style="stop-color:#FFFFFF;stop-opacity:0"/>
	</linearGradient>
	<path opacity="8.000000e-02" fill="url(#SVGID_6_)" d="M337,0H18.5C8.3,0,0,8.3,0,18.5v259.3c0,10.2,8.3,18.5,18.5,18.5h277.8
		l59.3,59.3v-77.8v-11.1V18.5C355.6,8.3,347.3,0,337,0z"/>
</g>
</svg>
