<?xml version="1.0" encoding="utf-8"?>
<!-- Generator: Adobe Illustrator 17.1.0, SVG Export Plug-In . SVG Version: 6.00 Build 0)  -->
<!DOCTYPE svg PUBLIC "-//W3C//DTD SVG 1.1//EN" "http://www.w3.org/Graphics/SVG/1.1/DTD/svg11.dtd">
<svg version="1.1" id="ad_training_early_concepts" xmlns="http://www.w3.org/2000/svg" xmlns:xlink="http://www.w3.org/1999/xlink"
	 x="0px" y="0px" viewBox="0 0 1200 960" enable-background="new 0 0 1200 960" xml:space="preserve">
<g>
	<g>
		<polygon fill="#547DBF" points="344,446.6 140.4,344.8 140.4,100.4 344,202.2 		"/>
	</g>
	<g>
		<polygon fill="#0C9D58" points="344,446.6 547.6,344.8 547.6,100.4 344,202.2 		"/>
	</g>
	<g>
		<polygon fill="#F3B41B" points="547.6,100.4 344,-1.1 140.4,100.4 344,202.2 		"/>
	</g>
	<g>
		<line fill="#DB4436" x1="344" y1="202.2" x2="344" y2="446.6"/>
	</g>
	<polygon fill="#2B439B" points="140.4,344.8 344,446.6 344,432.5 140.4,330.7 	"/>
	<path fill="#E86324" d="M344-1.1"/>
	<path fill="#E86324" d="M547.6,100.4"/>
	<polygon fill="#57BB8A" points="352,442.6 344,446.6 344,202.4 352,198.2 	"/>
	<polygon fill="#57BB8A" points="547.6,109.2 344,211 344,202.2 547.6,100.4 	"/>
	<polygon fill="#0B552B" points="547.6,345.1 547.6,100.4 534.4,107 534.4,351.3 	"/>
	<polygon fill="#0B552B" points="547.6,345.1 344,446.6 344,432.9 547.6,331.1 	"/>
	<polygon fill="#F8CC4D" points="344,202.2 140.4,100.4 148.3,96.4 352,198.2 	"/>
	<polygon fill="#DB4436" points="534.4,107 330.8,5.5 344,-1.4 547.6,100.4 	"/>
	<polygon fill="#DB4436" points="153.5,107 357.2,5.5 344,-1.4 140.4,100.4 	"/>
	<polygon fill="#2B439B" points="140.4,344.6 153.5,351.3 153.5,107 140.4,100.4 	"/>
	<g>
		<polygon fill="#0B8142" points="357.2,426.3 534.3,337.8 534.3,121.1 521,324.5 		"/>
	</g>
	<g>
		<polygon fill="#4468B1" points="344,432.5 153.5,337.3 153.5,107 166.8,324 		"/>
	</g>
	<g>
		<polygon fill="#EF9421" points="534.4,107 344,12.1 167.1,100.4 344,25.4 		"/>
	</g>
</g>
<g>
	<g>
		<g>
			<g>
				<g>
					<g>
						<path fill="#E1E1E1" d="M1200.4,309c0.3-0.1,0.1-0.3-0.7-0.2l-0.6,0.3L1200.4,309z"/>
						<path fill="#E1E1E1" d="M1195.1,308.4c-0.9,0.2-2,0.4-1.4,0.7c0.9-0.3,1.1-0.2,2.1-0.6c0.8,0,1.4,0.1,1.2,0.2
							c0.3-0.1,1.2,0.1,1.6-0.1c-1-0.3-2.3-0.3-3.7-0.1C1194.8,308.5,1195,308.4,1195.1,308.4z"/>
						<path fill="#E1E1E1" d="M1118.1,307.8l0.5,0C1118.5,307.9,1118.3,307.8,1118.1,307.8z"/>
						<path fill="#E1E1E1" d="M1070.4,307.7c0.4,0,0.5,0,0.5-0.1C1070.6,307.6,1070.4,307.6,1070.4,307.7z"/>
						<path fill="#E1E1E1" d="M1062.3,307.3c0.2,0,0.3,0,0.5,0C1062.6,307.3,1062.4,307.3,1062.3,307.3z"/>
						<path fill="#E1E1E1" d="M1118.1,307.8l-1.3-0.1C1116.8,307.8,1117.5,307.8,1118.1,307.8z"/>
						<path fill="#E1E1E1" d="M1184.5,309.2c0.3,0,0.5,0,0.7-0.1C1185,309.1,1184.7,309.1,1184.5,309.2
							C1184.5,309.1,1184.5,309.1,1184.5,309.2z"/>
						<path fill="#E1E1E1" d="M1139.2,307.6l0.4,0c0.1,0,0.2-0.1,0.3-0.1L1139.2,307.6z"/>
						<path fill="#E1E1E1" d="M1155.3,307.5c-0.4,0-0.5,0.3-0.6,0.4c0.2-0.1,0.5-0.2,0.8-0.2
							C1155.5,307.7,1155.4,307.6,1155.3,307.5z"/>
						<path fill="#E1E1E1" d="M1180.9,308l0.5,0C1181.2,308,1181,308,1180.9,308z"/>
						<path fill="#E1E1E1" d="M1127.6,307.5c0,0-0.1-0.1-0.1-0.1C1127.5,307.4,1127.5,307.5,1127.6,307.5z"/>
						<path fill="#E1E1E1" d="M676.4,309.6C676.4,309.6,676.4,309.6,676.4,309.6C676.3,309.6,676.2,309.6,676.4,309.6z"/>
						<path fill="#E1E1E1" d="M657.7,308.2l0.3,0c0-0.1,0.1-0.1,0.1-0.2L657.7,308.2z"/>
						<path fill="#E1E1E1" d="M1047.4,306.9C1047.4,306.9,1047.4,306.9,1047.4,306.9C1047.9,306.9,1047.6,306.9,1047.4,306.9z"/>
						<path fill="#E1E1E1" d="M910.6,307.1c1.5,0.3-2.5,0.3-0.2,0.6C910.2,307.6,912.5,307.3,910.6,307.1z"/>
						<path fill="#E1E1E1" d="M1184.1,309.1c-0.2,0-0.4,0-0.7,0C1183.7,309.1,1183.9,309.1,1184.1,309.1z"/>
						<path fill="#E1E1E1" d="M910.4,307.7C910.4,307.7,910.4,307.8,910.4,307.7l0.2,0C910.6,307.8,910.5,307.8,910.4,307.7z"/>
						<path fill="#E1E1E1" d="M1013.1,307.1c0.1,0,0.2,0.1,0.4,0.1C1013.4,307.2,1013.3,307.2,1013.1,307.1z"/>
						<path fill="#E1E1E1" d="M1038.6,307.5l-0.6,0C1038.3,307.5,1038.5,307.5,1038.6,307.5z"/>
						<path fill="#E1E1E1" d="M999.8,307.5c-0.3,0-0.5-0.1-0.9,0c0,0,0.1,0,0.1,0C999.2,307.5,999.4,307.5,999.8,307.5z"/>
						<path fill="#E1E1E1" d="M986,307.5c0.1,0,0.2,0,0.3,0.1c0.1,0,0.3,0,0.4,0L986,307.5z"/>
						<path fill="#E1E1E1" d="M718.4,309.5c-0.3-0.1-0.5-0.2-0.6-0.3C717.9,309.4,715.9,309.5,718.4,309.5z"/>
						<path fill="#E1E1E1" d="M1184.5,309c-0.1,0.1-0.2,0.1-0.4,0.1c0.2,0,0.3,0,0.5,0C1184.6,309.1,1184.6,309,1184.5,309z"/>
						<path fill="#E1E1E1" d="M999.2,309.7l-2.2,0C997.6,309.7,998.4,309.7,999.2,309.7z"/>
						<path fill="#E1E1E1" d="M817.5,309.5l-0.5,0C817.2,309.5,817.4,309.5,817.5,309.5z"/>
						<path fill="#E1E1E1" d="M990.5,309.7c-0.4-0.1-0.8-0.2-1.2-0.2c-0.1,0-0.2,0-0.3,0.1L990.5,309.7z"/>
						<path fill="#E1E1E1" d="M717.7,309.2C717.7,309.2,717.7,309.2,717.7,309.2C717.7,309.2,717.7,309.2,717.7,309.2z"/>
						<path fill="#E1E1E1" d="M703.3,309.9c2.1,0,1-0.4,1.4-0.6c2.5-0.1,1.2,0.3,2,0.5c1.6-0.1,2.8-0.4,3.9-0.4
							c0.1,0.1,0.3,0.1,0,0.2c1.6-0.3,4.9,0,6.8-0.4c0.1,0,0.2,0.1,0.3,0.1c-0.3-0.2-0.4-0.4-0.3-0.5c0.9,0,1.7-0.2,2.1,0
							c-0.6,0-0.6,0.1-0.9,0.2l1-0.1c0.9,0.3-1.3,0.1-1.3,0.4c1.9-0.1,4.2-0.4,5.6-0.3c0.3,0.3-3.4,0.1-1.5,0.4l-2.3-0.1
							c1.7,0.5-1.4,0,0.2,0.5c3,0.1,3.3-0.2,6.3-0.1c0.7-0.2-0.2-0.3,0.4-0.5c4.2-0.3,3.3,0.9,6.5,0.4c0.8-0.2,1.1-0.7,3.3-0.4
							l-0.8,0.4c2.9,0,1.7-0.6,4.7-0.3c-0.5,0.2-2.3,0.1-1.8,0.2c2,0.3,1.4-0.2,2.9-0.2l0.3,0.3c3.1-0.1,6.5-0.3,9.9-0.4
							c-0.2,0.1-0.8,0.2,0,0.3c4.3-0.2,9.2,0,13.3,0.2l1.6-0.3c0.4,0,0.7,0.1,0.3,0.2c1.6,0.1,0.1-0.2,0.9-0.3
							c0.9,0,1.2,0.2,0.6,0.3c2.9-0.2,8.1-0.5,11.1-0.2l-0.6,0.1c2.3,0.1,2.6-0.6,4.8-0.3l-0.4,0.1c5.1,0.1,10.7-0.1,14.6,0.3
							c0.7-0.4,5,0.2,5.4-0.4c2.9,0.3,2.1,0.4,6.2,0.6c1.1,0,1.6-0.4,3-0.4l0,0.3l1.8-0.3l1,0.4l1.3-0.1c-0.5,0-1.1-0.1-1-0.2
							c2-0.1,4.8,0.2,4.9,0.4l4.7-0.3c-0.1,0.1-0.9,0.2-1.5,0.2c2.5-0.3,0.5,0.3,2.7,0c-0.3-0.1,0.2-0.2,0.2-0.2
							c1.1,0.2,3.7,0.2,5.7,0.1l-0.4,0.2c3.5,0.1,7.3-0.1,11.2-0.1c-1.4-0.1-1.1-0.5,0.1-0.5l0.5,0.3c0.7-0.2-1.2-0.1,0.3-0.4
							c1.5,0,1,0.4,0.1,0.5l1.8-0.1c0.1,0.1-0.3,0.1-0.4,0.3c0.7-0.2,3.1,0.3,4.1,0l0.1,0.1c3.9,0,5.7-0.1,8.8-0.1
							c0.1-0.3,1.3-0.2,2.2-0.4c2.3,0.1,4.9,0.3,7.7,0.3c2-0.1,0.6-0.2,1.5-0.4c0.1,0.3,3,0.2,1.5,0.4c3.4,0,4.3-0.1,8.6-0.3
							c-0.5-0.1-1-0.2-0.7-0.2c0.8,0,1.8,0.1,1.7,0.2l-0.2,0c4.8-0.4,11.1,0.7,14.9,0.2l-0.2,0l4-0.3c1.8,0-1.1,0.2,0.3,0.4
							c4.3-0.4,6.7,0.1,10.3-0.2c2.7,0.8,9.6-0.1,13.3,0.4l-0.2-0.2c0.9-0.2,1.1,0.1,1.8,0.1c-0.1-0.1-1-0.2-0.4-0.3
							c8-0.2,16.6,0.3,24.8,0.4c3,0,1.7-0.9,5.5-0.5l-1.1,0.3c6.1-0.4,12.4,0,18.4-0.3c-0.4,0.1-0.4,0.2-0.9,0.2
							c1.3,0.2,4.6,0,4.7-0.2c0.9,0,0.2,0.2,0.8,0.3c1.3,0.1,3.2-0.3,3.8-0.1c0.1,0-0.4,0.1-0.6,0.1c0.8-0.1,3.8,0,3-0.2
							c2.2,0.1,4.3-0.1,6.1,0c1.2-0.3,3.8,0.1,4.2-0.3c-0.2,0.5,3.9,0.4,5.3,0.2c-0.5,0.1,1.2,0.1,0.7,0.3c1.6,0,3.1-0.1,2.8-0.3
							c3,0.5,6-0.4,7.6,0.3c4.8-0.2,9.2-0.4,13.5-0.5c-0.2,0.5-4.8,0-4.6,0.5c4.1-0.2,6.4-0.6,10.5-0.5c1,0.1-0.6,0.2-0.9,0.3
							c4.1-0.2,7.9,0,11.5-0.2c0,0-0.4,0.1-0.8,0.1c0.7,0,1.7,0.1,1.6-0.1l-0.7,0.1c-1.1-0.3,2.8-0.6,3-0.8
							c-1.2,0.6,3.6,0.1,1.7,0.9c0.5,0,1.1-0.1,1-0.3c0.7,0,0.9,0.1,0.2,0.3c2.6-0.1,1.7-0.3,4-0.3c0,0.1-0.5,0.1-0.7,0.3
							c1.2-0.2,2.4-0.4,4.3-0.3c-0.1,0.1,0.1,0.1-0.5,0.1c3.4,0,5.7-0.5,9.4-0.3c-1.1,0.4,1.3,0.1,1.5,0.5l2-0.1l-0.8-0.2
							c1.7,0,3.3-0.3,4.8-0.1l-1.3,0.2l3.3-0.1l-1.8-0.1c1.8-0.2-0.2-0.5,2.1-0.4c-0.5,0,1.7,0,2.7,0.2c0,0,0,0,0,0
							c0.9-0.1,1.7-0.2,3-0.2c0.3,0.1-0.3,0.4-0.1,0.5c0.9-0.3,4.1-0.1,5.2-0.4c-0.4,0.1-0.4,0.3-0.3,0.3l0.7-0.3
							c0.8,0.1,0.9,0.1,0.8,0.3c2.4,0-0.8-0.5,2.1-0.3c-0.2,0-0.1,0.1-0.6,0.1c2.9,0.1,5.6-0.2,8.2,0c0.8,0.4-2.3,0.1-1.4,0.4
							c3.8-0.1,7.9-0.5,11.6-0.4l-0.7,0c0.5-0.5,2.8,0.3,4.6,0c-0.5,0-0.6,0.3-0.5,0.2c2.5,0.1,5.2-0.1,9-0.3l-0.5,0.1
							c1.5,0.1,3.9,0.1,5.6,0.1c0.5-0.1,1.4-0.1,0.8-0.3c5,0.8,9.5-0.4,13.9,0.2c-0.5,0-1.3,0.1-0.8,0.1l3.8-0.1
							c-0.3-0.2-0.5-0.1-1.3-0.3c0.5-0.1,1.5-0.2,2.5-0.2c-1.7,0.2,0,0.4,0.7,0.5c-0.1-0.1,0.1-0.1,0.1-0.2c2,0.4,0.3-0.5,3-0.2
							l-0.1,0.1c1-0.1,1.9-0.2,3-0.2c0.4,0.3-1.1,0.1-1.1,0.3c1.5,0,3-0.5,4.4-0.2c-0.6,0.1-1.6,0.1-2.2,0.1
							c1.5,0.3,1.7,0.2,2.8,0.3l-0.1,0l2.6,0.1l-0.7-0.1c1.9-0.7,3.9-0.1,6.5-0.6c-2.5,0.4-0.4,0.2-0.6,0.6c0.7,0.1,1.7,0.2,1.4,0.3
							c1.2-0.2,2,0.2,3.7-0.2c0.1,0.1,1.3,0,1,0.3c1.6-0.1-0.4-0.2-0.2-0.3c2.4-0.3,5.7,0.4,9.2-0.1c3-0.2,3.6-0.5,6.4-0.7
							c0.9,0.2-0.8,0.4-0.8,0.4c1.5,0.1,2.7,0.1,4.1,0c-0.3,0.1,0,0.2,0.4,0.3c1.2,0,0.8-0.4,2.3-0.2c-0.3,0.1-0.6,0.3-1.2,0.4
							c1.4-0.1,2.7-0.3,4.1-0.4c0.4,0.2-0.8,0.3-1.3,0.4c1.6-0.1,4.1-0.2,4.6-0.4l-1-0.1c0.6,0,0.3,0.2-0.1,0.3
							c-1.4,0.2-2-0.1-2-0.2l1-0.1c-1-0.6-4,0.1-6,0.1l0.8-0.4l-2.1,0.3c-0.4-0.1-0.7-0.3,0.3-0.4c-1.4-0.2-1.3,0.1-2.5-0.1
							c-0.1,0-0.1-0.1,0.1-0.1l-1.4,0.1c0.3-0.1-0.2-0.3,0.6-0.2c-2.5-0.2-4.1,0.3-5,0l0.2,0c-3.5,0.1-0.3,0.3-3,0.7l-1.8-0.8
							l-0.3,0.3c-0.4,0-1.1,0-0.9-0.2c-1.4,0.2,0.2,0.1-0.6,0.3c-1.7-0.3-4.8,0.1-5.2-0.4c-0.6,0.2,1.7,0.2-0.2,0.3
							c-0.5-0.5-2.2,0.1-3.8-0.2c0.5-0.3,2-0.1,0.4-0.4c-1,0.5-3.1-0.1-4.5,0c-0.1,0.4-2.9,0.2-5.2,0.3c0.1-0.1-4.3-0.2-6.4-0.3
							l0.1-0.1c-0.4,0.4-2.6,0.3-4.2,0.4c0.1-0.2,0.3-0.3,1.2-0.4l-1.5,0c-0.4,0.1-0.8,0.2-1.8,0.2l0.4-0.3c-2,0-4,0.3-6.5,0.1
							c-0.1,0.3,2,0.7-0.7,0.9c-0.1-0.1-0.2-0.4,0.5-0.4c-0.2,0-0.8,0.1-1.3,0.1l1.1-0.2c-1.2-0.1-0.6,0.2-1.5,0.2
							c0-0.2-0.7-0.1-0.6-0.3c0.2,0,0.8,0.1,1.2,0c-1,0-2.3-0.2-2.7-0.3c0.1,0.1,0,0.3-0.8,0.3c-2,0-0.7-0.2-1.8-0.3
							c-0.5,0.1-1.7,0-1.8,0.3c-0.6,0-0.7-0.1-0.9-0.2c-1,0.1-4.8,0-3.6,0.4l0.3,0c0,0-0.1,0-0.2,0c0,0,0,0,0,0h0
							c-3.3,0.3-7-0.2-10.3,0l0-0.1c-2,0.1-4.4,0.1-5.8,0.3c-0.6,0-1.4-0.2-1.1-0.3c-1.5,0.1-1.7,0.2-3.9,0c1.5-0.2-0.5-0.2,1.6-0.1
							c-2-0.1-2.4-0.2-4.5,0c0.7-0.3-1.5-0.3-2.4-0.2l1.4,0.2c-1.1,0-2,0-2.9,0l0.5-0.3c-4-0.4-7.3,0.7-10.3,0
							c-1.1,0.2,2.2,0.2,1.2,0.4c-1.9,0-3.8-0.5-4.4-0.5c-2.5-0.2-2.4,0.5-5,0.4c0.3,0.1,0.7,0.4-1.3,0.5c-1.9,0-2.3-0.5-1.1-0.6
							c0.4,0,0.7,0,0.6,0.1c0.6,0,1.4-0.1,0.7-0.2l-0.2,0.1c-0.9-0.1-3.5-0.1-2.9-0.3c-1.4,0.1-0.6,0.2,0.4,0.3
							c-2.4-0.2-3.7,0-6.2-0.1c0.4,0.1,0.7,0.2,0.4,0.2c-3.6-0.1-1.6,0.2-4,0.3c-1.4-0.2,0.5-0.4-2-0.3c-1.5-0.1-0.3-0.3,0.3-0.4
							c-2.2,0.2-4.2-0.2-5.4-0.2l1.2-0.1c-0.7,0.1-1.3,0.1-1.9,0.1l0.7,0.2c-0.7,0-1.3,0-1.3-0.1c-0.7,0.2,0.5,0.4-0.9,0.6
							c-0.9-0.1-2.8,0.1-3.1-0.2c2.9,0.1-0.3-0.3,2.1-0.4c-0.5,0-1,0-1.7,0c-0.1,0,0.1-0.1,0.3-0.1c-2.8-0.3-1.3,0.4-4.1,0.3
							c0.4-0.2-0.7-0.3-1.1-0.3c1.2,0,0.6,0.3-0.5,0.4c-1.8-0.1-2,0.1-3,0.1l1.1,0.1c-0.4,0.2-1.3,0.2-2.6,0.2
							c-0.1-0.1,1.2-0.1,0.7-0.2c-1.4,0.3-3.2-0.3-5.2-0.1c-0.9-0.1-0.1-0.3-0.9-0.4c-2.2,0.2-2.4-0.2-4.8-0.1
							c0.7,0.2,0.8,0.2-0.9,0.4l3.8-0.2l-2.5,0.3c1.2,0,2.5-0.1,3.1-0.1c-1.2,0.2-1.1,0.1-0.5,0.3c-1.6-0.4-3.2,0.2-5,0l0.1-0.6
							c-2.8-0.3-4.9,0.3-8.5,0.2l1.2,0.1c-0.5,0.2-2.2,0-3.4,0.1c0.1-0.2-0.6-0.3-1.1-0.4c0.1,0.1-2.6,0-3,0.4l-1.6-0.3
							c-2.9-0.1-3.3,0.6-6.1,0.5c0.8-0.2-0.4-0.4,1.4-0.5c-0.9,0-1.8,0-1.8,0.1c-0.5-0.1-2.6,0.3-3.4,0.1c-0.4,0.1-0.5,0.3-1.6,0.3
							c-0.1,0,0-0.1,0-0.1c0,0.1-1.6,0.1-0.7,0.4c-2.9-0.6-8,0-10.5-0.5c-2,0.1-4.5,0.1-6.3,0.1c0.1-0.1,0-0.1,0.4-0.1
							c-2.5-0.2-1.6,0.6-4.5,0.4c-1.5-0.3,1.5-0.2,0.6-0.3c-0.4-0.6-3.5,0.1-5.4-0.3l0.5,0c-1.5-0.2-3.6,0.2-6.1,0.2
							c0,0,0.1-0.1,0-0.1c-1.7,0.3-4.8,0.4-7.1,0.5c0.7-0.3,1.1-0.1,0.6-0.4c-1,0,0.3,0.4-1.8,0.5c-0.7-0.1-2.2-0.3-2.4-0.5l2,0
							c-1-0.4-2.6,0-3.6,0l0.1-0.2c-3,0.1-3.1,0.4-6.3,0.4l0.3,0.1c-1.8,0.4-1.5-0.2-3.3,0.1l-0.5-0.4c-1.2,0.1-4.1,0.4-6.2,0.5
							c1.2-0.3,3.6-0.4,5.2-0.6c-1.2,0-3.9,0-4.6,0.2c0.5,0,1.1-0.1,1.5-0.1c-1.4,0.3-3.3,0.5-5.6,0.5c0.4-0.8-6-0.2-7.7-0.8
							c-4.1,0.3-8.1-0.1-12.9-0.1c1.7,0.6-1.4,0-1.1,0.6c-1.1,0-1.5,0-1.6,0l-3.4-0.4c-0.8-0.2,1.1-0.1,1-0.3c-2.4,0-1-0.3-2.6-0.4
							c0.3,0.2-0.8,0.3-2.2,0.2l2,0.3c-3.4,0.3-2.9-0.5-6.4-0.2l1.1-0.2c-1.8,0.1-6.5,0-8.2,0.5c-0.3-0.1-0.7-0.2,0.1-0.3
							c-4.2-0.1-9.4,0.5-12.6,0.2l0.3-0.1c-0.8,0-1.4,0.3-2.3,0.1c0.1-0.1,0.3-0.1,0-0.2c-0.4,0.1-2.1,0.3-3.1,0.2l0.9-0.2
							c-4.1-0.2-6.3,0.4-9.7,0.5c0-0.4-3.2-0.6-4.8-0.7l0.1-0.1c-4.8-0.1-8.1,0.4-12.5,0.5c-2.7-0.5-9.3-0.2-13.7-0.5
							c0.7,0.1-0.1,0.3-0.9,0.4c-1-0.1-2.9,0.3-2.7-0.1l0.4,0c-0.8-0.4-2.9-0.3-4.6-0.3l-0.3,0.5c-4.3-0.8-11.4,0.3-13.8-0.4
							c-1,0.1-2.3,0.1-3.4,0.3l0.1-0.3c-2.9-0.1-4.4-0.1-7.9,0l0.7-0.2c-2,0-2.6,0.8-4.4,0.8l-0.6-0.4c-3.5,0-7.1-0.4-10.6,0
							c0.1-0.1,0.2-0.2,0.7-0.2c-1.7,0-6.4-0.3-5.8,0.3c0-0.4-3.6,0-5.6,0.1l0.3-0.3c-1.6,0.4-1.7,0.5-3.9,0.6
							c-0.5,0-0.5-0.2,0.2-0.2c-1.8-0.1-1.4,0.3-3.5,0.1l0.8-0.2c-1.8,0-1.7,0.1-2.7,0.3c-1.1,0.1-3.5-0.1-3.7-0.3
							c-0.2,0.2-1.2,0.4-2.3,0.3c-0.1-0.1,0.2-0.2,0.4-0.2c-3.1-0.2-4.5,0.3-6.6,0.1c0-0.1-0.2-0.1-0.4-0.2c2.4,0,4.4,0,4.2,0
							c0-0.3-2-0.3-0.4-0.7c-1.6,0.2-4.3,0.6-6.2,0.5c-0.1,0-0.2,0-0.3-0.1l0.2,0c-0.4,0-0.8,0-1.2,0c-0.6,0-1-0.1-1.6-0.1
							c-0.2-0.2-2.2-0.1-3.2-0.1c0.1,0.3-1.2,0.2,0,0.5c-0.2,0,0.2,0,0.8,0c0.1,0,0.3,0,0.4,0c0,0,0,0-0.1,0c0.6,0,1.5,0,2.4,0
							c-0.8,0.1-1.6,0.3-2.7,0.1c-0.5,0.2-1.1,0.4-1.4,0.5c-1.3-0.4-3.9-0.6-4.3-0.8c-3,0.2-7,0.1-8.9,0.6c-0.8,0.1-1-0.2-1.3-0.2
							c0.5-0.1,1.1,0,1.3-0.1c-1.7,0.1-5,0.1-5.4,0.4c-2.1-0.2,1.2-0.3-1.7-0.3l0.4-0.1c-5.8-0.6-9.4,0.9-15.8,0.2
							c0.4,0,0.7,0.1,0.8,0.1c-7.3-0.3-15.1,0.3-22.3-0.2c-2-0.1-2.3,0.1-3.5,0.3l-0.4-0.3l-2.1,0.3c-3,0.3-5.3-0.7-9.1-0.3l0.5,0.2
							c-1.4,0-4.4,0.1-4.1-0.1c-0.1,0-0.5,0.2-1,0.1l0-0.2l-3.4,0.3c-2.6-0.1,0.4-0.6-3.4-0.7c-1.4,0.1-4.1,0.5-3.5,0.6
							c0.6,0,1.5,0.1,1.5,0.3l-1.3,0.1c-0.2,0.5-1.2,0.9,2,1.3l2.2-0.3l0.7,0.2l-1.9,0c1.1,0.2,1.7,0,2.5-0.1
							c0.2,0.1,0.5,0.2,0.9,0.2l2.2-0.4c0.3,0.2-1,0.4,0.5,0.5c1-0.2-1-0.4,0.7-0.5c1.1,0.2,0.8,0.4,2,0.2c0.2,0.1-0.1,0.2-0.6,0.2
							c1.1-0.1,2.9-0.1,3.5-0.3c1.1,0.3,3.8-0.1,3.7,0.4c0.4-0.1,2-0.3,3-0.4c-1.9,0.5,3.8,0,3.3,0.6c1.4-0.5,5-0.2,7.4-0.5
							c-0.1,0-0.4,0.1-0.6,0.1c1.4,0,1.8,0.2,2.7,0.3c0.2-0.4,2.3-0.5,3.5-0.7c1.7,0.4-1,0.5-0.5,0.8c-0.1-0.3,2.9-0.3,2.4-0.6
							c1.3,0.2,1.1,0.1,1.8,0.4c0.2-0.5,1.2-0.1,2.3-0.4c1.9,0.2,0.5,0.5,2.5,0.3C705.1,309.7,703.3,309.9,703.3,309.9z
							 M752.1,309.1C752.1,309.1,752.1,309.1,752.1,309.1c-0.4,0-0.8,0-1,0C751.3,309.1,751.6,309.1,752.1,309.1z M756.2,309.1
							c-0.5,0-1.1,0-1.8,0c-0.1-0.1,0-0.2,0.4-0.2C754.7,308.9,755.6,309,756.2,309.1z M747.6,307.1c0.7,0,0.9,0,1,0.1
							c-0.3,0-0.7,0-1.1,0c0,0-0.1,0-0.1,0C747.4,307.2,747.4,307.1,747.6,307.1z"/>
						<path fill="#E1E1E1" d="M746.4,307.5c-0.1,0-0.1,0-0.3,0c0.1,0,0.3,0,0.4,0.1c0.1,0,0.2-0.1,0.2-0.1
							C746.6,307.5,746.5,307.5,746.4,307.5z"/>
						<path fill="#E1E1E1" d="M1118.7,307.9L1118.7,307.9C1118.7,307.9,1118.8,307.9,1118.7,307.9
							C1118.8,307.9,1118.8,307.9,1118.7,307.9z"/>
						<polygon fill="#E1E1E1" points="813,309.6 813,309.5 812.6,309.6 						"/>
						<path fill="#E1E1E1" d="M1141.3,308.9c0,0,0.1,0.1,0.3,0.1C1141.6,308.9,1141.5,308.9,1141.3,308.9z"/>
						<path fill="#E1E1E1" d="M1151.1,308.9l1.4,0.1C1151.9,309,1151.5,308.9,1151.1,308.9z"/>
						<path fill="#E1E1E1" d="M1158.6,309.1c0.1,0,0.1-0.1,0.1-0.1c0,0,0,0,0,0L1158.6,309.1z"/>
						<path fill="#E1E1E1" d="M1039.2,309.4c-0.1,0-0.2,0-0.3,0C1038.2,309.5,1038.7,309.4,1039.2,309.4z"/>
						<path fill="#E1E1E1" d="M1074.7,308.7c-0.4,0.1-0.7,0.1-1.1,0.1C1074.2,308.9,1074.7,308.9,1074.7,308.7z"/>
						<path fill="#E1E1E1" d="M999.5,309.7C999.5,309.7,999.5,309.7,999.5,309.7c-0.1,0-0.2,0-0.2,0L999.5,309.7z"/>
						<path fill="#E1E1E1" d="M1071.9,308.9c0.6,0.1,1.2,0,1.7,0C1073.1,308.8,1072.4,308.8,1071.9,308.9z"/>
						<path fill="#E1E1E1" d="M1191.2,309.2l0.4,0c0,0,0,0,0,0L1191.2,309.2z"/>
						<path fill="#E1E1E1" d="M1191.6,309.1l0.4,0C1191.8,309.1,1191.6,309.1,1191.6,309.1z"/>
						<path fill="#E1E1E1" d="M1192.8,309l-0.8,0.1C1192.3,309.1,1192.6,309.1,1192.8,309z"/>
						<path fill="#E1E1E1" d="M1181.2,309.1l-0.1,0.1C1181.2,309.1,1181.2,309.1,1181.2,309.1z"/>
						<path fill="#E1E1E1" d="M1178.2,309.1c0.7,0,1.8,0.2,2.8,0.2l0.1-0.1C1180.7,309.3,1178.9,308.9,1178.2,309.1z"/>
						<path fill="#E1E1E1" d="M1165.6,307.8l2.5,0.1c-0.4-0.1-1-0.3,0.1-0.3C1165.1,307.3,1168.9,307.9,1165.6,307.8z"/>
						<path fill="#E1E1E1" d="M1157.7,307.7c1.4-0.1,0-0.2,0.1-0.2C1156.9,307.5,1156.7,307.6,1157.7,307.7z"/>
						<path fill="#E1E1E1" d="M1101,307.7l0.1-0.3C1100.1,307.4,1101.1,307.5,1101,307.7z"/>
						<polygon fill="#E1E1E1" points="1090.1,309 1091.2,309.1 1091.7,308.9 						"/>
						<polygon fill="#E1E1E1" points="1083.7,307.2 1084.2,307.1 1082.4,307.2 						"/>
						<path fill="#E1E1E1" d="M988.4,307.3l0.3,0.3C989.4,307.5,989.6,307.2,988.4,307.3z"/>
						<path fill="#E1E1E1" d="M947.3,307.6c-0.4-0.2-1.6-0.3-2.3-0.1C945.9,307.5,946.8,307.6,947.3,307.6z"/>
						<polygon fill="#E1E1E1" points="823.9,307.1 824.7,307 823.1,307.1 						"/>
					</g>
				</g>
			</g>
		</g>
	</g>
	<g>
		<g>
			<g>
				<g>
					<g>
						<path fill="#E1E1E1" d="M1174.7,157.6c0.3-0.1,0.1-0.3-0.7-0.2l-0.6,0.3L1174.7,157.6z"/>
						<path fill="#E1E1E1" d="M1169.4,157c-0.9,0.2-2,0.4-1.4,0.7c0.9-0.3,1.1-0.2,2.1-0.6c0.8,0,1.4,0.1,1.2,0.2
							c0.3-0.1,1.2,0.1,1.6-0.1c-1-0.3-2.3-0.3-3.7-0.1C1169.1,157.1,1169.4,157,1169.4,157z"/>
						<path fill="#E1E1E1" d="M1092.5,156.5l0.5,0C1092.8,156.5,1092.7,156.5,1092.5,156.5z"/>
						<path fill="#E1E1E1" d="M1044.8,156.3c0.4,0,0.5,0,0.5-0.1C1045,156.2,1044.7,156.3,1044.8,156.3z"/>
						<path fill="#E1E1E1" d="M1036.6,155.9c0.2,0,0.3,0,0.5,0C1036.9,155.9,1036.8,155.9,1036.6,155.9z"/>
						<path fill="#E1E1E1" d="M1092.5,156.5l-1.3-0.1C1091.1,156.5,1091.9,156.4,1092.5,156.5z"/>
						<path fill="#E1E1E1" d="M1158.8,157.8c0.3,0,0.5,0,0.7-0.1C1159.3,157.7,1159.1,157.7,1158.8,157.8
							C1158.9,157.7,1158.9,157.8,1158.8,157.8z"/>
						<path fill="#E1E1E1" d="M1113.5,156.2l0.4,0c0.1,0,0.2-0.1,0.3-0.1L1113.5,156.2z"/>
						<path fill="#E1E1E1" d="M1129.6,156.1c-0.4,0-0.5,0.3-0.6,0.4c0.2-0.1,0.5-0.2,0.8-0.2
							C1129.8,156.3,1129.8,156.2,1129.6,156.1z"/>
						<path fill="#E1E1E1" d="M1155.2,156.6l0.5,0C1155.6,156.6,1155.4,156.6,1155.2,156.6z"/>
						<path fill="#E1E1E1" d="M1102,156.1c0,0-0.1-0.1-0.1-0.1C1101.8,156.1,1101.9,156.1,1102,156.1z"/>
						<path fill="#E1E1E1" d="M650.7,158.3C650.7,158.2,650.7,158.2,650.7,158.3C650.6,158.2,650.6,158.3,650.7,158.3z"/>
						<path fill="#E1E1E1" d="M632,156.9l0.3,0c0-0.1,0.1-0.1,0.1-0.2L632,156.9z"/>
						<path fill="#E1E1E1" d="M1021.7,155.6C1021.8,155.6,1021.8,155.6,1021.7,155.6C1022.2,155.5,1022,155.5,1021.7,155.6z"/>
						<path fill="#E1E1E1" d="M885,155.8c1.5,0.3-2.5,0.3-0.2,0.6C884.5,156.3,886.9,155.9,885,155.8z"/>
						<path fill="#E1E1E1" d="M1158.4,157.7c-0.2,0-0.4,0-0.7,0C1158.1,157.8,1158.3,157.8,1158.4,157.7z"/>
						<path fill="#E1E1E1" d="M884.8,156.4C884.8,156.4,884.8,156.4,884.8,156.4l0.2,0C884.9,156.4,884.8,156.4,884.8,156.4z"/>
						<path fill="#E1E1E1" d="M987.4,155.7c0.1,0,0.2,0.1,0.4,0.1C987.8,155.8,987.7,155.8,987.4,155.7z"/>
						<path fill="#E1E1E1" d="M1013,156.1l-0.6,0C1012.6,156.1,1012.8,156.1,1013,156.1z"/>
						<path fill="#E1E1E1" d="M974.1,156.1c-0.3,0-0.5-0.1-0.9,0c0,0,0.1,0,0.1,0C973.5,156.1,973.7,156.1,974.1,156.1z"/>
						<path fill="#E1E1E1" d="M960.3,156.1c0.1,0,0.2,0,0.3,0.1c0.1,0,0.3,0,0.4,0L960.3,156.1z"/>
						<path fill="#E1E1E1" d="M692.7,158.1c-0.3-0.1-0.5-0.2-0.6-0.3C692.3,158.1,690.3,158.1,692.7,158.1z"/>
						<path fill="#E1E1E1" d="M1158.8,157.6c-0.1,0.1-0.2,0.1-0.4,0.1c0.2,0,0.3,0,0.5,0C1158.9,157.7,1158.9,157.6,1158.8,157.6z"
							/>
						<path fill="#E1E1E1" d="M973.6,158.3l-2.2,0C972,158.3,972.8,158.3,973.6,158.3z"/>
						<path fill="#E1E1E1" d="M791.9,158.1l-0.5,0C791.6,158.1,791.7,158.1,791.9,158.1z"/>
						<path fill="#E1E1E1" d="M964.9,158.3c-0.4-0.1-0.8-0.2-1.2-0.2c-0.1,0-0.2,0-0.3,0.1L964.9,158.3z"/>
						<path fill="#E1E1E1" d="M692.1,157.9C692.1,157.9,692.1,157.9,692.1,157.9C692.1,157.9,692.1,157.9,692.1,157.9z"/>
						<path fill="#E1E1E1" d="M677.6,158.5c2.1,0,1-0.4,1.4-0.6c2.5-0.1,1.2,0.3,2,0.5c1.6-0.1,2.8-0.4,3.9-0.4
							c0.1,0.1,0.3,0.1,0,0.2c1.6-0.3,4.9,0,6.8-0.4c0.1,0,0.2,0.1,0.3,0.1c-0.3-0.2-0.4-0.4-0.3-0.5c0.9,0,1.7-0.2,2.1,0
							c-0.6,0-0.6,0.1-0.9,0.2l1-0.1c0.9,0.3-1.3,0.1-1.3,0.4c1.9-0.1,4.2-0.4,5.6-0.3c0.3,0.3-3.4,0.1-1.5,0.4l-2.3-0.1
							c1.7,0.5-1.4,0,0.2,0.5c3,0.1,3.3-0.2,6.3-0.1c0.7-0.2-0.2-0.3,0.4-0.5c4.2-0.3,3.3,0.9,6.5,0.4c0.8-0.2,1.1-0.7,3.3-0.4
							l-0.8,0.4c2.9,0,1.7-0.6,4.7-0.3c-0.5,0.2-2.3,0.1-1.8,0.2c2,0.3,1.4-0.2,2.9-0.2l0.3,0.3c3.1-0.1,6.5-0.3,9.9-0.4
							c-0.2,0.1-0.8,0.2,0,0.3c4.3-0.2,9.2,0,13.3,0.2l1.6-0.3c0.4,0,0.7,0.1,0.3,0.2c1.6,0.1,0.1-0.2,0.9-0.3
							c0.9,0,1.2,0.2,0.6,0.3c2.9-0.2,8.1-0.5,11.1-0.2l-0.6,0.1c2.3,0.1,2.6-0.6,4.8-0.3l-0.4,0.1c5.1,0.1,10.7-0.1,14.6,0.3
							c0.7-0.4,5,0.2,5.4-0.4c2.9,0.3,2.1,0.4,6.2,0.6c1.1,0,1.6-0.4,3-0.4l0,0.3l1.8-0.3l1,0.4l1.3-0.1c-0.5,0-1.1-0.1-1-0.2
							c2-0.1,4.8,0.2,4.9,0.4l4.7-0.3c-0.1,0.1-0.9,0.2-1.5,0.2c2.5-0.3,0.5,0.3,2.7,0c-0.3-0.1,0.2-0.2,0.2-0.2
							c1.1,0.2,3.7,0.2,5.7,0.1l-0.4,0.2c3.5,0.1,7.3-0.1,11.2-0.1c-1.4-0.1-1.1-0.5,0.1-0.5l0.5,0.3c0.7-0.2-1.2-0.1,0.3-0.4
							c1.5,0,1,0.4,0.1,0.5l1.8-0.1c0.1,0.1-0.3,0.1-0.4,0.3c0.7-0.2,3.1,0.3,4.1,0l0.1,0.1c3.9,0,5.7-0.1,8.8-0.1
							c0.1-0.3,1.3-0.2,2.2-0.4c2.3,0.1,4.9,0.3,7.7,0.3c2-0.1,0.6-0.2,1.5-0.4c0.1,0.3,3,0.2,1.5,0.4c3.4,0,4.3-0.1,8.6-0.3
							c-0.5-0.1-1-0.2-0.7-0.2c0.8,0,1.8,0.1,1.7,0.2l-0.2,0c4.8-0.4,11.1,0.7,14.9,0.2l-0.2,0l4-0.3c1.8,0-1.1,0.2,0.3,0.4
							c4.3-0.4,6.7,0.1,10.3-0.2c2.7,0.8,9.6-0.1,13.3,0.4l-0.2-0.2c0.9-0.2,1.1,0.1,1.8,0.1c-0.1-0.1-1-0.2-0.4-0.3
							c8-0.2,16.6,0.3,24.8,0.4c3,0,1.7-0.9,5.5-0.5l-1.1,0.3c6.1-0.4,12.4,0,18.4-0.3c-0.4,0.1-0.4,0.2-0.9,0.2
							c1.3,0.2,4.6,0,4.7-0.2c0.9,0,0.2,0.2,0.8,0.3c1.3,0.1,3.2-0.3,3.8-0.1c0.1,0-0.4,0.1-0.6,0.1c0.8-0.1,3.8,0,3-0.2
							c2.2,0.1,4.3-0.1,6.1,0c1.2-0.3,3.8,0.1,4.2-0.3c-0.2,0.5,3.9,0.4,5.3,0.2c-0.5,0.1,1.2,0.1,0.7,0.3c1.6,0,3.1-0.1,2.8-0.3
							c3,0.5,6-0.4,7.6,0.3c4.8-0.2,9.2-0.4,13.5-0.5c-0.2,0.5-4.8,0-4.6,0.5c4.1-0.2,6.4-0.6,10.5-0.5c1,0.1-0.6,0.2-0.9,0.3
							c4.1-0.2,7.9,0,11.5-0.2c0,0-0.4,0.1-0.8,0.1c0.7,0,1.7,0.1,1.6-0.1l-0.7,0.1c-1.1-0.3,2.8-0.6,3-0.8
							c-1.2,0.6,3.6,0.1,1.7,0.9c0.5,0,1.1-0.1,1-0.3c0.7,0,0.9,0.1,0.2,0.3c2.6-0.1,1.7-0.3,4-0.3c0,0.1-0.5,0.1-0.7,0.3
							c1.2-0.2,2.4-0.4,4.3-0.3c-0.1,0.1,0.1,0.1-0.5,0.1c3.4,0,5.7-0.5,9.4-0.3c-1.1,0.4,1.3,0.1,1.5,0.5l2-0.1l-0.8-0.2
							c1.7,0,3.3-0.3,4.8-0.1l-1.3,0.2l3.3-0.1l-1.8-0.1c1.8-0.2-0.2-0.5,2.1-0.4c-0.5,0,1.7,0,2.7,0.2c0,0,0,0,0,0
							c0.9-0.1,1.7-0.2,3-0.2c0.3,0.1-0.3,0.4-0.1,0.5c0.9-0.3,4.1-0.1,5.2-0.4c-0.4,0.1-0.4,0.3-0.3,0.3l0.7-0.3
							c0.8,0.1,0.9,0.1,0.8,0.3c2.4,0-0.8-0.5,2.1-0.3c-0.2,0-0.1,0.1-0.6,0.1c2.9,0.1,5.6-0.2,8.2,0c0.8,0.4-2.3,0.1-1.4,0.4
							c3.8-0.1,7.9-0.5,11.6-0.4l-0.7,0c0.5-0.5,2.8,0.3,4.6,0c-0.5,0-0.6,0.3-0.5,0.2c2.5,0.1,5.2-0.1,9-0.3l-0.5,0.1
							c1.5,0.1,3.9,0.1,5.6,0.1c0.5-0.1,1.4-0.1,0.8-0.3c5,0.8,9.5-0.4,13.9,0.2c-0.5,0-1.3,0.1-0.8,0.1l3.8-0.1
							c-0.3-0.2-0.5-0.1-1.3-0.3c0.5-0.1,1.5-0.2,2.5-0.2c-1.7,0.2,0,0.4,0.7,0.5c-0.1-0.1,0.1-0.1,0.1-0.2c2,0.4,0.3-0.5,3-0.2
							l-0.1,0.1c1-0.1,1.9-0.2,3-0.2c0.4,0.3-1.1,0.1-1.1,0.3c1.5,0,3-0.5,4.4-0.2c-0.6,0.1-1.6,0.1-2.2,0.1
							c1.5,0.3,1.7,0.2,2.8,0.3l-0.1,0l2.6,0.1l-0.7-0.1c1.9-0.7,3.9-0.1,6.5-0.6c-2.5,0.4-0.4,0.3-0.6,0.6c0.7,0.1,1.7,0.2,1.4,0.3
							c1.2-0.2,2,0.2,3.7-0.2c0.1,0.1,1.3,0,1,0.3c1.6-0.1-0.4-0.2-0.2-0.3c2.4-0.3,5.7,0.4,9.2-0.1c3-0.2,3.6-0.5,6.4-0.7
							c0.9,0.2-0.8,0.4-0.8,0.4c1.5,0.1,2.7,0.1,4.1,0c-0.3,0.1,0,0.2,0.4,0.3c1.2,0,0.8-0.4,2.3-0.2c-0.3,0.1-0.6,0.3-1.2,0.4
							c1.4-0.1,2.7-0.3,4.1-0.4c0.4,0.2-0.8,0.3-1.3,0.4c1.6-0.1,4.1-0.2,4.6-0.4l-1-0.1c0.6,0,0.3,0.2-0.1,0.3
							c-1.4,0.2-2-0.1-2-0.2l1-0.1c-1-0.6-4,0.1-6,0.1l0.8-0.4l-2.1,0.3c-0.4-0.1-0.7-0.3,0.3-0.4c-1.4-0.2-1.3,0.1-2.5-0.1
							c-0.1,0-0.1-0.1,0.1-0.1l-1.4,0.1c0.3-0.1-0.2-0.3,0.6-0.2c-2.5-0.2-4.1,0.3-5,0l0.2,0c-3.5,0.1-0.3,0.3-3,0.7l-1.8-0.8
							l-0.3,0.3c-0.4,0-1.1,0-0.9-0.2c-1.4,0.2,0.2,0.1-0.6,0.3c-1.7-0.3-4.8,0.1-5.2-0.4c-0.6,0.2,1.7,0.2-0.2,0.3
							c-0.5-0.5-2.2,0.1-3.8-0.2c0.5-0.3,2-0.1,0.4-0.4c-1,0.5-3.1-0.1-4.5,0c-0.1,0.4-2.9,0.2-5.2,0.3c0.1-0.1-4.3-0.2-6.4-0.3
							l0.1-0.1c-0.4,0.4-2.6,0.3-4.2,0.4c0.1-0.2,0.3-0.3,1.2-0.4l-1.5,0c-0.4,0.1-0.8,0.2-1.8,0.2l0.4-0.3c-2,0-4,0.3-6.5,0.1
							c-0.1,0.3,2,0.7-0.7,0.9c-0.1-0.1-0.2-0.4,0.5-0.4c-0.2,0-0.8,0.1-1.3,0.1l1.1-0.2c-1.2-0.1-0.6,0.2-1.5,0.2
							c0-0.2-0.7-0.1-0.6-0.3c0.2,0,0.8,0.1,1.2,0c-1,0-2.3-0.2-2.7-0.3c0.1,0.1,0,0.3-0.8,0.3c-2,0-0.7-0.2-1.8-0.3
							c-0.5,0.1-1.7,0-1.8,0.3c-0.6,0-0.7-0.1-0.9-0.2c-1,0.1-4.8,0-3.6,0.4l0.3,0c0,0-0.1,0-0.2,0c0,0,0,0,0,0h0
							c-3.3,0.3-7-0.2-10.3,0l0-0.1c-2,0.1-4.4,0.1-5.8,0.3c-0.6,0-1.4-0.2-1.1-0.3c-1.5,0.1-1.7,0.2-3.9,0c1.5-0.2-0.5-0.2,1.6-0.1
							c-2-0.1-2.4-0.2-4.5,0c0.7-0.3-1.5-0.3-2.4-0.2l1.4,0.2c-1.1,0-2,0-2.9,0l0.5-0.3c-4-0.4-7.3,0.7-10.3,0
							c-1.1,0.2,2.2,0.2,1.2,0.4c-1.9,0-3.8-0.5-4.4-0.5c-2.5-0.2-2.4,0.5-5,0.4c0.3,0.1,0.7,0.4-1.3,0.5c-1.9,0-2.3-0.5-1.1-0.6
							c0.4,0,0.7,0,0.6,0.1c0.6,0,1.4-0.1,0.7-0.2l-0.2,0.1c-0.9-0.1-3.5-0.1-2.9-0.3c-1.4,0.1-0.6,0.2,0.4,0.3
							c-2.4-0.2-3.7,0-6.2-0.1c0.4,0.1,0.7,0.2,0.4,0.2c-3.6-0.1-1.6,0.2-4,0.3c-1.4-0.2,0.5-0.4-2-0.3c-1.5-0.1-0.3-0.3,0.3-0.4
							c-2.2,0.2-4.2-0.2-5.4-0.2l1.2-0.1c-0.7,0.1-1.3,0.1-1.9,0.1l0.7,0.2c-0.7,0-1.3,0-1.3-0.1c-0.7,0.2,0.5,0.4-0.9,0.6
							c-0.9-0.1-2.8,0.1-3.1-0.2c2.9,0.1-0.3-0.3,2.1-0.4c-0.5,0-1,0-1.7,0c-0.1,0,0.1-0.1,0.3-0.1c-2.8-0.3-1.3,0.4-4.1,0.3
							c0.4-0.2-0.7-0.3-1.1-0.3c1.2,0,0.6,0.3-0.5,0.4c-1.8-0.1-2,0.1-3,0.1l1.1,0.1c-0.4,0.2-1.3,0.2-2.6,0.2
							c-0.1-0.1,1.2-0.1,0.7-0.2c-1.4,0.3-3.2-0.3-5.2-0.1c-0.9-0.1-0.1-0.3-0.9-0.4c-2.2,0.2-2.4-0.2-4.8-0.1
							c0.7,0.2,0.8,0.2-0.9,0.4l3.8-0.2l-2.5,0.3c1.2,0,2.5-0.1,3.1-0.1c-1.2,0.2-1.1,0.1-0.5,0.3c-1.6-0.4-3.2,0.2-5,0l0.1-0.6
							c-2.8-0.3-4.9,0.3-8.5,0.2l1.2,0.1c-0.5,0.2-2.2,0-3.4,0.1c0.1-0.2-0.6-0.3-1.1-0.4c0.1,0.1-2.6,0-3,0.4l-1.6-0.3
							c-2.9-0.1-3.3,0.6-6.1,0.5c0.8-0.2-0.4-0.4,1.4-0.5c-0.9,0-1.8,0-1.8,0.1c-0.5-0.1-2.6,0.3-3.4,0.1c-0.4,0.1-0.5,0.3-1.6,0.3
							c-0.1,0,0-0.1,0-0.1c0,0.1-1.6,0.1-0.7,0.4c-2.9-0.6-8,0-10.5-0.5c-2,0.1-4.5,0.1-6.3,0.1c0.1-0.1,0-0.1,0.4-0.1
							c-2.5-0.2-1.6,0.6-4.5,0.4c-1.5-0.3,1.5-0.2,0.6-0.3c-0.4-0.6-3.5,0.1-5.4-0.3l0.5,0c-1.5-0.2-3.6,0.2-6.1,0.2
							c0,0,0.1-0.1,0-0.1c-1.7,0.3-4.8,0.4-7.1,0.5c0.7-0.3,1.1-0.1,0.6-0.4c-1,0,0.3,0.4-1.8,0.5c-0.7-0.1-2.2-0.3-2.4-0.5l2,0
							c-1-0.4-2.6,0-3.6,0l0.1-0.2c-3,0.1-3.1,0.4-6.3,0.4l0.3,0.1c-1.8,0.4-1.5-0.2-3.3,0.1l-0.5-0.4c-1.2,0.1-4.1,0.4-6.2,0.5
							c1.2-0.3,3.6-0.4,5.2-0.6c-1.2,0-3.9,0-4.6,0.2c0.5,0,1.1-0.1,1.5-0.1c-1.4,0.3-3.3,0.5-5.6,0.5c0.4-0.8-6-0.2-7.7-0.8
							c-4.1,0.3-8.1-0.1-12.9-0.1c1.7,0.6-1.4,0-1.1,0.6c-1.1,0-1.5,0-1.6,0l-3.4-0.4c-0.8-0.2,1.1-0.1,1-0.3c-2.4,0-1-0.3-2.6-0.4
							c0.3,0.2-0.8,0.3-2.2,0.2l2,0.3c-3.4,0.3-2.9-0.5-6.4-0.2l1.1-0.2c-1.8,0.1-6.5,0-8.2,0.5c-0.3-0.1-0.7-0.2,0.1-0.3
							c-4.2-0.1-9.4,0.5-12.6,0.2l0.3-0.1c-0.8,0-1.4,0.3-2.3,0.1c0.1-0.1,0.3-0.1,0-0.2c-0.4,0.1-2.1,0.3-3.1,0.2l0.9-0.2
							c-4.1-0.2-6.3,0.4-9.7,0.5c0-0.4-3.2-0.6-4.8-0.7l0.1-0.1c-4.8-0.1-8.1,0.4-12.5,0.5c-2.7-0.5-9.3-0.2-13.7-0.5
							c0.7,0.1-0.1,0.3-0.9,0.4c-1-0.1-2.9,0.3-2.7-0.1l0.4,0c-0.8-0.4-2.9-0.3-4.6-0.3l-0.3,0.5c-4.3-0.8-11.4,0.3-13.8-0.4
							c-1,0.1-2.3,0.1-3.4,0.3l0.1-0.3c-2.9-0.1-4.4-0.1-7.9,0l0.7-0.2c-2,0-2.6,0.8-4.4,0.8l-0.6-0.4c-3.5,0-7.1-0.4-10.6,0
							c0.1-0.1,0.2-0.2,0.7-0.2c-1.7,0-6.4-0.3-5.8,0.3c0-0.4-3.6,0-5.6,0.1l0.3-0.3c-1.6,0.4-1.7,0.5-3.9,0.6
							c-0.5,0-0.5-0.2,0.2-0.2c-1.8-0.1-1.4,0.3-3.5,0.1l0.8-0.2c-1.8,0-1.7,0.1-2.7,0.3c-1.1,0.1-3.5-0.1-3.7-0.3
							c-0.2,0.2-1.2,0.4-2.3,0.3c-0.1-0.1,0.2-0.2,0.4-0.2c-3.1-0.2-4.5,0.3-6.6,0.1c0-0.1-0.2-0.1-0.4-0.2c2.4,0,4.4,0,4.2,0
							c0-0.3-2-0.3-0.4-0.7c-1.6,0.2-4.3,0.6-6.2,0.5c-0.1,0-0.2,0-0.3-0.1l0.2,0c-0.4,0-0.8,0-1.2,0c-0.6,0-1-0.1-1.6-0.1
							c-0.2-0.2-2.2-0.1-3.2-0.1c0.1,0.3-1.2,0.2,0,0.5c-0.2,0,0.2,0,0.8,0c0.1,0,0.3,0,0.4,0c0,0,0,0-0.1,0c0.6,0,1.5,0,2.4,0
							c-0.8,0.1-1.6,0.3-2.7,0.1c-0.5,0.2-1.1,0.4-1.4,0.5c-1.3-0.4-3.9-0.6-4.3-0.8c-3,0.2-7,0.1-8.9,0.6c-0.8,0.1-1-0.2-1.3-0.2
							c0.5-0.1,1.1,0,1.3-0.1c-1.7,0.1-5,0.1-5.4,0.4c-2.1-0.2,1.2-0.3-1.7-0.3l0.4-0.1c-5.8-0.6-9.4,0.9-15.8,0.2
							c0.4,0,0.7,0.1,0.8,0.1c-7.3-0.3-15.1,0.3-22.3-0.2c-2-0.1-2.3,0.1-3.5,0.3l-0.4-0.3l-2.1,0.3c-3,0.3-5.3-0.7-9.1-0.3l0.5,0.2
							c-1.4,0-4.4,0.1-4.1-0.1c-0.1,0-0.5,0.2-1,0.1l0-0.2l-3.4,0.3c-2.6-0.1,0.4-0.6-3.4-0.7c-1.4,0.1-4.1,0.5-3.5,0.6
							c0.6,0,1.5,0.1,1.5,0.3l-1.3,0.1c-0.2,0.5-1.2,0.9,2,1.3l2.2-0.3l0.7,0.2l-1.9,0c1.1,0.2,1.7,0,2.5-0.1
							c0.2,0.1,0.5,0.2,0.9,0.2l2.2-0.4c0.3,0.2-1,0.4,0.5,0.5c1-0.2-1-0.4,0.7-0.5c1.1,0.2,0.8,0.4,2,0.2c0.2,0.1-0.1,0.2-0.6,0.2
							c1.1-0.1,2.9-0.1,3.5-0.3c1.1,0.3,3.8-0.1,3.7,0.4c0.4-0.1,2-0.3,3-0.4c-1.9,0.5,3.8,0,3.3,0.6c1.4-0.5,5-0.2,7.4-0.5
							c-0.1,0-0.4,0.1-0.6,0.1c1.4,0,1.8,0.2,2.7,0.3c0.2-0.4,2.3-0.5,3.5-0.7c1.7,0.4-1,0.5-0.5,0.8c-0.1-0.3,2.9-0.3,2.4-0.6
							c1.3,0.2,1.1,0.1,1.8,0.4c0.2-0.5,1.2-0.1,2.3-0.4c1.9,0.2,0.5,0.5,2.5,0.3C679.4,158.4,677.6,158.5,677.6,158.5z
							 M726.5,157.7C726.5,157.7,726.5,157.7,726.5,157.7c-0.4,0-0.8,0-1,0C725.7,157.7,726,157.7,726.5,157.7z M730.6,157.7
							c-0.5,0-1.1,0-1.8,0c-0.1-0.1,0-0.2,0.4-0.2C729,157.5,730,157.6,730.6,157.7z M721.9,155.7c0.6,0,0.9,0,1,0.1
							c-0.3,0-0.7,0-1.1,0c0,0-0.1,0-0.1,0C721.7,155.8,721.8,155.8,721.9,155.7z"/>
						<path fill="#E1E1E1" d="M720.7,156.1c-0.1,0-0.1,0-0.3,0c0.1,0,0.3,0,0.4,0.1c0.1,0,0.2-0.1,0.2-0.1
							C721,156.1,720.8,156.1,720.7,156.1z"/>
						<path fill="#E1E1E1" d="M1093.1,156.5L1093.1,156.5C1093,156.5,1093.1,156.5,1093.1,156.5
							C1093.1,156.5,1093.1,156.5,1093.1,156.5z"/>
						<polygon fill="#E1E1E1" points="787.3,158.2 787.3,158.1 786.9,158.2 						"/>
						<path fill="#E1E1E1" d="M1115.7,157.5c0,0,0.1,0.1,0.3,0.1C1116,157.5,1115.8,157.5,1115.7,157.5z"/>
						<path fill="#E1E1E1" d="M1125.5,157.5l1.4,0.1C1126.2,157.6,1125.8,157.6,1125.5,157.5z"/>
						<path fill="#E1E1E1" d="M1133,157.7c0.1,0,0.1-0.1,0.1-0.1c0,0,0,0,0,0L1133,157.7z"/>
						<path fill="#E1E1E1" d="M1013.5,158c-0.1,0-0.2,0-0.3,0C1012.5,158.1,1013,158.1,1013.5,158z"/>
						<path fill="#E1E1E1" d="M1049.1,157.4c-0.4,0.1-0.7,0.1-1.1,0.1C1048.5,157.5,1049,157.5,1049.1,157.4z"/>
						<path fill="#E1E1E1" d="M973.8,158.4C973.8,158.3,973.8,158.3,973.8,158.4c-0.1,0-0.2,0-0.2,0L973.8,158.4z"/>
						<path fill="#E1E1E1" d="M1046.3,157.5c0.6,0.1,1.2,0,1.7,0C1047.4,157.5,1046.8,157.4,1046.3,157.5z"/>
						<path fill="#E1E1E1" d="M1165.5,157.8l0.4,0c0,0,0,0,0,0L1165.5,157.8z"/>
						<path fill="#E1E1E1" d="M1165.9,157.8l0.4,0C1166.2,157.7,1166,157.7,1165.9,157.8z"/>
						<path fill="#E1E1E1" d="M1167.2,157.7l-0.8,0.1C1166.6,157.7,1167,157.7,1167.2,157.7z"/>
						<path fill="#E1E1E1" d="M1155.6,157.7l-0.1,0.1C1155.5,157.8,1155.6,157.7,1155.6,157.7z"/>
						<path fill="#E1E1E1" d="M1152.6,157.7c0.7,0,1.8,0.2,2.8,0.2l0.1-0.1C1155,157.9,1153.2,157.5,1152.6,157.7z"/>
						<path fill="#E1E1E1" d="M1139.9,156.4l2.5,0.1c-0.4-0.1-1-0.3,0.1-0.3C1139.4,155.9,1143.3,156.5,1139.9,156.4z"/>
						<path fill="#E1E1E1" d="M1132.1,156.3c1.4-0.1,0-0.2,0.1-0.2C1131.3,156.2,1131.1,156.2,1132.1,156.3z"/>
						<path fill="#E1E1E1" d="M1075.3,156.3l0.1-0.3C1074.4,156.1,1075.5,156.1,1075.3,156.3z"/>
						<polygon fill="#E1E1E1" points="1064.5,157.6 1065.5,157.8 1066,157.5 						"/>
						<polygon fill="#E1E1E1" points="1058.1,155.8 1058.5,155.8 1056.8,155.8 						"/>
						<path fill="#E1E1E1" d="M962.8,155.9l0.3,0.3C963.8,156.1,963.9,155.8,962.8,155.9z"/>
						<path fill="#E1E1E1" d="M921.6,156.2c-0.4-0.2-1.6-0.3-2.3-0.1C920.2,156.1,921.1,156.2,921.6,156.2z"/>
						<polygon fill="#E1E1E1" points="798.2,155.7 799,155.6 797.5,155.7 						"/>
					</g>
				</g>
			</g>
		</g>
	</g>
	<text transform="matrix(1 0 0 1 666.3292 307.9777)"><tspan x="0" y="0" fill="#547DBF" font-family="'Roboto2DRAFT-Regular'" font-size="287.3513">a</tspan><tspan x="156.3" y="0" fill="#DB4436" font-family="'Roboto2DRAFT-Regular'" font-size="287.3513">b</tspan><tspan x="317.5" y="0" fill="#F3B41B" font-family="'Roboto2DRAFT-Regular'" font-size="287.3513">c</tspan><tspan x="467.9" y="0" fill="#0C9D58" font-family="'Roboto2DRAFT-Regular'" font-size="287.3513">.</tspan></text>
</g>
<g>
	<g>
		<path fill="#F3B41B" d="M568,757.8c0,13.9-11.2,25.1-25.1,25.1l-138.1,0c-13.9,0-25.1-11.2-25.1-25.1V619.6
			c0-13.9,11.2-25.1,25.1-25.1l138.1,0c13.9,0,25.1,11.2,25.1,25.1V757.8z"/>
		<g>
			<defs>
				<path id="SVGID_1_" d="M568,757.8c0,13.9-11.2,25.1-25.1,25.1l-138.1,0c-13.9,0-25.1-11.2-25.1-25.1V619.6
					c0-13.9,11.2-25.1,25.1-25.1l138.1,0c13.9,0,25.1,11.2,25.1,25.1V757.8z"/>
			</defs>
			<clipPath id="SVGID_2_">
				<use xlink:href="#SVGID_1_"  overflow="visible"/>
			</clipPath>
			<g clip-path="url(#SVGID_2_)">
				<path fill="#EF9421" d="M579.9,833.9c7.1,8.4,6,21.1-2.5,28.2l-113.7,95.4c-8.4,7.1-21.1,6-28.2-2.5L155.3,620.8
					c-7.1-8.4-6-21.1,2.5-28.2l113.7-95.4c8.4-7.1,21.1-6,28.2,2.5L579.9,833.9z"/>
			</g>
		</g>
		<path fill="#0C9D58" d="M390.9,675.2c0,13.9-11.2,25.1-25.1,25.1H227.7c-13.9,0-25.1-11.2-25.1-25.1l0-138.1
			c0-13.9,11.2-25.1,25.1-25.1h138.1c13.9,0,25.1,11.2,25.1,25.1V675.2z"/>
		<g>
			<defs>
				<path id="SVGID_3_" d="M390.9,675.2c0,13.9-11.2,25.1-25.1,25.1H227.7c-13.9,0-25.1-11.2-25.1-25.1l0-138.1
					c0-13.9,11.2-25.1,25.1-25.1h138.1c13.9,0,25.1,11.2,25.1,25.1V675.2z"/>
			</defs>
			<clipPath id="SVGID_4_">
				<use xlink:href="#SVGID_3_"  overflow="visible"/>
			</clipPath>
			<polygon clip-path="url(#SVGID_4_)" fill="#0B8142" points="545.6,658.9 246.3,910.1 125.2,765.8 424.5,514.6 			"/>
		</g>
		<path fill="#DB4436" d="M485.4,934.8c0,13.9-11.2,25.1-25.1,25.1l-138.1,0c-13.9,0-25.1-11.2-25.1-25.1V796.7
			c0-13.9,11.2-25.1,25.1-25.1l138.1,0c13.9,0,25.1,11.2,25.1,25.1V934.8z"/>
		<g>
			<defs>
				<path id="SVGID_5_" d="M485.4,934.8c0,13.9-11.2,25.1-25.1,25.1l-138.1,0c-13.9,0-25.1-11.2-25.1-25.1V796.7
					c0-13.9,11.2-25.1,25.1-25.1l138.1,0c13.9,0,25.1,11.2,25.1,25.1V934.8z"/>
			</defs>
			<clipPath id="SVGID_6_">
				<use xlink:href="#SVGID_5_"  overflow="visible"/>
			</clipPath>
			<g clip-path="url(#SVGID_6_)">
				<path fill="#C53B29" d="M585.9,660.6c7.1,8.4,6,21.1-2.5,28.2L242.8,974.6c-8.4,7.1-21.1,6-28.2-2.5l-95.4-113.7
					c-7.1-8.4-6-21.1,2.5-28.2l340.6-285.8c8.4-7.1,21.1-6,28.2,2.5L585.9,660.6z"/>
			</g>
		</g>
		<path fill="#547DBF" d="M308.4,852.2c0,13.9-11.2,25.1-25.1,25.1H145.1c-13.9,0-25.1-11.2-25.1-25.1V714.1
			c0-13.9,11.2-25.1,25.1-25.1h138.1c13.9,0,25.1,11.2,25.1,25.1V852.2z"/>
		<g>
			<defs>
				<path id="SVGID_7_" d="M308.4,852.2c0,13.9-11.2,25.1-25.1,25.1H145.1c-13.9,0-25.1-11.2-25.1-25.1V714.1
					c0-13.9,11.2-25.1,25.1-25.1h138.1c13.9,0,25.1,11.2,25.1,25.1V852.2z"/>
			</defs>
			<clipPath id="SVGID_8_">
				<use xlink:href="#SVGID_7_"  overflow="visible"/>
			</clipPath>
			<g clip-path="url(#SVGID_8_)">
				<path fill="#4468B1" d="M526.1,843.2c7.1,8.4,6,21.1-2.5,28.2L410,966.7c-8.4,7.1-21.1,6-28.2-2.5L114.6,645.8
					c-7.1-8.4-6-21.1,2.5-28.2l113.7-95.4c8.4-7.1,21.1-6,28.2,2.5L526.1,843.2z"/>
			</g>
		</g>
		<g>
			<defs>
				<path id="SVGID_9_" d="M460.5,728.3c8.9,10.6,7.5,26.5-3.1,35.4l-105.8,88.8c-10.6,8.9-26.5,7.5-35.4-3.1l-88.8-105.8
					c-8.9-10.6-7.5-26.5,3.1-35.4l105.8-88.8c10.6-8.9,26.5-7.5,35.4,3.1L460.5,728.3z"/>
			</defs>
			<clipPath id="SVGID_10_">
				<use xlink:href="#SVGID_9_"  overflow="visible"/>
			</clipPath>
		</g>
		<path fill="#FFFFFF" d="M460.5,728.3c8.9,10.6,7.5,26.5-3.1,35.4l-105.8,88.8c-10.6,8.9-26.5,7.5-35.4-3.1l-88.8-105.8
			c-8.9-10.6-7.5-26.5,3.1-35.4l105.8-88.8c10.6-8.9,26.5-7.5,35.4,3.1L460.5,728.3z"/>
		<g>
			<path fill="#547DBF" d="M300.7,753.1l-2.6,2.2c3.3,0,5.8,1,7.6,3.1c1.1,1.4,1.8,2.8,1.9,4.5c0.1,1.1-0.1,2.5-0.4,4.3
				c-0.1,1.4,0,2.4,0.5,3c0.5,0.6,1.4,0.9,2.6,0.9l2.5-0.1c1.9-0.1,3.3,0,4.4,0.3c1.5,0.4,2.8,1.3,3.9,2.6c1.8,2.1,2.3,4.7,1.7,7.7
				c-0.7,3.3-2.7,6.4-6,9.2c-2.8,2.4-5.5,3.6-8.2,3.8c-2.3,0.2-4.2-0.6-5.6-2.3c-1.7-2.1-2.1-4.7-1-7.7c0.8-2.5,2.9-5.3,6.3-8.5
				c-1.7-0.4-2.9-0.9-3.5-1.7c-0.3-0.4-0.6-1-0.9-1.9c-0.6,0.5-1,0.9-1.3,1.1c-2.1,1.8-4.3,2.5-6.7,2.2c-2.2-0.3-4-1.2-5.5-3
				c-1.8-2.2-2.5-4.8-2-7.8c0.5-3,2.3-5.8,5.5-8.4l8.5-7.2L300.7,753.1z M319.6,777.8c-0.8-1-1.9-1.6-3.3-1.8
				c-1.1-0.2-3-0.1-5.7,0.1c-0.2,0.2-0.6,0.4-1,0.8c-1.6,1.3-2.8,2.8-3.8,4.3c-1.7,2.8-1.7,5.2,0,7.2c1.2,1.5,2.9,2.1,5,2
				c2.1-0.2,4.2-1.2,6.4-3c1.9-1.6,3.1-3.3,3.4-5.1C321.1,780.6,320.7,779.1,319.6,777.8z M303.4,770.8c1.1-0.9,1.7-2.1,1.8-3.5
				c0.1-1.3-0.4-2.6-1.5-3.9c-1.4-1.7-3.3-3-5.4-3.8c-2.5-0.9-4.5-0.7-6.1,0.6c-1.4,1.2-2,2.7-1.6,4.5c0.2,1,0.7,2.1,1.6,3.1
				c1.4,1.7,3.1,2.9,5.2,3.7C299.7,772.3,301.8,772.1,303.4,770.8z"/>
			<path fill="#DB4436" d="M300.4,744.4l22.3-18.9l3.4,4.1l-9.1,7.7l15.3,18.4l-4.1,3.5L313,740.8l-9.1,7.7L300.4,744.4z"/>
			<path fill="#F3B41B" d="M338.2,720c1.2-1,2.5-1.4,4.1-1.3c1.5,0.1,2.8,0.8,3.8,2l5.7,6.8l-14.2,12l2.2,2.7c0.1,0.1,0.3,0.2,0.4,0
				l14-11.8l3.4,4.1l-14,11.8c-1.2,1-2.5,1.4-4.1,1.3c-1.5-0.1-2.8-0.8-3.8-2l-7.9-9.5c-1-1.2-1.4-2.6-1.3-4.1
				c0.1-1.6,0.8-2.8,2-3.8L338.2,720z M334.1,735.4l10.2-8.6l-2.2-2.7c-0.1-0.1-0.3-0.2-0.4,0l-9.7,8.2c-0.1,0.1-0.2,0.3,0,0.4
				L334.1,735.4z"/>
			<path fill="#547DBF" d="M361.4,724.3l14-11.8l3.4,4.1l-14,11.8c-1.2,1-2.5,1.4-4.1,1.3c-1.5-0.1-2.8-0.8-3.8-2l-7.9-9.5
				c-1-1.2-1.4-2.6-1.3-4.1c0.1-1.5,0.8-2.8,2-3.8l13.9-11.8l3.4,4.1l-13.9,11.8c-0.1,0.1-0.2,0.3,0,0.4l7.9,9.5
				C361.2,724.4,361.3,724.4,361.4,724.3z"/>
			<path fill="#0C9D58" d="M380.8,684c1.2-1,2.5-1.4,4.1-1.3c1.6,0.1,2.8,0.8,3.8,2l11.5,13.8l-4.1,3.4l-11.5-13.8
				c-0.1-0.2-0.3-0.2-0.4,0l-9.7,8.2c-0.1,0.1-0.2,0.3,0,0.4l11.5,13.8l-4.1,3.4l-20.1-24.1l4.1-3.4l4.9,5.9L380.8,684z"/>
		</g>
	</g>
</g>
<g>
	<g>
		<g>
			<path fill="#547DBF" d="M1140.2,735.9c0,123.7-100.3,224-224,224c-123.7,0-224-100.3-224-224s100.3-224,224-224
				C1039.9,511.9,1140.2,612.2,1140.2,735.9z"/>
			<g>
				<defs>
					<path id="SVGID_11_" d="M1140.2,735.9c0,123.7-100.3,224-224,224c-123.7,0-224-100.3-224-224s100.3-224,224-224
						C1039.9,511.9,1140.2,612.2,1140.2,735.9z"/>
				</defs>
				<clipPath id="SVGID_12_">
					<use xlink:href="#SVGID_11_"  overflow="visible"/>
				</clipPath>
				<polygon clip-path="url(#SVGID_12_)" fill="#4468B1" points="1263.7,890.3 1073.6,1080.4 800,849.1 1032.4,616.8 				"/>
			</g>
		</g>
		<g>
			<path fill="#C9D9F0" d="M916.2,897.2c-90.6,0-164.3-73.7-164.3-164.3c0-90.6,73.7-164.3,164.3-164.3
				c90.6,0,164.3,73.7,164.3,164.3C1080.5,823.5,1006.8,897.2,916.2,897.2z"/>
		</g>
		<g>
			<path fill="#2B439B" d="M916.2,903.2c-90.6,0-164.3-73.7-164.3-164.3c0-90.6,73.7-164.3,164.3-164.3
				c90.6,0,164.3,73.7,164.3,164.3C1080.5,829.5,1006.8,903.2,916.2,903.2z"/>
		</g>
		<g>
			<path fill="#0C9D58" d="M916.2,900.2c-90.6,0-164.3-73.7-164.3-164.3c0-90.6,73.7-164.3,164.3-164.3
				c90.6,0,164.3,73.7,164.3,164.3C1080.5,826.5,1006.8,900.2,916.2,900.2z"/>
		</g>
		<g>
			<defs>
				<path id="SVGID_13_" d="M916.2,900.2c-90.6,0-164.3-73.7-164.3-164.3c0-90.6,73.7-164.3,164.3-164.3
					c90.6,0,164.3,73.7,164.3,164.3C1080.5,826.5,1006.8,900.2,916.2,900.2z"/>
			</defs>
			<clipPath id="SVGID_14_">
				<use xlink:href="#SVGID_13_"  overflow="visible"/>
			</clipPath>
			<polygon clip-path="url(#SVGID_14_)" fill="#0B8142" points="1162.6,873.8 1057,979.4 842.3,806.9 990.1,659 			"/>
		</g>
		<g>
			<path fill="#B8E0CD" d="M916.2,837.5c-57.6,0-104.5-46.9-104.5-104.5c0-57.6,46.9-104.5,104.5-104.5
				c57.6,0,104.5,46.9,104.5,104.5C1020.7,790.6,973.8,837.5,916.2,837.5z"/>
		</g>
		<g>
			<path fill="#0B552B" d="M916.2,843.4c-57.6,0-104.5-46.9-104.5-104.5c0-57.6,46.9-104.5,104.5-104.5
				c57.6,0,104.5,46.9,104.5,104.5C1020.7,796.6,973.8,843.4,916.2,843.4z"/>
		</g>
		<g>
			<path fill="#F3B41B" d="M916.2,840.5c-57.6,0-104.5-46.9-104.5-104.5c0-57.6,46.9-104.5,104.5-104.5
				c57.6,0,104.5,46.9,104.5,104.5C1020.7,793.6,973.8,840.5,916.2,840.5z"/>
		</g>
		<g>
			<defs>
				<path id="SVGID_15_" d="M916.2,840.5c-57.6,0-104.5-46.9-104.5-104.5c0-57.6,46.9-104.5,104.5-104.5
					c57.6,0,104.5,46.9,104.5,104.5C1020.7,793.6,973.8,840.5,916.2,840.5z"/>
			</defs>
			<clipPath id="SVGID_16_">
				<use xlink:href="#SVGID_15_"  overflow="visible"/>
			</clipPath>
			<polygon clip-path="url(#SVGID_16_)" fill="#EF9421" points="1094.5,896.1 1073.4,917.2 884.5,770.6 947.9,707.2 			"/>
		</g>
		<g>
			<path fill="#FBE7B1" d="M916.2,777.7c-24.7,0-44.8-20.1-44.8-44.8s20.1-44.8,44.8-44.8s44.8,20.1,44.8,44.8
				S940.9,777.7,916.2,777.7z"/>
		</g>
		<g>
			<path fill="#A52822" d="M916.2,783.7c-24.7,0-44.8-20.1-44.8-44.8s20.1-44.8,44.8-44.8s44.8,20.1,44.8,44.8
				S940.9,783.7,916.2,783.7z"/>
		</g>
		<g>
			<path fill="#DB4436" d="M916.2,780.7c-24.7,0-44.8-20.1-44.8-44.8c0-24.7,20.1-44.8,44.8-44.8s44.8,20.1,44.8,44.8
				C961,760.6,940.9,780.7,916.2,780.7z"/>
		</g>
	</g>
</g>
</svg>
