<?xml version="1.0" encoding="utf-8"?>
<!-- Generator: Adobe Illustrator 17.1.0, SVG Export Plug-In . SVG Version: 6.00 Build 0)  -->
<!DOCTYPE svg PUBLIC "-//W3C//DTD SVG 1.1//EN" "http://www.w3.org/Graphics/SVG/1.1/DTD/svg11.dtd">
<svg version="1.1" id="ad_training_full" xmlns="http://www.w3.org/2000/svg" xmlns:xlink="http://www.w3.org/1999/xlink" x="0px"
	 y="0px" viewBox="0 0 1200 459.8" enable-background="new 0 0 1200 459.8" xml:space="preserve">
<g>
	<g>
		<path fill="#646565" d="M464.4,156.3c-0.6-1.8-1.2-4-1.5-6.7c-0.4-2.6-0.6-5.3-0.7-8c-1.7,2.3-3.8,4.4-6.2,6.4
			c-2.4,2-5.1,3.8-8.1,5.2c-3,1.5-6.3,2.7-9.8,3.6c-3.6,0.9-7.4,1.4-11.6,1.4c-5.1,0-9.8-0.7-13.9-2.2c-4.2-1.5-7.7-3.6-10.7-6.3
			c-2.9-2.7-5.2-5.8-6.9-9.5c-1.6-3.6-2.4-7.6-2.4-11.9c0-5.1,1.1-9.7,3.3-13.9c2.2-4.1,5.4-7.6,9.5-10.5c4.1-2.9,9.1-5.1,15-6.6
			c5.9-1.5,12.4-2.3,19.7-2.3h22.1v-12c0-7.5-2.3-13.4-7-17.7c-4.6-4.3-11.4-6.4-20.3-6.4c-4.1,0-7.8,0.6-11.3,1.7
			c-3.4,1.1-6.4,2.6-8.9,4.5c-2.5,1.9-4.4,4.1-5.8,6.7c-1.4,2.6-2.1,5.3-2.1,8.2l-11.7-0.1c0-4,1-7.8,2.9-11.5
			c1.9-3.7,4.7-7,8.2-9.9c3.5-2.9,7.8-5.2,12.7-6.9c5-1.8,10.4-2.6,16.5-2.6c5.6,0,10.7,0.7,15.4,2.1c4.7,1.4,8.7,3.6,12.1,6.4
			c3.4,2.9,6,6.4,7.9,10.7c1.9,4.3,2.8,9.3,2.8,15v50.9c0,1.8,0.1,3.7,0.2,5.6c0.1,1.9,0.3,3.8,0.6,5.6c0.3,1.8,0.6,3.5,1,5.2
			c0.4,1.7,0.8,3.1,1.4,4.3v1.2H464.4z M427.9,148.1c4.2,0,8.1-0.5,11.7-1.6c3.6-1.1,6.9-2.5,9.8-4.4c2.9-1.9,5.4-4.1,7.6-6.6
			c2.1-2.5,3.9-5.2,5.2-8.2v-23.1h-20.5c-5.8,0-11,0.5-15.6,1.6c-4.6,1.1-8.6,2.6-11.8,4.6s-5.7,4.5-7.4,7.3
			c-1.7,2.9-2.6,6.1-2.6,9.8c0,2.9,0.6,5.5,1.7,8.1c1.1,2.5,2.7,4.7,4.7,6.6c2,1.8,4.5,3.3,7.4,4.4
			C421,147.5,424.3,148.1,427.9,148.1z"/>
		<path fill="#646565" d="M494.1,102.8c0-8.2,0.9-15.5,2.8-22.1c1.9-6.6,4.6-12.2,8.1-16.9c3.5-4.7,7.8-8.3,12.8-10.8
			c5-2.5,10.7-3.8,17-3.8c7.4,0,13.9,1.5,19.2,4.5c5.3,3,9.8,7.1,13.3,12.3V7h11.6v149.3h-10.9l-0.5-14c-3.5,5-8,8.9-13.4,11.7
			c-5.4,2.8-11.9,4.2-19.5,4.2c-6.2,0-11.8-1.3-16.8-3.9c-5-2.6-9.2-6.3-12.7-11c-3.5-4.7-6.2-10.3-8.1-16.9
			c-1.9-6.5-2.8-13.8-2.8-21.7V102.8z M505.8,104.8c0,6.2,0.6,11.9,1.8,17.2c1.2,5.3,3.1,9.9,5.6,13.8c2.5,3.9,5.7,7,9.6,9.2
			c3.9,2.2,8.4,3.4,13.8,3.4c3.9,0,7.5-0.5,10.7-1.4c3.2-0.9,6.1-2.3,8.6-4c2.5-1.7,4.7-3.7,6.5-6.1c1.8-2.3,3.4-4.9,4.7-7.6V79.8
			c-1.2-2.7-2.6-5.2-4.3-7.7c-1.7-2.5-3.8-4.6-6.2-6.6c-2.5-1.9-5.3-3.4-8.6-4.6c-3.2-1.1-7-1.7-11.3-1.7c-5.4,0-10,1.1-13.9,3.4
			c-3.9,2.2-7.1,5.3-9.6,9.2c-2.5,3.9-4.4,8.5-5.6,13.8c-1.2,5.3-1.8,11-1.8,17.1V104.8z"/>
		<path fill="#646565" d="M634.1,129.5l3.7,13.3l3.9-13.3l28.1-78.3h12l-39.3,105.2h-9.3L593.7,51.2h12L634.1,129.5z"/>
		<path fill="#646565" d="M733.7,158.3c-6.9,0-13.2-1.3-19-3.8c-5.8-2.6-10.7-6.1-14.9-10.7c-4.2-4.6-7.4-10-9.8-16.3
			c-2.3-6.3-3.5-13.2-3.5-20.7v-4.2c0-8.1,1.2-15.4,3.6-22s5.7-12.2,9.9-16.8c4.1-4.6,8.9-8.2,14.3-10.7c5.4-2.5,11.1-3.8,17.2-3.8
			c6.7,0,12.6,1.2,17.8,3.6c5.2,2.4,9.5,5.7,13.1,10s6.2,9.4,8,15.3c1.8,5.9,2.7,12.3,2.7,19.3v7.1h-75v2.2c0,5.8,0.9,11.2,2.6,16.3
			c1.7,5.1,4.2,9.5,7.4,13.3c3.2,3.8,7,6.8,11.4,8.9c4.4,2.2,9.3,3.3,14.7,3.3c6.2,0,11.7-1.1,16.5-3.5c4.8-2.3,9.1-5.9,13-10.9
			l7.3,5.5c-1.8,2.5-3.8,4.9-6.1,7.2c-2.3,2.3-5,4.2-8,5.9c-3,1.7-6.5,3-10.3,4C742.7,157.8,738.4,158.3,733.7,158.3z M731.5,59.1
			c-4.4,0-8.5,0.8-12.2,2.5c-3.8,1.7-7.1,4.1-10,7.2c-2.9,3.1-5.3,6.9-7.1,11.2c-1.8,4.4-3.1,9.2-3.7,14.5h63.1v-1.3
			c-0.1-4.4-0.8-8.7-2.1-12.8c-1.3-4.1-3.2-7.8-5.7-10.9c-2.5-3.2-5.6-5.7-9.3-7.6C740.8,60.1,736.4,59.1,731.5,59.1z"/>
		<path fill="#646565" d="M840.3,61.1c-2.5-0.5-5.1-0.7-7.9-0.7c-4,0-7.5,0.6-10.7,1.8c-3.2,1.2-6,2.8-8.4,4.9
			c-2.4,2.1-4.5,4.6-6.1,7.5c-1.6,2.9-3,6.1-3.9,9.6v72.2h-11.6V51.2h11.4l0.2,16.7c2.8-5.8,6.7-10.3,11.6-13.7c4.9-3.3,10.9-5,18-5
			c1.4,0,2.9,0.1,4.4,0.4c1.5,0.3,2.6,0.6,3.3,0.9L840.3,61.1z"/>
		<path fill="#646565" d="M880.1,24.2v26.9h21.8v9.5h-21.8v67.7c0,3.8,0.4,7,1.1,9.6c0.7,2.6,1.8,4.6,3,6.1s2.7,2.5,4.4,3.2
			c1.7,0.6,3.4,0.9,5.2,0.9c1.8,0,3.4-0.1,5.1-0.3c1.6-0.2,3.1-0.5,4.4-0.7l0.5,9.5c-3.3,1.1-7.5,1.7-12.4,1.7
			c-3.4,0-6.4-0.6-9.2-1.7c-2.8-1.1-5.2-2.8-7.2-5.2c-2-2.4-3.6-5.4-4.7-9.2c-1.1-3.8-1.7-8.4-1.7-13.9V60.7h-19.3v-9.5h19.3V24.2
			H880.1z"/>
		<path fill="#646565" d="M918.6,20.7c0-2.2,0.7-4.1,2.1-5.6c1.4-1.5,3.4-2.3,5.8-2.3c2.5,0,4.4,0.8,5.9,2.3
			c1.5,1.5,2.2,3.4,2.2,5.6s-0.7,4-2.2,5.5c-1.5,1.5-3.4,2.2-5.9,2.2c-2.5,0-4.4-0.7-5.8-2.2C919.3,24.8,918.6,23,918.6,20.7z
			 M932.3,156.3h-11.7V51.2h11.7V156.3z"/>
		<path fill="#646565" d="M1020,129.6c0-2.2-0.4-4.3-1.2-6.4c-0.8-2.1-2.2-4.1-4.3-6c-2.1-1.9-4.9-3.7-8.5-5.3
			c-3.6-1.6-8.2-3-13.9-4.3c-6-1.3-11.2-2.8-15.8-4.4c-4.6-1.7-8.4-3.6-11.6-6c-3.1-2.3-5.5-5.1-7.1-8.2c-1.6-3.1-2.4-6.9-2.4-11.1
			c0-3.9,0.9-7.6,2.6-11.1c1.7-3.5,4.2-6.5,7.4-9.1c3.2-2.6,7.1-4.6,11.7-6.2c4.6-1.5,9.7-2.3,15.4-2.3c6.1,0,11.5,0.8,16.4,2.4
			c4.8,1.6,8.9,3.8,12.2,6.6s5.9,6.1,7.6,10c1.7,3.8,2.6,8,2.6,12.4h-11.7c0-2.7-0.6-5.4-1.8-8c-1.2-2.6-2.9-4.9-5.2-6.9
			c-2.3-2-5.2-3.6-8.6-4.8c-3.4-1.2-7.3-1.8-11.6-1.8c-4.5,0-8.4,0.6-11.6,1.7c-3.2,1.1-5.8,2.5-7.9,4.3c-2,1.7-3.5,3.7-4.5,5.9
			c-1,2.2-1.5,4.4-1.5,6.6c0,2.1,0.3,4.2,1,6.1c0.6,1.9,2,3.7,3.9,5.4c2,1.7,4.8,3.3,8.4,4.8c3.6,1.5,8.3,2.9,14.2,4.2
			c5.9,1.3,11.2,2.8,15.8,4.6c4.6,1.8,8.6,3.9,11.8,6.4c3.2,2.5,5.7,5.3,7.3,8.7c1.7,3.3,2.5,7.1,2.5,11.5c0,4.3-0.9,8.3-2.8,11.9
			c-1.8,3.6-4.5,6.7-7.8,9.2c-3.4,2.6-7.4,4.6-12.2,6c-4.8,1.4-10.1,2.1-16,2.1c-6.7,0-12.6-0.9-17.7-2.6c-5.1-1.7-9.4-4-12.9-7
			c-3.5-2.9-6.1-6.3-7.9-10.1c-1.8-3.8-2.7-7.7-2.7-11.8h11.7c0.3,4.1,1.3,7.6,3.2,10.4c1.8,2.8,4.2,5,7,6.6
			c2.8,1.7,5.9,2.8,9.3,3.5c3.4,0.7,6.8,1.1,10.1,1.1c4.4,0,8.3-0.5,11.7-1.6c3.4-1,6.2-2.4,8.5-4.2c2.3-1.8,4-3.8,5.2-6
			C1019.4,134.4,1020,132.1,1020,129.6z"/>
		<path fill="#646565" d="M1093.1,158.3c-6.9,0-13.2-1.3-19-3.8c-5.8-2.6-10.7-6.1-14.9-10.7s-7.4-10-9.8-16.3
			c-2.3-6.3-3.5-13.2-3.5-20.7v-4.2c0-8.1,1.2-15.4,3.6-22c2.4-6.6,5.7-12.2,9.9-16.8c4.1-4.6,8.9-8.2,14.3-10.7
			c5.4-2.5,11.1-3.8,17.2-3.8c6.7,0,12.6,1.2,17.8,3.6c5.2,2.4,9.5,5.7,13.1,10s6.2,9.4,8,15.3c1.8,5.9,2.7,12.3,2.7,19.3v7.1h-75
			v2.2c0,5.8,0.9,11.2,2.6,16.3c1.8,5.1,4.2,9.5,7.4,13.3c3.2,3.8,7,6.8,11.4,8.9c4.4,2.2,9.3,3.3,14.7,3.3c6.2,0,11.7-1.1,16.5-3.5
			c4.8-2.3,9.1-5.9,13-10.9l7.3,5.5c-1.8,2.5-3.8,4.9-6.1,7.2c-2.3,2.3-5,4.2-8,5.9c-3,1.7-6.5,3-10.3,4
			C1102.1,157.8,1097.8,158.3,1093.1,158.3z M1090.9,59.1c-4.4,0-8.5,0.8-12.2,2.5c-3.8,1.7-7.1,4.1-10,7.2
			c-2.9,3.1-5.3,6.9-7.1,11.2c-1.8,4.4-3.1,9.2-3.7,14.5h63.1v-1.3c-0.1-4.4-0.8-8.7-2.1-12.8c-1.3-4.1-3.2-7.8-5.7-10.9
			c-2.5-3.2-5.6-5.7-9.3-7.6C1100.2,60.1,1095.8,59.1,1090.9,59.1z"/>
		<path fill="#646565" d="M1199.7,61.1c-2.5-0.5-5.1-0.7-7.9-0.7c-4,0-7.5,0.6-10.7,1.8c-3.2,1.2-6,2.8-8.4,4.9
			c-2.4,2.1-4.5,4.6-6.1,7.5c-1.6,2.9-3,6.1-3.9,9.6v72.2h-11.6V51.2h11.4l0.2,16.7c2.8-5.8,6.7-10.3,11.6-13.7c4.9-3.3,10.9-5,18-5
			c1.4,0,2.9,0.1,4.4,0.4c1.5,0.3,2.6,0.6,3.3,0.9L1199.7,61.1z"/>
		<path fill="#646565" d="M415.9,194.9v26.9h21.8v9.5h-21.8v67.7c0,3.8,0.4,7,1.1,9.6c0.7,2.6,1.8,4.6,3,6.1
			c1.3,1.5,2.7,2.5,4.4,3.2c1.7,0.6,3.4,0.9,5.2,0.9c1.8,0,3.4-0.1,5.1-0.3s3.1-0.5,4.4-0.7l0.5,9.5c-3.3,1.1-7.5,1.7-12.4,1.7
			c-3.4,0-6.4-0.6-9.2-1.7c-2.8-1.1-5.2-2.8-7.2-5.2c-2-2.4-3.6-5.4-4.7-9.2c-1.1-3.8-1.7-8.4-1.7-13.9v-67.7h-19.3v-9.5h19.3v-26.9
			H415.9z"/>
		<path fill="#646565" d="M504.5,231.7c-2.5-0.5-5.1-0.7-7.9-0.7c-4,0-7.5,0.6-10.7,1.8c-3.2,1.2-6,2.8-8.4,4.9
			c-2.4,2.1-4.5,4.6-6.1,7.5c-1.6,2.9-3,6.1-3.9,9.6V327h-11.6V221.8h11.4l0.2,16.7c2.8-5.8,6.7-10.3,11.6-13.7c4.9-3.3,10.9-5,18-5
			c1.4,0,2.9,0.1,4.4,0.4c1.5,0.3,2.6,0.6,3.3,0.9L504.5,231.7z"/>
		<path fill="#646565" d="M584.2,327c-0.6-1.8-1.2-4-1.5-6.7c-0.4-2.6-0.6-5.3-0.7-8c-1.7,2.3-3.8,4.4-6.2,6.4
			c-2.4,2-5.1,3.8-8.1,5.2c-3,1.5-6.3,2.7-9.8,3.6c-3.6,0.9-7.4,1.4-11.6,1.4c-5.1,0-9.8-0.7-13.9-2.2c-4.2-1.5-7.7-3.6-10.7-6.3
			c-2.9-2.7-5.2-5.8-6.9-9.5c-1.6-3.6-2.4-7.6-2.4-11.9c0-5.1,1.1-9.7,3.3-13.9c2.2-4.1,5.4-7.6,9.5-10.5c4.1-2.9,9.1-5.1,15-6.6
			c5.9-1.5,12.4-2.3,19.7-2.3h22.1v-12c0-7.5-2.3-13.4-7-17.7c-4.6-4.3-11.4-6.4-20.3-6.4c-4.1,0-7.8,0.6-11.3,1.7
			c-3.4,1.1-6.4,2.6-8.9,4.5c-2.5,1.9-4.4,4.1-5.8,6.7c-1.4,2.6-2.1,5.3-2.1,8.2l-11.7-0.1c0-4,1-7.8,2.9-11.5
			c1.9-3.7,4.7-7,8.2-9.9c3.5-2.9,7.8-5.2,12.7-6.9c5-1.8,10.4-2.6,16.5-2.6c5.6,0,10.7,0.7,15.4,2.1c4.7,1.4,8.7,3.6,12.1,6.4
			c3.4,2.9,6,6.4,7.9,10.7c1.9,4.3,2.8,9.3,2.8,15V305c0,1.8,0.1,3.7,0.2,5.6c0.1,1.9,0.3,3.8,0.6,5.6c0.3,1.8,0.6,3.5,1,5.2
			c0.4,1.7,0.8,3.1,1.4,4.3v1.2H584.2z M547.7,318.7c4.2,0,8.1-0.5,11.7-1.6c3.6-1.1,6.9-2.5,9.8-4.4c2.9-1.9,5.4-4.1,7.6-6.6
			c2.1-2.5,3.9-5.2,5.2-8.2v-23.1h-20.5c-5.8,0-11,0.5-15.6,1.6c-4.6,1.1-8.6,2.6-11.8,4.6c-3.2,2-5.7,4.5-7.4,7.3
			c-1.7,2.9-2.6,6.1-2.6,9.8c0,2.9,0.6,5.5,1.7,8.1c1.1,2.5,2.7,4.7,4.7,6.6c2,1.8,4.5,3.3,7.4,4.4
			C540.8,318.2,544,318.7,547.7,318.7z"/>
		<path fill="#646565" d="M617.3,191.4c0-2.2,0.7-4.1,2.1-5.6c1.4-1.5,3.4-2.3,5.8-2.3c2.5,0,4.4,0.8,5.9,2.3
			c1.5,1.5,2.2,3.4,2.2,5.6s-0.7,4-2.2,5.5c-1.5,1.5-3.4,2.2-5.9,2.2c-2.5,0-4.4-0.7-5.8-2.2C618,195.4,617.3,193.6,617.3,191.4z
			 M631,327h-11.7V221.8H631V327z"/>
		<path fill="#646565" d="M668,221.8l0.4,18c1.8-3,3.9-5.7,6.3-8.2c2.4-2.5,5-4.6,7.9-6.3c2.9-1.8,6.1-3.1,9.4-4
			c3.4-0.9,6.9-1.4,10.7-1.4c5.3,0,9.9,0.7,14.1,2.1c4.1,1.4,7.7,3.7,10.5,6.8c2.9,3.1,5.1,7.1,6.6,12c1.5,4.9,2.3,10.8,2.3,17.7
			V327h-11.6v-68.5c0-5.4-0.6-10-1.8-13.6c-1.2-3.6-2.8-6.5-5-8.7c-2.1-2.2-4.7-3.8-7.8-4.7c-3.1-0.9-6.5-1.4-10.3-1.4
			c-4.1,0-7.9,0.7-11.3,2.1c-3.4,1.4-6.4,3.3-8.9,5.6c-2.6,2.3-4.8,5-6.7,8c-1.9,3-3.4,6.1-4.5,9.3v72H657V221.8H668z"/>
		<path fill="#646565" d="M759.5,191.4c0-2.2,0.7-4.1,2.1-5.6c1.4-1.5,3.4-2.3,5.8-2.3c2.5,0,4.4,0.8,5.9,2.3
			c1.5,1.5,2.2,3.4,2.2,5.6s-0.7,4-2.2,5.5c-1.5,1.5-3.4,2.2-5.9,2.2c-2.5,0-4.4-0.7-5.8-2.2C760.2,195.4,759.5,193.6,759.5,191.4z
			 M773.2,327h-11.7V221.8h11.7V327z"/>
		<path fill="#646565" d="M810.2,221.8l0.4,18c1.8-3,3.9-5.7,6.3-8.2c2.4-2.5,5-4.6,7.9-6.3c2.9-1.8,6.1-3.1,9.4-4
			c3.4-0.9,6.9-1.4,10.7-1.4c5.3,0,9.9,0.7,14.1,2.1c4.1,1.4,7.7,3.7,10.5,6.8c2.9,3.1,5.1,7.1,6.6,12c1.5,4.9,2.3,10.8,2.3,17.7
			V327h-11.6v-68.5c0-5.4-0.6-10-1.8-13.6c-1.2-3.6-2.8-6.5-5-8.7c-2.1-2.2-4.7-3.8-7.8-4.7c-3.1-0.9-6.5-1.4-10.3-1.4
			c-4.1,0-7.9,0.7-11.3,2.1c-3.4,1.4-6.4,3.3-8.9,5.6c-2.6,2.3-4.8,5-6.7,8c-1.9,3-3.4,6.1-4.5,9.3v72h-11.6V221.8H810.2z"/>
		<path fill="#646565" d="M898.9,273.4c0-8.2,0.9-15.5,2.8-22.1c1.8-6.6,4.5-12.2,8-16.9c3.5-4.7,7.8-8.3,12.8-10.8
			c5-2.5,10.7-3.8,17.1-3.8c7.5,0,14,1.5,19.3,4.5c5.4,3,9.8,7.2,13.3,12.6l0.6-15.2h10.9v103.3c0,6.8-1,12.9-3,18.3
			c-2,5.4-4.8,10-8.5,13.8c-3.7,3.8-8.1,6.6-13.3,8.7c-5.2,2-11,3-17.4,3c-3.3,0-6.7-0.4-10.1-1.1c-3.4-0.7-6.8-1.9-10-3.4
			c-3.2-1.5-6.2-3.4-9.1-5.6c-2.9-2.2-5.3-4.9-7.5-7.9l6.5-7c4.3,5.2,8.8,9.1,13.6,11.5c4.8,2.4,10,3.6,15.7,3.6
			c5,0,9.4-0.8,13.3-2.3c3.9-1.5,7.1-3.7,9.8-6.6c2.7-2.9,4.7-6.4,6.1-10.5c1.4-4.1,2.1-8.8,2.1-14v-12.2
			c-3.5,4.9-7.9,8.7-13.3,11.4c-5.4,2.8-11.8,4.1-19.2,4.1c-6.3,0-11.9-1.3-16.9-3.9c-5-2.6-9.2-6.3-12.7-11
			c-3.5-4.7-6.2-10.3-8-16.9c-1.8-6.5-2.8-13.8-2.8-21.7V273.4z M910.7,275.5c0,6.2,0.6,11.9,1.8,17.2c1.2,5.3,3.1,9.9,5.6,13.8
			c2.5,3.9,5.7,7,9.6,9.2s8.4,3.4,13.8,3.4c4,0,7.6-0.5,10.8-1.5c3.2-1,6-2.3,8.5-4c2.5-1.7,4.6-3.7,6.4-6.1
			c1.8-2.3,3.4-4.9,4.7-7.7v-49c-1.1-2.7-2.5-5.3-4.2-7.8c-1.7-2.5-3.8-4.7-6.2-6.6c-2.4-1.9-5.3-3.4-8.5-4.6
			c-3.2-1.1-7-1.7-11.3-1.7c-5.4,0-10,1.1-13.9,3.4c-3.9,2.2-7.1,5.3-9.6,9.2c-2.5,3.9-4.4,8.5-5.6,13.8c-1.2,5.3-1.8,11-1.8,17.1
			V275.5z"/>
	</g>
	<g>
		<g>
			<g>
				<g>
					<g>
						<g>
							<path fill="#C2C1C1" d="M367,360.5c0.2-0.1,0.1-0.3-0.4-0.2l-0.4,0.3L367,360.5z"/>
							<path fill="#C2C1C1" d="M363.4,359.9c-0.6,0.2-1.3,0.4-0.9,0.7c0.6-0.3,0.8-0.2,1.4-0.6c0.5,0,0.9,0.1,0.8,0.2
								c0.2-0.1,0.8,0.1,1.1-0.1c-0.7-0.3-1.6-0.3-2.5-0.1C363.1,360.1,363.3,360,363.4,359.9z"/>
							<path fill="#C2C1C1" d="M311.3,359.4l0.3,0C311.6,359.4,311.5,359.4,311.3,359.4z"/>
							<path fill="#C2C1C1" d="M279.1,359.2c0.2,0,0.3,0,0.4-0.1C279.2,359.2,279,359.2,279.1,359.2z"/>
							<path fill="#C2C1C1" d="M273.6,358.8c0.1,0,0.2,0,0.3,0C273.8,358.8,273.7,358.8,273.6,358.8z"/>
							<path fill="#C2C1C1" d="M311.3,359.4l-0.9-0.1C310.4,359.4,310.9,359.4,311.3,359.4z"/>
							<path fill="#C2C1C1" d="M356.2,360.7c0.2,0,0.3,0,0.5-0.1C356.5,360.6,356.4,360.6,356.2,360.7
								C356.2,360.7,356.2,360.7,356.2,360.7z"/>
							<path fill="#C2C1C1" d="M325.6,359.1l0.3,0c0.1,0,0.1-0.1,0.2-0.1L325.6,359.1z"/>
							<path fill="#C2C1C1" d="M336.5,359.1c-0.2,0-0.3,0.3-0.4,0.4c0.1-0.1,0.3-0.2,0.5-0.2C336.6,359.2,336.6,359.2,336.5,359.1z"
								/>
							<path fill="#C2C1C1" d="M353.8,359.6l0.3,0C354,359.5,353.9,359.6,353.8,359.6z"/>
							<path fill="#C2C1C1" d="M317.8,359.1c0,0-0.1-0.1-0.1-0.1C317.7,359,317.7,359,317.8,359.1z"/>
							<path fill="#C2C1C1" d="M12.6,361.2C12.7,361.2,12.6,361.1,12.6,361.2C12.6,361.2,12.6,361.2,12.6,361.2z"/>
							<path fill="#C2C1C1" d="M0,359.8l0.2,0c0-0.1,0-0.1,0-0.2L0,359.8z"/>
							<path fill="#C2C1C1" d="M263.5,358.5C263.5,358.5,263.5,358.5,263.5,358.5C263.8,358.5,263.7,358.5,263.5,358.5z"/>
							<path fill="#C2C1C1" d="M171,358.7c1,0.3-1.7,0.3-0.1,0.6C170.8,359.2,172.3,358.9,171,358.7z"/>
							<path fill="#C2C1C1" d="M355.9,360.7c-0.1,0-0.3,0-0.4,0C355.7,360.7,355.8,360.7,355.9,360.7z"/>
							<path fill="#C2C1C1" d="M170.9,359.3C170.9,359.3,170.9,359.3,170.9,359.3l0.2,0C171,359.3,171,359.3,170.9,359.3z"/>
							<path fill="#C2C1C1" d="M240.3,358.7c0,0,0.1,0.1,0.2,0.1C240.5,358.7,240.5,358.7,240.3,358.7z"/>
							<path fill="#C2C1C1" d="M257.6,359.1l-0.4,0C257.3,359,257.5,359.1,257.6,359.1z"/>
							<path fill="#C2C1C1" d="M231.3,359.1c-0.2,0-0.3-0.1-0.6,0c0,0,0.1,0,0.1,0C230.9,359,231.1,359,231.3,359.1z"/>
							<path fill="#C2C1C1" d="M222,359.1c0,0,0.1,0,0.2,0.1c0.1,0,0.2,0,0.3,0L222,359.1z"/>
							<path fill="#C2C1C1" d="M41,361c-0.2-0.1-0.3-0.2-0.4-0.3C40.8,361,39.4,361.1,41,361z"/>
							<path fill="#C2C1C1" d="M356.2,360.5c-0.1,0.1-0.1,0.1-0.3,0.1c0.1,0,0.2,0,0.3,0C356.3,360.6,356.3,360.6,356.2,360.5z"/>
							<path fill="#C2C1C1" d="M230.9,361.3l-1.5,0C229.9,361.3,230.4,361.3,230.9,361.3z"/>
							<path fill="#C2C1C1" d="M108.1,361l-0.3,0C107.9,361,108,361,108.1,361z"/>
							<path fill="#C2C1C1" d="M225.1,361.3c-0.3-0.1-0.5-0.2-0.8-0.2c-0.1,0-0.1,0-0.2,0.1L225.1,361.3z"/>
							<path fill="#C2C1C1" d="M40.6,360.8C40.6,360.8,40.6,360.8,40.6,360.8C40.6,360.8,40.6,360.8,40.6,360.8z"/>
							<path fill="#C2C1C1" d="M30.8,361.5c1.4,0,0.7-0.4,1-0.6c1.7-0.1,0.8,0.3,1.4,0.5c1.1-0.1,1.9-0.4,2.6-0.4
								c0.1,0.1,0.2,0.1,0,0.2c1.1-0.3,3.3,0,4.6-0.4c0.1,0,0.1,0.1,0.2,0.1c-0.2-0.2-0.2-0.4-0.2-0.5c0.6,0,1.2-0.2,1.4,0
								c-0.4,0-0.4,0.1-0.6,0.2l0.7-0.1c0.6,0.3-0.9,0.1-0.9,0.4c1.3-0.1,2.8-0.4,3.8-0.3c0.2,0.3-2.3,0.1-1,0.4l-1.5-0.1
								c1.2,0.5-0.9,0,0.1,0.5c2,0.1,2.3-0.2,4.3-0.1c0.5-0.2-0.2-0.3,0.3-0.5c2.9-0.3,2.3,0.9,4.4,0.4c0.5-0.2,0.8-0.7,2.3-0.4
								l-0.5,0.4c2,0,1.1-0.6,3.2-0.3c-0.4,0.2-1.5,0.1-1.2,0.2c1.3,0.3,0.9-0.2,2-0.2l0.2,0.3c2.1-0.1,4.4-0.3,6.7-0.4
								c-0.1,0.1-0.5,0.2,0,0.3c2.9-0.2,6.2,0,9,0.2L74,361c0.2,0,0.5,0.1,0.2,0.2c1.1,0.1,0.1-0.2,0.6-0.3c0.6,0,0.8,0.2,0.4,0.3
								c1.9-0.2,5.5-0.5,7.5-0.2l-0.4,0.1c1.6,0.1,1.8-0.6,3.3-0.3l-0.3,0.1c3.4,0.1,7.2-0.1,9.9,0.3c0.5-0.4,3.4,0.2,3.6-0.4
								c2,0.3,1.4,0.4,4.2,0.6c0.7,0,1.1-0.4,2-0.4l0,0.3l1.2-0.3l0.7,0.4l0.9-0.1c-0.3,0-0.7-0.1-0.7-0.2c1.3-0.1,3.3,0.2,3.3,0.4
								l3.2-0.3c-0.1,0.1-0.6,0.2-1,0.2c1.7-0.3,0.3,0.3,1.9,0c-0.2-0.1,0.1-0.2,0.1-0.2c0.8,0.2,2.5,0.2,3.8,0.1l-0.2,0.2
								c2.3,0.1,4.9-0.1,7.6-0.1c-0.9-0.1-0.7-0.5,0-0.5l0.3,0.3c0.5-0.2-0.8-0.1,0.2-0.4c1,0,0.7,0.4,0.1,0.5l1.2-0.1
								c0.1,0.1-0.2,0.1-0.3,0.3c0.5-0.2,2.1,0.3,2.8,0l0.1,0.1c2.6,0,3.8-0.1,6-0.1c0-0.3,0.9-0.2,1.5-0.4c1.6,0.1,3.3,0.3,5.2,0.3
								c1.3-0.1,0.4-0.2,1-0.4c0.1,0.3,2,0.2,1,0.4c2.3,0,2.9-0.1,5.8-0.3c-0.3-0.1-0.7-0.2-0.5-0.2c0.5,0,1.2,0.1,1.1,0.2l-0.1,0
								c3.2-0.4,7.5,0.7,10,0.2l-0.1,0l2.7-0.3c1.2,0-0.7,0.2,0.2,0.4c2.9-0.4,4.6,0.1,6.9-0.2c1.8,0.8,6.5-0.1,9,0.4l-0.1-0.2
								c0.6-0.2,0.8,0.1,1.2,0.1c-0.1-0.1-0.7-0.2-0.3-0.3c5.4-0.2,11.2,0.3,16.8,0.4c2,0,1.2-0.9,3.7-0.5l-0.7,0.3
								c4.1-0.4,8.4,0,12.4-0.3c-0.2,0.1-0.2,0.2-0.6,0.2c0.8,0.2,3.1,0,3.2-0.2c0.6,0,0.1,0.2,0.5,0.3c0.9,0.1,2.1-0.3,2.6-0.1
								c0.1,0-0.2,0.1-0.4,0.1c0.6-0.1,2.6,0,2.1-0.2c1.5,0.1,2.9-0.1,4.1,0c0.8-0.3,2.6,0.1,2.8-0.3c-0.1,0.5,2.6,0.4,3.6,0.2
								c-0.3,0.1,0.8,0.1,0.5,0.3c1.1,0,2.1-0.1,1.9-0.3c2,0.5,4-0.4,5.2,0.3c3.2-0.2,6.2-0.4,9.1-0.5c-0.1,0.5-3.2,0-3.1,0.5
								c2.8-0.2,4.4-0.6,7.1-0.5c0.7,0.1-0.4,0.2-0.6,0.3c2.8-0.2,5.3,0,7.8-0.2c0,0-0.3,0.1-0.5,0.1c0.5,0,1.1,0.1,1.1-0.1
								l-0.5,0.1c-0.8-0.3,1.9-0.6,2-0.8c-0.8,0.6,2.4,0.1,1.1,0.9c0.3,0,0.7-0.1,0.6-0.3c0.5,0,0.6,0.1,0.1,0.3
								c1.7-0.1,1.1-0.3,2.7-0.3c0,0.1-0.3,0.1-0.5,0.3c0.8-0.2,1.6-0.4,2.9-0.3c-0.1,0.1,0.1,0.1-0.3,0.1c2.3,0,3.9-0.5,6.4-0.3
								c-0.7,0.4,0.9,0.1,1,0.5l1.3-0.1l-0.5-0.2c1.2,0,2.2-0.3,3.2-0.1l-0.9,0.2l2.2-0.1l-1.2-0.1c1.2-0.2-0.1-0.5,1.4-0.4
								c-0.3,0,1.2,0,1.8,0.2c0,0,0,0,0,0c0.6-0.1,1.2-0.2,2.1-0.2c0.2,0.1-0.2,0.4,0,0.5c0.6-0.3,2.8-0.1,3.5-0.4
								c-0.2,0.1-0.3,0.3-0.2,0.3l0.5-0.3c0.5,0.1,0.6,0.1,0.5,0.3c1.6,0-0.5-0.5,1.4-0.3c-0.2,0-0.1,0.1-0.4,0.1
								c2,0.1,3.8-0.2,5.6,0c0.5,0.4-1.6,0.1-1,0.4c2.6-0.1,5.4-0.5,7.9-0.4l-0.5,0c0.3-0.5,1.9,0.3,3.1,0c-0.3,0-0.4,0.3-0.3,0.2
								c1.7,0.1,3.5-0.1,6.1-0.3l-0.3,0.1c1,0.1,2.7,0.1,3.8,0.1c0.3-0.1,0.9-0.1,0.6-0.3c3.4,0.8,6.4-0.4,9.4,0.2
								c-0.4,0-0.9,0.1-0.6,0.1l2.5-0.1c-0.2-0.2-0.3-0.1-0.9-0.3c0.3-0.1,1-0.2,1.7-0.2c-1.1,0.2,0,0.4,0.5,0.5
								c-0.1-0.1,0.1-0.1,0-0.2c1.3,0.4,0.2-0.5,2-0.2l-0.1,0.1c0.7-0.1,1.3-0.2,2-0.2c0.3,0.3-0.7,0.1-0.8,0.3c1,0,2-0.5,3-0.2
								c-0.4,0.1-1.1,0.1-1.5,0.1c1,0.3,1.1,0.2,1.9,0.3l-0.1,0l1.7,0.1l-0.4-0.1c1.3-0.7,2.6-0.1,4.4-0.6c-1.7,0.4-0.3,0.2-0.4,0.6
								c0.4,0.1,1.1,0.2,0.9,0.3c0.8-0.2,1.4,0.2,2.5-0.2c0.1,0.1,0.9,0,0.7,0.3c1.1-0.1-0.3-0.2-0.2-0.3c1.6-0.3,3.9,0.4,6.2-0.1
								c2-0.2,2.4-0.5,4.3-0.7c0.6,0.2-0.5,0.4-0.5,0.4c1,0.1,1.8,0.1,2.8,0c-0.2,0.1,0,0.2,0.3,0.3c0.8,0,0.5-0.4,1.5-0.2
								c-0.2,0.1-0.4,0.3-0.8,0.4c0.9-0.1,1.8-0.3,2.8-0.4c0.3,0.2-0.6,0.3-0.9,0.4c1.1-0.1,2.8-0.2,3.1-0.4l-0.7-0.1
								c0.4,0,0.2,0.2-0.1,0.3c-0.9,0.2-1.3-0.1-1.4-0.2l0.7-0.1c-0.7-0.6-2.7,0.1-4.1,0.1l0.6-0.4l-1.4,0.3
								c-0.3-0.1-0.5-0.3,0.2-0.4c-1-0.2-0.9,0.1-1.7-0.1c-0.1,0-0.1-0.1,0-0.1l-1,0.1c0.2-0.1-0.2-0.3,0.4-0.2
								c-1.7-0.2-2.8,0.3-3.4,0l0.1,0c-2.4,0.1-0.2,0.3-2,0.7l-1.2-0.8l-0.2,0.3c-0.2,0-0.7,0-0.6-0.2c-0.9,0.2,0.2,0.1-0.4,0.3
								c-1.2-0.3-3.3,0.1-3.5-0.4c-0.4,0.2,1.1,0.2-0.1,0.3c-0.4-0.5-1.5,0.1-2.5-0.2c0.3-0.3,1.4-0.1,0.3-0.4c-0.7,0.5-2.1-0.1-3,0
								c0,0.4-2,0.2-3.5,0.3c0.1-0.1-2.9-0.2-4.3-0.3l0-0.1c-0.3,0.4-1.7,0.3-2.8,0.4c0-0.2,0.2-0.3,0.8-0.4l-1,0
								c-0.2,0.1-0.5,0.2-1.2,0.2l0.3-0.3c-1.3,0-2.7,0.3-4.4,0.1c-0.1,0.3,1.4,0.7-0.5,0.9c-0.1-0.1-0.1-0.4,0.3-0.4
								c-0.2,0-0.6,0.1-0.9,0.1l0.7-0.2c-0.8-0.1-0.4,0.2-1,0.2c0-0.2-0.5-0.1-0.4-0.3c0.2,0,0.5,0.1,0.8,0c-0.7,0-1.6-0.2-1.8-0.3
								c0.1,0.1,0,0.3-0.5,0.3c-1.3,0-0.5-0.2-1.2-0.3c-0.3,0.1-1.2,0-1.2,0.3c-0.4,0-0.5-0.1-0.6-0.2c-0.7,0.1-3.2,0-2.4,0.4l0.2,0
								c0,0-0.1,0-0.1,0c0,0,0,0,0,0h0c-2.3,0.3-4.7-0.2-7,0l0-0.1c-1.3,0.1-3,0.1-3.9,0.3c-0.4,0-0.9-0.2-0.8-0.3
								c-1,0.1-1.1,0.2-2.6,0c1-0.2-0.4-0.2,1.1-0.1c-1.3-0.1-1.6-0.2-3.1,0c0.5-0.3-1-0.3-1.6-0.2l0.9,0.2c-0.7,0-1.3,0-2,0
								l0.3-0.3c-2.7-0.4-4.9,0.7-7,0c-0.7,0.2,1.5,0.2,0.8,0.4c-1.3,0-2.6-0.5-3-0.5c-1.7-0.2-1.6,0.5-3.4,0.4
								c0.2,0.1,0.4,0.4-0.9,0.5c-1.3,0-1.5-0.5-0.8-0.6c0.3,0,0.4,0,0.4,0.1c0.4,0,0.9-0.1,0.4-0.2l-0.2,0.1
								c-0.6-0.1-2.3-0.1-1.9-0.3c-0.9,0.1-0.4,0.2,0.3,0.3c-1.6-0.2-2.5,0-4.2-0.1c0.3,0.1,0.5,0.2,0.2,0.2
								c-2.4-0.1-1.1,0.2-2.7,0.3c-0.9-0.2,0.3-0.4-1.3-0.3c-1-0.1-0.2-0.3,0.2-0.4c-1.5,0.2-2.8-0.2-3.7-0.2l0.8-0.1
								c-0.5,0.1-0.9,0.1-1.3,0.1l0.5,0.2c-0.5,0-0.9,0-0.9-0.1c-0.5,0.2,0.4,0.4-0.6,0.6c-0.6-0.1-1.9,0.1-2.1-0.2
								c2,0.1-0.2-0.3,1.4-0.4c-0.3,0-0.7,0-1.2,0c-0.1,0,0.1-0.1,0.2-0.1c-1.9-0.3-0.9,0.4-2.8,0.3c0.2-0.2-0.5-0.3-0.8-0.3
								c0.8,0,0.4,0.3-0.3,0.4c-1.2-0.1-1.4,0.1-2,0.1l0.7,0.1c-0.3,0.2-0.9,0.2-1.7,0.2c-0.1-0.1,0.8-0.1,0.5-0.2
								c-1,0.3-2.2-0.3-3.5-0.1c-0.6-0.1-0.1-0.3-0.6-0.4c-1.5,0.2-1.6-0.2-3.2-0.1c0.5,0.2,0.5,0.2-0.6,0.4l2.6-0.2l-1.7,0.3
								c0.8,0,1.7-0.1,2.1-0.1c-0.8,0.2-0.7,0.1-0.3,0.3c-1.1-0.4-2.1,0.2-3.4,0l0-0.6c-1.9-0.3-3.3,0.3-5.7,0.2l0.8,0.1
								c-0.3,0.2-1.5,0-2.3,0.1c0.1-0.2-0.4-0.3-0.8-0.4c0,0.1-1.8,0-2,0.4l-1.1-0.3c-2-0.1-2.2,0.6-4.1,0.5c0.6-0.2-0.3-0.4,1-0.5
								c-0.6,0-1.2,0-1.2,0.1c-0.4-0.1-1.7,0.3-2.3,0.1c-0.3,0.1-0.4,0.3-1.1,0.3c-0.1,0,0-0.1,0-0.1c0,0.1-1.1,0.1-0.5,0.4
								c-1.9-0.6-5.4,0-7.1-0.5c-1.4,0.1-3,0.1-4.3,0.1c0.1-0.1,0-0.1,0.2-0.1c-1.7-0.2-1.1,0.6-3,0.4c-1-0.3,1-0.2,0.4-0.3
								c-0.3-0.6-2.4,0.1-3.7-0.3l0.3,0c-1-0.2-2.5,0.2-4.1,0.2c0,0,0.1-0.1,0-0.1c-1.1,0.3-3.3,0.4-4.8,0.5
								c0.5-0.3,0.7-0.1,0.4-0.4c-0.7,0,0.2,0.4-1.2,0.5c-0.5-0.1-1.5-0.3-1.6-0.5l1.3,0c-0.7-0.4-1.7,0-2.4,0l0.1-0.2
								c-2,0.1-2.1,0.4-4.3,0.4l0.2,0.1c-1.2,0.4-1-0.2-2.2,0.1l-0.4-0.4c-0.8,0.1-2.8,0.4-4.2,0.5c0.8-0.3,2.5-0.4,3.5-0.6
								c-0.8,0-2.7,0-3.1,0.2c0.3,0,0.7-0.1,1-0.1c-1,0.3-2.2,0.5-3.8,0.5c0.3-0.8-4.1-0.2-5.2-0.8c-2.8,0.3-5.5-0.1-8.7-0.1
								c1.1,0.6-0.9,0-0.7,0.6c-0.8,0-1,0-1.1,0l-2.3-0.4c-0.5-0.2,0.7-0.1,0.6-0.3c-1.6,0-0.7-0.3-1.8-0.4c0.2,0.2-0.6,0.3-1.5,0.2
								l1.3,0.3c-2.3,0.3-2-0.5-4.3-0.2l0.7-0.2c-1.2,0.1-4.4,0-5.6,0.5c-0.2-0.1-0.5-0.2,0-0.3c-2.8-0.1-6.3,0.5-8.5,0.2l0.2-0.1
								c-0.5,0-0.9,0.3-1.6,0.1c0-0.1,0.2-0.1,0-0.2c-0.3,0.1-1.4,0.3-2.1,0.2l0.6-0.2c-2.8-0.2-4.3,0.4-6.6,0.5
								c0-0.4-2.2-0.6-3.3-0.7l0-0.1c-3.2-0.1-5.5,0.4-8.5,0.5c-1.9-0.5-6.3-0.2-9.3-0.5c0.5,0.1-0.1,0.3-0.6,0.4
								c-0.7-0.1-1.9,0.3-1.8-0.1l0.2,0c-0.5-0.4-2-0.3-3.1-0.3l-0.2,0.5c-2.9-0.8-7.7,0.3-9.3-0.4c-0.7,0.1-1.6,0.1-2.3,0.3l0-0.3
								c-2-0.1-2.9-0.1-5.4,0l0.5-0.2c-1.4,0-1.7,0.8-3,0.8l-0.4-0.4c-2.4,0-4.8-0.4-7.2,0c0-0.1,0.1-0.2,0.5-0.2
								c-1.1,0-4.3-0.3-3.9,0.3c0-0.4-2.5,0-3.8,0.1l0.2-0.3c-1.1,0.4-1.1,0.5-2.6,0.6c-0.4,0-0.3-0.2,0.2-0.2
								c-1.2-0.1-0.9,0.3-2.4,0.1l0.5-0.2c-1.2,0-1.1,0.1-1.8,0.3c-0.8,0.1-2.3-0.1-2.5-0.3c-0.2,0.2-0.8,0.4-1.6,0.3
								c-0.1-0.1,0.2-0.2,0.3-0.2c-2.1-0.2-3.1,0.3-4.5,0.1c0-0.1-0.1-0.1-0.2-0.2c1.6,0,3,0,2.8,0c0-0.3-1.3-0.3-0.3-0.7
								c-1.1,0.2-2.9,0.6-4.2,0.5c-0.1,0-0.1,0-0.2-0.1l0.1,0c-0.3,0-0.6,0-0.8,0c-0.4,0-0.7-0.1-1.1-0.1c-0.2-0.2-1.5-0.1-2.2-0.1
								c0.1,0.3-0.8,0.2,0,0.5c-0.1,0,0.1,0,0.6,0c0.1,0,0.2,0,0.3,0c0,0,0,0,0,0c0.4,0,1,0,1.6,0c-0.5,0.1-1.1,0.3-1.8,0.1
								c-0.3,0.2-0.7,0.4-0.9,0.5c-0.9-0.4-2.6-0.6-2.9-0.8c-2,0.2-4.8,0.1-6,0.6c-0.6,0.1-0.7-0.2-0.9-0.2c0.3-0.1,0.7,0,0.9-0.1
								c-1.1,0.1-3.4,0.1-3.7,0.4c-1.4-0.2,0.8-0.3-1.2-0.3l0.3-0.1c-3.9-0.6-6.4,0.9-10.7,0.2c0.3,0,0.5,0.1,0.5,0.1
								c-4.9-0.3-10.2,0.3-15.1-0.2c-1.4-0.1-1.5,0.1-2.4,0.3l-0.3-0.3l-1.4,0.3c-2.1,0.3-3.6-0.7-6.1-0.3l0.3,0.2
								c-0.9,0-3,0.1-2.8-0.1c-0.1,0-0.3,0.2-0.7,0.1l0-0.2l-2.3,0.3c-1.8-0.1,0.3-0.6-2.3-0.7c-1,0.1-2.7,0.5-2.4,0.6
								c0.4,0,1,0.1,1,0.3l-0.9,0.1c-0.2,0.5-0.8,0.9,1.3,1.3l1.5-0.3l0.5,0.2l-1.3,0c0.7,0.2,1.2,0,1.7-0.1
								c0.1,0.1,0.3,0.2,0.6,0.2l1.5-0.4c0.2,0.2-0.7,0.4,0.3,0.5c0.7-0.2-0.7-0.4,0.5-0.5c0.7,0.2,0.5,0.4,1.4,0.2
								c0.1,0.1-0.1,0.2-0.4,0.2c0.8-0.1,2-0.1,2.4-0.3c0.8,0.3,2.5-0.1,2.5,0.4c0.2-0.1,1.3-0.3,2-0.4c-1.3,0.5,2.6,0,2.3,0.6
								c0.9-0.5,3.4-0.2,5-0.5c-0.1,0-0.3,0.1-0.4,0.1c0.9,0,1.2,0.2,1.8,0.3c0.1-0.4,1.6-0.5,2.4-0.7c1.1,0.4-0.7,0.5-0.3,0.8
								c-0.1-0.3,2-0.3,1.6-0.6c0.9,0.2,0.8,0.1,1.2,0.4c0.2-0.5,0.8-0.1,1.5-0.4c1.3,0.2,0.3,0.5,1.7,0.3
								C32.1,361.3,30.8,361.5,30.8,361.5z M63.9,360.6C63.9,360.6,63.9,360.6,63.9,360.6c-0.3,0-0.5,0-0.7,0
								C63.3,360.6,63.5,360.6,63.9,360.6z M66.7,360.6c-0.3,0-0.8,0-1.2,0c-0.1-0.1,0-0.2,0.3-0.2
								C65.6,360.5,66.2,360.5,66.7,360.6z M60.8,358.7c0.4,0,0.6,0,0.6,0.1c-0.2,0-0.5,0-0.8,0c0,0,0,0-0.1,0
								C60.7,358.7,60.7,358.7,60.8,358.7z"/>
							<path fill="#C2C1C1" d="M60,359c-0.1,0-0.1,0-0.2,0C59.9,359.1,60,359.1,60,359c0.1,0.1,0.2,0,0.2,0
								C60.1,359,60.1,359,60,359z"/>
							<path fill="#C2C1C1" d="M311.7,359.4L311.7,359.4C311.7,359.4,311.8,359.5,311.7,359.4C311.8,359.5,311.8,359.5,311.7,359.4z
								"/>
							<polygon fill="#C2C1C1" points="105,361.1 105,361.1 104.8,361.1 							"/>
							<path fill="#C2C1C1" d="M327,360.4c0,0,0.1,0.1,0.2,0.1C327.2,360.5,327.1,360.4,327,360.4z"/>
							<path fill="#C2C1C1" d="M333.6,360.5l0.9,0.1C334.2,360.5,333.9,360.5,333.6,360.5z"/>
							<path fill="#C2C1C1" d="M338.7,360.6c0.1,0,0.1-0.1,0.1-0.1c0,0,0,0,0,0L338.7,360.6z"/>
							<path fill="#C2C1C1" d="M258,360.9c-0.1,0-0.1,0-0.2,0C257.3,361,257.6,361,258,360.9z"/>
							<path fill="#C2C1C1" d="M282,360.3c-0.3,0.1-0.5,0.1-0.8,0.1C281.6,360.4,282,360.4,282,360.3z"/>
							<path fill="#C2C1C1" d="M231.1,361.3C231.1,361.3,231.1,361.3,231.1,361.3c-0.1,0-0.1,0-0.2,0L231.1,361.3z"/>
							<path fill="#C2C1C1" d="M280.1,360.4c0.4,0.1,0.8,0,1.1,0C280.9,360.4,280.5,360.4,280.1,360.4z"/>
							<path fill="#C2C1C1" d="M360.7,360.7l0.2,0c0,0,0,0,0,0L360.7,360.7z"/>
							<path fill="#C2C1C1" d="M361,360.7l0.3,0C361.2,360.7,361.1,360.7,361,360.7z"/>
							<path fill="#C2C1C1" d="M361.9,360.6l-0.6,0.1C361.5,360.7,361.7,360.7,361.9,360.6z"/>
							<path fill="#C2C1C1" d="M354,360.6l-0.1,0.1C354,360.7,354,360.7,354,360.6z"/>
							<path fill="#C2C1C1" d="M352,360.6c0.5,0,1.2,0.2,1.9,0.2l0.1-0.1C353.6,360.9,352.4,360.5,352,360.6z"/>
							<path fill="#C2C1C1" d="M343.4,359.4l1.7,0.1c-0.3-0.1-0.7-0.3,0.1-0.3C343.1,358.8,345.7,359.4,343.4,359.4z"/>
							<path fill="#C2C1C1" d="M338.1,359.2c0.9-0.1,0-0.2,0-0.2C337.6,359.1,337.4,359.1,338.1,359.2z"/>
							<path fill="#C2C1C1" d="M299.8,359.2l0.1-0.3C299.1,359,299.8,359.1,299.8,359.2z"/>
							<polygon fill="#C2C1C1" points="292.4,360.5 293.1,360.7 293.4,360.5 							"/>
							<polygon fill="#C2C1C1" points="288.1,358.7 288.4,358.7 287.2,358.8 							"/>
							<path fill="#C2C1C1" d="M223.6,358.8l0.2,0.3C224.3,359.1,224.4,358.7,223.6,358.8z"/>
							<path fill="#C2C1C1" d="M195.8,359.1c-0.3-0.2-1.1-0.3-1.6-0.1C194.9,359,195.5,359.2,195.8,359.1z"/>
							<polygon fill="#C2C1C1" points="112.4,358.6 112.9,358.5 111.9,358.6 							"/>
						</g>
					</g>
				</g>
			</g>
		</g>
		<g>
			<g>
				<g>
					<g>
						<g>
							<path fill="#C2C1C1" d="M367,7.8c0.2-0.1,0.1-0.3-0.4-0.2l-0.4,0.3L367,7.8z"/>
							<path fill="#C2C1C1" d="M363.4,7.2c-0.6,0.2-1.3,0.4-0.9,0.7c0.6-0.3,0.8-0.2,1.4-0.6c0.5,0,0.9,0.1,0.8,0.2
								c0.2-0.1,0.8,0.1,1.1-0.1c-0.7-0.3-1.6-0.3-2.5-0.1C363.1,7.3,363.3,7.2,363.4,7.2z"/>
							<path fill="#C2C1C1" d="M311.3,6.6l0.3,0C311.6,6.7,311.5,6.7,311.3,6.6z"/>
							<path fill="#C2C1C1" d="M279.1,6.5c0.2,0,0.3,0,0.4-0.1C279.2,6.4,279,6.4,279.1,6.5z"/>
							<path fill="#C2C1C1" d="M273.6,6.1c0.1,0,0.2,0,0.3,0C273.8,6.1,273.7,6.1,273.6,6.1z"/>
							<path fill="#C2C1C1" d="M311.3,6.6l-0.9-0.1C310.4,6.6,310.9,6.6,311.3,6.6z"/>
							<path fill="#C2C1C1" d="M356.2,8c0.2,0,0.3,0,0.5-0.1C356.5,7.9,356.4,7.9,356.2,8C356.2,7.9,356.2,7.9,356.2,8z"/>
							<path fill="#C2C1C1" d="M325.6,6.4l0.3,0c0.1,0,0.1-0.1,0.2-0.1L325.6,6.4z"/>
							<path fill="#C2C1C1" d="M336.5,6.3c-0.2,0-0.3,0.3-0.4,0.4c0.1-0.1,0.3-0.2,0.5-0.2C336.6,6.5,336.6,6.4,336.5,6.3z"/>
							<path fill="#C2C1C1" d="M353.8,6.8l0.3,0C354,6.8,353.9,6.8,353.8,6.8z"/>
							<path fill="#C2C1C1" d="M317.8,6.3c0,0-0.1-0.1-0.1-0.1C317.7,6.3,317.7,6.3,317.8,6.3z"/>
							<path fill="#C2C1C1" d="M12.6,8.4C12.7,8.4,12.6,8.4,12.6,8.4C12.6,8.4,12.6,8.4,12.6,8.4z"/>
							<path fill="#C2C1C1" d="M0,7l0.2,0c0-0.1,0-0.1,0-0.2L0,7z"/>
							<path fill="#C2C1C1" d="M263.5,5.7C263.5,5.7,263.5,5.7,263.5,5.7C263.8,5.7,263.7,5.7,263.5,5.7z"/>
							<path fill="#C2C1C1" d="M171,5.9c1,0.3-1.7,0.3-0.1,0.6C170.8,6.4,172.3,6.1,171,5.9z"/>
							<path fill="#C2C1C1" d="M355.9,7.9c-0.1,0-0.3,0-0.4,0C355.7,7.9,355.8,7.9,355.9,7.9z"/>
							<path fill="#C2C1C1" d="M170.9,6.5C170.9,6.5,170.9,6.6,170.9,6.5l0.2,0C171,6.6,171,6.6,170.9,6.5z"/>
							<path fill="#C2C1C1" d="M240.3,5.9c0,0,0.1,0.1,0.2,0.1C240.5,6,240.5,6,240.3,5.9z"/>
							<path fill="#C2C1C1" d="M257.6,6.3l-0.4,0C257.3,6.3,257.5,6.3,257.6,6.3z"/>
							<path fill="#C2C1C1" d="M231.3,6.3c-0.2,0-0.3-0.1-0.6,0c0,0,0.1,0,0.1,0C230.9,6.3,231.1,6.3,231.3,6.3z"/>
							<path fill="#C2C1C1" d="M222,6.3c0,0,0.1,0,0.2,0.1c0.1,0,0.2,0,0.3,0L222,6.3z"/>
							<path fill="#C2C1C1" d="M41,8.3c-0.2-0.1-0.3-0.2-0.4-0.3C40.8,8.2,39.4,8.3,41,8.3z"/>
							<path fill="#C2C1C1" d="M356.2,7.8c-0.1,0.1-0.1,0.1-0.3,0.1c0.1,0,0.2,0,0.3,0C356.3,7.9,356.3,7.8,356.2,7.8z"/>
							<path fill="#C2C1C1" d="M230.9,8.5l-1.5,0C229.9,8.5,230.4,8.5,230.9,8.5z"/>
							<path fill="#C2C1C1" d="M108.1,8.3l-0.3,0C107.9,8.3,108,8.3,108.1,8.3z"/>
							<path fill="#C2C1C1" d="M225.1,8.5c-0.3-0.1-0.5-0.2-0.8-0.2c-0.1,0-0.1,0-0.2,0.1L225.1,8.5z"/>
							<path fill="#C2C1C1" d="M40.6,8C40.6,8,40.6,8,40.6,8C40.6,8,40.6,8,40.6,8z"/>
							<path fill="#C2C1C1" d="M30.8,8.7c1.4,0,0.7-0.4,1-0.6c1.7-0.1,0.8,0.3,1.4,0.5c1.1-0.1,1.9-0.4,2.6-0.4
								c0.1,0.1,0.2,0.1,0,0.2c1.1-0.3,3.3,0,4.6-0.4C40.5,8,40.6,8,40.6,8c-0.2-0.2-0.2-0.4-0.2-0.5c0.6,0,1.2-0.2,1.4,0
								c-0.4,0-0.4,0.1-0.6,0.2l0.7-0.1C42.5,7.9,41,7.7,41,8c1.3-0.1,2.8-0.4,3.8-0.3c0.2,0.3-2.3,0.1-1,0.4L42.2,8
								c1.2,0.5-0.9,0,0.1,0.5c2,0.1,2.3-0.2,4.3-0.1C47.1,8.2,46.5,8.1,47,8c2.9-0.3,2.3,0.9,4.4,0.4c0.5-0.2,0.8-0.7,2.3-0.4
								l-0.5,0.4c2,0,1.1-0.6,3.2-0.3c-0.4,0.2-1.5,0.1-1.2,0.2C56.3,8.5,56,8,57,8l0.2,0.3C59.3,8.3,61.6,8,63.9,8
								c-0.1,0.1-0.5,0.2,0,0.3c2.9-0.2,6.2,0,9,0.2L74,8.2c0.2,0,0.5,0.1,0.2,0.2c1.1,0.1,0.1-0.2,0.6-0.3c0.6,0,0.8,0.2,0.4,0.3
								c1.9-0.2,5.5-0.5,7.5-0.2l-0.4,0.1c1.6,0.1,1.8-0.6,3.3-0.3l-0.3,0.1c3.4,0.1,7.2-0.1,9.9,0.3c0.5-0.4,3.4,0.2,3.6-0.4
								c2,0.3,1.4,0.4,4.2,0.6c0.7,0,1.1-0.4,2-0.4l0,0.3l1.2-0.3l0.7,0.4l0.9-0.1c-0.3,0-0.7-0.1-0.7-0.2c1.3-0.1,3.3,0.2,3.3,0.4
								l3.2-0.3c-0.1,0.1-0.6,0.2-1,0.2c1.7-0.3,0.3,0.3,1.9,0c-0.2-0.1,0.1-0.2,0.1-0.2c0.8,0.2,2.5,0.2,3.8,0.1l-0.2,0.2
								c2.3,0.1,4.9-0.1,7.6-0.1c-0.9-0.1-0.7-0.5,0-0.5l0.3,0.3c0.5-0.2-0.8-0.1,0.2-0.4c1,0,0.7,0.4,0.1,0.5l1.2-0.1
								c0.1,0.1-0.2,0.1-0.3,0.3c0.5-0.2,2.1,0.3,2.8,0l0.1,0.1c2.6,0,3.8-0.1,6-0.1c0-0.3,0.9-0.2,1.5-0.4c1.6,0.1,3.3,0.3,5.2,0.3
								c1.3-0.1,0.4-0.2,1-0.4c0.1,0.3,2,0.2,1,0.4c2.3,0,2.9-0.1,5.8-0.3c-0.3-0.1-0.7-0.2-0.5-0.2c0.5,0,1.2,0.1,1.1,0.2l-0.1,0
								c3.2-0.4,7.5,0.7,10,0.2l-0.1,0l2.7-0.3c1.2,0-0.7,0.2,0.2,0.4c2.9-0.4,4.6,0.1,6.9-0.2c1.8,0.8,6.5-0.1,9,0.4l-0.1-0.2
								c0.6-0.2,0.8,0.1,1.2,0.1c-0.1-0.1-0.7-0.2-0.3-0.3c5.4-0.2,11.2,0.3,16.8,0.4c2,0,1.2-0.9,3.7-0.5l-0.7,0.3
								c4.1-0.4,8.4,0,12.4-0.3c-0.2,0.1-0.2,0.2-0.6,0.2c0.8,0.2,3.1,0,3.2-0.2c0.6,0,0.1,0.2,0.5,0.3c0.9,0.1,2.1-0.3,2.6-0.1
								c0.1,0-0.2,0.1-0.4,0.1c0.6-0.1,2.6,0,2.1-0.2c1.5,0.1,2.9-0.1,4.1,0c0.8-0.3,2.6,0.1,2.8-0.3c-0.1,0.5,2.6,0.4,3.6,0.2
								c-0.3,0.1,0.8,0.1,0.5,0.3c1.1,0,2.1-0.1,1.9-0.3c2,0.5,4-0.4,5.2,0.3c3.2-0.2,6.2-0.4,9.1-0.5c-0.1,0.5-3.2,0-3.1,0.5
								c2.8-0.2,4.4-0.6,7.1-0.5c0.7,0.1-0.4,0.2-0.6,0.3c2.8-0.2,5.3,0,7.8-0.2c0,0-0.3,0.1-0.5,0.1c0.5,0,1.1,0.1,1.1-0.1
								l-0.5,0.1c-0.8-0.3,1.9-0.6,2-0.8c-0.8,0.6,2.4,0.1,1.1,0.9c0.3,0,0.7-0.1,0.6-0.3c0.5,0,0.6,0.1,0.1,0.3
								c1.7-0.1,1.1-0.3,2.7-0.3c0,0.1-0.3,0.1-0.5,0.3c0.8-0.2,1.6-0.4,2.9-0.3c-0.1,0.1,0.1,0.1-0.3,0.1c2.3,0,3.9-0.5,6.4-0.3
								c-0.7,0.4,0.9,0.1,1,0.5l1.3-0.1l-0.5-0.2c1.2,0,2.2-0.3,3.2-0.1l-0.9,0.2l2.2-0.1l-1.2-0.1c1.2-0.2-0.1-0.5,1.4-0.4
								c-0.3,0,1.2,0,1.8,0.2c0,0,0,0,0,0c0.6-0.1,1.2-0.2,2.1-0.2c0.2,0.1-0.2,0.4,0,0.5c0.6-0.3,2.8-0.1,3.5-0.4
								c-0.2,0.1-0.3,0.3-0.2,0.3l0.5-0.3c0.5,0.1,0.6,0.1,0.5,0.3c1.6,0-0.5-0.5,1.4-0.3c-0.2,0-0.1,0.1-0.4,0.1
								c2,0.1,3.8-0.2,5.6,0c0.5,0.4-1.6,0.1-1,0.4c2.6-0.1,5.4-0.5,7.9-0.4l-0.5,0c0.3-0.5,1.9,0.3,3.1,0c-0.3,0-0.4,0.3-0.3,0.2
								c1.7,0.1,3.5-0.1,6.1-0.3L310,7.7c1,0.1,2.7,0.1,3.8,0.1c0.3-0.1,0.9-0.1,0.6-0.3c3.4,0.8,6.4-0.4,9.4,0.2
								c-0.4,0-0.9,0.1-0.6,0.1l2.5-0.1c-0.2-0.2-0.3-0.1-0.9-0.3c0.3-0.1,1-0.2,1.7-0.2c-1.1,0.2,0,0.4,0.5,0.5
								c-0.1-0.1,0.1-0.1,0-0.2c1.3,0.4,0.2-0.5,2-0.2L329,7.4c0.7-0.1,1.3-0.2,2-0.2c0.3,0.3-0.7,0.1-0.8,0.3c1,0,2-0.5,3-0.2
								c-0.4,0.1-1.1,0.1-1.5,0.1c1,0.3,1.1,0.2,1.9,0.3l-0.1,0l1.7,0.1l-0.4-0.1c1.3-0.7,2.6-0.1,4.4-0.6c-1.7,0.4-0.3,0.2-0.4,0.6
								c0.4,0.1,1.1,0.2,0.9,0.3c0.8-0.2,1.4,0.2,2.5-0.2c0.1,0.1,0.9,0,0.7,0.3c1.1-0.1-0.3-0.2-0.2-0.3c1.6-0.3,3.9,0.4,6.2-0.1
								c2-0.2,2.4-0.5,4.3-0.7c0.6,0.2-0.5,0.4-0.5,0.4c1,0.1,1.8,0.1,2.8,0c-0.2,0.1,0,0.2,0.3,0.3c0.8,0,0.5-0.4,1.5-0.2
								c-0.2,0.1-0.4,0.3-0.8,0.4c0.9-0.1,1.8-0.3,2.8-0.4c0.3,0.2-0.6,0.3-0.9,0.4c1.1-0.1,2.8-0.2,3.1-0.4L361,7.4
								c0.4,0,0.2,0.2-0.1,0.3c-0.9,0.2-1.3-0.1-1.4-0.2l0.7-0.1c-0.7-0.6-2.7,0.1-4.1,0.1l0.6-0.4l-1.4,0.3
								C355,7.3,354.8,7,355.4,7c-1-0.2-0.9,0.1-1.7-0.1c-0.1,0-0.1-0.1,0-0.1l-1,0.1c0.2-0.1-0.2-0.3,0.4-0.2
								c-1.7-0.2-2.8,0.3-3.4,0l0.1,0c-2.4,0.1-0.2,0.3-2,0.7l-1.2-0.8l-0.2,0.3c-0.2,0-0.7,0-0.6-0.2C345,7,346,6.9,345.5,7.1
								c-1.2-0.3-3.3,0.1-3.5-0.4c-0.4,0.2,1.1,0.2-0.1,0.3c-0.4-0.5-1.5,0.1-2.5-0.2c0.3-0.3,1.4-0.1,0.3-0.4c-0.7,0.5-2.1-0.1-3,0
								c0,0.4-2,0.2-3.5,0.3c0.1-0.1-2.9-0.2-4.3-0.3l0-0.1c-0.3,0.4-1.7,0.3-2.8,0.4c0-0.2,0.2-0.3,0.8-0.4l-1,0
								c-0.2,0.1-0.5,0.2-1.2,0.2l0.3-0.3c-1.3,0-2.7,0.3-4.4,0.1c-0.1,0.3,1.4,0.7-0.5,0.9c-0.1-0.1-0.1-0.4,0.3-0.4
								c-0.2,0-0.6,0.1-0.9,0.1l0.7-0.2c-0.8-0.1-0.4,0.2-1,0.2c0-0.2-0.5-0.1-0.4-0.3c0.2,0,0.5,0.1,0.8,0c-0.7,0-1.6-0.2-1.8-0.3
								c0.1,0.1,0,0.3-0.5,0.3c-1.3,0-0.5-0.2-1.2-0.3c-0.3,0.1-1.2,0-1.2,0.3c-0.4,0-0.5-0.1-0.6-0.2c-0.7,0.1-3.2,0-2.4,0.4l0.2,0
								c0,0-0.1,0-0.1,0c0,0,0,0,0,0h0c-2.3,0.3-4.7-0.2-7,0l0-0.1c-1.3,0.1-3,0.1-3.9,0.3c-0.4,0-0.9-0.2-0.8-0.3
								c-1,0.1-1.1,0.2-2.6,0c1-0.2-0.4-0.2,1.1-0.1c-1.3-0.1-1.6-0.2-3.1,0c0.5-0.3-1-0.3-1.6-0.2l0.9,0.2c-0.7,0-1.3,0-2,0
								l0.3-0.3c-2.7-0.4-4.9,0.7-7,0c-0.7,0.2,1.5,0.2,0.8,0.4c-1.3,0-2.6-0.5-3-0.5c-1.7-0.2-1.6,0.5-3.4,0.4
								c0.2,0.1,0.4,0.4-0.9,0.5c-1.3,0-1.5-0.5-0.8-0.6c0.3,0,0.4,0,0.4,0.1c0.4,0,0.9-0.1,0.4-0.2l-0.2,0.1
								c-0.6-0.1-2.3-0.1-1.9-0.3c-0.9,0.1-0.4,0.2,0.3,0.3c-1.6-0.2-2.5,0-4.2-0.1c0.3,0.1,0.5,0.2,0.2,0.2
								c-2.4-0.1-1.1,0.2-2.7,0.3c-0.9-0.2,0.3-0.4-1.3-0.3c-1-0.1-0.2-0.3,0.2-0.4c-1.5,0.2-2.8-0.2-3.7-0.2l0.8-0.1
								c-0.5,0.1-0.9,0.1-1.3,0.1l0.5,0.2c-0.5,0-0.9,0-0.9-0.1c-0.5,0.2,0.4,0.4-0.6,0.6c-0.6-0.1-1.9,0.1-2.1-0.2
								c2,0.1-0.2-0.3,1.4-0.4c-0.3,0-0.7,0-1.2,0c-0.1,0,0.1-0.1,0.2-0.1c-1.9-0.3-0.9,0.4-2.8,0.3c0.2-0.2-0.5-0.3-0.8-0.3
								c0.8,0,0.4,0.3-0.3,0.4c-1.2-0.1-1.4,0.1-2,0.1l0.7,0.1c-0.3,0.2-0.9,0.2-1.7,0.2c-0.1-0.1,0.8-0.1,0.5-0.2
								c-1,0.3-2.2-0.3-3.5-0.1c-0.6-0.1-0.1-0.3-0.6-0.4c-1.5,0.2-1.6-0.2-3.2-0.1c0.5,0.2,0.5,0.2-0.6,0.4l2.6-0.2l-1.7,0.3
								c0.8,0,1.7-0.1,2.1-0.1c-0.8,0.2-0.7,0.1-0.3,0.3c-1.1-0.4-2.1,0.2-3.4,0l0-0.6c-1.9-0.3-3.3,0.3-5.7,0.2l0.8,0.1
								c-0.3,0.2-1.5,0-2.3,0.1c0.1-0.2-0.4-0.3-0.8-0.4c0,0.1-1.8,0-2,0.4l-1.1-0.3c-2-0.1-2.2,0.6-4.1,0.5c0.6-0.2-0.3-0.4,1-0.5
								c-0.6,0-1.2,0-1.2,0.1c-0.4-0.1-1.7,0.3-2.3,0.1c-0.3,0.1-0.4,0.3-1.1,0.3c-0.1,0,0-0.1,0-0.1c0,0.1-1.1,0.1-0.5,0.4
								c-1.9-0.6-5.4,0-7.1-0.5c-1.4,0.1-3,0.1-4.3,0.1c0.1-0.1,0-0.1,0.2-0.1c-1.7-0.2-1.1,0.6-3,0.4c-1-0.3,1-0.2,0.4-0.3
								c-0.3-0.6-2.4,0.1-3.7-0.3l0.3,0c-1-0.2-2.5,0.2-4.1,0.2c0,0,0.1-0.1,0-0.1c-1.1,0.3-3.3,0.4-4.8,0.5
								c0.5-0.3,0.7-0.1,0.4-0.4c-0.7,0,0.2,0.4-1.2,0.5c-0.5-0.1-1.5-0.3-1.6-0.5l1.3,0c-0.7-0.4-1.7,0-2.4,0l0.1-0.2
								c-2,0.1-2.1,0.4-4.3,0.4l0.2,0.1c-1.2,0.4-1-0.2-2.2,0.1l-0.4-0.4c-0.8,0.1-2.8,0.4-4.2,0.5c0.8-0.3,2.5-0.4,3.5-0.6
								c-0.8,0-2.7,0-3.1,0.2c0.3,0,0.7-0.1,1-0.1c-1,0.3-2.2,0.5-3.8,0.5c0.3-0.8-4.1-0.2-5.2-0.8c-2.8,0.3-5.5-0.1-8.7-0.1
								c1.1,0.6-0.9,0-0.7,0.6c-0.8,0-1,0-1.1,0l-2.3-0.4c-0.5-0.2,0.7-0.1,0.6-0.3c-1.6,0-0.7-0.3-1.8-0.4c0.2,0.2-0.6,0.3-1.5,0.2
								l1.3,0.3c-2.3,0.3-2-0.5-4.3-0.2l0.7-0.2c-1.2,0.1-4.4,0-5.6,0.5c-0.2-0.1-0.5-0.2,0-0.3c-2.8-0.1-6.3,0.5-8.5,0.2l0.2-0.1
								c-0.5,0-0.9,0.3-1.6,0.1c0-0.1,0.2-0.1,0-0.2c-0.3,0.1-1.4,0.3-2.1,0.2l0.6-0.2c-2.8-0.2-4.3,0.4-6.6,0.5
								c0-0.4-2.2-0.6-3.3-0.7l0-0.1c-3.2-0.1-5.5,0.4-8.5,0.5c-1.9-0.5-6.3-0.2-9.3-0.5c0.5,0.1-0.1,0.3-0.6,0.4
								c-0.7-0.1-1.9,0.3-1.8-0.1l0.2,0c-0.5-0.4-2-0.3-3.1-0.3l-0.2,0.5c-2.9-0.8-7.7,0.3-9.3-0.4c-0.7,0.1-1.6,0.1-2.3,0.3l0-0.3
								c-2-0.1-2.9-0.1-5.4,0l0.5-0.2c-1.4,0-1.7,0.8-3,0.8L94,6c-2.4,0-4.8-0.4-7.2,0c0-0.1,0.1-0.2,0.5-0.2
								c-1.1,0-4.3-0.3-3.9,0.3c0-0.4-2.5,0-3.8,0.1L79.8,6c-1.1,0.4-1.1,0.5-2.6,0.6c-0.4,0-0.3-0.2,0.2-0.2
								c-1.2-0.1-0.9,0.3-2.4,0.1l0.5-0.2c-1.2,0-1.1,0.1-1.8,0.3c-0.8,0.1-2.3-0.1-2.5-0.3c-0.2,0.2-0.8,0.4-1.6,0.3
								c-0.1-0.1,0.2-0.2,0.3-0.2c-2.1-0.2-3.1,0.3-4.5,0.1c0-0.1-0.1-0.1-0.2-0.2c1.6,0,3,0,2.8,0C68,6,66.7,6,67.7,5.6
								c-1.1,0.2-2.9,0.6-4.2,0.5c-0.1,0-0.1,0-0.2-0.1l0.1,0c-0.3,0-0.6,0-0.8,0C62.3,6,62,6,61.6,6c-0.2-0.2-1.5-0.1-2.2-0.1
								c0.1,0.3-0.8,0.2,0,0.5c-0.1,0,0.1,0,0.6,0c0.1,0,0.2,0,0.3,0c0,0,0,0,0,0c0.4,0,1,0,1.6,0c-0.5,0.1-1.1,0.3-1.8,0.1
								c-0.3,0.2-0.7,0.4-0.9,0.5c-0.9-0.4-2.6-0.6-2.9-0.8c-2,0.2-4.8,0.1-6,0.6c-0.6,0.1-0.7-0.2-0.9-0.2c0.3-0.1,0.7,0,0.9-0.1
								c-1.1,0.1-3.4,0.1-3.7,0.4c-1.4-0.2,0.8-0.3-1.2-0.3l0.3-0.1C41.8,5.7,39.3,7.2,35,6.5c0.3,0,0.5,0.1,0.5,0.1
								c-4.9-0.3-10.2,0.3-15.1-0.2c-1.4-0.1-1.5,0.1-2.4,0.3l-0.3-0.3l-1.4,0.3C14.3,7,12.8,6,10.2,6.5l0.3,0.2
								c-0.9,0-3,0.1-2.8-0.1C7.6,6.6,7.4,6.8,7,6.7l0-0.2L4.7,6.8C3,6.7,5,6.1,2.4,6.1C1.5,6.2-0.3,6.6,0,6.7c0.4,0,1,0.1,1,0.3
								L0.2,7C0,7.5-0.7,8,1.5,8.3L3,8l0.5,0.2l-1.3,0c0.7,0.2,1.2,0,1.7-0.1C4,8.3,4.2,8.3,4.5,8.4L6,7.9c0.2,0.2-0.7,0.4,0.3,0.5
								C7,8.2,5.7,8,6.8,7.9c0.7,0.2,0.5,0.4,1.4,0.2c0.1,0.1-0.1,0.2-0.4,0.2c0.8-0.1,2-0.1,2.4-0.3c0.8,0.3,2.5-0.1,2.5,0.4
								C12.9,8.3,14,8,14.7,8c-1.3,0.5,2.6,0,2.3,0.6c0.9-0.5,3.4-0.2,5-0.5c-0.1,0-0.3,0.1-0.4,0.1c0.9,0,1.2,0.2,1.8,0.3
								c0.1-0.4,1.6-0.5,2.4-0.7c1.1,0.4-0.7,0.5-0.3,0.8c-0.1-0.3,2-0.3,1.6-0.6c0.9,0.2,0.8,0.1,1.2,0.4C28.3,8,29,8.4,29.7,8.1
								C31,8.3,30,8.5,31.4,8.4C32.1,8.5,30.8,8.7,30.8,8.7z M63.9,7.9C63.9,7.9,63.9,7.9,63.9,7.9c-0.3,0-0.5,0-0.7,0
								C63.3,7.9,63.5,7.9,63.9,7.9z M66.7,7.9c-0.3,0-0.8,0-1.2,0c-0.1-0.1,0-0.2,0.3-0.2C65.6,7.7,66.2,7.8,66.7,7.9z M60.8,5.9
								c0.4,0,0.6,0,0.6,0.1c-0.2,0-0.5,0-0.8,0c0,0,0,0-0.1,0C60.7,6,60.7,5.9,60.8,5.9z"/>
							<path fill="#C2C1C1" d="M60,6.3c-0.1,0-0.1,0-0.2,0C59.9,6.3,60,6.3,60,6.3c0.1,0.1,0.2,0,0.2,0C60.1,6.3,60.1,6.3,60,6.3z"
								/>
							<path fill="#C2C1C1" d="M311.7,6.7L311.7,6.7C311.7,6.7,311.8,6.7,311.7,6.7C311.8,6.7,311.8,6.7,311.7,6.7z"/>
							<polygon fill="#C2C1C1" points="105,8.4 105,8.3 104.8,8.4 							"/>
							<path fill="#C2C1C1" d="M327,7.7c0,0,0.1,0.1,0.2,0.1C327.2,7.7,327.1,7.7,327,7.7z"/>
							<path fill="#C2C1C1" d="M333.6,7.7l0.9,0.1C334.2,7.8,333.9,7.7,333.6,7.7z"/>
							<path fill="#C2C1C1" d="M338.7,7.9c0.1,0,0.1-0.1,0.1-0.1c0,0,0,0,0,0L338.7,7.9z"/>
							<path fill="#C2C1C1" d="M258,8.2c-0.1,0-0.1,0-0.2,0C257.3,8.3,257.6,8.2,258,8.2z"/>
							<path fill="#C2C1C1" d="M282,7.5c-0.3,0.1-0.5,0.1-0.8,0.1C281.6,7.7,282,7.7,282,7.5z"/>
							<path fill="#C2C1C1" d="M231.1,8.5C231.1,8.5,231.1,8.5,231.1,8.5c-0.1,0-0.1,0-0.2,0L231.1,8.5z"/>
							<path fill="#C2C1C1" d="M280.1,7.7c0.4,0.1,0.8,0,1.1,0C280.9,7.6,280.5,7.6,280.1,7.7z"/>
							<path fill="#C2C1C1" d="M360.7,8l0.2,0c0,0,0,0,0,0L360.7,8z"/>
							<path fill="#C2C1C1" d="M361,8l0.3,0C361.2,7.9,361.1,7.9,361,8z"/>
							<path fill="#C2C1C1" d="M361.9,7.8l-0.6,0.1C361.5,7.9,361.7,7.9,361.9,7.8z"/>
							<path fill="#C2C1C1" d="M354,7.9L353.9,8C354,7.9,354,7.9,354,7.9z"/>
							<path fill="#C2C1C1" d="M352,7.9c0.5,0,1.2,0.2,1.9,0.2l0.1-0.1C353.6,8.1,352.4,7.7,352,7.9z"/>
							<path fill="#C2C1C1" d="M343.4,6.6l1.7,0.1c-0.3-0.1-0.7-0.3,0.1-0.3C343.1,6.1,345.7,6.7,343.4,6.6z"/>
							<path fill="#C2C1C1" d="M338.1,6.5c0.9-0.1,0-0.2,0-0.2C337.6,6.3,337.4,6.4,338.1,6.5z"/>
							<path fill="#C2C1C1" d="M299.8,6.5l0.1-0.3C299.1,6.2,299.8,6.3,299.8,6.5z"/>
							<polygon fill="#C2C1C1" points="292.4,7.8 293.1,7.9 293.4,7.7 							"/>
							<polygon fill="#C2C1C1" points="288.1,6 288.4,5.9 287.2,6 							"/>
							<path fill="#C2C1C1" d="M223.6,6.1l0.2,0.3C224.3,6.3,224.4,6,223.6,6.1z"/>
							<path fill="#C2C1C1" d="M195.8,6.4c-0.3-0.2-1.1-0.3-1.6-0.1C194.9,6.3,195.5,6.4,195.8,6.4z"/>
							<polygon fill="#C2C1C1" points="112.4,5.9 112.9,5.8 111.9,5.8 							"/>
						</g>
					</g>
				</g>
			</g>
		</g>
		<path fill="#262626" d="M239.4,285.7 M311.9,286.5"/>
		<path fill="#547DBF" d="M253.7,140.2v-26.7c0-20.3-6.1-36.4-18.2-48.1c-12.1-11.7-30.1-17.6-53.7-17.6c-10.9,0-20.8,1.4-29.9,4.2
			c-9,2.8-16.7,6.7-23.1,11.5c-6.4,4.8-11.4,10.4-14.9,16.8c-3.6,6.4-5.3,13.1-5.3,20.3H50.1c0-12.1,3.2-24.2,9.6-36.1
			c6.4-11.9,15.4-22.7,27.2-32.2c11.7-9.5,25.9-17.3,42.6-23.3c16.6-6,35.2-9,55.8-9c18.4,0,35.5,2.4,51.1,7.1
			c15.6,4.7,29,11.8,40.1,21.4c11.1,9.5,19.8,21.4,26.1,35.7c6.3,14.2,9.4,30.9,9.4,50v4.9L253.7,140.2z"/>
		<path fill="#DB4436" d="M253.7,223.3v-27.6H205c-33.1,0-58.7,5.2-76.7,15.6c-18,10.4-27,26-27,47c0,6.9,1,13.4,2.9,19.5
			l-55.9,20.4c-3.9-10.6-5.1-19.8-5.1-31.7c0-18.2,3.6-34.3,10.7-48.2c7.1-13.9,17.3-25.6,30.6-35c13.3-9.4,29.3-16.5,48.1-21.4
			c18.7-4.8,39.8-7.2,63-7.2h58.1l58.1-21.2v21.2v47.6L253.7,223.3z"/>
		<path fill="#F3B41B" d="M242,335.3c-6.8,5.1-20,15.4-28.1,19.3c-8.1,3.9-16.8,6.9-26.2,9.1c-9.4,2.2-19.4,3.3-29.9,3.3
			c-17.4,0-33.2-2.6-47.3-7.9c-14.1-5.2-26.2-12.4-36.1-21.4c-8.7-7.8-15.6-16.9-20.9-27.2l56.3-20.5c2.2,3.5,4.9,6.7,8,9.5
			c5.5,5.1,12.4,9.2,20.4,12.3c8.1,3,17.4,4.6,28.1,4.6c10.5,0,20.3-1.5,29.5-4.4c9.2-2.9,17.6-6.8,25.1-11.5
			c7-4.3,13.1-9.3,18.3-14.8L242,335.3z"/>
		<path fill="#0C9D58" d="M253.7,265.5v-27.8l58.1-21.2v70c0,11.5,1,23.6,3,36.3c2,12.7,5,23.6,9,32.8v5h-61
			c-2.1-4.2-3.8-9.5-5-15.9c-1.3-6.4-2.3-13-3.1-20L253.7,265.5z"/>
		<g>
			<defs>
				<path id="SVGID_1_" d="M253.7,265.5v-27.8l58.1-21.2v70c0,11.5,1,23.6,3,36.3c2,12.7,5,23.6,9,32.8v5h-61
					c-2.1-4.2-3.8-9.5-5-15.9c-1.3-6.4-2.3-13-3.1-20L253.7,265.5z"/>
			</defs>
			<clipPath id="SVGID_2_">
				<use xlink:href="#SVGID_1_"  overflow="visible"/>
			</clipPath>
		</g>
		<g>
			<defs>
				<path id="SVGID_3_" d="M242,335.3c-6.8,5.1-20,15.4-28.1,19.3c-8.1,3.9-16.8,6.9-26.2,9.1c-9.4,2.2-19.4,3.3-29.9,3.3
					c-17.4,0-33.2-2.6-47.3-7.9c-14.1-5.2-26.2-12.4-36.1-21.4c-8.7-7.8-15.6-16.9-20.9-27.2l56.3-20.5c2.2,3.5,4.9,6.7,8,9.5
					c5.5,5.1,12.4,9.2,20.4,12.3c8.1,3,17.4,4.6,28.1,4.6c10.5,0,20.3-1.5,29.5-4.4c9.2-2.9,17.6-6.8,25.1-11.5
					c7-4.3,13.1-9.3,18.3-14.8L242,335.3z"/>
			</defs>
			<clipPath id="SVGID_4_">
				<use xlink:href="#SVGID_3_"  overflow="visible"/>
			</clipPath>
		</g>
		<g>
			<defs>
				<path id="SVGID_5_" d="M253.7,223.3v-27.6H205c-33.1,0-58.7,5.2-76.7,15.6c-18,10.4-27,26-27,47c0,6.9,1,13.4,2.9,19.5
					l-55.9,20.4c-3.9-10.6-5.1-19.8-5.1-31.7c0-18.2,3.6-34.3,10.7-48.2c7.1-13.9,17.3-25.6,30.6-35c13.3-9.4,29.3-16.5,48.1-21.4
					c18.7-4.8,39.8-7.2,63-7.2h58.1l58.1-21.2v21.2v47.6L253.7,223.3z"/>
			</defs>
			<clipPath id="SVGID_6_">
				<use xlink:href="#SVGID_5_"  overflow="visible"/>
			</clipPath>
		</g>
	</g>
	<g>
		<g>
			<path fill="#C2C1C1" d="M456.3,366H504v8.7h-19.4v39h-8.8v-39h-19.5V366z"/>
			<path fill="#C2C1C1" d="M536.4,375.3c2.5,0,4.7,0.9,6.5,2.7c1.8,1.8,2.7,3.9,2.7,6.5v14.4h-30.3v5.7c0,0.3,0.2,0.5,0.5,0.5h29.9
				v8.7h-29.9c-2.5,0-4.7-0.9-6.5-2.7c-1.8-1.8-2.7-3.9-2.7-6.5v-20.1c0-2.5,0.9-4.7,2.7-6.5c1.8-1.8,3.9-2.7,6.5-2.7H536.4z
				 M515.2,390.1h21.7v-5.7c0-0.3-0.2-0.5-0.5-0.5h-20.7c-0.3,0-0.5,0.2-0.5,0.5V390.1z"/>
			<path fill="#C2C1C1" d="M560.5,405.1h29.9v8.7h-29.9c-2.5,0-4.7-0.9-6.5-2.7c-1.8-1.8-2.7-3.9-2.7-6.5v-20.1
				c0-2.5,0.9-4.7,2.7-6.5c1.8-1.8,3.9-2.7,6.5-2.7h29.8v8.7h-29.8c-0.3,0-0.5,0.2-0.5,0.5v20.1C560,404.9,560.2,405.1,560.5,405.1z
				"/>
			<path fill="#C2C1C1" d="M625.5,375.3c2.5,0,4.6,0.9,6.4,2.7c1.8,1.8,2.7,3.9,2.7,6.5v29.3H626v-29.3c0-0.3-0.2-0.5-0.5-0.5h-20.8
				c-0.3,0-0.5,0.2-0.5,0.5v29.3h-8.7v-51h8.7v12.6H625.5z"/>
			<path fill="#C2C1C1" d="M445.2,379.2h-6.9c5.2,4.4,7.9,9.4,7.9,15c0,3.6-1,6.8-2.9,9.6c-1.3,1.8-3.4,3.9-6.4,6.2
				c-2.1,2.1-3.1,3.9-3.1,5.4c0,1.7,1,3.3,2.9,4.8l4,3.1c3.1,2.4,5.3,4.5,6.5,6.3c1.8,2.7,2.8,5.7,2.8,9.2c0,5.6-2.5,10.4-7.4,14.4
				c-5.5,4.4-12.7,6.6-21.7,6.6c-7.6,0-13.6-1.6-18-4.9c-3.9-2.9-5.9-6.5-5.9-11c0-5.6,2.8-10.1,8.5-13.5c4.6-2.7,11.6-4.4,21.2-5.1
				c-2.2-2.8-3.3-5.3-3.3-7.4c0-1.1,0.4-2.5,1.1-4.2c-1.6,0-2.8,0-3.6,0c-5.6,0-10.2-1.8-13.6-5.4c-3.2-3.3-4.8-7.3-4.8-12
				c0-5.9,2.4-10.9,7.2-14.9c4.8-4,11.4-6,19.8-6h22.8L445.2,379.2z M442.6,443.2c0-2.7-1-5.1-2.9-7.2c-1.5-1.6-4.6-4.1-9.2-7.4
				c-0.6-0.1-1.4-0.1-2.6-0.1c-4.3,0-8.2,0.6-11.6,1.8c-6.4,2.2-9.5,6-9.5,11.4c0,4,1.8,7.2,5.4,9.8c3.6,2.5,8.3,3.8,14.1,3.8
				c5.2,0,9.2-1.1,12.2-3.4C441.2,449.6,442.6,446.7,442.6,443.2z M426.2,410.6c3,0,5.5-1,7.5-3.1c1.8-1.8,2.8-4.6,2.8-8.1
				c0-4.7-1.2-9.1-3.5-13.2c-2.7-4.8-6.2-7.2-10.4-7.2c-3.9,0-6.7,1.6-8.5,4.9c-1.1,1.8-1.7,4.2-1.7,7c0,4.5,1.1,8.7,3.3,12.6
				C418.3,408.2,421.8,410.6,426.2,410.6z"/>
		</g>
	</g>
</g>
</svg>
