<?xml version="1.0" encoding="utf-8"?>
<!-- Generator: Adobe Illustrator 18.0.0, SVG Export Plug-In . SVG Version: 6.00 Build 0)  -->
<!DOCTYPE svg PUBLIC "-//W3C//DTD SVG 1.1//EN" "http://www.w3.org/Graphics/SVG/1.1/DTD/svg11.dtd">
<svg version="1.1" id="ad_training_mark" xmlns="http://www.w3.org/2000/svg" xmlns:xlink="http://www.w3.org/1999/xlink" x="0px"
	 y="0px" viewBox="118.8 151.3 374.4 489.5" style="enable-background:new 118.8 151.3 374.4 489.5;" xml:space="preserve">
<path style="fill:#262626;" d="M477.3,533.4"/>
<path style="fill:#547DBF;" d="M399.7,338.2v-35.6c0-27.1-8.1-48.5-24.3-64.2S335.3,215,303.7,215c-14.5,0-27.8,1.9-39.8,5.7
	c-12,3.8-22.3,8.9-30.8,15.3c-8.5,6.4-15.1,13.9-19.9,22.4c-4.7,8.5-7.1,17.5-7.1,27H128c0-16.2,4.3-32.3,12.8-48.2
	c8.5-15.9,20.6-30.2,36.3-43c15.7-12.8,34.6-23.1,56.8-31.1c22.2-8,47-11.9,74.4-11.9c24.6,0,47.3,3.2,68.1,9.4
	c20.8,6.3,38.7,15.8,53.4,28.5c14.8,12.8,26.4,28.6,34.8,47.6c8.4,19,12.6,41.2,12.6,66.7v6.6L399.7,338.2z"/>
<path style="fill:#DB4436;" d="M399.7,449.1v-36.8h-65c-44.2,0-78.3,6.9-102.3,20.8c-24,13.8-36.1,34.7-36.1,62.7
	c0,9.1,1.3,17.8,3.8,26l-74.6,27.1c-5.2-14.1-6.8-26.4-6.8-42.2c0-24.3,4.7-45.7,14.3-64.4c9.5-18.6,23.1-34.2,40.9-46.8
	s39.2-22.1,64.2-28.5s53-9.6,84-9.6h77.6l77.6-28.3v28.3v63.5L399.7,449.1z"/>
<path style="fill:#F3B41B;" d="M384.1,598.6c-9.1,6.8-26.7,20.5-37.4,25.7c-10.8,5.2-22.4,9.2-35,12.1c-12.6,3-25.9,4.4-39.8,4.4
	c-23.2,0-44.2-3.5-63.1-10.5c-18.9-7-34.9-16.5-48.2-28.5c-11.6-10.5-20.9-22.6-27.8-36.4l75.1-27.3c3,4.6,6.5,8.9,10.7,12.7
	c7.4,6.8,16.5,12.3,27.2,16.4c10.8,4,23.3,6.1,37.5,6.1c14,0,27.1-1.9,39.4-5.9s23.5-9,33.6-15.3c9.3-5.8,17.4-12.3,24.4-19.7
	L384.1,598.6z"/>
<path style="fill:#0C9D58;" d="M399.7,505.4v-37.1l77.6-28.3v93.4c0,15.4,1.3,31.5,4,48.5c2.7,16.9,6.6,31.5,11.9,43.8v6.7h-81.3
	c-2.8-5.6-5-12.6-6.7-21.2c-1.7-8.5-3.1-17.4-4.2-26.6L399.7,505.4z"/>
</svg>
