<?xml version="1.0" encoding="utf-8"?>
<!-- Generator: Adobe Illustrator 17.1.0, SVG Export Plug-In . SVG Version: 6.00 Build 0)  -->
<!DOCTYPE svg PUBLIC "-//W3C//DTD SVG 1.1//EN" "http://www.w3.org/Graphics/SVG/1.1/DTD/svg11.dtd">
<svg version="1.1" id="ad_training_mark" xmlns="http://www.w3.org/2000/svg" xmlns:xlink="http://www.w3.org/1999/xlink" x="0px"
	 y="0px" viewBox="0 0 1200 960" enable-background="new 0 0 1200 960" xml:space="preserve">
<g>
	<g>
		<g>
			<g>
				<g>
					<g>
						<path fill="#C2C1C1" d="M1080,942.1c0.5-0.1,0.2-0.3-1.2-0.2l-1,0.3L1080,942.1z"/>
						<path fill="#C2C1C1" d="M1070.6,941.5c-1.6,0.2-3.5,0.4-2.5,0.7c1.6-0.3,2-0.2,3.8-0.6c1.4,0,2.4,0.1,2.2,0.2
							c0.5-0.1,2.2,0.1,2.9-0.1c-1.8-0.3-4.1-0.3-6.5-0.1C1070,941.6,1070.5,941.5,1070.6,941.5z"/>
						<path fill="#C2C1C1" d="M934.5,940.9l0.9,0C935.1,941,934.8,940.9,934.5,940.9z"/>
						<path fill="#C2C1C1" d="M850.1,940.8c0.6,0,0.9,0,0.9-0.1C850.5,940.7,850,940.7,850.1,940.8z"/>
						<path fill="#C2C1C1" d="M835.7,940.4c0.3,0,0.6,0,0.8,0C836.3,940.4,835.9,940.4,835.7,940.4z"/>
						<path fill="#C2C1C1" d="M934.5,940.9l-2.3-0.1C932.1,940.9,933.4,940.9,934.5,940.9z"/>
						<path fill="#C2C1C1" d="M1051.9,942.3c0.5,0,0.9,0,1.2-0.1C1052.7,942.2,1052.3,942.2,1051.9,942.3
							C1051.9,942.2,1051.9,942.2,1051.9,942.3z"/>
						<path fill="#C2C1C1" d="M971.7,940.7l0.7,0c0.2,0,0.4-0.1,0.6-0.1L971.7,940.7z"/>
						<path fill="#C2C1C1" d="M1000.2,940.6c-0.6,0-0.9,0.3-1.1,0.4c0.4-0.1,0.8-0.2,1.4-0.2
							C1000.5,940.8,1000.4,940.7,1000.2,940.6z"/>
						<path fill="#C2C1C1" d="M1045.5,941.1l0.8,0C1046.1,941.1,1045.7,941.1,1045.5,941.1z"/>
						<path fill="#C2C1C1" d="M951.2,940.6c0,0-0.2-0.1-0.3-0.1C951,940.5,951.1,940.6,951.2,940.6z"/>
						<path fill="#C2C1C1" d="M153.1,942.7C153.1,942.7,153.1,942.7,153.1,942.7C152.9,942.7,152.9,942.7,153.1,942.7z"/>
						<path fill="#C2C1C1" d="M120,941.3l0.5,0c0-0.1,0.1-0.1,0.1-0.2L120,941.3z"/>
						<path fill="#C2C1C1" d="M809.4,940c0.1,0,0.1,0,0.1,0C810.2,940,809.8,940,809.4,940z"/>
						<path fill="#C2C1C1" d="M567.4,940.2c2.7,0.3-4.5,0.3-0.3,0.6C566.7,940.7,570.8,940.4,567.4,940.2z"/>
						<path fill="#C2C1C1" d="M1051.1,942.2c-0.4,0-0.8,0-1.2,0C1050.5,942.2,1050.8,942.2,1051.1,942.2z"/>
						<path fill="#C2C1C1" d="M567.1,940.8C567.1,940.8,567.1,940.8,567.1,940.8l0.4,0C567.3,940.9,567.2,940.8,567.1,940.8z"/>
						<path fill="#C2C1C1" d="M748.7,940.2c0.1,0,0.4,0.1,0.6,0.1C749.3,940.3,749.1,940.3,748.7,940.2z"/>
						<path fill="#C2C1C1" d="M793.9,940.6l-1.1,0C793.2,940.6,793.6,940.6,793.9,940.6z"/>
						<path fill="#C2C1C1" d="M725.2,940.6c-0.6,0-0.8-0.1-1.6,0c0.1,0,0.2,0,0.3,0C724.1,940.6,724.5,940.6,725.2,940.6z"/>
						<path fill="#C2C1C1" d="M700.7,940.6c0.1,0,0.3,0,0.5,0.1c0.2,0,0.5,0,0.8,0L700.7,940.6z"/>
						<path fill="#C2C1C1" d="M227.4,942.6c-0.5-0.1-0.9-0.2-1.1-0.3C226.6,942.5,223,942.6,227.4,942.6z"/>
						<path fill="#C2C1C1" d="M1051.8,942.1c-0.1,0.1-0.4,0.1-0.7,0.1c0.3,0,0.6,0,0.8,0C1052,942.2,1052,942.1,1051.8,942.1z"/>
						<path fill="#C2C1C1" d="M724.2,942.8l-3.9,0C721.4,942.8,722.8,942.8,724.2,942.8z"/>
						<path fill="#C2C1C1" d="M402.8,942.5l-0.9,0C402.2,942.6,402.6,942.6,402.8,942.5z"/>
						<path fill="#C2C1C1" d="M708.8,942.8c-0.7-0.1-1.4-0.2-2.2-0.2c-0.2,0-0.3,0-0.5,0.1L708.8,942.8z"/>
						<path fill="#C2C1C1" d="M226.2,942.3C226.3,942.3,226.3,942.3,226.2,942.3C226.3,942.3,226.3,942.3,226.2,942.3z"/>
						<path fill="#C2C1C1" d="M200.7,943c3.7,0,1.7-0.4,2.5-0.6c4.4-0.1,2,0.3,3.5,0.5c2.8-0.1,4.9-0.4,6.9-0.4
							c0.2,0.1,0.6,0.1,0.1,0.2c2.9-0.3,8.7,0,12.1-0.4c0.3,0,0.4,0.1,0.4,0.1c-0.6-0.2-0.6-0.4-0.5-0.5c1.7,0,3.1-0.2,3.7,0
							c-1,0-1.1,0.1-1.6,0.2l1.7-0.1c1.6,0.3-2.4,0.1-2.4,0.4c3.4-0.1,7.3-0.4,9.9-0.3c0.5,0.3-6.1,0.1-2.6,0.4l-4-0.1
							c3.1,0.5-2.4,0,0.4,0.5c5.3,0.1,5.9-0.2,11.2-0.1c1.2-0.2-0.4-0.3,0.8-0.5c7.5-0.3,5.9,0.9,11.4,0.4c1.4-0.2,2-0.7,5.9-0.4
							l-1.3,0.4c5.1,0,2.9-0.6,8.3-0.3c-1,0.2-4,0.1-3.3,0.2c3.5,0.3,2.5-0.2,5.1-0.2l0.6,0.3c5.5-0.1,11.5-0.3,17.5-0.4
							c-0.3,0.1-1.4,0.2,0,0.3c7.6-0.2,16.3,0,23.6,0.2l2.8-0.3c0.7,0,1.2,0.1,0.5,0.2c2.9,0.1,0.1-0.2,1.5-0.3
							c1.6,0,2.2,0.2,1.1,0.3c5.1-0.2,14.4-0.5,19.7-0.2l-1,0.1c4.1,0.1,4.7-0.6,8.5-0.3l-0.7,0.1c9,0.1,18.9-0.1,25.8,0.3
							c1.3-0.4,8.9,0.2,9.5-0.4c5.1,0.3,3.7,0.4,10.9,0.6c1.9,0,2.9-0.4,5.3-0.4l0.1,0.3l3.2-0.3l1.7,0.4l2.2-0.1
							c-0.9,0-1.9-0.1-1.8-0.2c3.5-0.1,8.5,0.2,8.6,0.4l8.3-0.3c-0.2,0.1-1.6,0.2-2.7,0.2c4.4-0.3,0.8,0.3,4.9,0
							c-0.5-0.1,0.3-0.2,0.4-0.2c2,0.2,6.6,0.2,10,0.1l-0.7,0.2c6.1,0.1,12.9-0.1,19.8-0.1c-2.5-0.1-1.9-0.5,0.1-0.5l0.8,0.3
							c1.3-0.2-2.1-0.1,0.6-0.4c2.6,0,1.7,0.4,0.3,0.5l3.1-0.1c0.2,0.1-0.6,0.1-0.7,0.3c1.3-0.2,5.4,0.3,7.3,0l0.2,0.1
							c6.9,0,10-0.1,15.6-0.1c0.1-0.3,2.3-0.2,4-0.4c4.1,0.1,8.7,0.3,13.7,0.3c3.5-0.1,1-0.2,2.6-0.4c0.3,0.3,5.2,0.2,2.6,0.4
							c6,0,7.6-0.1,15.2-0.3c-0.8-0.1-1.7-0.2-1.3-0.2c1.4,0,3.1,0.1,2.9,0.2l-0.4,0c8.5-0.4,19.5,0.7,26.3,0.2l-0.4,0l7-0.3
							c3.2,0-1.9,0.2,0.5,0.4c7.5-0.4,11.9,0.1,18.1-0.2c4.8,0.8,17.1-0.1,23.6,0.4l-0.4-0.2c1.7-0.2,2,0.1,3.3,0.1
							c-0.2-0.1-1.8-0.2-0.8-0.3c14.2-0.2,29.3,0.3,43.9,0.4c5.3,0,3-0.9,9.7-0.5l-1.9,0.3c10.8-0.4,22,0,32.5-0.3
							c-0.6,0.1-0.6,0.2-1.7,0.2c2.2,0.2,8.2,0,8.3-0.2c1.6,0,0.4,0.2,1.4,0.3c2.2,0.1,5.6-0.3,6.8-0.1c0.2,0-0.6,0.1-1,0.1
							c1.5-0.1,6.8,0,5.4-0.2c4,0.1,7.6-0.1,10.7,0c2.1-0.3,6.8,0.1,7.4-0.3c-0.3,0.5,6.9,0.4,9.4,0.2c-0.8,0.1,2.2,0.1,1.2,0.3
							c2.9,0,5.5-0.1,5-0.3c5.3,0.5,10.6-0.4,13.5,0.3c8.5-0.2,16.3-0.4,23.9-0.5c-0.3,0.5-8.4,0-8.1,0.5c7.2-0.2,11.4-0.6,18.6-0.5
							c1.9,0.1-1.1,0.2-1.7,0.3c7.2-0.2,14,0,20.4-0.2c0,0-0.7,0.1-1.4,0.1c1.3,0,2.9,0.1,2.8-0.1l-1.2,0.1c-2-0.3,5-0.6,5.3-0.8
							c-2.1,0.6,6.3,0.1,2.9,0.9c0.8,0,1.9-0.1,1.7-0.3c1.2,0,1.6,0.1,0.4,0.3c4.5-0.1,2.9-0.3,7-0.3c0,0.1-0.8,0.1-1.3,0.3
							c2.1-0.2,4.2-0.4,7.6-0.3c-0.2,0.1,0.2,0.1-0.8,0.1c6,0,10.2-0.5,16.7-0.3c-1.9,0.4,2.2,0.1,2.6,0.5l3.5-0.1l-1.4-0.2
							c3.1,0,5.8-0.3,8.5-0.1l-2.3,0.2l5.8-0.1l-3.3-0.1c3.1-0.2-0.3-0.5,3.8-0.4c-0.8,0,3.1,0,4.7,0.2c0,0,0,0,0,0
							c1.5-0.1,3.1-0.2,5.4-0.2c0.6,0.1-0.5,0.4-0.1,0.5c1.5-0.3,7.2-0.1,9.1-0.4c-0.6,0.1-0.7,0.3-0.5,0.3l1.3-0.3
							c1.4,0.1,1.6,0.1,1.4,0.3c4.3,0-1.4-0.5,3.7-0.3c-0.4,0-0.2,0.1-1,0.1c5.1,0.1,9.9-0.2,14.6,0c1.4,0.4-4.1,0.1-2.5,0.4
							c6.8-0.1,14-0.5,20.6-0.4l-1.2,0c0.9-0.5,4.9,0.3,8.2,0c-0.8,0-1.1,0.3-0.8,0.2c4.5,0.1,9.2-0.1,16-0.3L931,942
							c2.6,0.1,7,0.1,9.8,0.1c0.8-0.1,2.5-0.1,1.5-0.3c8.8,0.8,16.8-0.4,24.7,0.2c-0.9,0-2.2,0.1-1.5,0.1l6.7-0.1
							c-0.5-0.2-0.9-0.1-2.3-0.3c0.8-0.1,2.7-0.2,4.4-0.2c-3,0.2,0,0.4,1.3,0.5c-0.2-0.1,0.2-0.1,0.1-0.2c3.5,0.4,0.6-0.5,5.3-0.2
							l-0.3,0.1c1.8-0.1,3.4-0.2,5.3-0.2c0.8,0.3-1.9,0.1-2,0.3c2.7,0,5.3-0.5,7.8-0.2c-1.1,0.1-2.8,0.1-3.9,0.1
							c2.7,0.3,3,0.2,4.9,0.3l-0.2,0l4.6,0.1l-1.2-0.1c3.4-0.7,6.9-0.1,11.4-0.6c-4.4,0.4-0.7,0.2-1.1,0.6c1.2,0.1,2.9,0.2,2.4,0.3
							c2.1-0.2,3.6,0.2,6.6-0.2c0.1,0.1,2.3,0,1.8,0.3c2.8-0.1-0.7-0.2-0.4-0.3c4.3-0.3,10.1,0.4,16.3-0.1c5.3-0.2,6.3-0.5,11.3-0.7
							c1.7,0.2-1.4,0.4-1.4,0.4c2.7,0.1,4.7,0.1,7.3,0c-0.5,0.1,0,0.2,0.8,0.3c2,0,1.4-0.4,4.1-0.2c-0.5,0.1-1.1,0.3-2,0.4
							c2.4-0.1,4.8-0.3,7.3-0.4c0.7,0.2-1.5,0.3-2.4,0.4c2.8-0.1,7.2-0.2,8.1-0.4l-1.8-0.1c1,0,0.5,0.2-0.2,0.3
							c-2.4,0.2-3.5-0.1-3.6-0.2l1.8-0.1c-1.8-0.6-7.1,0.1-10.7,0.1l1.5-0.4l-3.7,0.3c-0.8-0.1-1.3-0.3,0.5-0.4
							c-2.6-0.2-2.3,0.1-4.5-0.1c-0.2,0-0.1-0.1,0.1-0.1l-2.5,0.1c0.5-0.1-0.4-0.3,1.1-0.2c-4.5-0.2-7.2,0.3-8.9,0l0.4,0
							c-6.2,0.1-0.6,0.3-5.3,0.7l-3.1-0.8l-0.6,0.3c-0.6,0-1.9,0-1.7-0.2c-2.4,0.2,0.4,0.1-1,0.3c-3.1-0.3-8.5,0.1-9.2-0.4
							c-1.1,0.2,3,0.2-0.3,0.3c-0.9-0.5-3.8,0.1-6.6-0.2c0.9-0.3,3.5-0.1,0.7-0.4c-1.7,0.5-5.5-0.1-7.9,0c-0.1,0.4-5.2,0.2-9.2,0.3
							c0.3-0.1-7.5-0.2-11.2-0.3l0.1-0.1c-0.7,0.4-4.6,0.3-7.3,0.4c0.1-0.2,0.6-0.3,2.1-0.4l-2.6,0c-0.6,0.1-1.4,0.2-3.1,0.2
							l0.7-0.3c-3.5,0-7,0.3-11.5,0.1c-0.3,0.3,3.6,0.7-1.2,0.9c-0.2-0.1-0.4-0.4,0.9-0.4c-0.4,0-1.5,0.1-2.3,0.1l1.9-0.2
							c-2-0.1-1.1,0.2-2.7,0.2c0-0.2-1.2-0.1-1-0.3c0.4,0,1.4,0.1,2.1,0c-1.8,0-4.1-0.2-4.8-0.3c0.2,0.1,0,0.3-1.4,0.3
							c-3.5,0-1.2-0.2-3.2-0.3c-0.8,0.1-3.1,0-3.1,0.3c-1,0-1.2-0.1-1.6-0.2c-1.8,0.1-8.4,0-6.4,0.4l0.5,0c-0.1,0-0.2,0-0.3,0
							c0,0,0,0,0,0h0c-5.9,0.3-12.3-0.2-18.2,0l0-0.1c-3.5,0.1-7.8,0.1-10.3,0.3c-1,0-2.4-0.2-2-0.3c-2.7,0.1-3,0.2-6.9,0
							c2.7-0.2-0.9-0.2,2.8-0.1c-3.5-0.1-4.3-0.2-8,0c1.3-0.3-2.6-0.3-4.3-0.2l2.4,0.2c-1.9,0-3.5,0-5.1,0l0.9-0.3
							c-7.1-0.4-12.9,0.7-18.3,0c-1.9,0.2,3.9,0.2,2.2,0.4c-3.3,0-6.7-0.5-7.7-0.5c-4.5-0.2-4.2,0.5-8.9,0.4
							c0.6,0.1,1.2,0.4-2.3,0.5c-3.3,0-4-0.5-2-0.6c0.8,0,1.2,0,1.1,0.1c1.1,0,2.5-0.1,1.2-0.2l-0.4,0.1c-1.6-0.1-6.1-0.1-5.1-0.3
							c-2.5,0.1-1.1,0.2,0.8,0.3c-4.2-0.2-6.6,0-10.9-0.1c0.7,0.1,1.3,0.2,0.6,0.2c-6.4-0.1-2.8,0.2-7.1,0.3
							c-2.4-0.2,0.9-0.4-3.5-0.3c-2.6-0.1-0.6-0.3,0.5-0.4c-4,0.2-7.4-0.2-9.6-0.2l2.1-0.1c-1.2,0.1-2.3,0.1-3.3,0.1l1.2,0.2
							c-1.2,0-2.3,0-2.2-0.1c-1.3,0.2,1,0.4-1.5,0.6c-1.6-0.1-5,0.1-5.5-0.2c5.1,0.1-0.6-0.3,3.8-0.4c-0.8,0-1.9,0-3.1,0
							c-0.2,0,0.2-0.1,0.5-0.1c-4.9-0.3-2.3,0.4-7.3,0.3c0.6-0.2-1.2-0.3-2-0.3c2,0,1,0.3-0.9,0.4c-3.3-0.1-3.5,0.1-5.2,0.1l1.9,0.1
							c-0.7,0.2-2.3,0.2-4.6,0.2c-0.2-0.1,2.1-0.1,1.3-0.2c-2.5,0.3-5.7-0.3-9.2-0.1c-1.6-0.1-0.2-0.3-1.6-0.4
							c-3.9,0.2-4.3-0.2-8.4-0.1c1.2,0.2,1.4,0.2-1.5,0.4l6.8-0.2l-4.4,0.3c2.1,0,4.3-0.1,5.6-0.1c-2.1,0.2-1.9,0.1-0.9,0.3
							c-2.8-0.4-5.6,0.2-8.8,0l0.1-0.6c-4.9-0.3-8.7,0.3-15,0.2l2,0.1c-0.9,0.2-3.9,0-6,0.1c0.2-0.2-1.1-0.3-2-0.4
							c0.1,0.1-4.6,0-5.2,0.4l-2.8-0.3c-5.1-0.1-5.8,0.6-10.8,0.5c1.5-0.2-0.8-0.4,2.5-0.5c-1.6,0-3.1,0-3.1,0.1
							c-1-0.1-4.6,0.3-6.1,0.1c-0.7,0.1-0.9,0.3-2.8,0.3c-0.2,0,0-0.1,0-0.1c0,0.1-2.9,0.1-1.3,0.4c-5.1-0.6-14.2,0-18.6-0.5
							c-3.6,0.1-7.9,0.1-11.2,0.1c0.2-0.1,0-0.1,0.6-0.1c-4.5-0.2-2.8,0.6-7.9,0.4c-2.6-0.3,2.7-0.2,1.1-0.3
							c-0.7-0.6-6.2,0.1-9.6-0.3l0.8,0c-2.6-0.2-6.4,0.2-10.7,0.2c0,0,0.2-0.1,0-0.1c-2.9,0.3-8.5,0.4-12.6,0.5
							c1.3-0.3,1.9-0.1,1.1-0.4c-1.9,0,0.5,0.4-3.2,0.5c-1.2-0.1-3.9-0.3-4.2-0.5l3.5,0c-1.8-0.4-4.5,0-6.4,0l0.2-0.2
							c-5.3,0.1-5.4,0.4-11.2,0.4l0.6,0.1c-3.1,0.4-2.6-0.2-5.8,0.1l-0.9-0.4c-2.1,0.1-7.3,0.4-11,0.5c2.1-0.3,6.5-0.4,9.1-0.6
							c-2.1,0-7,0-8.1,0.2c0.8,0,1.9-0.1,2.7-0.1c-2.5,0.3-5.8,0.5-9.9,0.5c0.7-0.8-10.7-0.2-13.6-0.8c-7.2,0.3-14.4-0.1-22.8-0.1
							c3,0.6-2.5,0-1.9,0.6c-2,0-2.7,0-2.9,0l-6-0.4c-1.4-0.2,1.9-0.1,1.7-0.3c-4.3,0-1.8-0.3-4.7-0.4c0.6,0.2-1.5,0.3-3.9,0.2
							l3.5,0.3c-6,0.3-5.2-0.5-11.3-0.2l1.9-0.2c-3.1,0.1-11.5,0-14.5,0.5c-0.6-0.1-1.3-0.2,0.1-0.3c-7.4-0.1-16.5,0.5-22.3,0.2
							l0.6-0.1c-1.4,0-2.4,0.3-4.2,0.1c0.1-0.1,0.6-0.1-0.1-0.2c-0.7,0.1-3.7,0.3-5.5,0.2l1.6-0.2c-7.3-0.2-11.1,0.4-17.2,0.5
							c0-0.4-5.7-0.6-8.5-0.7l0.1-0.1c-8.4-0.1-14.3,0.4-22.2,0.5c-4.9-0.5-16.4-0.2-24.2-0.5c1.2,0.1-0.2,0.3-1.6,0.4
							c-1.8-0.1-5.1,0.3-4.8-0.1l0.7,0c-1.4-0.4-5.1-0.3-8.1-0.3l-0.5,0.5c-7.7-0.8-20.1,0.3-24.3-0.4c-1.9,0.1-4.2,0.1-6,0.3
							l0.1-0.3c-5.1-0.1-7.7-0.1-14.1,0l1.3-0.2c-3.6,0-4.5,0.8-7.8,0.8l-1-0.4c-6.2,0-12.6-0.4-18.7,0c0.1-0.1,0.3-0.2,1.3-0.2
							c-2.9,0-11.4-0.3-10.3,0.3c-0.1-0.4-6.4,0-9.8,0.1l0.5-0.3c-2.8,0.4-2.9,0.5-6.9,0.6c-0.9,0-0.8-0.2,0.4-0.2
							c-3.1-0.1-2.4,0.3-6.3,0.1l1.4-0.2c-3.2,0-3,0.1-4.8,0.3c-2,0.1-6.1-0.1-6.6-0.3c-0.4,0.2-2.2,0.4-4.1,0.3
							c-0.3-0.1,0.4-0.2,0.8-0.2c-5.4-0.2-8,0.3-11.8,0.1c-0.1-0.1-0.3-0.1-0.6-0.2c4.3,0,7.8,0,7.4,0c0-0.3-3.5-0.3-0.7-0.7
							c-2.8,0.2-7.5,0.6-10.9,0.5c-0.2,0-0.3,0-0.4-0.1l0.3,0c-0.8,0-1.5,0-2.1,0c-1.1,0-1.8-0.1-2.8-0.1c-0.4-0.2-4-0.1-5.7-0.1
							c0.1,0.3-2.1,0.2,0,0.5c-0.3,0,0.3,0,1.5,0c0.3,0,0.6,0,0.7,0c0,0-0.1,0-0.1,0c1.1,0,2.6,0,4.3,0c-1.4,0.1-2.8,0.3-4.7,0.1
							c-0.9,0.2-1.9,0.4-2.4,0.5c-2.4-0.4-6.9-0.6-7.6-0.8c-5.3,0.2-12.4,0.1-15.8,0.6c-1.5,0.1-1.7-0.2-2.3-0.2
							c0.9-0.1,1.9,0,2.4-0.1c-3,0.1-8.9,0.1-9.6,0.4c-3.8-0.2,2.1-0.3-3.1-0.3l0.7-0.1c-10.2-0.6-16.6,0.9-28,0.2
							c0.8,0,1.2,0.1,1.3,0.1c-12.9-0.3-26.6,0.3-39.4-0.2c-3.6-0.1-4,0.1-6.2,0.3l-0.8-0.3l-3.8,0.3c-5.4,0.3-9.3-0.7-16.1-0.3
							l0.9,0.2c-2.4,0-7.7,0.1-7.3-0.1c-0.2,0-0.8,0.2-1.8,0.1l-0.1-0.2l-6,0.3c-4.6-0.1,0.7-0.6-6.1-0.7c-2.5,0.1-7.2,0.5-6.2,0.6
							c1,0,2.6,0.1,2.7,0.3l-2.3,0.1c-0.4,0.5-2.2,0.9,3.5,1.3l3.9-0.3l1.3,0.2l-3.3,0c1.9,0.2,3.1,0,4.4-0.1
							c0.3,0.1,0.9,0.2,1.7,0.2l3.9-0.4c0.5,0.2-1.7,0.4,0.9,0.5c1.8-0.2-1.7-0.4,1.3-0.5c1.9,0.2,1.3,0.4,3.5,0.2
							c0.3,0.1-0.2,0.2-1,0.2c2-0.1,5.2-0.1,6.2-0.3c2,0.3,6.7-0.1,6.5,0.4c0.6-0.1,3.5-0.3,5.3-0.4c-3.3,0.5,6.8,0,5.9,0.6
							c2.4-0.5,8.8-0.2,13.2-0.5c-0.2,0-0.7,0.1-1.1,0.1c2.4,0,3.1,0.2,4.7,0.3c0.3-0.4,4.1-0.5,6.2-0.7c3,0.4-1.8,0.5-0.9,0.8
							c-0.2-0.3,5.2-0.3,4.2-0.6c2.3,0.2,2,0.1,3.1,0.4c0.4-0.5,2.1-0.1,4-0.4c3.3,0.2,0.9,0.5,4.5,0.3
							C203.9,942.8,200.7,943,200.7,943z M287.1,942.1C287.1,942.2,287.1,942.2,287.1,942.1c-0.7,0-1.4,0-1.8,0
							C285.7,942.2,286.2,942.2,287.1,942.1z M294.4,942.1c-0.9,0-2,0-3.2,0c-0.3-0.1,0-0.2,0.8-0.2
							C291.6,942,293.3,942.1,294.4,942.1z M279,940.2c1.1,0,1.5,0,1.7,0.1c-0.5,0-1.2,0-2,0c0,0-0.1,0-0.1,0
							C278.7,940.3,278.8,940.2,279,940.2z"/>
						<path fill="#C2C1C1" d="M276.9,940.6c-0.2,0-0.3,0-0.5,0c0.2,0,0.5,0,0.7,0.1c0.1,0,0.3-0.1,0.4-0.1
							C277.4,940.6,277.1,940.6,276.9,940.6z"/>
						<path fill="#C2C1C1" d="M935.5,941l-0.2,0c0.1,0,0.2,0,0.3,0C935.6,941,935.6,941,935.5,941z"/>
						<polygon fill="#C2C1C1" points="394.7,942.7 394.7,942.6 394.1,942.7 						"/>
						<path fill="#C2C1C1" d="M975.5,941.9c0.1,0,0.2,0.1,0.5,0.1C976,942,975.8,942,975.5,941.9z"/>
						<path fill="#C2C1C1" d="M992.8,942l2.4,0.1C994.2,942.1,993.4,942,992.8,942z"/>
						<path fill="#C2C1C1" d="M1006.1,942.1c0.2,0,0.2-0.1,0.3-0.1c0,0,0,0,0,0L1006.1,942.1z"/>
						<path fill="#C2C1C1" d="M794.8,942.5c-0.2,0-0.4,0-0.5,0C793.1,942.5,793.9,942.5,794.8,942.5z"/>
						<path fill="#C2C1C1" d="M857.7,941.8c-0.7,0.1-1.3,0.1-2,0.1C856.8,942,857.7,942,857.7,941.8z"/>
						<path fill="#C2C1C1" d="M724.6,942.8C724.6,942.8,724.6,942.8,724.6,942.8c-0.1,0-0.3,0-0.4,0L724.6,942.8z"/>
						<path fill="#C2C1C1" d="M852.7,942c1.1,0.1,2.1,0,2.9,0C854.8,941.9,853.7,941.9,852.7,942z"/>
						<path fill="#C2C1C1" d="M1063.7,942.3l0.6,0c0,0,0,0,0.1,0L1063.7,942.3z"/>
						<path fill="#C2C1C1" d="M1064.4,942.2l0.7,0C1064.8,942.2,1064.5,942.2,1064.4,942.2z"/>
						<path fill="#C2C1C1" d="M1066.6,942.1l-1.5,0.1C1065.7,942.2,1066.3,942.2,1066.6,942.1z"/>
						<path fill="#C2C1C1" d="M1046.1,942.1l-0.2,0.1C1046,942.2,1046.1,942.2,1046.1,942.1z"/>
						<path fill="#C2C1C1" d="M1040.8,942.2c1.3,0,3.2,0.2,5,0.2l0.2-0.1C1045.1,942.4,1042,942,1040.8,942.2z"/>
						<path fill="#C2C1C1" d="M1018.5,940.9l4.5,0.1c-0.8-0.1-1.8-0.3,0.2-0.3C1017.5,940.4,1024.3,941,1018.5,940.9z"/>
						<path fill="#C2C1C1" d="M1004.6,940.8c2.4-0.1,0-0.2,0.1-0.2C1003.1,940.6,1002.8,940.7,1004.6,940.8z"/>
						<path fill="#C2C1C1" d="M904.2,940.8l0.2-0.3C902.6,940.5,904.4,940.6,904.2,940.8z"/>
						<polygon fill="#C2C1C1" points="885,942.1 886.8,942.2 887.7,942 						"/>
						<polygon fill="#C2C1C1" points="873.7,940.3 874.5,940.2 871.4,940.3 						"/>
						<path fill="#C2C1C1" d="M705.1,940.3l0.6,0.3C706.9,940.6,707.1,940.3,705.1,940.3z"/>
						<path fill="#C2C1C1" d="M632.3,940.7c-0.8-0.2-2.8-0.3-4.1-0.1C629.8,940.6,631.4,940.7,632.3,940.7z"/>
						<polygon fill="#C2C1C1" points="414,940.2 415.5,940.1 412.7,940.1 						"/>
					</g>
				</g>
			</g>
		</g>
	</g>
	<g>
		<g>
			<g>
				<g>
					<g>
						<path fill="#C2C1C1" d="M1080,19.3c0.5-0.1,0.2-0.3-1.2-0.2l-1,0.3L1080,19.3z"/>
						<path fill="#C2C1C1" d="M1070.6,18.7c-1.6,0.2-3.5,0.4-2.5,0.7c1.6-0.3,2-0.2,3.8-0.6c1.4,0,2.4,0.1,2.2,0.2
							c0.5-0.1,2.2,0.1,2.9-0.1c-1.8-0.3-4.1-0.3-6.5-0.1C1070,18.8,1070.5,18.7,1070.6,18.7z"/>
						<path fill="#C2C1C1" d="M934.5,18.1l0.9,0C935.1,18.2,934.8,18.1,934.5,18.1z"/>
						<path fill="#C2C1C1" d="M850.1,18c0.6,0,0.9,0,0.9-0.1C850.5,17.9,850,17.9,850.1,18z"/>
						<path fill="#C2C1C1" d="M835.7,17.6c0.3,0,0.6,0,0.8,0C836.3,17.6,835.9,17.6,835.7,17.6z"/>
						<path fill="#C2C1C1" d="M934.5,18.1l-2.3-0.1C932.1,18.1,933.4,18.1,934.5,18.1z"/>
						<path fill="#C2C1C1" d="M1051.9,19.5c0.5,0,0.9,0,1.2-0.1C1052.7,19.4,1052.3,19.4,1051.9,19.5
							C1051.9,19.4,1051.9,19.4,1051.9,19.5z"/>
						<path fill="#C2C1C1" d="M971.7,17.9l0.7,0c0.2,0,0.4-0.1,0.6-0.1L971.7,17.9z"/>
						<path fill="#C2C1C1" d="M1000.2,17.8c-0.6,0-0.9,0.3-1.1,0.4c0.4-0.1,0.8-0.2,1.4-0.2C1000.5,18,1000.4,17.9,1000.2,17.8z"/>
						<path fill="#C2C1C1" d="M1045.5,18.3l0.8,0C1046.1,18.3,1045.7,18.3,1045.5,18.3z"/>
						<path fill="#C2C1C1" d="M951.2,17.8c0,0-0.2-0.1-0.3-0.1C951,17.7,951.1,17.8,951.2,17.8z"/>
						<path fill="#C2C1C1" d="M153.1,19.9C153.1,19.9,153.1,19.9,153.1,19.9C152.9,19.9,152.9,19.9,153.1,19.9z"/>
						<path fill="#C2C1C1" d="M120,18.5l0.5,0c0-0.1,0.1-0.1,0.1-0.2L120,18.5z"/>
						<path fill="#C2C1C1" d="M809.4,17.2c0.1,0,0.1,0,0.1,0C810.2,17.2,809.8,17.2,809.4,17.2z"/>
						<path fill="#C2C1C1" d="M567.4,17.4c2.7,0.3-4.5,0.3-0.3,0.6C566.7,17.9,570.8,17.6,567.4,17.4z"/>
						<path fill="#C2C1C1" d="M1051.1,19.4c-0.4,0-0.8,0-1.2,0C1050.5,19.4,1050.8,19.4,1051.1,19.4z"/>
						<path fill="#C2C1C1" d="M567.1,18C567.1,18,567.1,18,567.1,18l0.4,0C567.3,18.1,567.2,18,567.1,18z"/>
						<path fill="#C2C1C1" d="M748.7,17.4c0.1,0,0.4,0.1,0.6,0.1C749.3,17.5,749.1,17.5,748.7,17.4z"/>
						<path fill="#C2C1C1" d="M793.9,17.8l-1.1,0C793.2,17.8,793.6,17.8,793.9,17.8z"/>
						<path fill="#C2C1C1" d="M725.2,17.8c-0.6,0-0.8-0.1-1.6,0c0.1,0,0.2,0,0.3,0C724.1,17.8,724.5,17.8,725.2,17.8z"/>
						<path fill="#C2C1C1" d="M700.7,17.8c0.1,0,0.3,0,0.5,0.1c0.2,0,0.5,0,0.8,0L700.7,17.8z"/>
						<path fill="#C2C1C1" d="M227.4,19.8c-0.5-0.1-0.9-0.2-1.1-0.3C226.6,19.7,223,19.8,227.4,19.8z"/>
						<path fill="#C2C1C1" d="M1051.8,19.3c-0.1,0.1-0.4,0.1-0.7,0.1c0.3,0,0.6,0,0.8,0C1052,19.4,1052,19.3,1051.8,19.3z"/>
						<path fill="#C2C1C1" d="M724.2,20l-3.9,0C721.4,20,722.8,20,724.2,20z"/>
						<path fill="#C2C1C1" d="M402.8,19.7l-0.9,0C402.2,19.8,402.6,19.8,402.8,19.7z"/>
						<path fill="#C2C1C1" d="M708.8,20c-0.7-0.1-1.4-0.2-2.2-0.2c-0.2,0-0.3,0-0.5,0.1L708.8,20z"/>
						<path fill="#C2C1C1" d="M226.2,19.5C226.3,19.5,226.3,19.5,226.2,19.5C226.3,19.5,226.3,19.5,226.2,19.5z"/>
						<path fill="#C2C1C1" d="M200.7,20.2c3.7,0,1.7-0.4,2.5-0.6c4.4-0.1,2,0.3,3.5,0.5c2.8-0.1,4.9-0.4,6.9-0.4
							c0.2,0.1,0.6,0.1,0.1,0.2c2.9-0.3,8.7,0,12.1-0.4c0.3,0,0.4,0.1,0.4,0.1c-0.6-0.2-0.6-0.4-0.5-0.5c1.7,0,3.1-0.2,3.7,0
							c-1,0-1.1,0.1-1.6,0.2l1.7-0.1c1.6,0.3-2.4,0.1-2.4,0.4c3.4-0.1,7.3-0.4,9.9-0.3c0.5,0.3-6.1,0.1-2.6,0.4l-4-0.1
							c3.1,0.5-2.4,0,0.4,0.5c5.3,0.1,5.9-0.2,11.2-0.1c1.2-0.2-0.4-0.3,0.8-0.5c7.5-0.3,5.9,0.9,11.4,0.4c1.4-0.2,2-0.7,5.9-0.4
							l-1.3,0.4c5.1,0,2.9-0.6,8.3-0.3c-1,0.2-4,0.1-3.3,0.2c3.5,0.3,2.5-0.2,5.1-0.2l0.6,0.3c5.5-0.1,11.5-0.3,17.5-0.4
							c-0.3,0.1-1.4,0.2,0,0.3c7.6-0.2,16.3,0,23.6,0.2l2.8-0.3c0.7,0,1.2,0.1,0.5,0.2c2.9,0.1,0.1-0.2,1.5-0.3
							c1.6,0,2.2,0.2,1.1,0.3c5.1-0.2,14.4-0.5,19.7-0.2l-1,0.1c4.1,0.1,4.7-0.6,8.5-0.3l-0.7,0.1c9,0.1,18.9-0.1,25.8,0.3
							c1.3-0.4,8.9,0.2,9.5-0.4c5.1,0.3,3.7,0.4,10.9,0.6c1.9,0,2.9-0.4,5.3-0.4l0.1,0.3l3.2-0.3l1.7,0.4l2.2-0.1
							c-0.9,0-1.9-0.1-1.8-0.2c3.5-0.1,8.5,0.2,8.6,0.4l8.3-0.3c-0.2,0.1-1.6,0.2-2.7,0.2c4.4-0.3,0.8,0.3,4.9,0
							c-0.5-0.1,0.3-0.2,0.4-0.2c2,0.2,6.6,0.2,10,0.1L429,20c6.1,0.1,12.9-0.1,19.8-0.1c-2.5-0.1-1.9-0.5,0.1-0.5l0.8,0.3
							c1.3-0.2-2.1-0.1,0.6-0.4c2.6,0,1.7,0.4,0.3,0.5l3.1-0.1c0.2,0.1-0.6,0.1-0.7,0.3c1.3-0.2,5.4,0.3,7.3,0l0.2,0.1
							c6.9,0,10-0.1,15.6-0.1c0.1-0.3,2.3-0.2,4-0.4c4.1,0.1,8.7,0.3,13.7,0.3c3.5-0.1,1-0.2,2.6-0.4c0.3,0.3,5.2,0.2,2.6,0.4
							c6,0,7.6-0.1,15.2-0.3c-0.8-0.1-1.7-0.2-1.3-0.2c1.4,0,3.1,0.1,2.9,0.2l-0.4,0c8.5-0.4,19.5,0.7,26.3,0.2l-0.4,0l7-0.3
							c3.2,0-1.9,0.2,0.5,0.4c7.5-0.4,11.9,0.1,18.1-0.2c4.8,0.8,17.1-0.1,23.6,0.4l-0.4-0.2c1.7-0.2,2,0.1,3.3,0.1
							c-0.2-0.1-1.8-0.2-0.8-0.3c14.2-0.2,29.3,0.3,43.9,0.4c5.3,0,3-0.9,9.7-0.5l-1.9,0.3c10.8-0.4,22,0,32.5-0.3
							c-0.6,0.1-0.6,0.2-1.7,0.2c2.2,0.2,8.2,0,8.3-0.2c1.6,0,0.4,0.2,1.4,0.3c2.2,0.1,5.6-0.3,6.8-0.1c0.2,0-0.6,0.1-1,0.1
							c1.5-0.1,6.8,0,5.4-0.2c4,0.1,7.6-0.1,10.7,0c2.1-0.3,6.8,0.1,7.4-0.3c-0.3,0.5,6.9,0.4,9.4,0.2c-0.8,0.1,2.2,0.1,1.2,0.3
							c2.9,0,5.5-0.1,5-0.3c5.3,0.5,10.6-0.4,13.5,0.3c8.5-0.2,16.3-0.4,23.9-0.5c-0.3,0.5-8.4,0-8.1,0.5c7.2-0.2,11.4-0.6,18.6-0.5
							c1.9,0.1-1.1,0.2-1.7,0.3c7.2-0.2,14,0,20.4-0.2c0,0-0.7,0.1-1.4,0.1c1.3,0,2.9,0.1,2.8-0.1l-1.2,0.1c-2-0.3,5-0.6,5.3-0.8
							c-2.1,0.6,6.3,0.1,2.9,0.9c0.8,0,1.9-0.1,1.7-0.3c1.2,0,1.6,0.1,0.4,0.3c4.5-0.1,2.9-0.3,7-0.3c0,0.1-0.8,0.1-1.3,0.3
							c2.1-0.2,4.2-0.4,7.6-0.3c-0.2,0.1,0.2,0.1-0.8,0.1c6,0,10.2-0.5,16.7-0.3c-1.9,0.4,2.2,0.1,2.6,0.5l3.5-0.1l-1.4-0.2
							c3.1,0,5.8-0.3,8.5-0.1l-2.3,0.2l5.8-0.1l-3.3-0.1c3.1-0.2-0.3-0.5,3.8-0.4c-0.8,0,3.1,0,4.7,0.2c0,0,0,0,0,0
							c1.5-0.1,3.1-0.2,5.4-0.2c0.6,0.1-0.5,0.4-0.1,0.5c1.5-0.3,7.2-0.1,9.1-0.4c-0.6,0.1-0.7,0.3-0.5,0.3l1.3-0.3
							c1.4,0.1,1.6,0.1,1.4,0.3c4.3,0-1.4-0.5,3.7-0.3c-0.4,0-0.2,0.1-1,0.1c5.1,0.1,9.9-0.2,14.6,0c1.4,0.4-4.1,0.1-2.5,0.4
							c6.8-0.1,14-0.5,20.6-0.4l-1.2,0c0.9-0.5,4.9,0.3,8.2,0c-0.8,0-1.1,0.3-0.8,0.2c4.5,0.1,9.2-0.1,16-0.3l-0.8,0.1
							c2.6,0.1,7,0.1,9.8,0.1c0.8-0.1,2.5-0.1,1.5-0.3c8.8,0.8,16.8-0.4,24.7,0.2c-0.9,0-2.2,0.1-1.5,0.1l6.7-0.1
							c-0.5-0.2-0.9-0.1-2.3-0.3c0.8-0.1,2.7-0.2,4.4-0.2c-3,0.2,0,0.4,1.3,0.5c-0.2-0.1,0.2-0.1,0.1-0.2c3.5,0.4,0.6-0.5,5.3-0.2
							l-0.3,0.1c1.8-0.1,3.4-0.2,5.3-0.2c0.8,0.3-1.9,0.1-2,0.3c2.7,0,5.3-0.5,7.8-0.2c-1.1,0.1-2.8,0.1-3.9,0.1
							c2.7,0.3,3,0.2,4.9,0.3l-0.2,0l4.6,0.1l-1.2-0.1c3.4-0.7,6.9-0.1,11.4-0.6c-4.4,0.4-0.7,0.2-1.1,0.6c1.2,0.1,2.9,0.2,2.4,0.3
							c2.1-0.2,3.6,0.2,6.6-0.2c0.1,0.1,2.3,0,1.8,0.3c2.8-0.1-0.7-0.2-0.4-0.3c4.3-0.3,10.1,0.4,16.3-0.1c5.3-0.2,6.3-0.5,11.3-0.7
							c1.7,0.2-1.4,0.4-1.4,0.4c2.7,0.1,4.7,0.1,7.3,0c-0.5,0.1,0,0.2,0.8,0.3c2,0,1.4-0.4,4.1-0.2c-0.5,0.1-1.1,0.3-2,0.4
							c2.4-0.1,4.8-0.3,7.3-0.4c0.7,0.2-1.5,0.3-2.4,0.4c2.8-0.1,7.2-0.2,8.1-0.4l-1.8-0.1c1,0,0.5,0.2-0.2,0.3
							c-2.4,0.2-3.5-0.1-3.6-0.2l1.8-0.1c-1.8-0.6-7.1,0.1-10.7,0.1l1.5-0.4l-3.7,0.3c-0.8-0.1-1.3-0.3,0.5-0.4
							c-2.6-0.2-2.3,0.1-4.5-0.1c-0.2,0-0.1-0.1,0.1-0.1l-2.5,0.1c0.5-0.1-0.4-0.3,1.1-0.2c-4.5-0.2-7.2,0.3-8.9,0l0.4,0
							c-6.2,0.1-0.6,0.3-5.3,0.7l-3.1-0.8l-0.6,0.3c-0.6,0-1.9,0-1.7-0.2c-2.4,0.2,0.4,0.1-1,0.3c-3.1-0.3-8.5,0.1-9.2-0.4
							c-1.1,0.2,3,0.2-0.3,0.3c-0.9-0.5-3.8,0.1-6.6-0.2c0.9-0.3,3.5-0.1,0.7-0.4c-1.7,0.5-5.5-0.1-7.9,0c-0.1,0.4-5.2,0.2-9.2,0.3
							c0.3-0.1-7.5-0.2-11.2-0.3l0.1-0.1c-0.7,0.4-4.6,0.3-7.3,0.4c0.1-0.2,0.6-0.3,2.1-0.4l-2.6,0c-0.6,0.1-1.4,0.2-3.1,0.2
							l0.7-0.3c-3.5,0-7,0.3-11.5,0.1c-0.3,0.3,3.6,0.7-1.2,0.9c-0.2-0.1-0.4-0.4,0.9-0.4c-0.4,0-1.5,0.1-2.3,0.1l1.9-0.2
							c-2-0.1-1.1,0.2-2.7,0.2c0-0.2-1.2-0.1-1-0.3c0.4,0,1.4,0.1,2.1,0c-1.8,0-4.1-0.2-4.8-0.3c0.2,0.1,0,0.3-1.4,0.3
							c-3.5,0-1.2-0.2-3.2-0.3c-0.8,0.1-3.1,0-3.1,0.3c-1,0-1.2-0.1-1.6-0.2c-1.8,0.1-8.4,0-6.4,0.4l0.5,0c-0.1,0-0.2,0-0.3,0
							c0,0,0,0,0,0h0c-5.9,0.3-12.3-0.2-18.2,0l0-0.1c-3.5,0.1-7.8,0.1-10.3,0.3c-1,0-2.4-0.2-2-0.3c-2.7,0.1-3,0.2-6.9,0
							c2.7-0.2-0.9-0.2,2.8-0.1c-3.5-0.1-4.3-0.2-8,0c1.3-0.3-2.6-0.3-4.3-0.2l2.4,0.2c-1.9,0-3.5,0-5.1,0l0.9-0.3
							c-7.1-0.4-12.9,0.7-18.3,0c-1.9,0.2,3.9,0.2,2.2,0.4c-3.3,0-6.7-0.5-7.7-0.5c-4.5-0.2-4.2,0.5-8.9,0.4
							c0.6,0.1,1.2,0.4-2.3,0.5c-3.3,0-4-0.5-2-0.6c0.8,0,1.2,0,1.1,0.1c1.1,0,2.5-0.1,1.2-0.2l-0.4,0.1c-1.6-0.1-6.1-0.1-5.1-0.3
							c-2.5,0.1-1.1,0.2,0.8,0.3c-4.2-0.2-6.6,0-10.9-0.1c0.7,0.1,1.3,0.2,0.6,0.2c-6.4-0.1-2.8,0.2-7.1,0.3
							c-2.4-0.2,0.9-0.4-3.5-0.3c-2.6-0.1-0.6-0.3,0.5-0.4c-4,0.2-7.4-0.2-9.6-0.2l2.1-0.1c-1.2,0.1-2.3,0.1-3.3,0.1l1.2,0.2
							c-1.2,0-2.3,0-2.2-0.1c-1.3,0.2,1,0.4-1.5,0.6c-1.6-0.1-5,0.1-5.5-0.2c5.1,0.1-0.6-0.3,3.8-0.4c-0.8,0-1.9,0-3.1,0
							c-0.2,0,0.2-0.1,0.5-0.1c-4.9-0.3-2.3,0.4-7.3,0.3c0.6-0.2-1.2-0.3-2-0.3c2,0,1,0.3-0.9,0.4c-3.3-0.1-3.5,0.1-5.2,0.1l1.9,0.1
							c-0.7,0.2-2.3,0.2-4.6,0.2c-0.2-0.1,2.1-0.1,1.3-0.2c-2.5,0.3-5.7-0.3-9.2-0.1c-1.6-0.1-0.2-0.3-1.6-0.4
							c-3.9,0.2-4.3-0.2-8.4-0.1c1.2,0.2,1.4,0.2-1.5,0.4l6.8-0.2l-4.4,0.3c2.1,0,4.3-0.1,5.6-0.1c-2.1,0.2-1.9,0.1-0.9,0.3
							c-2.8-0.4-5.6,0.2-8.8,0l0.1-0.6c-4.9-0.3-8.7,0.3-15,0.2l2,0.1c-0.9,0.2-3.9,0-6,0.1c0.2-0.2-1.1-0.3-2-0.4
							c0.1,0.1-4.6,0-5.2,0.4l-2.8-0.3c-5.1-0.1-5.8,0.6-10.8,0.5c1.5-0.2-0.8-0.4,2.5-0.5c-1.6,0-3.1,0-3.1,0.1
							c-1-0.1-4.6,0.3-6.1,0.1c-0.7,0.1-0.9,0.3-2.8,0.3c-0.2,0,0-0.1,0-0.1c0,0.1-2.9,0.1-1.3,0.4c-5.1-0.6-14.2,0-18.6-0.5
							c-3.6,0.1-7.9,0.1-11.2,0.1c0.2-0.1,0-0.1,0.6-0.1c-4.5-0.2-2.8,0.6-7.9,0.4c-2.6-0.3,2.7-0.2,1.1-0.3
							c-0.7-0.6-6.2,0.1-9.6-0.3l0.8,0c-2.6-0.2-6.4,0.2-10.7,0.2c0,0,0.2-0.1,0-0.1c-2.9,0.3-8.5,0.4-12.6,0.5
							c1.3-0.3,1.9-0.1,1.1-0.4c-1.9,0,0.5,0.4-3.2,0.5c-1.2-0.1-3.9-0.3-4.2-0.5l3.5,0c-1.8-0.4-4.5,0-6.4-0.1l0.2-0.2
							c-5.3,0.1-5.4,0.4-11.2,0.4l0.6,0.1c-3.1,0.4-2.6-0.2-5.8,0.1l-0.9-0.4c-2.1,0.1-7.3,0.4-11,0.5c2.1-0.3,6.5-0.4,9.1-0.6
							c-2.1,0-7,0-8.1,0.2c0.8,0,1.9-0.1,2.7-0.1c-2.5,0.3-5.8,0.5-9.9,0.5c0.7-0.8-10.7-0.2-13.6-0.8c-7.2,0.3-14.4-0.1-22.8-0.1
							c3,0.6-2.5,0-1.9,0.6c-2,0-2.7,0-2.9,0l-6-0.4c-1.4-0.2,1.9-0.1,1.7-0.3c-4.3,0-1.8-0.3-4.7-0.4c0.6,0.2-1.5,0.3-3.9,0.2
							l3.5,0.3c-6,0.3-5.2-0.5-11.3-0.2l1.9-0.2c-3.1,0.1-11.5,0-14.5,0.5c-0.6-0.1-1.3-0.2,0.1-0.3c-7.4-0.1-16.5,0.5-22.3,0.2
							l0.6-0.1c-1.4,0-2.4,0.3-4.2,0.1c0.1-0.1,0.6-0.1-0.1-0.2c-0.7,0.1-3.7,0.3-5.5,0.2l1.6-0.2c-7.3-0.2-11.1,0.4-17.2,0.5
							c0-0.4-5.7-0.6-8.5-0.7l0.1-0.1c-8.4-0.1-14.3,0.4-22.2,0.5c-4.9-0.5-16.4-0.2-24.2-0.5c1.2,0.1-0.2,0.3-1.6,0.4
							c-1.8-0.1-5.1,0.3-4.8-0.1l0.7,0c-1.4-0.4-5.1-0.3-8.1-0.3l-0.5,0.5c-7.7-0.8-20.1,0.3-24.3-0.4c-1.9,0.1-4.2,0.1-6,0.3
							l0.1-0.3c-5.1-0.1-7.7-0.1-14.1,0l1.3-0.2c-3.6,0-4.5,0.8-7.8,0.8l-1-0.4c-6.2,0-12.6-0.4-18.7,0c0.1-0.1,0.3-0.2,1.3-0.2
							c-2.9,0-11.4-0.3-10.3,0.3c-0.1-0.4-6.4,0-9.8,0.1l0.5-0.3c-2.8,0.4-2.9,0.5-6.9,0.6c-0.9,0-0.8-0.2,0.4-0.2
							c-3.1-0.1-2.4,0.3-6.3,0.1l1.4-0.2c-3.2,0-3,0.1-4.8,0.3c-2,0.1-6.1-0.1-6.6-0.3c-0.4,0.2-2.2,0.4-4.1,0.3
							c-0.3-0.1,0.4-0.2,0.8-0.2c-5.4-0.2-8,0.3-11.8,0.1c-0.1-0.1-0.3-0.1-0.6-0.2c4.3,0,7.8,0,7.4,0c0-0.3-3.5-0.3-0.7-0.7
							c-2.8,0.2-7.5,0.6-10.9,0.5c-0.2,0-0.3,0-0.4-0.1l0.3,0c-0.8,0-1.5,0-2.1,0c-1.1,0-1.8-0.1-2.8-0.1c-0.4-0.2-4-0.1-5.7-0.1
							c0.1,0.3-2.1,0.2,0,0.5c-0.3,0,0.3,0,1.5,0c0.3,0,0.6,0,0.7,0c0,0-0.1,0-0.1,0c1.1,0,2.6,0,4.3,0c-1.4,0.1-2.8,0.3-4.7,0.1
							c-0.9,0.2-1.9,0.4-2.4,0.5c-2.4-0.4-6.9-0.6-7.6-0.8c-5.3,0.2-12.4,0.1-15.8,0.6c-1.5,0.1-1.7-0.2-2.3-0.2
							c0.9-0.1,1.9,0,2.4-0.1c-3,0.1-8.9,0.1-9.6,0.4c-3.8-0.2,2.1-0.3-3.1-0.3l0.7-0.1c-10.2-0.6-16.6,0.9-28,0.2
							c0.8,0,1.2,0.1,1.3,0.1c-12.9-0.3-26.6,0.3-39.4-0.2c-3.6-0.1-4,0.1-6.2,0.3l-0.8-0.3l-3.8,0.3c-5.4,0.3-9.3-0.7-16.1-0.3
							l0.9,0.2c-2.4,0-7.7,0.1-7.3-0.1c-0.2,0-0.8,0.2-1.8,0.1l-0.1-0.2l-6,0.3c-4.6-0.1,0.7-0.6-6.1-0.7c-2.5,0.1-7.2,0.5-6.2,0.6
							c1,0,2.6,0.1,2.7,0.3l-2.3,0.1c-0.4,0.5-2.2,0.9,3.5,1.3l3.9-0.3l1.3,0.2l-3.3,0c1.9,0.2,3.1,0,4.4-0.1
							c0.3,0.1,0.9,0.2,1.7,0.2l3.9-0.4c0.5,0.2-1.7,0.4,0.9,0.5c1.8-0.2-1.7-0.4,1.3-0.5c1.9,0.2,1.3,0.4,3.5,0.2
							c0.3,0.1-0.2,0.2-1,0.2c2-0.1,5.2-0.1,6.2-0.3c2,0.3,6.7-0.1,6.5,0.4c0.6-0.1,3.5-0.3,5.3-0.4c-3.3,0.5,6.8,0,5.9,0.6
							c2.4-0.5,8.8-0.2,13.2-0.5c-0.2,0-0.7,0.1-1.1,0.1c2.4,0,3.1,0.2,4.7,0.3c0.3-0.4,4.1-0.5,6.2-0.7c3,0.4-1.8,0.5-0.9,0.8
							c-0.2-0.3,5.2-0.3,4.2-0.6c2.3,0.2,2,0.1,3.1,0.4c0.4-0.5,2.1-0.1,4-0.4c3.3,0.2,0.9,0.5,4.5,0.3
							C203.9,20,200.7,20.2,200.7,20.2z M287.1,19.3C287.1,19.4,287.1,19.4,287.1,19.3c-0.7,0-1.4,0-1.8,0
							C285.7,19.4,286.2,19.4,287.1,19.3z M294.4,19.3c-0.9,0-2,0-3.2,0c-0.3-0.1,0-0.2,0.8-0.2C291.6,19.2,293.3,19.3,294.4,19.3z
							 M279,17.4c1.1,0,1.5,0,1.7,0.1c-0.5,0-1.2,0-2,0c0,0-0.1,0-0.1,0C278.7,17.5,278.8,17.4,279,17.4z"/>
						<path fill="#C2C1C1" d="M276.9,17.8c-0.2,0-0.3,0-0.5,0c0.2,0,0.5,0,0.7,0.1c0.1,0,0.3-0.1,0.4-0.1
							C277.4,17.8,277.1,17.8,276.9,17.8z"/>
						<path fill="#C2C1C1" d="M935.5,18.2l-0.2,0c0.1,0,0.2,0,0.3,0C935.6,18.2,935.6,18.2,935.5,18.2z"/>
						<polygon fill="#C2C1C1" points="394.7,19.9 394.7,19.8 394.1,19.9 						"/>
						<path fill="#C2C1C1" d="M975.5,19.1c0.1,0,0.2,0.1,0.5,0.1C976,19.2,975.8,19.2,975.5,19.1z"/>
						<path fill="#C2C1C1" d="M992.8,19.2l2.4,0.1C994.2,19.3,993.4,19.2,992.8,19.2z"/>
						<path fill="#C2C1C1" d="M1006.1,19.3c0.2,0,0.2-0.1,0.3-0.1c0,0,0,0,0,0L1006.1,19.3z"/>
						<path fill="#C2C1C1" d="M794.8,19.7c-0.2,0-0.4,0-0.5,0C793.1,19.7,793.9,19.7,794.8,19.7z"/>
						<path fill="#C2C1C1" d="M857.7,19c-0.7,0.1-1.3,0.1-2,0.1C856.8,19.2,857.7,19.2,857.7,19z"/>
						<path fill="#C2C1C1" d="M724.6,20C724.6,20,724.6,20,724.6,20c-0.1,0-0.3,0-0.4,0L724.6,20z"/>
						<path fill="#C2C1C1" d="M852.7,19.2c1.1,0.1,2.1,0,2.9,0C854.8,19.1,853.7,19.1,852.7,19.2z"/>
						<path fill="#C2C1C1" d="M1063.7,19.5l0.6,0c0,0,0,0,0.1,0L1063.7,19.5z"/>
						<path fill="#C2C1C1" d="M1064.4,19.4l0.7,0C1064.8,19.4,1064.5,19.4,1064.4,19.4z"/>
						<path fill="#C2C1C1" d="M1066.6,19.3l-1.5,0.1C1065.7,19.4,1066.3,19.4,1066.6,19.3z"/>
						<path fill="#C2C1C1" d="M1046.1,19.3l-0.2,0.1C1046,19.4,1046.1,19.4,1046.1,19.3z"/>
						<path fill="#C2C1C1" d="M1040.8,19.4c1.3,0,3.2,0.2,5,0.2l0.2-0.1C1045.1,19.6,1042,19.2,1040.8,19.4z"/>
						<path fill="#C2C1C1" d="M1018.5,18.1l4.5,0.1c-0.8-0.1-1.8-0.3,0.2-0.3C1017.5,17.6,1024.3,18.2,1018.5,18.1z"/>
						<path fill="#C2C1C1" d="M1004.6,18c2.4-0.1,0-0.2,0.1-0.2C1003.1,17.8,1002.8,17.9,1004.6,18z"/>
						<path fill="#C2C1C1" d="M904.2,18l0.2-0.3C902.6,17.7,904.4,17.8,904.2,18z"/>
						<polygon fill="#C2C1C1" points="885,19.3 886.8,19.4 887.7,19.2 						"/>
						<polygon fill="#C2C1C1" points="873.7,17.5 874.5,17.4 871.4,17.5 						"/>
						<path fill="#C2C1C1" d="M705.1,17.5l0.6,0.3C706.9,17.8,707.1,17.5,705.1,17.5z"/>
						<path fill="#C2C1C1" d="M632.3,17.9c-0.8-0.2-2.8-0.3-4.1-0.1C629.8,17.8,631.4,17.9,632.3,17.9z"/>
						<polygon fill="#C2C1C1" points="414,17.4 415.5,17.3 412.7,17.3 						"/>
					</g>
				</g>
			</g>
		</g>
	</g>
	<path fill="#262626" d="M746.2,747.5 M935.8,749.5"/>
	<path fill="#547DBF" d="M783.7,366.7v-69.9c0-53.2-15.9-95.1-47.7-125.8c-31.8-30.7-78.6-46-140.6-46c-28.5,0-54.5,3.7-78.1,11.1
		c-23.6,7.4-43.7,17.4-60.4,30c-16.7,12.6-29.7,27.3-39.1,44c-9.3,16.7-14,34.4-14,53H251c0-31.8,8.4-63.3,25.1-94.5
		c16.7-31.2,40.4-59.3,71.1-84.3C377.9,59.3,415,39,458.6,23.4C502.2,7.8,550.8,0,604.5,0c48.2,0,92.8,6.2,133.6,18.5
		c40.8,12.3,75.8,31,104.8,55.9c29,25,51.8,56.1,68.2,93.3c16.4,37.3,24.7,80.8,24.7,130.7v12.9L783.7,366.7z"/>
	<path fill="#DB4436" d="M783.7,584.1v-72.2H656.3c-86.6,0-153.5,13.6-200.6,40.7c-47.1,27.1-70.7,68.1-70.7,122.9
		c0,17.9,2.5,34.9,7.5,50.9l-146.2,53.2c-10.2-27.7-13.4-51.8-13.4-82.8c0-47.7,9.3-89.7,28-126.2c18.6-36.5,45.3-67,80.1-91.7
		c34.8-24.7,76.8-43.3,125.8-55.9c49-12.6,104-18.9,164.8-18.9h152.1l152.1-55.4v55.4v124.5L783.7,584.1z"/>
	<path fill="#F3B41B" d="M753.2,877.2c-17.8,13.4-52.3,40.2-73.4,50.4c-21.1,10.1-44,18.1-68.6,23.8c-24.7,5.8-50.7,8.6-78.1,8.6
		c-45.5,0-86.7-6.8-123.7-20.5c-37-13.7-68.5-32.4-94.5-55.9c-22.7-20.5-40.9-44.3-54.6-71.3l147.2-53.6
		c5.8,9.1,12.7,17.4,20.9,24.9c14.5,13.4,32.3,24.1,53.4,32.1c21.1,7.9,45.6,11.9,73.6,11.9c27.4,0,53.2-3.8,77.3-11.5
		c24.1-7.7,46.1-17.7,65.8-30c18.2-11.4,34.2-24.2,47.9-38.6L753.2,877.2z"/>
	<path fill="#0C9D58" d="M783.7,694.5v-72.8l152.1-55.4v183.2c0,30.2,2.6,61.8,7.8,95c5.2,33.2,13,61.8,23.4,85.9v13.2H807.6
		c-5.5-11-9.9-24.8-13.1-41.5c-3.3-16.7-6-34.1-8.2-52.2L783.7,694.5z"/>
	<g>
		<defs>
			<path id="SVGID_1_" d="M783.7,694.5v-72.8l152.1-55.4v183.2c0,30.2,2.6,61.8,7.8,95c5.2,33.2,13,61.8,23.4,85.9v13.2H807.6
				c-5.5-11-9.9-24.8-13.1-41.5c-3.3-16.7-6-34.1-8.2-52.2L783.7,694.5z"/>
		</defs>
		<clipPath id="SVGID_2_">
			<use xlink:href="#SVGID_1_"  overflow="visible"/>
		</clipPath>
	</g>
	<g>
		<defs>
			<path id="SVGID_3_" d="M753.2,877.2c-17.8,13.4-52.3,40.2-73.4,50.4c-21.1,10.1-44,18.1-68.6,23.8c-24.7,5.8-50.7,8.6-78.1,8.6
				c-45.5,0-86.7-6.8-123.7-20.5c-37-13.7-68.5-32.4-94.5-55.9c-22.7-20.5-40.9-44.3-54.6-71.3l147.2-53.6
				c5.8,9.1,12.7,17.4,20.9,24.9c14.5,13.4,32.3,24.1,53.4,32.1c21.1,7.9,45.6,11.9,73.6,11.9c27.4,0,53.2-3.8,77.3-11.5
				c24.1-7.7,46.1-17.7,65.8-30c18.2-11.4,34.2-24.2,47.9-38.6L753.2,877.2z"/>
		</defs>
		<clipPath id="SVGID_4_">
			<use xlink:href="#SVGID_3_"  overflow="visible"/>
		</clipPath>
	</g>
	<g>
		<defs>
			<path id="SVGID_5_" d="M783.7,584.1v-72.2H656.3c-86.6,0-153.5,13.6-200.6,40.7c-47.1,27.1-70.7,68.1-70.7,122.9
				c0,17.9,2.5,34.9,7.5,50.9l-146.2,53.2c-10.2-27.7-13.4-51.8-13.4-82.8c0-47.7,9.3-89.7,28-126.2c18.6-36.5,45.3-67,80.1-91.7
				c34.8-24.7,76.8-43.3,125.8-55.9c49-12.6,104-18.9,164.8-18.9h152.1l152.1-55.4v55.4v124.5L783.7,584.1z"/>
		</defs>
		<clipPath id="SVGID_6_">
			<use xlink:href="#SVGID_5_"  overflow="visible"/>
		</clipPath>
	</g>
</g>
</svg>
