<?xml version="1.0" encoding="utf-8"?>
<!-- Generator: Adobe Illustrator 17.1.0, SVG Export Plug-In . SVG Version: 6.00 Build 0)  -->
<!DOCTYPE svg PUBLIC "-//W3C//DTD SVG 1.1//EN" "http://www.w3.org/Graphics/SVG/1.1/DTD/svg11.dtd">
<svg version="1.1" id="ad_training_concepts" xmlns="http://www.w3.org/2000/svg" xmlns:xlink="http://www.w3.org/1999/xlink"
	 x="0px" y="0px" viewBox="0 0 1200 960" enable-background="new 0 0 1200 960" xml:space="preserve">
<g>
	<g>
		<path fill="#262626" d="M438.2,332.4 M515.7,333.2"/>
	</g>
	<g>
		<path fill="#2B439B" d="M459.4,158.9l-16.3-14c-1.6-21.7,4.8-52.7-9-64.2c-13.9-11.5-33.4-16.4-58.7-14.5
			c-11.6,0.9-22.1,3.1-31.5,6.9c-9.4,3.7-17.3,8.4-23.7,14c-6.4,5.6-11.3,12-14.6,19.1c-3.3,7.1-4.7,14.4-4.1,22l-62.3,4.6l-16.3-14
			c0,0,38.3-50.6,50.1-61.7c11.8-11.1,26.3-20.5,43.6-28.1c17.3-7.7,36.9-12.3,58.7-13.9c19.7-1.5,38-0.3,55,3.5
			c17,3.8,31.8,10.3,44.4,19.6c12.6,9.3,22.8,21.3,30.6,36c7.8,14.7,12.5,32.2,14,52.5l0.4,5.2L459.4,158.9z"/>
		<path fill="#547DBF" d="M443.2,144.9l-2.1-28.5c-1.6-21.7-9.3-38.3-23.2-49.8C404,55,384.4,50.2,359.2,52.1
			c-11.6,0.9-22.1,3.1-31.5,6.9c-9.4,3.7-17.3,8.4-23.7,14c-6.4,5.6-11.3,12-14.6,19.1c-3.3,7.1-4.7,14.4-4.1,22l-62.3,4.6
			c-1-13,1.5-26,7.4-39.3C236.2,66.2,245,54,256.8,43c11.8-11.1,26.3-20.5,43.5-28.1c17.3-7.7,36.9-12.3,58.7-13.9
			c19.7-1.5,38-0.3,55,3.5c17,3.8,31.8,10.3,44.4,19.6c12.6,9.3,22.8,21.3,30.6,36c7.8,14.7,12.5,32.2,14,52.5l0.4,5.2L443.2,144.9z
			"/>
	</g>
	<g>
		<g>
			<path fill="#A52822" d="M451.5,274.6L437.9,258l16.6-12.7l-51.8-5.3c-35.2-3.6-62.9-0.9-83.2,8.2c-20.3,9.1-31.6,24.7-33.9,47
				c-0.7,7.3-0.4,14.3,0.9,21L225,331.7L211.4,315c0,0,19.1-53.6,28.2-67.7c9.1-14,21.2-25.3,36.4-33.9c15.2-8.6,33-14.4,53.4-17.5
				c20.5-3.1,43-3.3,67.8-0.8l61.8,6.4l50.6-32.8l13.6,16.7l-2.3,22.5l-5.2,50.6L451.5,274.6z"/>
		</g>
		<g>
			<path fill="#DB4436" d="M437.9,258l3-29.3l-51.8-5.3c-35.2-3.6-62.9-0.9-83.2,8.2c-20.3,9.1-31.6,24.7-33.9,47
				c-0.7,7.3-0.4,14.3,0.9,21L211.4,315c-3-11.7-3.3-21.6-2-34.2c2-19.4,7.5-36.1,16.6-50.1c9.1-14,21.2-25.3,36.4-33.9
				c15.2-8.6,33-14.4,53.4-17.5c20.5-3.1,43-3.3,67.8-0.8l61.8,6.4l64.1-16.1l-2.3,22.5l-5.2,50.6L437.9,258z"/>
		</g>
	</g>
	<g>
		<g>
			<path fill="#0B552B" d="M445.5,366.6c-5.5,7.3-16.1,21.6-23.3,28c-7.2,6.3-15.3,12-24.3,17c-9.1,5-19,9-29.8,12.1
				c-17.9,5.1-34.9,6.9-50.9,5.7c-16.1-1.3-30.5-5.1-43.4-11.5c-11.2-5.6-21-12.9-29.4-21.9l47.8-34.5c3.3,2.9,11,2.5,15.1,4.5
				c7.2,3.7,15.4,5.9,24.6,6.7c9.2,0.8,19.3-0.4,30.2-3.5c10.8-3,20.5-7.4,29.1-13.1c8.6-5.7,18.3-50.1,18.3-50.1l18.8,10.5
				L445.5,366.6z"/>
		</g>
		<g>
			<path fill="#0C9D58" d="M426.7,356.1c-5.5,7.3-16.1,21.6-23.2,28c-7.2,6.3-15.3,12-24.3,17c-9.1,5-19,9-29.8,12.1
				c-17.9,5.1-34.9,6.9-50.9,5.7c-16.1-1.3-30.5-5.1-43.4-11.5c-11.2-5.5-21-12.9-29.4-21.9l51.9-37.4c3.3,2.9,7,5.4,11,7.5
				c7.2,3.7,15.4,5.9,24.6,6.7c9.2,0.8,19.3-0.4,30.3-3.5c10.8-3,20.5-7.4,29.1-13.1c8.6-5.7,16.1-12.1,22.5-19.1
				c5.9-6.5,10.7-13.3,14.5-20.5L426.7,356.1z"/>
		</g>
	</g>
	<g>
		<g>
			<path fill="#E86324" d="M470.3,352l28.8-77l18.5,11l18.5,72.5c3,11.9,7.3,24.2,12.7,36.8c5.4,12.6,11.4,23.2,18,31.7l1.3,5.2
				L505,448.3l-18.5-11c0,0,3.2-17,0.5-24L470.3,352z"/>
		</g>
		<g>
			<path fill="#F3B41B" d="M451.9,341.1l-7.4-28.8l54.6-37.3l18.5,72.5c3,11.9,7.3,24.2,12.7,36.8c5.4,12.6,11.4,23.2,18,31.7
				l1.3,5.2l-63.1,16.1c-3.3-3.8-6.4-8.8-9.4-15.1c-3-6.3-5.8-12.9-8.5-19.8L451.9,341.1z"/>
		</g>
	</g>
</g>
<g>
	<g>
		<g>
			<g>
				<g>
					<g>
						<path fill="#2B439B" d="M1080.1,440c0.2-0.1,0.1-0.3-0.5-0.2l-0.5,0.3L1080.1,440z"/>
						<path fill="#2B439B" d="M1075.7,439.4c-0.8,0.2-1.6,0.4-1.2,0.7c0.8-0.3,0.9-0.2,1.8-0.6c0.7,0,1.1,0.1,1,0.2
							c0.2-0.1,1,0.1,1.4-0.1c-0.8-0.3-1.9-0.3-3-0.1C1075.5,439.5,1075.7,439.4,1075.7,439.4z"/>
						<path fill="#2B439B" d="M1012.2,438.9l0.4,0C1012.5,438.9,1012.4,438.9,1012.2,438.9z"/>
						<path fill="#2B439B" d="M972.9,438.7c0.3,0,0.4,0,0.4-0.1C973,438.6,972.8,438.6,972.9,438.7z"/>
						<path fill="#2B439B" d="M966.1,438.3c0.1,0,0.3,0,0.4,0C966.4,438.3,966.2,438.3,966.1,438.3z"/>
						<path fill="#2B439B" d="M1012.2,438.9l-1.1-0.1C1011.1,438.9,1011.7,438.8,1012.2,438.9z"/>
						<path fill="#2B439B" d="M1067,440.2c0.2,0,0.4,0,0.6-0.1C1067.4,440.1,1067.2,440.1,1067,440.2
							C1067,440.1,1067,440.2,1067,440.2z"/>
						<path fill="#2B439B" d="M1029.6,438.6l0.3,0c0.1,0,0.2-0.1,0.3-0.1L1029.6,438.6z"/>
						<path fill="#2B439B" d="M1042.9,438.5c-0.3,0-0.4,0.3-0.5,0.4c0.2-0.1,0.4-0.2,0.7-0.2C1043,438.7,1043,438.6,1042.9,438.5z"
							/>
						<path fill="#2B439B" d="M1064,439l0.4,0C1064.3,439,1064.1,439,1064,439z"/>
						<path fill="#2B439B" d="M1020,438.5c0,0-0.1-0.1-0.1-0.1C1019.9,438.5,1020,438.5,1020,438.5z"/>
						<path fill="#2B439B" d="M647.6,440.6C647.6,440.6,647.6,440.6,647.6,440.6C647.5,440.6,647.5,440.6,647.6,440.6z"/>
						<path fill="#2B439B" d="M632.1,439.2l0.2,0c0-0.1,0-0.1,0-0.2L632.1,439.2z"/>
						<path fill="#2B439B" d="M953.8,438C953.9,438,953.9,438,953.8,438C954.2,437.9,954,437.9,953.8,438z"/>
						<path fill="#2B439B" d="M840.9,438.2c1.3,0.3-2.1,0.3-0.2,0.6C840.6,438.6,842.5,438.3,840.9,438.2z"/>
						<path fill="#2B439B" d="M1066.6,440.1c-0.2,0-0.4,0-0.5,0C1066.3,440.1,1066.5,440.1,1066.6,440.1z"/>
						<path fill="#2B439B" d="M840.8,438.8C840.8,438.8,840.8,438.8,840.8,438.8l0.2,0C840.9,438.8,840.8,438.8,840.8,438.8z"/>
						<path fill="#2B439B" d="M925.5,438.1c0.1,0,0.2,0.1,0.3,0.1C925.8,438.2,925.7,438.2,925.5,438.1z"/>
						<path fill="#2B439B" d="M946.6,438.5l-0.5,0C946.3,438.5,946.5,438.5,946.6,438.5z"/>
						<path fill="#2B439B" d="M914.5,438.5c-0.3,0-0.4-0.1-0.8,0c0,0,0.1,0,0.1,0C914,438.5,914.2,438.5,914.5,438.5z"/>
						<path fill="#2B439B" d="M903.1,438.5c0.1,0,0.1,0,0.2,0.1c0.1,0,0.2,0,0.4,0L903.1,438.5z"/>
						<path fill="#2B439B" d="M682.2,440.5c-0.2-0.1-0.4-0.2-0.5-0.3C681.9,440.5,680.2,440.5,682.2,440.5z"/>
						<path fill="#2B439B" d="M1067,440c-0.1,0.1-0.2,0.1-0.3,0.1c0.1,0,0.3,0,0.4,0C1067.1,440.1,1067.1,440,1067,440z"/>
						<path fill="#2B439B" d="M914.1,440.7l-1.8,0C912.8,440.7,913.4,440.7,914.1,440.7z"/>
						<path fill="#2B439B" d="M764.1,440.5l-0.4,0C763.8,440.5,764,440.5,764.1,440.5z"/>
						<path fill="#2B439B" d="M906.9,440.7c-0.3-0.1-0.7-0.2-1-0.2c-0.1,0-0.2,0-0.2,0.1L906.9,440.7z"/>
						<path fill="#2B439B" d="M681.7,440.2C681.7,440.3,681.7,440.3,681.7,440.2C681.7,440.3,681.7,440.3,681.7,440.2z"/>
						<path fill="#2B439B" d="M669.8,440.9c1.7,0,0.8-0.4,1.2-0.6c2.1-0.1,1,0.3,1.7,0.5c1.3-0.1,2.3-0.4,3.2-0.4
							c0.1,0.1,0.3,0.1,0,0.2c1.4-0.3,4,0,5.6-0.4c0.1,0,0.2,0.1,0.2,0.1c-0.3-0.2-0.3-0.4-0.2-0.5c0.8,0,1.4-0.2,1.7,0
							c-0.5,0-0.5,0.1-0.7,0.2l0.8-0.1c0.7,0.3-1.1,0.1-1.1,0.4c1.6-0.1,3.4-0.4,4.6-0.3c0.3,0.3-2.8,0.1-1.2,0.4l-1.9-0.1
							c1.4,0.5-1.1,0,0.2,0.5c2.5,0.1,2.8-0.2,5.2-0.1c0.6-0.2-0.2-0.3,0.4-0.5c3.5-0.3,2.8,0.9,5.3,0.4c0.7-0.2,0.9-0.7,2.8-0.4
							l-0.6,0.4c2.4,0,1.4-0.6,3.9-0.3c-0.4,0.2-1.9,0.1-1.5,0.2c1.6,0.3,1.1-0.2,2.4-0.2l0.3,0.3c2.5-0.1,5.3-0.3,8.2-0.4
							c-0.2,0.1-0.6,0.2,0,0.3c3.6-0.2,7.6,0,11,0.2l1.3-0.3c0.3,0,0.6,0.1,0.2,0.2c1.3,0.1,0.1-0.2,0.7-0.3c0.8,0,1,0.2,0.5,0.3
							c2.4-0.2,6.7-0.5,9.2-0.2l-0.5,0.1c1.9,0.1,2.2-0.6,4-0.3l-0.3,0.1c4.2,0.1,8.8-0.1,12,0.3c0.6-0.4,4.2,0.2,4.4-0.4
							c2.4,0.3,1.7,0.4,5.1,0.6c0.9,0,1.3-0.4,2.5-0.4l0,0.3l1.5-0.3l0.8,0.4l1-0.1c-0.4,0-0.9-0.1-0.8-0.2c1.6-0.1,4,0.2,4,0.4
							l3.9-0.3c-0.1,0.1-0.7,0.2-1.2,0.2c2.1-0.3,0.4,0.3,2.3,0c-0.3-0.1,0.1-0.2,0.2-0.2c0.9,0.2,3.1,0.2,4.7,0.1l-0.3,0.2
							c2.9,0.1,6-0.1,9.3-0.1c-1.2-0.1-0.9-0.5,0.1-0.5l0.4,0.3c0.6-0.2-1-0.1,0.3-0.4c1.2,0,0.8,0.4,0.1,0.5l1.5-0.1
							c0.1,0.1-0.3,0.1-0.3,0.3c0.6-0.2,2.5,0.3,3.4,0l0.1,0.1c3.2,0,4.7-0.1,7.3-0.1c0.1-0.3,1.1-0.2,1.9-0.4
							c1.9,0.1,4.1,0.3,6.4,0.3c1.6-0.1,0.5-0.2,1.2-0.4c0.1,0.3,2.4,0.2,1.2,0.4c2.8,0,3.6-0.1,7.1-0.3c-0.4-0.1-0.8-0.2-0.6-0.2
							c0.6,0,1.5,0.1,1.4,0.2l-0.2,0c4-0.4,9.1,0.7,12.3,0.2l-0.2,0l3.3-0.3c1.5,0-0.9,0.2,0.2,0.4c3.5-0.4,5.6,0.1,8.5-0.2
							c2.2,0.8,8-0.1,11,0.4l-0.2-0.2c0.8-0.2,0.9,0.1,1.5,0.1c-0.1-0.1-0.8-0.2-0.4-0.3c6.6-0.2,13.7,0.3,20.5,0.4
							c2.5,0,1.4-0.9,4.5-0.5l-0.9,0.3c5-0.4,10.3,0,15.2-0.3c-0.3,0.1-0.3,0.2-0.8,0.2c1,0.2,3.8,0,3.9-0.2c0.8,0,0.2,0.2,0.6,0.3
							c1,0.1,2.6-0.3,3.2-0.1c0.1,0-0.3,0.1-0.5,0.1c0.7-0.1,3.2,0,2.5-0.2c1.8,0.1,3.5-0.1,5,0c1-0.3,3.2,0.1,3.5-0.3
							c-0.1,0.5,3.2,0.4,4.4,0.2c-0.4,0.1,1,0.1,0.6,0.3c1.3,0,2.5-0.1,2.3-0.3c2.5,0.5,4.9-0.4,6.3,0.3c4-0.2,7.6-0.4,11.2-0.5
							c-0.1,0.5-3.9,0-3.8,0.5c3.4-0.2,5.3-0.6,8.7-0.5c0.9,0.1-0.5,0.2-0.8,0.3c3.4-0.2,6.5,0,9.5-0.2c0,0-0.3,0.1-0.6,0.1
							c0.6,0,1.4,0.1,1.3-0.1l-0.6,0.1c-0.9-0.3,2.3-0.6,2.5-0.8c-1,0.6,3,0.1,1.4,0.9c0.4,0,0.9-0.1,0.8-0.3c0.6,0,0.8,0.1,0.2,0.3
							c2.1-0.1,1.4-0.3,3.3-0.3c0,0.1-0.4,0.1-0.6,0.3c1-0.2,1.9-0.4,3.6-0.3c-0.1,0.1,0.1,0.1-0.4,0.1c2.8,0,4.7-0.5,7.8-0.3
							c-0.9,0.4,1,0.1,1.2,0.5l1.6-0.1l-0.7-0.2c1.4,0,2.7-0.3,3.9-0.1l-1.1,0.2l2.7-0.1l-1.5-0.1c1.5-0.2-0.2-0.5,1.8-0.4
							c-0.4,0,1.4,0,2.2,0.2c0,0,0,0,0,0c0.7-0.1,1.4-0.2,2.5-0.2c0.3,0.1-0.2,0.4,0,0.5c0.7-0.3,3.4-0.1,4.3-0.4
							c-0.3,0.1-0.3,0.3-0.2,0.3l0.6-0.3c0.7,0.1,0.8,0.1,0.7,0.3c2,0-0.6-0.5,1.7-0.3c-0.2,0-0.1,0.1-0.5,0.1
							c2.4,0.1,4.6-0.2,6.8,0c0.6,0.4-1.9,0.1-1.2,0.4c3.2-0.1,6.6-0.5,9.6-0.4l-0.6,0c0.4-0.5,2.3,0.3,3.8,0
							c-0.4,0-0.5,0.3-0.4,0.2c2.1,0.1,4.3-0.1,7.5-0.3l-0.4,0.1c1.2,0.1,3.3,0.1,4.6,0.1c0.4-0.1,1.2-0.1,0.7-0.3
							c4.1,0.8,7.9-0.4,11.5,0.2c-0.4,0-1,0.1-0.7,0.1l3.1-0.1c-0.2-0.2-0.4-0.1-1.1-0.3c0.4-0.1,1.3-0.2,2-0.2
							c-1.4,0.2,0,0.4,0.6,0.5c-0.1-0.1,0.1-0.1,0.1-0.2c1.6,0.4,0.3-0.5,2.5-0.2l-0.1,0.1c0.8-0.1,1.6-0.2,2.5-0.2
							c0.4,0.3-0.9,0.1-0.9,0.3c1.3,0,2.5-0.5,3.6-0.2c-0.5,0.1-1.3,0.1-1.8,0.1c1.2,0.3,1.4,0.2,2.3,0.3l-0.1,0l2.1,0.1l-0.5-0.1
							c1.6-0.7,3.2-0.1,5.3-0.6c-2.1,0.4-0.3,0.2-0.5,0.6c0.5,0.1,1.4,0.2,1.1,0.3c1-0.2,1.7,0.2,3.1-0.2c0.1,0.1,1.1,0,0.8,0.3
							c1.3-0.1-0.3-0.2-0.2-0.3c2-0.3,4.7,0.4,7.6-0.1c2.5-0.2,3-0.5,5.3-0.7c0.8,0.2-0.6,0.4-0.6,0.4c1.3,0.1,2.2,0.1,3.4,0
							c-0.2,0.1,0,0.2,0.4,0.3c1,0,0.6-0.4,1.9-0.2c-0.2,0.1-0.5,0.3-1,0.4c1.1-0.1,2.2-0.3,3.4-0.4c0.3,0.2-0.7,0.3-1.1,0.4
							c1.3-0.1,3.4-0.2,3.8-0.4l-0.8-0.1c0.5,0,0.2,0.2-0.1,0.3c-1.1,0.2-1.6-0.1-1.7-0.2l0.8-0.1c-0.8-0.6-3.3,0.1-5,0.1l0.7-0.4
							l-1.7,0.3c-0.4-0.1-0.6-0.3,0.2-0.4c-1.2-0.2-1.1,0.1-2.1-0.1c-0.1,0-0.1-0.1,0-0.1l-1.2,0.1c0.2-0.1-0.2-0.3,0.5-0.2
							c-2.1-0.2-3.4,0.3-4.2,0l0.2,0c-2.9,0.1-0.3,0.3-2.5,0.7l-1.5-0.8l-0.3,0.3c-0.3,0-0.9,0-0.8-0.2c-1.1,0.2,0.2,0.1-0.5,0.3
							c-1.4-0.3-4,0.1-4.3-0.4c-0.5,0.2,1.4,0.2-0.2,0.3c-0.4-0.5-1.8,0.1-3.1-0.2c0.4-0.3,1.7-0.1,0.3-0.4c-0.8,0.5-2.6-0.1-3.7,0
							c-0.1,0.4-2.4,0.2-4.3,0.3c0.1-0.1-3.5-0.2-5.2-0.3l0.1-0.1c-0.3,0.4-2.1,0.3-3.4,0.4c0.1-0.2,0.3-0.3,1-0.4l-1.2,0
							c-0.3,0.1-0.7,0.2-1.5,0.2l0.3-0.3c-1.6,0-3.3,0.3-5.4,0.1c-0.1,0.3,1.7,0.7-0.5,0.9c-0.1-0.1-0.2-0.4,0.4-0.4
							c-0.2,0-0.7,0.1-1.1,0.1l0.9-0.2c-1-0.1-0.5,0.2-1.3,0.2c0-0.2-0.6-0.1-0.5-0.3c0.2,0,0.7,0.1,1,0c-0.9,0-1.9-0.2-2.2-0.3
							c0.1,0.1,0,0.3-0.6,0.3c-1.6,0-0.6-0.2-1.5-0.3c-0.4,0.1-1.4,0-1.5,0.3c-0.5,0-0.6-0.1-0.7-0.2c-0.8,0.1-3.9,0-3,0.4l0.2,0
							c0,0-0.1,0-0.1,0c0,0,0,0,0,0h0c-2.8,0.3-5.7-0.2-8.5,0l0-0.1c-1.6,0.1-3.6,0.1-4.8,0.3c-0.5,0-1.1-0.2-0.9-0.3
							c-1.3,0.1-1.4,0.2-3.2,0c1.3-0.2-0.4-0.2,1.3-0.1c-1.6-0.1-2-0.2-3.7,0c0.6-0.3-1.2-0.3-2-0.2l1.1,0.2c-0.9,0-1.6,0-2.4,0
							l0.4-0.3c-3.3-0.4-6,0.7-8.5,0c-0.9,0.2,1.8,0.2,1,0.4c-1.5,0-3.1-0.5-3.6-0.5c-2.1-0.2-2,0.5-4.2,0.4
							c0.3,0.1,0.5,0.4-1.1,0.5c-1.5,0-1.9-0.5-0.9-0.6c0.4,0,0.5,0,0.5,0.1c0.5,0,1.1-0.1,0.5-0.2l-0.2,0.1
							c-0.8-0.1-2.9-0.1-2.4-0.3c-1.2,0.1-0.5,0.2,0.4,0.3c-2-0.2-3.1,0-5.1-0.1c0.3,0.1,0.6,0.2,0.3,0.2c-3-0.1-1.3,0.2-3.3,0.3
							c-1.1-0.2,0.4-0.4-1.6-0.3c-1.2-0.1-0.3-0.3,0.2-0.4c-1.8,0.2-3.4-0.2-4.5-0.2l1-0.1c-0.6,0.1-1.1,0.1-1.5,0.1l0.6,0.2
							c-0.6,0-1.1,0-1-0.1c-0.6,0.2,0.4,0.4-0.7,0.6c-0.8-0.1-2.3,0.1-2.6-0.2c2.4,0.1-0.3-0.3,1.8-0.4c-0.4,0-0.9,0-1.4,0
							c-0.1,0,0.1-0.1,0.2-0.1c-2.3-0.3-1.1,0.4-3.4,0.3c0.3-0.2-0.5-0.3-0.9-0.3c1,0,0.5,0.3-0.4,0.4c-1.5-0.1-1.7,0.1-2.4,0.1
							l0.9,0.1c-0.3,0.2-1.1,0.2-2.1,0.2c-0.1-0.1,1-0.1,0.6-0.2c-1.2,0.3-2.7-0.3-4.3-0.1c-0.8-0.1-0.1-0.3-0.7-0.4
							c-1.8,0.2-2-0.2-3.9-0.1c0.6,0.2,0.7,0.2-0.7,0.4l3.2-0.2l-2,0.3c1,0,2-0.1,2.6-0.1c-1,0.2-0.9,0.1-0.4,0.3
							c-1.3-0.4-2.6,0.2-4.1,0l0-0.6c-2.3-0.3-4.1,0.3-7,0.2l1,0.1c-0.4,0.2-1.8,0-2.8,0.1c0.1-0.2-0.5-0.3-0.9-0.4
							c0,0.1-2.2,0-2.4,0.4l-1.3-0.3c-2.4-0.1-2.7,0.6-5,0.5c0.7-0.2-0.4-0.4,1.2-0.5c-0.8,0-1.5,0-1.5,0.1
							c-0.4-0.1-2.1,0.3-2.8,0.1c-0.3,0.1-0.4,0.3-1.3,0.3c-0.1,0,0-0.1,0-0.1c0,0.1-1.3,0.1-0.6,0.4c-2.4-0.6-6.6,0-8.7-0.5
							c-1.7,0.1-3.7,0.1-5.2,0.1c0.1-0.1,0-0.1,0.3-0.1c-2.1-0.2-1.3,0.6-3.7,0.4c-1.2-0.3,1.3-0.2,0.5-0.3
							c-0.3-0.6-2.9,0.1-4.5-0.3l0.4,0c-1.2-0.2-3,0.2-5,0.2c0,0,0.1-0.1,0-0.1c-1.4,0.3-4,0.4-5.9,0.5c0.6-0.3,0.9-0.1,0.5-0.4
							c-0.9,0,0.3,0.4-1.5,0.5c-0.6-0.1-1.8-0.3-2-0.5l1.6,0c-0.8-0.4-2.1,0-3-0.1l0.1-0.2c-2.5,0.1-2.5,0.4-5.2,0.4l0.3,0.1
							c-1.5,0.4-1.2-0.2-2.7,0.1l-0.4-0.4c-1,0.1-3.4,0.4-5.1,0.5c1-0.3,3-0.4,4.3-0.6c-1,0-3.3,0-3.8,0.2c0.4,0,0.9-0.1,1.3-0.1
							c-1.2,0.3-2.7,0.5-4.6,0.5c0.3-0.8-5-0.2-6.4-0.8c-3.4,0.3-6.7-0.1-10.6-0.1c1.4,0.6-1.1,0-0.9,0.6c-0.9,0-1.3,0-1.3,0
							l-2.8-0.4c-0.7-0.2,0.9-0.1,0.8-0.3c-2,0-0.8-0.3-2.2-0.4c0.3,0.2-0.7,0.3-1.8,0.2l1.6,0.3c-2.8,0.3-2.4-0.5-5.3-0.2l0.9-0.2
							c-1.5,0.1-5.4,0-6.8,0.5c-0.3-0.1-0.6-0.2,0-0.3c-3.5-0.1-7.7,0.5-10.4,0.2l0.3-0.1c-0.6,0-1.1,0.3-1.9,0.1
							c0-0.1,0.3-0.1,0-0.2c-0.3,0.1-1.7,0.3-2.6,0.2l0.7-0.2c-3.4-0.2-5.2,0.4-8,0.5c0-0.4-2.7-0.6-4-0.7l0-0.1
							c-3.9-0.1-6.7,0.4-10.3,0.5c-2.3-0.5-7.7-0.2-11.3-0.5c0.6,0.1-0.1,0.3-0.7,0.4c-0.9-0.1-2.4,0.3-2.2-0.1l0.3,0
							c-0.6-0.4-2.4-0.3-3.8-0.3l-0.2,0.5c-3.6-0.8-9.4,0.3-11.4-0.4c-0.9,0.1-1.9,0.1-2.8,0.3l0-0.3c-2.4-0.1-3.6-0.1-6.6,0
							l0.6-0.2c-1.7,0-2.1,0.8-3.7,0.8l-0.5-0.4c-2.9,0-5.9-0.4-8.7,0c0-0.1,0.1-0.2,0.6-0.2c-1.4,0-5.3-0.3-4.8,0.3
							c0-0.4-3,0-4.6,0.1l0.2-0.3c-1.3,0.4-1.4,0.5-3.2,0.6c-0.4,0-0.4-0.2,0.2-0.2c-1.5-0.1-1.1,0.3-2.9,0.1l0.7-0.2
							c-1.5,0-1.4,0.1-2.2,0.3c-0.9,0.1-2.9-0.1-3.1-0.3c-0.2,0.2-1,0.4-1.9,0.3c-0.1-0.1,0.2-0.2,0.4-0.2c-2.5-0.2-3.7,0.3-5.5,0.1
							c0-0.1-0.1-0.1-0.3-0.2c2,0,3.6,0,3.5,0c0-0.3-1.6-0.3-0.3-0.7c-1.3,0.2-3.5,0.6-5.1,0.5c-0.1,0-0.2,0-0.2-0.1l0.2,0
							c-0.4,0-0.7,0-1,0c-0.5,0-0.8-0.1-1.3-0.1c-0.2-0.2-1.9-0.1-2.7-0.1c0.1,0.3-1,0.2,0,0.5c-0.1,0,0.2,0,0.7,0
							c0.1,0,0.3,0,0.3,0c0,0,0,0-0.1,0c0.5,0,1.2,0,2,0c-0.6,0.1-1.3,0.3-2.2,0.1c-0.4,0.2-0.9,0.4-1.1,0.5
							c-1.1-0.4-3.2-0.6-3.5-0.8c-2.5,0.2-5.8,0.1-7.4,0.6c-0.7,0.1-0.8-0.2-1.1-0.2c0.4-0.1,0.9,0,1.1-0.1
							c-1.4,0.1-4.1,0.1-4.5,0.4c-1.8-0.2,1-0.3-1.4-0.3l0.3-0.1c-4.8-0.6-7.8,0.9-13,0.2c0.4,0,0.5,0.1,0.6,0.1
							c-6-0.3-12.4,0.3-18.4-0.2c-1.7-0.1-1.9,0.1-2.9,0.3l-0.4-0.3l-1.8,0.3c-2.5,0.3-4.3-0.7-7.5-0.3l0.4,0.2
							c-1.1,0-3.6,0.1-3.4-0.1c-0.1,0-0.4,0.2-0.8,0.1l0-0.2l-2.8,0.3c-2.2-0.1,0.3-0.6-2.8-0.7c-1.2,0.1-3.3,0.5-2.9,0.6
							c0.5,0,1.2,0.1,1.2,0.3l-1.1,0.1c-0.2,0.5-1,0.9,1.6,1.3l1.8-0.3l0.6,0.2l-1.5,0c0.9,0.2,1.4,0,2.1-0.1
							c0.1,0.1,0.4,0.2,0.8,0.2l1.8-0.4c0.2,0.2-0.8,0.4,0.4,0.5c0.8-0.2-0.8-0.4,0.6-0.5c0.9,0.2,0.6,0.4,1.7,0.2
							c0.1,0.1-0.1,0.2-0.5,0.2c0.9-0.1,2.4-0.1,2.9-0.3c0.9,0.3,3.1-0.1,3,0.4c0.3-0.1,1.6-0.3,2.5-0.4c-1.5,0.5,3.2,0,2.8,0.6
							c1.1-0.5,4.1-0.2,6.1-0.5c-0.1,0-0.3,0.1-0.5,0.1c1.1,0,1.5,0.2,2.2,0.3c0.1-0.4,1.9-0.5,2.9-0.7c1.4,0.4-0.8,0.5-0.4,0.8
							c-0.1-0.3,2.4-0.3,1.9-0.6c1.1,0.2,0.9,0.1,1.5,0.4c0.2-0.5,1-0.1,1.9-0.4c1.5,0.2,0.4,0.5,2.1,0.3
							C671.3,440.7,669.8,440.9,669.8,440.9z M710.1,440.1C710.1,440.1,710.1,440.1,710.1,440.1c-0.3,0-0.6,0-0.8,0
							C709.4,440.1,709.7,440.1,710.1,440.1z M713.5,440.1c-0.4,0-0.9,0-1.5,0c-0.1-0.1,0-0.2,0.4-0.2
							C712.2,439.9,713,440,713.5,440.1z M706.3,438.1c0.5,0,0.7,0,0.8,0.1c-0.3,0-0.5,0-0.9,0c0,0,0,0-0.1,0
							C706.2,438.2,706.2,438.2,706.3,438.1z"/>
						<path fill="#2B439B" d="M705.4,438.5c-0.1,0-0.1,0-0.2,0C705.2,438.5,705.4,438.6,705.4,438.5c0.2,0.1,0.2,0,0.3,0
							C705.6,438.5,705.4,438.5,705.4,438.5z"/>
						<path fill="#2B439B" d="M1012.7,438.9L1012.7,438.9C1012.7,438.9,1012.7,438.9,1012.7,438.9
							C1012.7,438.9,1012.7,438.9,1012.7,438.9z"/>
						<polygon fill="#2B439B" points="760.3,440.6 760.3,440.5 760,440.6 						"/>
						<path fill="#2B439B" d="M1031.4,439.9c0,0,0.1,0.1,0.2,0.1C1031.6,439.9,1031.5,439.9,1031.4,439.9z"/>
						<path fill="#2B439B" d="M1039.4,439.9l1.1,0.1C1040.1,440,1039.7,439.9,1039.4,439.9z"/>
						<path fill="#2B439B" d="M1045.6,440.1c0.1,0,0.1-0.1,0.1-0.1c0,0,0,0,0,0L1045.6,440.1z"/>
						<path fill="#2B439B" d="M947,440.4c-0.1,0-0.2,0-0.2,0C946.2,440.5,946.6,440.4,947,440.4z"/>
						<path fill="#2B439B" d="M976.4,439.7c-0.3,0.1-0.6,0.1-0.9,0.1C976,439.9,976.4,439.9,976.4,439.7z"/>
						<path fill="#2B439B" d="M914.3,440.7C914.3,440.7,914.3,440.7,914.3,440.7c-0.1,0-0.1,0-0.2,0L914.3,440.7z"/>
						<path fill="#2B439B" d="M974.1,439.9c0.5,0.1,1,0,1.4,0C975,439.9,974.5,439.8,974.1,439.9z"/>
						<path fill="#2B439B" d="M1072.5,440.2l0.3,0c0,0,0,0,0,0L1072.5,440.2z"/>
						<path fill="#2B439B" d="M1072.9,440.2l0.3,0C1073,440.1,1072.9,440.1,1072.9,440.2z"/>
						<path fill="#2B439B" d="M1073.9,440.1l-0.7,0.1C1073.4,440.1,1073.7,440.1,1073.9,440.1z"/>
						<path fill="#2B439B" d="M1064.3,440.1l-0.1,0.1C1064.3,440.1,1064.3,440.1,1064.3,440.1z"/>
						<path fill="#2B439B" d="M1061.8,440.1c0.6,0,1.5,0.2,2.3,0.2l0.1-0.1C1063.8,440.3,1062.4,439.9,1061.8,440.1z"/>
						<path fill="#2B439B" d="M1051.4,438.8l2.1,0.1c-0.4-0.1-0.8-0.3,0.1-0.3C1051,438.3,1054.1,438.9,1051.4,438.8z"/>
						<path fill="#2B439B" d="M1044.9,438.7c1.1-0.1,0-0.2,0-0.2C1044.2,438.6,1044.1,438.6,1044.9,438.7z"/>
						<path fill="#2B439B" d="M998.1,438.7l0.1-0.3C997.3,438.5,998.2,438.5,998.1,438.7z"/>
						<polygon fill="#2B439B" points="989.1,440 990,440.2 990.4,439.9 						"/>
						<polygon fill="#2B439B" points="983.8,438.2 984.2,438.1 982.8,438.2 						"/>
						<path fill="#2B439B" d="M905.1,438.3l0.3,0.3C906,438.5,906.1,438.2,905.1,438.3z"/>
						<path fill="#2B439B" d="M871.2,438.6c-0.4-0.2-1.3-0.3-1.9-0.1C870,438.5,870.8,438.6,871.2,438.6z"/>
						<polygon fill="#2B439B" points="769.3,438.1 770,438 768.7,438.1 						"/>
					</g>
				</g>
			</g>
		</g>
	</g>
	<g>
		<g>
			<g>
				<g>
					<g>
						<path fill="#2B439B" d="M1080.1,9.3c0.2-0.1,0.1-0.3-0.5-0.2l-0.5,0.3L1080.1,9.3z"/>
						<path fill="#2B439B" d="M1075.7,8.7c-0.8,0.2-1.6,0.4-1.2,0.7c0.8-0.3,0.9-0.2,1.8-0.6c0.7,0,1.1,0.1,1,0.2
							c0.2-0.1,1,0.1,1.4-0.1c-0.8-0.3-1.9-0.3-3-0.1C1075.5,8.9,1075.7,8.8,1075.7,8.7z"/>
						<path fill="#2B439B" d="M1012.2,8.2l0.4,0C1012.5,8.2,1012.4,8.2,1012.2,8.2z"/>
						<path fill="#2B439B" d="M972.9,8c0.3,0,0.4,0,0.4-0.1C973,8,972.8,8,972.9,8z"/>
						<path fill="#2B439B" d="M966.1,7.7c0.1,0,0.3,0,0.4,0C966.4,7.7,966.2,7.6,966.1,7.7z"/>
						<path fill="#2B439B" d="M1012.2,8.2l-1.1-0.1C1011.1,8.2,1011.7,8.2,1012.2,8.2z"/>
						<path fill="#2B439B" d="M1067,9.5c0.2,0,0.4,0,0.6-0.1C1067.4,9.5,1067.2,9.5,1067,9.5C1067,9.5,1067,9.5,1067,9.5z"/>
						<path fill="#2B439B" d="M1029.6,7.9l0.3,0c0.1,0,0.2-0.1,0.3-0.1L1029.6,7.9z"/>
						<path fill="#2B439B" d="M1042.9,7.9c-0.3,0-0.4,0.3-0.5,0.4c0.2-0.1,0.4-0.2,0.7-0.2C1043,8,1043,8,1042.9,7.9z"/>
						<path fill="#2B439B" d="M1064,8.4l0.4,0C1064.3,8.4,1064.1,8.4,1064,8.4z"/>
						<path fill="#2B439B" d="M1020,7.9c0,0-0.1-0.1-0.1-0.1C1019.9,7.8,1020,7.9,1020,7.9z"/>
						<path fill="#2B439B" d="M647.6,10C647.6,10,647.6,10,647.6,10C647.5,10,647.5,10,647.6,10z"/>
						<path fill="#2B439B" d="M632.1,8.6l0.2,0c0-0.1,0-0.1,0-0.2L632.1,8.6z"/>
						<path fill="#2B439B" d="M953.8,7.3C953.9,7.3,953.9,7.3,953.8,7.3C954.2,7.3,954,7.3,953.8,7.3z"/>
						<path fill="#2B439B" d="M840.9,7.5c1.3,0.3-2.1,0.3-0.2,0.6C840.6,8,842.5,7.7,840.9,7.5z"/>
						<path fill="#2B439B" d="M1066.6,9.5c-0.2,0-0.4,0-0.5,0C1066.3,9.5,1066.5,9.5,1066.6,9.5z"/>
						<path fill="#2B439B" d="M840.8,8.1C840.8,8.1,840.8,8.1,840.8,8.1l0.2,0C840.9,8.1,840.8,8.1,840.8,8.1z"/>
						<path fill="#2B439B" d="M925.5,7.5c0.1,0,0.2,0.1,0.3,0.1C925.8,7.6,925.7,7.5,925.5,7.5z"/>
						<path fill="#2B439B" d="M946.6,7.9l-0.5,0C946.3,7.9,946.5,7.9,946.6,7.9z"/>
						<path fill="#2B439B" d="M914.5,7.9c-0.3,0-0.4-0.1-0.8,0c0,0,0.1,0,0.1,0C914,7.8,914.2,7.8,914.5,7.9z"/>
						<path fill="#2B439B" d="M903.1,7.9c0.1,0,0.1,0,0.2,0.1c0.1,0,0.2,0,0.4,0L903.1,7.9z"/>
						<path fill="#2B439B" d="M682.2,9.9c-0.2-0.1-0.4-0.2-0.5-0.3C681.9,9.8,680.2,9.9,682.2,9.9z"/>
						<path fill="#2B439B" d="M1067,9.4c-0.1,0.1-0.2,0.1-0.3,0.1c0.1,0,0.3,0,0.4,0C1067.1,9.4,1067.1,9.4,1067,9.4z"/>
						<path fill="#2B439B" d="M914.1,10.1l-1.8,0C912.8,10.1,913.4,10.1,914.1,10.1z"/>
						<path fill="#2B439B" d="M764.1,9.8l-0.4,0C763.8,9.9,764,9.9,764.1,9.8z"/>
						<path fill="#2B439B" d="M906.9,10.1c-0.3-0.1-0.7-0.2-1-0.2c-0.1,0-0.2,0-0.2,0.1L906.9,10.1z"/>
						<path fill="#2B439B" d="M681.7,9.6C681.7,9.6,681.7,9.6,681.7,9.6C681.7,9.6,681.7,9.6,681.7,9.6z"/>
						<path fill="#2B439B" d="M669.8,10.3c1.7,0,0.8-0.4,1.2-0.6c2.1-0.1,1,0.3,1.7,0.5c1.3-0.1,2.3-0.4,3.2-0.4
							c0.1,0.1,0.3,0.1,0,0.2c1.4-0.3,4,0,5.6-0.4c0.1,0,0.2,0.1,0.2,0.1c-0.3-0.2-0.3-0.4-0.2-0.5c0.8,0,1.4-0.2,1.7,0
							c-0.5,0-0.5,0.1-0.7,0.2l0.8-0.1c0.7,0.3-1.1,0.1-1.1,0.4c1.6-0.1,3.4-0.4,4.6-0.3c0.3,0.3-2.8,0.1-1.2,0.4l-1.9-0.1
							c1.4,0.5-1.1,0,0.2,0.5c2.5,0.1,2.8-0.2,5.2-0.1c0.6-0.2-0.2-0.3,0.4-0.5c3.5-0.3,2.8,0.9,5.3,0.4c0.7-0.2,0.9-0.7,2.8-0.4
							l-0.6,0.4c2.4,0,1.4-0.6,3.9-0.3c-0.4,0.2-1.9,0.1-1.5,0.2c1.6,0.3,1.1-0.2,2.4-0.2l0.3,0.3c2.5-0.1,5.3-0.3,8.2-0.4
							c-0.2,0.1-0.6,0.2,0,0.3c3.6-0.2,7.6,0,11,0.2l1.3-0.3c0.3,0,0.6,0.1,0.2,0.2c1.3,0.1,0.1-0.2,0.7-0.3c0.8,0,1,0.2,0.5,0.3
							c2.4-0.2,6.7-0.5,9.2-0.2l-0.5,0.1c1.9,0.1,2.2-0.6,4-0.3l-0.3,0.1c4.2,0.1,8.8-0.1,12,0.3c0.6-0.4,4.2,0.2,4.4-0.4
							c2.4,0.3,1.7,0.4,5.1,0.6c0.9,0,1.3-0.4,2.5-0.4l0,0.3l1.5-0.3l0.8,0.4l1-0.1c-0.4,0-0.9-0.1-0.8-0.2c1.6-0.1,4,0.2,4,0.4
							l3.9-0.3c-0.1,0.1-0.7,0.2-1.2,0.2c2.1-0.3,0.4,0.3,2.3,0c-0.3-0.1,0.1-0.2,0.2-0.2c0.9,0.2,3.1,0.2,4.7,0.1l-0.3,0.2
							c2.9,0.1,6-0.1,9.3-0.1c-1.2-0.1-0.9-0.5,0.1-0.5l0.4,0.3c0.6-0.2-1-0.1,0.3-0.4c1.2,0,0.8,0.4,0.1,0.5l1.5-0.1
							c0.1,0.1-0.3,0.1-0.3,0.3c0.6-0.2,2.5,0.3,3.4,0l0.1,0.1c3.2,0,4.7-0.1,7.3-0.1c0.1-0.3,1.1-0.2,1.9-0.4
							c1.9,0.1,4.1,0.3,6.4,0.3c1.6-0.1,0.5-0.2,1.2-0.4c0.1,0.3,2.4,0.2,1.2,0.4c2.8,0,3.6-0.1,7.1-0.3c-0.4-0.1-0.8-0.2-0.6-0.2
							c0.6,0,1.5,0.1,1.4,0.2l-0.2,0c4-0.4,9.1,0.7,12.3,0.2l-0.2,0l3.3-0.3c1.5,0-0.9,0.2,0.2,0.4c3.5-0.4,5.6,0.1,8.5-0.2
							c2.2,0.8,8-0.1,11,0.4l-0.2-0.2c0.8-0.2,0.9,0.1,1.5,0.1c-0.1-0.1-0.8-0.2-0.4-0.3c6.6-0.2,13.7,0.3,20.5,0.4
							c2.5,0,1.4-0.9,4.5-0.5l-0.9,0.3c5-0.4,10.3,0,15.2-0.3c-0.3,0.1-0.3,0.2-0.8,0.2c1,0.2,3.8,0,3.9-0.2c0.8,0,0.2,0.2,0.6,0.3
							c1,0.1,2.6-0.3,3.2-0.1c0.1,0-0.3,0.1-0.5,0.1c0.7-0.1,3.2,0,2.5-0.2c1.8,0.1,3.5-0.1,5,0c1-0.3,3.2,0.1,3.5-0.3
							c-0.1,0.5,3.2,0.4,4.4,0.2c-0.4,0.1,1,0.1,0.6,0.3c1.3,0,2.5-0.1,2.3-0.3c2.5,0.5,4.9-0.4,6.3,0.3c4-0.2,7.6-0.4,11.2-0.5
							c-0.1,0.5-3.9,0-3.8,0.5c3.4-0.2,5.3-0.6,8.7-0.5c0.9,0.1-0.5,0.2-0.8,0.3c3.4-0.2,6.5,0,9.5-0.2c0,0-0.3,0.1-0.6,0.1
							c0.6,0,1.4,0.1,1.3-0.1l-0.6,0.1c-0.9-0.3,2.3-0.6,2.5-0.8c-1,0.6,3,0.1,1.4,0.9c0.4,0,0.9-0.1,0.8-0.3c0.6,0,0.8,0.1,0.2,0.3
							c2.1-0.1,1.4-0.3,3.3-0.3c0,0.1-0.4,0.1-0.6,0.3c1-0.2,1.9-0.4,3.6-0.3c-0.1,0.1,0.1,0.1-0.4,0.1c2.8,0,4.7-0.5,7.8-0.3
							c-0.9,0.4,1,0.1,1.2,0.5l1.6-0.1l-0.7-0.2c1.4,0,2.7-0.3,3.9-0.1l-1.1,0.2l2.7-0.1l-1.5-0.1c1.5-0.2-0.2-0.5,1.8-0.4
							c-0.4,0,1.4,0,2.2,0.2c0,0,0,0,0,0c0.7-0.1,1.4-0.2,2.5-0.2c0.3,0.1-0.2,0.4,0,0.5c0.7-0.3,3.4-0.1,4.3-0.4
							c-0.3,0.1-0.3,0.3-0.2,0.3l0.6-0.3c0.7,0.1,0.8,0.1,0.7,0.3c2,0-0.6-0.5,1.7-0.3c-0.2,0-0.1,0.1-0.5,0.1
							c2.4,0.1,4.6-0.2,6.8,0c0.6,0.4-1.9,0.1-1.2,0.4c3.2-0.1,6.6-0.5,9.6-0.4l-0.6,0c0.4-0.5,2.3,0.3,3.8,0
							c-0.4,0-0.5,0.3-0.4,0.2c2.1,0.1,4.3-0.1,7.5-0.3l-0.4,0.1c1.2,0.1,3.3,0.1,4.6,0.1c0.4-0.1,1.2-0.1,0.7-0.3
							c4.1,0.8,7.9-0.4,11.5,0.2c-0.4,0-1,0.1-0.7,0.1l3.1-0.1c-0.2-0.2-0.4-0.1-1.1-0.3c0.4-0.1,1.3-0.2,2-0.2
							c-1.4,0.2,0,0.4,0.6,0.5c-0.1-0.1,0.1-0.1,0.1-0.2c1.6,0.4,0.3-0.5,2.5-0.2l-0.1,0.1c0.8-0.1,1.6-0.2,2.5-0.2
							c0.4,0.3-0.9,0.1-0.9,0.3c1.3,0,2.5-0.5,3.6-0.2c-0.5,0.1-1.3,0.1-1.8,0.1c1.2,0.3,1.4,0.2,2.3,0.3l-0.1,0l2.1,0.1l-0.5-0.1
							c1.6-0.7,3.2-0.1,5.3-0.6c-2.1,0.4-0.3,0.2-0.5,0.6c0.5,0.1,1.4,0.2,1.1,0.3c1-0.2,1.7,0.2,3.1-0.2c0.1,0.1,1.1,0,0.8,0.3
							c1.3-0.1-0.3-0.2-0.2-0.3c2-0.3,4.7,0.4,7.6-0.1c2.5-0.2,3-0.5,5.3-0.7c0.8,0.2-0.6,0.4-0.6,0.4c1.3,0.1,2.2,0.1,3.4,0
							c-0.2,0.1,0,0.2,0.4,0.3c1,0,0.6-0.4,1.9-0.2c-0.2,0.1-0.5,0.3-1,0.4c1.1-0.1,2.2-0.3,3.4-0.4c0.3,0.2-0.7,0.3-1.1,0.4
							c1.3-0.1,3.4-0.2,3.8-0.4l-0.8-0.1c0.5,0,0.2,0.2-0.1,0.3c-1.1,0.2-1.6-0.1-1.7-0.2l0.8-0.1c-0.8-0.6-3.3,0.1-5,0.1l0.7-0.4
							l-1.7,0.3c-0.4-0.1-0.6-0.3,0.2-0.4c-1.2-0.2-1.1,0.1-2.1-0.1c-0.1,0-0.1-0.1,0-0.1l-1.2,0.1c0.2-0.1-0.2-0.3,0.5-0.2
							c-2.1-0.2-3.4,0.3-4.2,0l0.2,0c-2.9,0.1-0.3,0.3-2.5,0.7l-1.5-0.8l-0.3,0.3c-0.3,0-0.9,0-0.8-0.2c-1.1,0.2,0.2,0.1-0.5,0.3
							c-1.4-0.3-4,0.1-4.3-0.4c-0.5,0.2,1.4,0.2-0.2,0.3c-0.4-0.5-1.8,0.1-3.1-0.2c0.4-0.3,1.7-0.1,0.3-0.4c-0.8,0.5-2.6-0.1-3.7,0
							c-0.1,0.4-2.4,0.2-4.3,0.3c0.1-0.1-3.5-0.2-5.2-0.3l0.1-0.1c-0.3,0.4-2.1,0.3-3.4,0.4c0.1-0.2,0.3-0.3,1-0.4l-1.2,0
							c-0.3,0.1-0.7,0.2-1.5,0.2l0.3-0.3c-1.6,0-3.3,0.3-5.4,0.1c-0.1,0.3,1.7,0.7-0.5,0.9c-0.1-0.1-0.2-0.4,0.4-0.4
							c-0.2,0-0.7,0.1-1.1,0.1l0.9-0.2c-1-0.1-0.5,0.2-1.3,0.2c0-0.2-0.6-0.1-0.5-0.3c0.2,0,0.7,0.1,1,0c-0.9,0-1.9-0.2-2.2-0.3
							c0.1,0.1,0,0.3-0.6,0.3c-1.6,0-0.6-0.2-1.5-0.3c-0.4,0.1-1.4,0-1.5,0.3c-0.5,0-0.6-0.1-0.7-0.2c-0.8,0.1-3.9,0-3,0.4l0.2,0
							c0,0-0.1,0-0.1,0c0,0,0,0,0,0h0c-2.8,0.3-5.7-0.2-8.5,0l0-0.1c-1.6,0.1-3.6,0.1-4.8,0.3c-0.5,0-1.1-0.2-0.9-0.3
							c-1.3,0.1-1.4,0.2-3.2,0c1.3-0.2-0.4-0.2,1.3-0.1c-1.6-0.1-2-0.2-3.7,0c0.6-0.3-1.2-0.3-2-0.2L992,8c-0.9,0-1.6,0-2.4,0
							l0.4-0.3c-3.3-0.4-6,0.7-8.5,0c-0.9,0.2,1.8,0.2,1,0.4c-1.5,0-3.1-0.5-3.6-0.5c-2.1-0.2-2,0.5-4.2,0.4
							c0.3,0.1,0.5,0.4-1.1,0.5c-1.5,0-1.9-0.5-0.9-0.6c0.4,0,0.5,0,0.5,0.1c0.5,0,1.1-0.1,0.5-0.2l-0.2,0.1
							c-0.8-0.1-2.9-0.1-2.4-0.3c-1.2,0.1-0.5,0.2,0.4,0.3c-2-0.2-3.1,0-5.1-0.1c0.3,0.1,0.6,0.2,0.3,0.2c-3-0.1-1.3,0.2-3.3,0.3
							c-1.1-0.2,0.4-0.4-1.6-0.3c-1.2-0.1-0.3-0.3,0.2-0.4c-1.8,0.2-3.4-0.2-4.5-0.2l1-0.1c-0.6,0.1-1.1,0.1-1.5,0.1l0.6,0.2
							c-0.6,0-1.1,0-1-0.1C956,7.5,957,7.7,955.9,8c-0.8-0.1-2.3,0.1-2.6-0.2c2.4,0.1-0.3-0.3,1.8-0.4c-0.4,0-0.9,0-1.4,0
							c-0.1,0,0.1-0.1,0.2-0.1c-2.3-0.3-1.1,0.4-3.4,0.3c0.3-0.2-0.5-0.3-0.9-0.3c1,0,0.5,0.3-0.4,0.4c-1.5-0.1-1.7,0.1-2.4,0.1
							l0.9,0.1c-0.3,0.2-1.1,0.2-2.1,0.2c-0.1-0.1,1-0.1,0.6-0.2c-1.2,0.3-2.7-0.3-4.3-0.1c-0.8-0.1-0.1-0.3-0.7-0.4
							c-1.8,0.2-2-0.2-3.9-0.1c0.6,0.2,0.7,0.2-0.7,0.4l3.2-0.2l-2,0.3c1,0,2-0.1,2.6-0.1c-1,0.2-0.9,0.1-0.4,0.3
							c-1.3-0.4-2.6,0.2-4.1,0l0-0.6c-2.3-0.3-4.1,0.3-7,0.2l1,0.1c-0.4,0.2-1.8,0-2.8,0.1c0.1-0.2-0.5-0.3-0.9-0.4
							c0,0.1-2.2,0-2.4,0.4L922,7.7c-2.4-0.1-2.7,0.6-5,0.5c0.7-0.2-0.4-0.4,1.2-0.5c-0.8,0-1.5,0-1.5,0.1c-0.4-0.1-2.1,0.3-2.8,0.1
							c-0.3,0.1-0.4,0.3-1.3,0.3c-0.1,0,0-0.1,0-0.1c0,0.1-1.3,0.1-0.6,0.4c-2.4-0.6-6.6,0-8.7-0.5c-1.7,0.1-3.7,0.1-5.2,0.1
							c0.1-0.1,0-0.1,0.3-0.1c-2.1-0.2-1.3,0.6-3.7,0.4c-1.2-0.3,1.3-0.2,0.5-0.3c-0.3-0.6-2.9,0.1-4.5-0.3l0.4,0
							c-1.2-0.2-3,0.2-5,0.2c0,0,0.1-0.1,0-0.1c-1.4,0.3-4,0.4-5.9,0.5c0.6-0.3,0.9-0.1,0.5-0.4c-0.9,0,0.3,0.4-1.5,0.5
							c-0.6-0.1-1.8-0.3-2-0.5l1.6,0c-0.8-0.4-2.1,0-3-0.1l0.1-0.2c-2.5,0.1-2.5,0.4-5.2,0.4l0.3,0.1c-1.5,0.4-1.2-0.2-2.7,0.1
							L868,7.9c-1,0.1-3.4,0.4-5.1,0.5c1-0.3,3-0.4,4.3-0.6c-1,0-3.3,0-3.8,0.2c0.4,0,0.9-0.1,1.3-0.1c-1.2,0.3-2.7,0.5-4.6,0.5
							c0.3-0.8-5-0.2-6.4-0.8c-3.4,0.3-6.7-0.1-10.6-0.1c1.4,0.6-1.1,0-0.9,0.6c-0.9,0-1.3,0-1.3,0L838,7.8
							c-0.7-0.2,0.9-0.1,0.8-0.3c-2,0-0.8-0.3-2.2-0.4c0.3,0.2-0.7,0.3-1.8,0.2l1.6,0.3c-2.8,0.3-2.4-0.5-5.3-0.2l0.9-0.2
							c-1.5,0.1-5.4,0-6.8,0.5c-0.3-0.1-0.6-0.2,0-0.3c-3.5-0.1-7.7,0.5-10.4,0.2l0.3-0.1c-0.6,0-1.1,0.3-1.9,0.1
							c0-0.1,0.3-0.1,0-0.2c-0.3,0.1-1.7,0.3-2.6,0.2l0.7-0.2c-3.4-0.2-5.2,0.4-8,0.5c0-0.4-2.7-0.6-4-0.7l0-0.1
							c-3.9-0.1-6.7,0.4-10.3,0.5c-2.3-0.5-7.7-0.2-11.3-0.5c0.6,0.1-0.1,0.3-0.7,0.4c-0.9-0.1-2.4,0.3-2.2-0.1l0.3,0
							c-0.6-0.4-2.4-0.3-3.8-0.3L771,7.8c-3.6-0.8-9.4,0.3-11.4-0.4c-0.9,0.1-1.9,0.1-2.8,0.3l0-0.3c-2.4-0.1-3.6-0.1-6.6,0l0.6-0.2
							c-1.7,0-2.1,0.8-3.7,0.8l-0.5-0.4c-2.9,0-5.9-0.4-8.7,0c0-0.1,0.1-0.2,0.6-0.2c-1.4,0-5.3-0.3-4.8,0.3c0-0.4-3,0-4.6,0.1
							l0.2-0.3c-1.3,0.4-1.4,0.5-3.2,0.6c-0.4,0-0.4-0.2,0.2-0.2c-1.5-0.1-1.1,0.3-2.9,0.1l0.7-0.2c-1.5,0-1.4,0.1-2.2,0.3
							c-0.9,0.1-2.9-0.1-3.1-0.3c-0.2,0.2-1,0.4-1.9,0.3c-0.1-0.1,0.2-0.2,0.4-0.2c-2.5-0.2-3.7,0.3-5.5,0.1c0-0.1-0.1-0.1-0.3-0.2
							c2,0,3.6,0,3.5,0c0-0.3-1.6-0.3-0.3-0.7c-1.3,0.2-3.5,0.6-5.1,0.5c-0.1,0-0.2,0-0.2-0.1l0.2,0c-0.4,0-0.7,0-1,0
							c-0.5,0-0.8-0.1-1.3-0.1c-0.2-0.2-1.9-0.1-2.7-0.1c0.1,0.3-1,0.2,0,0.5c-0.1,0,0.2,0,0.7,0c0.1,0,0.3,0,0.3,0c0,0,0,0-0.1,0
							c0.5,0,1.2,0,2,0c-0.6,0.1-1.3,0.3-2.2,0.1c-0.4,0.2-0.9,0.4-1.1,0.5c-1.1-0.4-3.2-0.6-3.5-0.8c-2.5,0.2-5.8,0.1-7.4,0.6
							c-0.7,0.1-0.8-0.2-1.1-0.2c0.4-0.1,0.9,0,1.1-0.1c-1.4,0.1-4.1,0.1-4.5,0.4c-1.8-0.2,1-0.3-1.4-0.3l0.3-0.1
							c-4.8-0.6-7.8,0.9-13,0.2c0.4,0,0.5,0.1,0.6,0.1c-6-0.3-12.4,0.3-18.4-0.2c-1.7-0.1-1.9,0.1-2.9,0.3l-0.4-0.3l-1.8,0.3
							c-2.5,0.3-4.3-0.7-7.5-0.3l0.4,0.2c-1.1,0-3.6,0.1-3.4-0.1c-0.1,0-0.4,0.2-0.8,0.1l0-0.2l-2.8,0.3c-2.2-0.1,0.3-0.6-2.8-0.7
							c-1.2,0.1-3.3,0.5-2.9,0.6c0.5,0,1.2,0.1,1.2,0.3l-1.1,0.1c-0.2,0.5-1,0.9,1.6,1.3l1.8-0.3l0.6,0.2l-1.5,0
							c0.9,0.2,1.4,0,2.1-0.1c0.1,0.1,0.4,0.2,0.8,0.2l1.8-0.4c0.2,0.2-0.8,0.4,0.4,0.5c0.8-0.2-0.8-0.4,0.6-0.5
							c0.9,0.2,0.6,0.4,1.7,0.2c0.1,0.1-0.1,0.2-0.5,0.2c0.9-0.1,2.4-0.1,2.9-0.3c0.9,0.3,3.1-0.1,3,0.4c0.3-0.1,1.6-0.3,2.5-0.4
							c-1.5,0.5,3.2,0,2.8,0.6c1.1-0.5,4.1-0.2,6.1-0.5c-0.1,0-0.3,0.1-0.5,0.1c1.1,0,1.5,0.2,2.2,0.3c0.1-0.4,1.9-0.5,2.9-0.7
							c1.4,0.4-0.8,0.5-0.4,0.8c-0.1-0.3,2.4-0.3,1.9-0.6c1.1,0.2,0.9,0.1,1.5,0.4c0.2-0.5,1-0.1,1.9-0.4c1.5,0.2,0.4,0.5,2.1,0.3
							C671.3,10.1,669.8,10.3,669.8,10.3z M710.1,9.4C710.1,9.4,710.1,9.4,710.1,9.4c-0.3,0-0.6,0-0.8,0
							C709.4,9.4,709.7,9.4,710.1,9.4z M713.5,9.4c-0.4,0-0.9,0-1.5,0c-0.1-0.1,0-0.2,0.4-0.2C712.2,9.3,713,9.3,713.5,9.4z
							 M706.3,7.5c0.5,0,0.7,0,0.8,0.1c-0.3,0-0.5,0-0.9,0c0,0,0,0-0.1,0C706.2,7.6,706.2,7.5,706.3,7.5z"/>
						<path fill="#2B439B" d="M705.4,7.8c-0.1,0-0.1,0-0.2,0C705.2,7.9,705.4,7.9,705.4,7.8c0.2,0.1,0.2,0,0.3,0
							C705.6,7.8,705.4,7.8,705.4,7.8z"/>
						<path fill="#2B439B" d="M1012.7,8.3L1012.7,8.3C1012.7,8.3,1012.7,8.3,1012.7,8.3C1012.7,8.3,1012.7,8.3,1012.7,8.3z"/>
						<polygon fill="#2B439B" points="760.3,10 760.3,9.9 760,10 						"/>
						<path fill="#2B439B" d="M1031.4,9.2c0,0,0.1,0.1,0.2,0.1C1031.6,9.3,1031.5,9.3,1031.4,9.2z"/>
						<path fill="#2B439B" d="M1039.4,9.3l1.1,0.1C1040.1,9.3,1039.7,9.3,1039.4,9.3z"/>
						<path fill="#2B439B" d="M1045.6,9.4c0.1,0,0.1-0.1,0.1-0.1c0,0,0,0,0,0L1045.6,9.4z"/>
						<path fill="#2B439B" d="M947,9.8c-0.1,0-0.2,0-0.2,0C946.2,9.8,946.6,9.8,947,9.8z"/>
						<path fill="#2B439B" d="M976.4,9.1c-0.3,0.1-0.6,0.1-0.9,0.1C976,9.3,976.4,9.3,976.4,9.1z"/>
						<path fill="#2B439B" d="M914.3,10.1C914.3,10.1,914.3,10.1,914.3,10.1c-0.1,0-0.1,0-0.2,0L914.3,10.1z"/>
						<path fill="#2B439B" d="M974.1,9.2c0.5,0.1,1,0,1.4,0C975,9.2,974.5,9.2,974.1,9.2z"/>
						<path fill="#2B439B" d="M1072.5,9.6l0.3,0c0,0,0,0,0,0L1072.5,9.6z"/>
						<path fill="#2B439B" d="M1072.9,9.5l0.3,0C1073,9.5,1072.9,9.5,1072.9,9.5z"/>
						<path fill="#2B439B" d="M1073.9,9.4l-0.7,0.1C1073.4,9.5,1073.7,9.5,1073.9,9.4z"/>
						<path fill="#2B439B" d="M1064.3,9.4l-0.1,0.1C1064.3,9.5,1064.3,9.5,1064.3,9.4z"/>
						<path fill="#2B439B" d="M1061.8,9.5c0.6,0,1.5,0.2,2.3,0.2l0.1-0.1C1063.8,9.7,1062.4,9.3,1061.8,9.5z"/>
						<path fill="#2B439B" d="M1051.4,8.2l2.1,0.1c-0.4-0.1-0.8-0.3,0.1-0.3C1051,7.7,1054.1,8.2,1051.4,8.2z"/>
						<path fill="#2B439B" d="M1044.9,8c1.1-0.1,0-0.2,0-0.2C1044.2,7.9,1044.1,7.9,1044.9,8z"/>
						<path fill="#2B439B" d="M998.1,8l0.1-0.3C997.3,7.8,998.2,7.9,998.1,8z"/>
						<polygon fill="#2B439B" points="989.1,9.4 990,9.5 990.4,9.3 						"/>
						<polygon fill="#2B439B" points="983.8,7.5 984.2,7.5 982.8,7.6 						"/>
						<path fill="#2B439B" d="M905.1,7.6l0.3,0.3C906,7.9,906.1,7.5,905.1,7.6z"/>
						<path fill="#2B439B" d="M871.2,7.9c-0.4-0.2-1.3-0.3-1.9-0.1C870,7.9,870.8,8,871.2,7.9z"/>
						<polygon fill="#2B439B" points="769.3,7.4 770,7.3 768.7,7.4 						"/>
					</g>
				</g>
			</g>
		</g>
	</g>
	<g>
		<g>
			<path fill="#262626" d="M924.3,348.8 M1012.8,349.8"/>
		</g>
		<path fill="#0C9D58" d="M941.9,171.1v-32.6c0-24.8-7.4-44.4-22.2-58.7c-14.8-14.3-36.7-21.5-65.6-21.5c-13.3,0-25.5,1.7-36.5,5.2
			c-11,3.5-20.4,8.1-28.2,14c-7.8,5.9-13.9,12.7-18.2,20.5c-4.3,7.8-6.5,16-6.5,24.7h-71.4c0-14.8,3.9-29.5,11.7-44.1
			c7.8-14.6,18.9-27.7,33.2-39.3c14.3-11.6,31.6-21.1,52-28.4C810.5,3.6,833.2,0,858.2,0c22.5,0,43.3,2.9,62.3,8.6
			c19.1,5.8,35.4,14.5,48.9,26.1c13.6,11.6,24.2,26.2,31.8,43.5c7.7,17.4,11.5,37.7,11.5,61v6L941.9,171.1z"/>
		<g>
			<path fill="#547DBF" d="M941.9,272.6v-33.7h-59.5c-40.4,0-71.6,6.3-93.6,19c-22,12.7-33,31.8-33,57.4c0,8.4,1.2,16.3,3.5,23.8
				l-68.2,24.8c-4.7-12.9-6.3-24.2-6.3-38.6c0-22.3,4.3-41.9,13-58.9c8.7-17,21.2-31.3,37.4-42.8c16.2-11.5,35.8-20.2,58.7-26.1
				c22.9-5.9,48.5-8.8,76.9-8.8h71l71-25.8v25.8v58.1L941.9,272.6z"/>
		</g>
		<g>
			<path fill="#DB4436" d="M927.6,409.3c-8.3,6.3-24.4,18.8-34.3,23.5c-9.8,4.7-20.5,8.4-32,11.1c-11.5,2.7-23.7,4-36.5,4
				c-21.2,0-40.5-3.2-57.7-9.6c-17.3-6.4-32-15.1-44.1-26.1c-10.6-9.6-19.1-20.7-25.5-33.3l68.7-25c2.7,4.3,6,8.1,9.7,11.6
				c6.8,6.3,15.1,11.3,24.9,15c9.8,3.7,21.3,5.6,34.3,5.6c12.8,0,24.8-1.8,36.1-5.4c11.3-3.6,21.5-8.3,30.7-14
				c8.5-5.3,15.9-11.3,22.4-18L927.6,409.3z"/>
		</g>
		<g>
			<path fill="#F3B41B" d="M941.9,324.1v-34l71-25.8v85.5c0,14.1,1.2,28.8,3.6,44.3c2.4,15.5,6.1,28.8,10.9,40.1v6.1H953
				c-2.6-5.1-4.6-11.6-6.1-19.4c-1.5-7.8-2.8-15.9-3.8-24.4L941.9,324.1z"/>
		</g>
		<g>
			<defs>
				<path id="SVGID_1_" d="M941.9,324.1v-34l71-25.8v85.5c0,14.1,1.2,28.8,3.6,44.3c2.4,15.5,6.1,28.8,10.9,40.1v6.1H953
					c-2.6-5.1-4.6-11.6-6.1-19.4c-1.5-7.8-2.8-15.9-3.8-24.4L941.9,324.1z"/>
			</defs>
			<clipPath id="SVGID_2_">
				<use xlink:href="#SVGID_1_"  overflow="visible"/>
			</clipPath>
			<polygon clip-path="url(#SVGID_2_)" fill="#E86324" points="983.4,500.2 1187.4,500.2 941.9,238.9 767.8,356.4 			"/>
		</g>
		<g>
			<defs>
				<path id="SVGID_3_" d="M927.6,409.3c-8.3,6.3-24.4,18.8-34.3,23.5c-9.8,4.7-20.5,8.4-32,11.1c-11.5,2.7-23.7,4-36.5,4
					c-21.2,0-40.5-3.2-57.7-9.6c-17.3-6.4-32-15.1-44.1-26.1c-10.6-9.6-19.1-20.7-25.5-33.3l68.7-25c2.7,4.3,6,8.1,9.7,11.6
					c6.8,6.3,15.1,11.3,24.9,15c9.8,3.7,21.3,5.6,34.3,5.6c12.8,0,24.8-1.8,36.1-5.4c11.3-3.6,21.5-8.3,30.7-14
					c8.5-5.3,15.9-11.3,22.4-18L927.6,409.3z"/>
			</defs>
			<clipPath id="SVGID_4_">
				<use xlink:href="#SVGID_3_"  overflow="visible"/>
			</clipPath>
			<polygon clip-path="url(#SVGID_4_)" fill="#A52822" points="983.4,500.2 1187.4,500.2 941.9,238.9 775.9,365.7 			"/>
		</g>
		<g>
			<defs>
				<path id="SVGID_5_" d="M941.9,272.6v-33.7h-59.5c-40.4,0-71.6,6.3-93.6,19c-22,12.7-33,31.8-33,57.4c0,8.4,1.2,16.3,3.5,23.8
					l-68.2,24.8c-4.7-12.9-6.3-24.2-6.3-38.6c0-22.3,4.3-41.9,13-58.9c8.7-17,21.2-31.3,37.4-42.8c16.2-11.5,35.8-20.2,58.7-26.1
					c22.9-5.9,48.5-8.8,76.9-8.8h71l71-25.8v25.8v58.1L941.9,272.6z"/>
			</defs>
			<clipPath id="SVGID_6_">
				<use xlink:href="#SVGID_5_"  overflow="visible"/>
			</clipPath>
			<polygon clip-path="url(#SVGID_6_)" fill="#2B439B" points="983.4,500.2 1187.4,500.2 941.9,238.9 767.8,356.4 			"/>
		</g>
	</g>
</g>
<g>
	<g>
		<g>
			<defs>
				<path id="SVGID_7_" d="M457.1,671.5l65.8-24c-1.6-13.5-4.8-25.7-9.6-36.7c-7.2-16.4-17.3-30.2-30.1-41.2
					c-12.8-11-28.2-19.2-46.2-24.6c-18-5.4-37.6-8.2-58.9-8.2c-23.7,0-45.1,3.4-64.3,10.3c-19.2,6.9-35.6,15.8-49.1,26.8
					c-13.5,11-24,23.4-31.4,37.2c-7.4,13.8-11.1,27.7-11.1,41.7h67.4c0-8.2,2.1-16,6.2-23.4c4.1-7.4,9.8-13.8,17.2-19.4
					c7.4-5.6,16.3-10,26.7-13.2c10.4-3.3,21.9-4.9,34.4-4.9c27.3,0,48,6.8,62,20.3c14,13.5,21,32,21,55.5V671.5z"/>
			</defs>
			<clipPath id="SVGID_8_">
				<use xlink:href="#SVGID_7_"  overflow="visible"/>
			</clipPath>
			<g clip-path="url(#SVGID_8_)">
				<g>
					
						<rect x="-75.8" y="346" transform="matrix(0.9397 -0.342 0.342 0.9397 -97.4563 147.4878)" fill="#2B439B" width="890.7" height="8.2"/>
				</g>
				<g>
					<polygon fill="#2B439B" points="795,217.1 -42,521.7 -44.8,514 792.2,209.3 					"/>
				</g>
				<g>
					
						<rect x="-64.6" y="376.8" transform="matrix(0.9397 -0.342 0.342 0.9397 -107.3248 153.1856)" fill="#2B439B" width="890.7" height="8.2"/>
				</g>
				<g>
					<polygon fill="#2B439B" points="806.2,247.9 -30.7,552.5 -33.6,544.8 803.4,240.2 					"/>
				</g>
				<g>
					
						<rect x="-53.4" y="407.7" transform="matrix(0.9397 -0.342 0.342 0.9397 -117.1929 158.8827)" fill="#2B439B" width="890.7" height="8.2"/>
				</g>
				<g>
					<polygon fill="#2B439B" points="817.4,278.7 -19.5,583.3 -22.3,575.6 814.6,271 					"/>
				</g>
				<g>
					
						<rect x="-42.2" y="438.5" transform="matrix(0.9397 -0.342 0.342 0.9397 -127.0613 164.5804)" fill="#2B439B" width="890.7" height="8.2"/>
				</g>
				<g>
					<polygon fill="#2B439B" points="828.7,309.5 -8.3,614.2 -11.1,606.5 825.8,301.8 					"/>
				</g>
				<g>
					
						<rect x="-31" y="469.3" transform="matrix(0.9397 -0.342 0.342 0.9397 -136.9297 170.2782)" fill="#2B439B" width="890.7" height="8.2"/>
				</g>
				<g>
					
						<rect x="-25.3" y="484.7" transform="matrix(0.9397 -0.342 0.342 0.9397 -141.8633 173.1263)" fill="#2B439B" width="890.7" height="8.2"/>
				</g>
				<g>
					
						<rect x="-19.7" y="500.2" transform="matrix(0.9397 -0.342 0.342 0.9397 -146.7981 175.976)" fill="#2B439B" width="890.7" height="8.2"/>
				</g>
				<g>
					
						<rect x="-14.1" y="515.6" transform="matrix(0.9397 -0.342 0.342 0.9397 -151.7315 178.8238)" fill="#2B439B" width="890.7" height="8.2"/>
				</g>
				<g>
					
						<rect x="-8.5" y="531" transform="matrix(0.9397 -0.342 0.342 0.9397 -156.6665 181.6737)" fill="#2B439B" width="890.7" height="8.2"/>
				</g>
				<g>
					
						<rect x="-2.9" y="546.4" transform="matrix(0.9397 -0.342 0.342 0.9397 -161.6001 184.5219)" fill="#2B439B" width="890.7" height="8.2"/>
				</g>
				<g>
					
						<rect x="2.7" y="561.8" transform="matrix(0.9397 -0.342 0.342 0.9397 -166.5356 187.3716)" fill="#2B439B" width="890.7" height="8.2"/>
				</g>
				<g>
					
						<rect x="8.3" y="577.2" transform="matrix(0.9397 -0.342 0.342 0.9397 -171.468 190.2187)" fill="#2B439B" width="890.7" height="8.2"/>
				</g>
				<g>
					<polygon fill="#2B439B" points="879.2,448.3 42.2,752.9 39.4,745.2 876.3,440.6 					"/>
				</g>
				<g>
					
						<rect x="19.5" y="608.1" transform="matrix(0.9397 -0.342 0.342 0.9397 -181.3364 195.9165)" fill="#2B439B" width="890.7" height="8.2"/>
				</g>
				<g>
					<polygon fill="#2B439B" points="890.4,479.1 53.4,783.8 50.6,776 887.6,471.4 					"/>
				</g>
				<g>
					
						<rect x="30.8" y="638.9" transform="matrix(0.9397 -0.342 0.342 0.9397 -191.2048 201.6143)" fill="#2B439B" width="890.7" height="8.2"/>
				</g>
				<g>
					
						<rect x="36.4" y="654.3" transform="matrix(0.9397 -0.342 0.342 0.9397 -196.1411 204.4637)" fill="#2B439B" width="890.7" height="8.2"/>
				</g>
				<g>
					
						<rect x="42" y="669.7" transform="matrix(0.9397 -0.342 0.342 0.9397 -201.0732 207.312)" fill="#2B439B" width="890.7" height="8.2"/>
				</g>
				<g>
					
						<rect x="47.6" y="685.1" transform="matrix(0.9397 -0.342 0.342 0.9397 -206.0098 210.1608)" fill="#2B439B" width="890.7" height="8.2"/>
				</g>
				<g>
					
						<rect x="53.2" y="700.6" transform="matrix(0.9397 -0.342 0.342 0.9397 -210.9415 213.0097)" fill="#2B439B" width="890.7" height="8.2"/>
				</g>
			</g>
		</g>
		<g>
			<defs>
				<path id="SVGID_9_" d="M281.4,839.1c-0.1-1.4-0.2-2.9-0.2-4.3c0-24.2,10.4-42.2,31.2-54.2c20.8-12,50.3-18,88.5-18h56.2v12.5
					l63.5-23.1l0.1,0.4l3.5-1.3v-36v-24.4l-67.1,24.4H390c-26.8,0-51.1,2.8-72.7,8.3c-21.6,5.6-40.1,13.8-55.5,24.7
					c-15.3,10.9-27.1,24.4-35.3,40.4c-8.2,16.1-12.3,34.6-12.3,55.7c0,6.9,0.4,13,1.3,18.9L281.4,839.1z"/>
			</defs>
			<clipPath id="SVGID_10_">
				<use xlink:href="#SVGID_9_"  overflow="visible"/>
			</clipPath>
			<g clip-path="url(#SVGID_10_)">
				<g>
					
						<rect x="-19" y="568.8" transform="matrix(0.9397 -0.342 0.342 0.9397 -170.2355 180.3543)" fill="#A52822" width="890.7" height="8.2"/>
				</g>
				<g>
					<polygon fill="#A52822" points="851.8,439.9 14.8,744.5 12,736.8 849,432.1 					"/>
				</g>
				<g>
					
						<rect x="-7.8" y="599.6" transform="matrix(0.9397 -0.342 0.342 0.9397 -180.104 186.0521)" fill="#A52822" width="890.7" height="8.2"/>
				</g>
				<g>
					<polygon fill="#A52822" points="863,470.7 26.1,775.3 23.2,767.6 860.2,463 					"/>
				</g>
				<g>
					
						<rect x="3.4" y="630.5" transform="matrix(0.9397 -0.342 0.342 0.9397 -189.9724 191.7499)" fill="#A52822" width="890.7" height="8.2"/>
				</g>
				<g>
					
						<rect x="9" y="645.9" transform="matrix(0.9397 -0.342 0.342 0.9397 -194.9061 194.5981)" fill="#A52822" width="890.7" height="8.2"/>
				</g>
				<g>
					
						<rect x="14.6" y="661.3" transform="matrix(0.9397 -0.342 0.342 0.9397 -199.8405 197.4473)" fill="#A52822" width="890.7" height="8.2"/>
				</g>
				<g>
					
						<rect x="20.2" y="676.7" transform="matrix(0.9397 -0.342 0.342 0.9397 -204.7747 200.296)" fill="#A52822" width="890.7" height="8.2"/>
				</g>
				<g>
					
						<rect x="25.9" y="692.1" transform="matrix(0.9397 -0.342 0.342 0.9397 -209.7099 203.1457)" fill="#A52822" width="890.7" height="8.2"/>
				</g>
				<g>
					
						<rect x="31.5" y="707.5" transform="matrix(0.9397 -0.342 0.342 0.9397 -214.6422 205.9926)" fill="#A52822" width="890.7" height="8.2"/>
				</g>
				<g>
					<polygon fill="#A52822" points="902.3,578.6 65.3,883.2 62.5,875.5 899.5,570.9 					"/>
				</g>
				<g>
					
						<rect x="42.7" y="738.4" transform="matrix(0.9397 -0.342 0.342 0.9397 -224.5106 211.6904)" fill="#A52822" width="890.7" height="8.2"/>
				</g>
				<g>
					<polygon fill="#A52822" points="913.5,609.4 76.6,914.1 73.8,906.4 910.7,601.7 					"/>
				</g>
				<g>
					
						<rect x="53.9" y="769.2" transform="matrix(0.9397 -0.342 0.342 0.9397 -234.379 217.3882)" fill="#A52822" width="890.7" height="8.2"/>
				</g>
				<g>
					
						<rect x="59.5" y="784.6" transform="matrix(0.9397 -0.342 0.342 0.9397 -239.3165 220.2388)" fill="#A52822" width="890.7" height="8.2"/>
				</g>
				<g>
					
						<rect x="65.1" y="800" transform="matrix(0.9397 -0.342 0.342 0.9397 -244.2475 223.086)" fill="#A52822" width="890.7" height="8.2"/>
				</g>
				<g>
					
						<rect x="70.7" y="815.5" transform="matrix(0.9397 -0.342 0.342 0.9397 -249.1841 225.9349)" fill="#A52822" width="890.7" height="8.2"/>
				</g>
				<g>
					
						<rect x="76.4" y="830.9" transform="matrix(0.9397 -0.342 0.342 0.9397 -254.1156 228.7833)" fill="#A52822" width="890.7" height="8.2"/>
				</g>
				<g>
					
						<rect x="82" y="846.3" transform="matrix(0.9397 -0.342 0.342 0.9397 -259.0526 231.6326)" fill="#A52822" width="890.7" height="8.2"/>
				</g>
				<g>
					
						<rect x="87.6" y="861.7" transform="matrix(0.9397 -0.342 0.342 0.9397 -263.9841 234.4814)" fill="#A52822" width="890.7" height="8.2"/>
				</g>
				<g>
					
						<rect x="93.2" y="877.1" transform="matrix(0.9397 -0.342 0.342 0.9397 -268.9201 237.3292)" fill="#A52822" width="890.7" height="8.2"/>
				</g>
				<g>
					<polygon fill="#A52822" points="964,748.2 127.1,1052.8 124.2,1045.1 961.2,740.5 					"/>
				</g>
				<g>
					
						<rect x="104.4" y="908" transform="matrix(0.9397 -0.342 0.342 0.9397 -278.7885 243.027)" fill="#A52822" width="890.7" height="8.2"/>
				</g>
				<g>
					<polygon fill="#A52822" points="975.2,779 138.3,1083.6 135.5,1075.9 972.4,771.3 					"/>
				</g>
			</g>
		</g>
		<g>
			<defs>
				<path id="SVGID_11_" d="M524.2,867.5v-72.6l-67.1,24.4v23.9l1.1,68.5c1,8,2.2,15.7,3.6,23c1.4,7.4,3.4,13.5,5.8,18.3H538v-5.8
					c-4.6-10.6-8-23.3-10.3-37.9C525.4,894.7,524.2,880.8,524.2,867.5z"/>
			</defs>
			<clipPath id="SVGID_12_">
				<use xlink:href="#SVGID_11_"  overflow="visible"/>
			</clipPath>
			<g clip-path="url(#SVGID_12_)">
				<g>
					
						<rect x="126.2" y="777.6" transform="matrix(0.9397 -0.342 0.342 0.9397 -232.8853 242.6065)" fill="#E86324" width="890.7" height="8.2"/>
				</g>
				<g>
					<polygon fill="#E86324" points="997,648.6 160,953.3 157.2,945.6 994.2,640.9 					"/>
				</g>
				<g>
					
						<rect x="137.4" y="808.4" transform="matrix(0.9397 -0.342 0.342 0.9397 -242.7539 248.3044)" fill="#E86324" width="890.7" height="8.2"/>
				</g>
				<g>
					<polygon fill="#E86324" points="1008.2,679.5 171.3,984.1 168.5,976.4 1005.4,671.8 					"/>
				</g>
				<g>
					
						<rect x="148.6" y="839.2" transform="matrix(0.9397 -0.342 0.342 0.9397 -252.622 254.0011)" fill="#E86324" width="890.7" height="8.2"/>
				</g>
				<g>
					<polygon fill="#E86324" points="1019.4,710.3 182.5,1014.9 179.7,1007.2 1016.6,702.6 					"/>
				</g>
				<g>
					
						<rect x="159.8" y="870.1" transform="matrix(0.9397 -0.342 0.342 0.9397 -262.49 259.6984)" fill="#E86324" width="890.7" height="8.2"/>
				</g>
				<g>
					<polygon fill="#E86324" points="1030.7,741.1 193.7,1045.8 190.9,1038.1 1027.9,733.4 					"/>
				</g>
				<g>
					
						<rect x="171.1" y="900.9" transform="matrix(0.9397 -0.342 0.342 0.9397 -272.3587 265.3968)" fill="#E86324" width="890.7" height="8.2"/>
				</g>
				<g>
					
						<rect x="176.7" y="916.3" transform="matrix(0.9397 -0.342 0.342 0.9397 -277.2927 268.2453)" fill="#E86324" width="890.7" height="8.2"/>
				</g>
				<g>
					
						<rect x="182.3" y="931.7" transform="matrix(0.9397 -0.342 0.342 0.9397 -282.2272 271.0945)" fill="#E86324" width="890.7" height="8.2"/>
				</g>
				<g>
					
						<rect x="187.9" y="947.2" transform="matrix(0.9397 -0.342 0.342 0.9397 -287.1613 273.9433)" fill="#E86324" width="890.7" height="8.2"/>
				</g>
				<g>
					
						<rect x="193.5" y="962.6" transform="matrix(0.9397 -0.342 0.342 0.9397 -292.0957 276.7922)" fill="#E86324" width="890.7" height="8.2"/>
				</g>
				<g>
					
						<rect x="199.1" y="978" transform="matrix(0.9397 -0.342 0.342 0.9397 -297.0298 279.641)" fill="#E86324" width="890.7" height="8.2"/>
				</g>
				<g>
					
						<rect x="204.7" y="993.4" transform="matrix(0.9397 -0.342 0.342 0.9397 -301.9639 282.49)" fill="#E86324" width="890.7" height="8.2"/>
				</g>
				<g>
					
						<rect x="210.3" y="1008.8" transform="matrix(0.9397 -0.342 0.342 0.9397 -306.897 285.3372)" fill="#E86324" width="890.7" height="8.2"/>
				</g>
				<g>
					<polygon fill="#E86324" points="1081.2,879.9 244.2,1184.5 241.4,1176.8 1078.4,872.2 					"/>
				</g>
				<g>
					
						<rect x="221.6" y="1039.7" transform="matrix(0.9397 -0.342 0.342 0.9397 -316.7653 291.0348)" fill="#E86324" width="890.7" height="8.2"/>
				</g>
				<g>
					<polygon fill="#E86324" points="1092.4,910.7 255.4,1215.3 252.6,1207.6 1089.6,903 					"/>
				</g>
				<g>
					
						<rect x="232.8" y="1070.5" transform="matrix(0.9397 -0.342 0.342 0.9397 -326.6339 296.7328)" fill="#E86324" width="890.7" height="8.2"/>
				</g>
				<g>
					
						<rect x="238.4" y="1085.9" transform="matrix(0.9397 -0.342 0.342 0.9397 -331.5709 299.5829)" fill="#E86324" width="890.7" height="8.2"/>
				</g>
				<g>
					
						<rect x="244" y="1101.3" transform="matrix(0.9397 -0.342 0.342 0.9397 -336.5024 302.4306)" fill="#E86324" width="890.7" height="8.2"/>
				</g>
				<g>
					
						<rect x="249.6" y="1116.7" transform="matrix(0.9397 -0.342 0.342 0.9397 -341.4395 305.28)" fill="#E86324" width="890.7" height="8.2"/>
				</g>
				<g>
					
						<rect x="255.2" y="1132.1" transform="matrix(0.9397 -0.342 0.342 0.9397 -346.3707 308.1283)" fill="#E86324" width="890.7" height="8.2"/>
				</g>
			</g>
		</g>
		<g>
			<defs>
				<path id="SVGID_13_" d="M416.1,885.5c-7.8,4.5-16.4,8.4-25.7,11.3c-10.6,3.4-22,5.1-34.1,5.1c-12.3,0-23.2-1.8-32.5-5.3
					c-9.3-3.5-17.2-8.2-23.6-14.1c-1.7-1.5-3.2-3.2-4.7-4.9l-65.8,24c5.5,9.3,12.3,17.6,20.4,25c11.5,10.4,25.4,18.6,41.7,24.7
					c16.3,6,34.5,9.1,54.6,9.1c12.1,0,23.6-1.3,34.5-3.8c10.9-2.5,21-6,30.3-10.5c1.5-0.7,3.1-1.6,4.9-2.7V885.5z"/>
			</defs>
			<clipPath id="SVGID_14_">
				<use xlink:href="#SVGID_13_"  overflow="visible"/>
			</clipPath>
			<g clip-path="url(#SVGID_14_)">
				<g>
					<polygon fill="#0B552B" points="964.2,643.1 127.2,947.7 124.4,940 961.4,635.4 					"/>
				</g>
				<g>
					
						<rect x="104.6" y="802.9" transform="matrix(0.9397 -0.342 0.342 0.9397 -242.8312 236.7472)" fill="#0B552B" width="890.7" height="8.2"/>
				</g>
				<g>
					<polygon fill="#0B552B" points="975.4,673.9 138.4,978.5 135.6,970.8 972.6,666.2 					"/>
				</g>
				<g>
					
						<rect x="115.8" y="833.7" transform="matrix(0.9397 -0.342 0.342 0.9397 -252.6988 242.4437)" fill="#0B552B" width="890.7" height="8.2"/>
				</g>
				<g>
					<polygon fill="#0B552B" points="986.6,704.7 149.7,1009.4 146.9,1001.7 983.8,697 					"/>
				</g>
				<g>
					
						<rect x="127" y="864.5" transform="matrix(0.9397 -0.342 0.342 0.9397 -262.5672 248.1414)" fill="#0B552B" width="890.7" height="8.2"/>
				</g>
				<g>
					<polygon fill="#0B552B" points="997.9,735.6 160.9,1040.2 158.1,1032.5 995,727.9 					"/>
				</g>
				<g>
					
						<rect x="138.2" y="895.3" transform="matrix(0.9397 -0.342 0.342 0.9397 -272.4355 253.8392)" fill="#0B552B" width="890.7" height="8.2"/>
				</g>
				<g>
					
						<rect x="143.9" y="910.8" transform="matrix(0.9397 -0.342 0.342 0.9397 -277.3701 256.6887)" fill="#0B552B" width="890.7" height="8.2"/>
				</g>
				<g>
					
						<rect x="149.5" y="926.2" transform="matrix(0.9397 -0.342 0.342 0.9397 -282.3045 259.5373)" fill="#0B552B" width="890.7" height="8.2"/>
				</g>
				<g>
					
						<rect x="155.1" y="941.6" transform="matrix(0.9397 -0.342 0.342 0.9397 -287.2384 262.3856)" fill="#0B552B" width="890.7" height="8.2"/>
				</g>
				<g>
					
						<rect x="160.7" y="957" transform="matrix(0.9397 -0.342 0.342 0.9397 -292.173 265.235)" fill="#0B552B" width="890.7" height="8.2"/>
				</g>
				<g>
					
						<rect x="166.3" y="972.4" transform="matrix(0.9397 -0.342 0.342 0.9397 -297.1071 268.0837)" fill="#0B552B" width="890.7" height="8.2"/>
				</g>
				<g>
					
						<rect x="171.9" y="987.8" transform="matrix(0.9397 -0.342 0.342 0.9397 -302.0413 270.9328)" fill="#0B552B" width="890.7" height="8.2"/>
				</g>
				<g>
					
						<rect x="177.5" y="1003.3" transform="matrix(0.9397 -0.342 0.342 0.9397 -306.9755 273.7814)" fill="#0B552B" width="890.7" height="8.2"/>
				</g>
				<g>
					<polygon fill="#0B552B" points="1048.4,874.3 211.4,1178.9 208.6,1171.2 1045.5,866.6 					"/>
				</g>
				<g>
					
						<rect x="188.7" y="1034.1" transform="matrix(0.9397 -0.342 0.342 0.9397 -316.843 279.4779)" fill="#0B552B" width="890.7" height="8.2"/>
				</g>
				<g>
					<polygon fill="#0B552B" points="1059.6,905.1 222.6,1209.8 219.8,1202.1 1056.8,897.4 					"/>
				</g>
				<g>
					
						<rect x="200" y="1064.9" transform="matrix(0.9397 -0.342 0.342 0.9397 -326.7113 285.1757)" fill="#0B552B" width="890.7" height="8.2"/>
				</g>
				<g>
					<polygon fill="#0B552B" points="1070.8,936 233.8,1240.6 231,1232.9 1068,928.3 					"/>
				</g>
				<g>
					
						<rect x="211.2" y="1095.8" transform="matrix(0.9397 -0.342 0.342 0.9397 -336.5797 290.8734)" fill="#0B552B" width="890.7" height="8.2"/>
				</g>
				<g>
					
						<rect x="216.8" y="1111.2" transform="matrix(0.9397 -0.342 0.342 0.9397 -341.5169 293.7227)" fill="#0B552B" width="890.7" height="8.2"/>
				</g>
				<g>
					
						<rect x="222.4" y="1126.6" transform="matrix(0.9397 -0.342 0.342 0.9397 -346.448 296.5711)" fill="#0B552B" width="890.7" height="8.2"/>
				</g>
				<g>
					
						<rect x="228" y="1142" transform="matrix(0.9397 -0.342 0.342 0.9397 -351.3852 299.4204)" fill="#0B552B" width="890.7" height="8.2"/>
				</g>
			</g>
		</g>
	</g>
	<g>
		<g>
			<defs>
				<path id="SVGID_15_" d="M469.4,659.2l65.8-24c-1.6-13.5-4.8-25.7-9.6-36.7c-7.2-16.4-17.3-30.2-30.1-41.2
					c-12.8-11-28.2-19.2-46.2-24.6c-18-5.4-37.6-8.2-58.9-8.2c-23.7,0-45.1,3.4-64.3,10.3c-19.2,6.9-35.6,15.8-49.1,26.8
					c-13.5,11-24,23.4-31.4,37.2c-7.4,13.8-11.1,27.7-11.1,41.7h67.4c0-8.2,2.1-16,6.2-23.4c4.1-7.4,9.8-13.8,17.2-19.4
					c7.4-5.6,16.3-10,26.7-13.2c10.4-3.3,21.9-4.9,34.4-4.9c27.3,0,48,6.8,62,20.3c14,13.5,21,32,21,55.5V659.2z"/>
			</defs>
			<clipPath id="SVGID_16_">
				<use xlink:href="#SVGID_15_"  overflow="visible"/>
			</clipPath>
			<g clip-path="url(#SVGID_16_)">
				<g>
					
						<rect x="-63.5" y="333.7" transform="matrix(0.9397 -0.342 0.342 0.9397 -92.5061 150.954)" fill="#84A8D8" width="890.7" height="8.2"/>
				</g>
				<g>
					<polygon fill="#84A8D8" points="807.3,204.7 -29.7,509.4 -32.5,501.7 804.5,197 					"/>
				</g>
				<g>
					
						<rect x="-52.3" y="364.5" transform="matrix(0.9397 -0.342 0.342 0.9397 -102.3745 156.6518)" fill="#84A8D8" width="890.7" height="8.2"/>
				</g>
				<g>
					<polygon fill="#84A8D8" points="818.5,235.6 -18.4,540.2 -21.3,532.5 815.7,227.9 					"/>
				</g>
				<g>
					
						<rect x="-41.1" y="395.4" transform="matrix(0.9397 -0.342 0.342 0.9397 -112.2427 162.3489)" fill="#84A8D8" width="890.7" height="8.2"/>
				</g>
				<g>
					<polygon fill="#84A8D8" points="829.7,266.4 -7.2,571 -10,563.3 826.9,258.7 					"/>
				</g>
				<g>
					
						<rect x="-29.9" y="426.2" transform="matrix(0.9397 -0.342 0.342 0.9397 -122.1111 168.0466)" fill="#84A8D8" width="890.7" height="8.2"/>
				</g>
				<g>
					<polygon fill="#84A8D8" points="841,297.2 4,601.9 1.2,594.2 838.2,289.5 					"/>
				</g>
				<g>
					
						<rect x="-18.7" y="457" transform="matrix(0.9397 -0.342 0.342 0.9397 -131.9794 173.7444)" fill="#84A8D8" width="890.7" height="8.2"/>
				</g>
				<g>
					
						<rect x="-13" y="472.4" transform="matrix(0.9397 -0.342 0.342 0.9397 -136.913 176.5925)" fill="#84A8D8" width="890.7" height="8.2"/>
				</g>
				<g>
					
						<rect x="-7.4" y="487.9" transform="matrix(0.9397 -0.342 0.342 0.9397 -141.8478 179.4421)" fill="#84A8D8" width="890.7" height="8.2"/>
				</g>
				<g>
					
						<rect x="-1.8" y="503.3" transform="matrix(0.9397 -0.342 0.342 0.9397 -146.7813 182.29)" fill="#84A8D8" width="890.7" height="8.2"/>
				</g>
				<g>
					
						<rect x="3.8" y="518.7" transform="matrix(0.9397 -0.342 0.342 0.9397 -151.7163 185.1399)" fill="#84A8D8" width="890.7" height="8.2"/>
				</g>
				<g>
					
						<rect x="9.4" y="534.1" transform="matrix(0.9397 -0.342 0.342 0.9397 -156.6499 187.9881)" fill="#84A8D8" width="890.7" height="8.2"/>
				</g>
				<g>
					
						<rect x="15" y="549.5" transform="matrix(0.9397 -0.342 0.342 0.9397 -161.5853 190.8378)" fill="#84A8D8" width="890.7" height="8.2"/>
				</g>
				<g>
					
						<rect x="20.6" y="564.9" transform="matrix(0.9397 -0.342 0.342 0.9397 -166.5178 193.6849)" fill="#84A8D8" width="890.7" height="8.2"/>
				</g>
				<g>
					<polygon fill="#84A8D8" points="891.5,436 54.5,740.6 51.7,732.9 888.6,428.3 					"/>
				</g>
				<g>
					
						<rect x="31.8" y="595.8" transform="matrix(0.9397 -0.342 0.342 0.9397 -176.3862 199.3828)" fill="#84A8D8" width="890.7" height="8.2"/>
				</g>
				<g>
					<polygon fill="#84A8D8" points="902.7,466.8 65.7,771.4 62.9,763.7 899.9,459.1 					"/>
				</g>
				<g>
					
						<rect x="43.1" y="626.6" transform="matrix(0.9397 -0.342 0.342 0.9397 -186.2545 205.0805)" fill="#84A8D8" width="890.7" height="8.2"/>
				</g>
				<g>
					
						<rect x="48.7" y="642" transform="matrix(0.9397 -0.342 0.342 0.9397 -191.1908 207.9299)" fill="#84A8D8" width="890.7" height="8.2"/>
				</g>
				<g>
					
						<rect x="54.3" y="657.4" transform="matrix(0.9397 -0.342 0.342 0.9397 -196.1229 210.7782)" fill="#84A8D8" width="890.7" height="8.2"/>
				</g>
				<g>
					
						<rect x="59.9" y="672.8" transform="matrix(0.9397 -0.342 0.342 0.9397 -201.0595 213.627)" fill="#84A8D8" width="890.7" height="8.2"/>
				</g>
				<g>
					
						<rect x="65.5" y="688.3" transform="matrix(0.9397 -0.342 0.342 0.9397 -205.9913 216.4759)" fill="#84A8D8" width="890.7" height="8.2"/>
				</g>
			</g>
		</g>
		<g>
			<defs>
				<path id="SVGID_17_" d="M293.7,826.8c-0.1-1.4-0.2-2.9-0.2-4.3c0-24.2,10.4-42.2,31.2-54.2c20.8-12,50.3-18,88.5-18h56.2v12.5
					l63.5-23.1l0.1,0.4l3.5-1.3v-36v-24.4l-67.1,24.4h-67.1c-26.8,0-51.1,2.8-72.7,8.3c-21.6,5.6-40.1,13.8-55.5,24.7
					c-15.3,10.9-27.1,24.4-35.3,40.4c-8.2,16.1-12.3,34.6-12.3,55.7c0,6.9,0.4,13,1.3,18.9L293.7,826.8z"/>
			</defs>
			<clipPath id="SVGID_18_">
				<use xlink:href="#SVGID_17_"  overflow="visible"/>
			</clipPath>
			<g clip-path="url(#SVGID_18_)">
				<g>
					
						<rect x="-6.7" y="556.5" transform="matrix(0.9397 -0.342 0.342 0.9397 -165.2853 183.8205)" fill="#E67B73" width="890.7" height="8.2"/>
				</g>
				<g>
					<polygon fill="#E67B73" points="864.1,427.6 27.1,732.2 24.3,724.5 861.3,419.8 					"/>
				</g>
				<g>
					
						<rect x="4.5" y="587.3" transform="matrix(0.9397 -0.342 0.342 0.9397 -175.1537 189.5183)" fill="#E67B73" width="890.7" height="8.2"/>
				</g>
				<g>
					<polygon fill="#E67B73" points="875.3,458.4 38.4,763 35.6,755.3 872.5,450.7 					"/>
				</g>
				<g>
					
						<rect x="15.7" y="618.2" transform="matrix(0.9397 -0.342 0.342 0.9397 -185.0221 195.2161)" fill="#E67B73" width="890.7" height="8.2"/>
				</g>
				<g>
					
						<rect x="21.3" y="633.6" transform="matrix(0.9397 -0.342 0.342 0.9397 -189.9558 198.0643)" fill="#E67B73" width="890.7" height="8.2"/>
				</g>
				<g>
					
						<rect x="26.9" y="649" transform="matrix(0.9397 -0.342 0.342 0.9397 -194.8903 200.9135)" fill="#E67B73" width="890.7" height="8.2"/>
				</g>
				<g>
					
						<rect x="32.5" y="664.4" transform="matrix(0.9397 -0.342 0.342 0.9397 -199.8244 203.7622)" fill="#E67B73" width="890.7" height="8.2"/>
				</g>
				<g>
					
						<rect x="38.2" y="679.8" transform="matrix(0.9397 -0.342 0.342 0.9397 -204.7597 206.6119)" fill="#E67B73" width="890.7" height="8.2"/>
				</g>
				<g>
					
						<rect x="43.8" y="695.2" transform="matrix(0.9397 -0.342 0.342 0.9397 -209.6919 209.4588)" fill="#E67B73" width="890.7" height="8.2"/>
				</g>
				<g>
					<polygon fill="#E67B73" points="914.6,566.3 77.6,870.9 74.8,863.2 911.8,558.6 					"/>
				</g>
				<g>
					
						<rect x="55" y="726.1" transform="matrix(0.9397 -0.342 0.342 0.9397 -219.5604 215.1566)" fill="#E67B73" width="890.7" height="8.2"/>
				</g>
				<g>
					<polygon fill="#E67B73" points="925.8,597.1 88.9,901.8 86.1,894.1 923,589.4 					"/>
				</g>
				<g>
					
						<rect x="66.2" y="756.9" transform="matrix(0.9397 -0.342 0.342 0.9397 -229.4288 220.8544)" fill="#E67B73" width="890.7" height="8.2"/>
				</g>
				<g>
					
						<rect x="71.8" y="772.3" transform="matrix(0.9397 -0.342 0.342 0.9397 -234.3662 223.7051)" fill="#E67B73" width="890.7" height="8.2"/>
				</g>
				<g>
					
						<rect x="77.4" y="787.7" transform="matrix(0.9397 -0.342 0.342 0.9397 -239.2972 226.5522)" fill="#E67B73" width="890.7" height="8.2"/>
				</g>
				<g>
					
						<rect x="83" y="803.2" transform="matrix(0.9397 -0.342 0.342 0.9397 -244.2338 229.4011)" fill="#E67B73" width="890.7" height="8.2"/>
				</g>
				<g>
					
						<rect x="88.7" y="818.6" transform="matrix(0.9397 -0.342 0.342 0.9397 -249.1653 232.2495)" fill="#E67B73" width="890.7" height="8.2"/>
				</g>
				<g>
					
						<rect x="94.3" y="834" transform="matrix(0.9397 -0.342 0.342 0.9397 -254.1023 235.0988)" fill="#E67B73" width="890.7" height="8.2"/>
				</g>
				<g>
					
						<rect x="99.9" y="849.4" transform="matrix(0.9397 -0.342 0.342 0.9397 -259.0338 237.9476)" fill="#E67B73" width="890.7" height="8.2"/>
				</g>
				<g>
					
						<rect x="105.5" y="864.8" transform="matrix(0.9397 -0.342 0.342 0.9397 -263.9698 240.7953)" fill="#E67B73" width="890.7" height="8.2"/>
				</g>
				<g>
					<polygon fill="#E67B73" points="976.3,735.9 139.4,1040.5 136.6,1032.8 973.5,728.2 					"/>
				</g>
				<g>
					
						<rect x="116.7" y="895.7" transform="matrix(0.9397 -0.342 0.342 0.9397 -273.8383 246.4932)" fill="#E67B73" width="890.7" height="8.2"/>
				</g>
				<g>
					<polygon fill="#E67B73" points="987.5,766.7 150.6,1071.3 147.8,1063.6 984.7,759 					"/>
				</g>
			</g>
		</g>
		<g>
			<defs>
				<path id="SVGID_19_" d="M536.5,855.2v-72.6l-67.1,24.4v23.9l1.1,68.5c1,8,2.2,15.7,3.6,23c1.4,7.4,3.4,13.5,5.8,18.3h70.3v-5.8
					c-4.6-10.6-8-23.3-10.3-37.9C537.7,882.4,536.5,868.5,536.5,855.2z"/>
			</defs>
			<clipPath id="SVGID_20_">
				<use xlink:href="#SVGID_19_"  overflow="visible"/>
			</clipPath>
			<g clip-path="url(#SVGID_20_)">
				<g>
					
						<rect x="138.5" y="765.3" transform="matrix(0.9397 -0.342 0.342 0.9397 -227.9351 246.0727)" fill="#F8CC4D" width="890.7" height="8.2"/>
				</g>
				<g>
					<polygon fill="#F8CC4D" points="1009.3,636.3 172.3,941 169.5,933.3 1006.5,628.6 					"/>
				</g>
				<g>
					
						<rect x="149.7" y="796.1" transform="matrix(0.9397 -0.342 0.342 0.9397 -237.8041 251.7709)" fill="#F8CC4D" width="890.7" height="8.2"/>
				</g>
				<g>
					<polygon fill="#F8CC4D" points="1020.5,667.2 183.6,971.8 180.8,964.1 1017.7,659.5 					"/>
				</g>
				<g>
					
						<rect x="160.9" y="826.9" transform="matrix(0.9397 -0.342 0.342 0.9397 -247.6717 257.4673)" fill="#F8CC4D" width="890.7" height="8.2"/>
				</g>
				<g>
					<polygon fill="#F8CC4D" points="1031.7,698 194.8,1002.6 192,994.9 1028.9,690.3 					"/>
				</g>
				<g>
					
						<rect x="172.1" y="857.8" transform="matrix(0.9397 -0.342 0.342 0.9397 -257.5398 263.1646)" fill="#F8CC4D" width="890.7" height="8.2"/>
				</g>
				<g>
					<polygon fill="#F8CC4D" points="1043,728.8 206,1033.5 203.2,1025.7 1040.2,721.1 					"/>
				</g>
				<g>
					
						<rect x="183.4" y="888.6" transform="matrix(0.9397 -0.342 0.342 0.9397 -267.4085 268.8629)" fill="#F8CC4D" width="890.7" height="8.2"/>
				</g>
				<g>
					
						<rect x="189" y="904" transform="matrix(0.9397 -0.342 0.342 0.9397 -272.3424 271.7115)" fill="#F8CC4D" width="890.7" height="8.2"/>
				</g>
				<g>
					
						<rect x="194.6" y="919.4" transform="matrix(0.9397 -0.342 0.342 0.9397 -277.2769 274.5607)" fill="#F8CC4D" width="890.7" height="8.2"/>
				</g>
				<g>
					
						<rect x="200.2" y="934.8" transform="matrix(0.9397 -0.342 0.342 0.9397 -282.2111 277.4095)" fill="#F8CC4D" width="890.7" height="8.2"/>
				</g>
				<g>
					
						<rect x="205.8" y="950.3" transform="matrix(0.9397 -0.342 0.342 0.9397 -287.1454 280.2584)" fill="#F8CC4D" width="890.7" height="8.2"/>
				</g>
				<g>
					
						<rect x="211.4" y="965.7" transform="matrix(0.9397 -0.342 0.342 0.9397 -292.0795 283.1072)" fill="#F8CC4D" width="890.7" height="8.2"/>
				</g>
				<g>
					
						<rect x="217" y="981.1" transform="matrix(0.9397 -0.342 0.342 0.9397 -297.0137 285.9561)" fill="#F8CC4D" width="890.7" height="8.2"/>
				</g>
				<g>
					
						<rect x="222.6" y="996.5" transform="matrix(0.9397 -0.342 0.342 0.9397 -301.9468 288.8034)" fill="#F8CC4D" width="890.7" height="8.2"/>
				</g>
				<g>
					<polygon fill="#F8CC4D" points="1093.5,867.6 256.5,1172.2 253.7,1164.5 1090.7,859.9 					"/>
				</g>
				<g>
					
						<rect x="233.9" y="1027.3" transform="matrix(0.9397 -0.342 0.342 0.9397 -311.815 294.5009)" fill="#F8CC4D" width="890.7" height="8.2"/>
				</g>
				<g>
					<polygon fill="#F8CC4D" points="1104.7,898.4 267.7,1203 264.9,1195.3 1101.9,890.7 					"/>
				</g>
				<g>
					
						<rect x="245.1" y="1058.2" transform="matrix(0.9397 -0.342 0.342 0.9397 -321.6837 300.1991)" fill="#F8CC4D" width="890.7" height="8.2"/>
				</g>
				<g>
					
						<rect x="250.7" y="1073.6" transform="matrix(0.9397 -0.342 0.342 0.9397 -326.6206 303.0492)" fill="#F8CC4D" width="890.7" height="8.2"/>
				</g>
				<g>
					
						<rect x="256.3" y="1089" transform="matrix(0.9397 -0.342 0.342 0.9397 -331.5522 305.8968)" fill="#F8CC4D" width="890.7" height="8.2"/>
				</g>
				<g>
					
						<rect x="261.9" y="1104.4" transform="matrix(0.9397 -0.342 0.342 0.9397 -336.4893 308.7462)" fill="#F8CC4D" width="890.7" height="8.2"/>
				</g>
				<g>
					
						<rect x="267.5" y="1119.8" transform="matrix(0.9397 -0.342 0.342 0.9397 -341.4204 311.5945)" fill="#F8CC4D" width="890.7" height="8.2"/>
				</g>
			</g>
		</g>
		<g>
			<defs>
				<path id="SVGID_21_" d="M428.4,873.2c-7.8,4.5-16.4,8.4-25.7,11.3c-10.6,3.4-22,5.1-34.1,5.1c-12.3,0-23.2-1.8-32.5-5.3
					c-9.3-3.5-17.2-8.2-23.6-14.1c-1.7-1.5-3.2-3.2-4.7-4.9l-65.8,24c5.5,9.3,12.3,17.6,20.4,25c11.5,10.4,25.4,18.6,41.7,24.7
					c16.3,6,34.5,9.1,54.6,9.1c12.1,0,23.6-1.3,34.5-3.8c10.9-2.5,21-6,30.3-10.5c1.5-0.7,3.1-1.6,4.9-2.7V873.2z"/>
			</defs>
			<clipPath id="SVGID_22_">
				<use xlink:href="#SVGID_21_"  overflow="visible"/>
			</clipPath>
			<g clip-path="url(#SVGID_22_)">
				<g>
					<polygon fill="#57BB8A" points="976.5,630.8 139.5,935.4 136.7,927.7 973.7,623.1 					"/>
				</g>
				<g>
					
						<rect x="116.9" y="790.5" transform="matrix(0.9397 -0.342 0.342 0.9397 -237.881 240.2134)" fill="#57BB8A" width="890.7" height="8.2"/>
				</g>
				<g>
					<polygon fill="#57BB8A" points="987.7,661.6 150.8,966.2 147.9,958.5 984.9,653.9 					"/>
				</g>
				<g>
					
						<rect x="128.1" y="821.4" transform="matrix(0.9397 -0.342 0.342 0.9397 -247.7485 245.9099)" fill="#57BB8A" width="890.7" height="8.2"/>
				</g>
				<g>
					<polygon fill="#57BB8A" points="998.9,692.4 162,997.1 159.2,989.4 996.1,684.7 					"/>
				</g>
				<g>
					
						<rect x="139.3" y="852.2" transform="matrix(0.9397 -0.342 0.342 0.9397 -257.617 251.6076)" fill="#57BB8A" width="890.7" height="8.2"/>
				</g>
				<g>
					<polygon fill="#57BB8A" points="1010.2,723.3 173.2,1027.9 170.4,1020.2 1007.3,715.6 					"/>
				</g>
				<g>
					
						<rect x="150.5" y="883" transform="matrix(0.9397 -0.342 0.342 0.9397 -267.4859 257.3058)" fill="#57BB8A" width="890.7" height="8.2"/>
				</g>
				<g>
					
						<rect x="156.2" y="898.5" transform="matrix(0.9397 -0.342 0.342 0.9397 -272.4198 260.1549)" fill="#57BB8A" width="890.7" height="8.2"/>
				</g>
				<g>
					
						<rect x="161.8" y="913.9" transform="matrix(0.9397 -0.342 0.342 0.9397 -277.3542 263.0035)" fill="#57BB8A" width="890.7" height="8.2"/>
				</g>
				<g>
					
						<rect x="167.4" y="929.3" transform="matrix(0.9397 -0.342 0.342 0.9397 -282.2881 265.8518)" fill="#57BB8A" width="890.7" height="8.2"/>
				</g>
				<g>
					
						<rect x="173" y="944.7" transform="matrix(0.9397 -0.342 0.342 0.9397 -287.2227 268.7012)" fill="#57BB8A" width="890.7" height="8.2"/>
				</g>
				<g>
					
						<rect x="178.6" y="960.1" transform="matrix(0.9397 -0.342 0.342 0.9397 -292.1569 271.55)" fill="#57BB8A" width="890.7" height="8.2"/>
				</g>
				<g>
					
						<rect x="184.2" y="975.5" transform="matrix(0.9397 -0.342 0.342 0.9397 -297.0911 274.399)" fill="#57BB8A" width="890.7" height="8.2"/>
				</g>
				<g>
					
						<rect x="189.8" y="991" transform="matrix(0.9397 -0.342 0.342 0.9397 -302.0252 277.2477)" fill="#57BB8A" width="890.7" height="8.2"/>
				</g>
				<g>
					<polygon fill="#57BB8A" points="1060.7,862 223.7,1166.6 220.9,1158.9 1057.8,854.3 					"/>
				</g>
				<g>
					
						<rect x="201" y="1021.8" transform="matrix(0.9397 -0.342 0.342 0.9397 -311.8927 282.9442)" fill="#57BB8A" width="890.7" height="8.2"/>
				</g>
				<g>
					<polygon fill="#57BB8A" points="1071.9,892.8 234.9,1197.5 232.1,1189.8 1069.1,885.1 					"/>
				</g>
				<g>
					
						<rect x="212.3" y="1052.6" transform="matrix(0.9397 -0.342 0.342 0.9397 -321.7611 288.6419)" fill="#57BB8A" width="890.7" height="8.2"/>
				</g>
				<g>
					<polygon fill="#57BB8A" points="1083.1,923.7 246.1,1228.3 243.3,1220.6 1080.3,916 					"/>
				</g>
				<g>
					
						<rect x="223.5" y="1083.5" transform="matrix(0.9397 -0.342 0.342 0.9397 -331.6295 294.3396)" fill="#57BB8A" width="890.7" height="8.2"/>
				</g>
				<g>
					
						<rect x="229.1" y="1098.9" transform="matrix(0.9397 -0.342 0.342 0.9397 -336.5666 297.189)" fill="#57BB8A" width="890.7" height="8.2"/>
				</g>
				<g>
					
						<rect x="234.7" y="1114.3" transform="matrix(0.9397 -0.342 0.342 0.9397 -341.4978 300.0373)" fill="#57BB8A" width="890.7" height="8.2"/>
				</g>
				<g>
					
						<rect x="240.3" y="1129.7" transform="matrix(0.9397 -0.342 0.342 0.9397 -346.4349 302.8866)" fill="#57BB8A" width="890.7" height="8.2"/>
				</g>
			</g>
		</g>
	</g>
	<g>
		<g>
			<defs>
				<path id="SVGID_23_" d="M481.7,646.9l65.8-24c-1.6-13.5-4.8-25.7-9.6-36.7c-7.2-16.4-17.3-30.2-30.1-41.2
					c-12.8-11-28.2-19.2-46.2-24.6c-18-5.4-37.6-8.2-58.9-8.2c-23.7,0-45.1,3.4-64.3,10.3c-19.2,6.9-35.6,15.8-49.1,26.8
					c-13.5,11-24,23.4-31.4,37.2c-7.4,13.8-11.1,27.7-11.1,41.7h67.4c0-8.2,2.1-16,6.2-23.4c4.1-7.4,9.8-13.8,17.2-19.4
					c7.4-5.6,16.3-10,26.7-13.2c10.4-3.3,21.9-4.9,34.4-4.9c27.3,0,48,6.8,62,20.3c14,13.5,21,32,21,55.5V646.9z"/>
			</defs>
			<clipPath id="SVGID_24_">
				<use xlink:href="#SVGID_23_"  overflow="visible"/>
			</clipPath>
			<g clip-path="url(#SVGID_24_)">
				<g>
					
						<rect x="-51.2" y="321.4" transform="matrix(0.9397 -0.342 0.342 0.9397 -87.5558 154.4202)" fill="#547DBF" width="890.7" height="8.2"/>
				</g>
				<g>
					<polygon fill="#547DBF" points="819.6,192.4 -17.4,497.1 -20.2,489.4 816.8,184.7 					"/>
				</g>
				<g>
					
						<rect x="-40" y="352.2" transform="matrix(0.9397 -0.342 0.342 0.9397 -97.4243 160.1181)" fill="#547DBF" width="890.7" height="8.2"/>
				</g>
				<g>
					<polygon fill="#547DBF" points="830.8,223.3 -6.1,527.9 -8.9,520.2 828,215.6 					"/>
				</g>
				<g>
					
						<rect x="-28.8" y="383.1" transform="matrix(0.9397 -0.342 0.342 0.9397 -107.2924 165.815)" fill="#547DBF" width="890.7" height="8.2"/>
				</g>
				<g>
					<polygon fill="#547DBF" points="842,254.1 5.1,558.7 2.3,551 839.2,246.4 					"/>
				</g>
				<g>
					
						<rect x="-17.6" y="413.9" transform="matrix(0.9397 -0.342 0.342 0.9397 -117.1609 171.5128)" fill="#547DBF" width="890.7" height="8.2"/>
				</g>
				<g>
					<polygon fill="#547DBF" points="853.3,284.9 16.3,589.6 13.5,581.9 850.5,277.2 					"/>
				</g>
				<g>
					
						<rect x="-6.3" y="444.7" transform="matrix(0.9397 -0.342 0.342 0.9397 -127.0292 177.2106)" fill="#547DBF" width="890.7" height="8.2"/>
				</g>
				<g>
					
						<rect x="-0.7" y="460.1" transform="matrix(0.9397 -0.342 0.342 0.9397 -131.9627 180.0587)" fill="#547DBF" width="890.7" height="8.2"/>
				</g>
				<g>
					
						<rect x="4.9" y="475.5" transform="matrix(0.9397 -0.342 0.342 0.9397 -136.8976 182.9084)" fill="#547DBF" width="890.7" height="8.2"/>
				</g>
				<g>
					
						<rect x="10.5" y="491" transform="matrix(0.9397 -0.342 0.342 0.9397 -141.831 185.7563)" fill="#547DBF" width="890.7" height="8.2"/>
				</g>
				<g>
					
						<rect x="16.1" y="506.4" transform="matrix(0.9397 -0.342 0.342 0.9397 -146.766 188.6061)" fill="#547DBF" width="890.7" height="8.2"/>
				</g>
				<g>
					
						<rect x="21.7" y="521.8" transform="matrix(0.9397 -0.342 0.342 0.9397 -151.6996 191.4543)" fill="#547DBF" width="890.7" height="8.2"/>
				</g>
				<g>
					
						<rect x="27.3" y="537.2" transform="matrix(0.9397 -0.342 0.342 0.9397 -156.6351 194.304)" fill="#547DBF" width="890.7" height="8.2"/>
				</g>
				<g>
					
						<rect x="32.9" y="552.6" transform="matrix(0.9397 -0.342 0.342 0.9397 -161.5675 197.1511)" fill="#547DBF" width="890.7" height="8.2"/>
				</g>
				<g>
					<polygon fill="#547DBF" points="903.8,423.7 66.8,728.3 64,720.6 901,416 					"/>
				</g>
				<g>
					
						<rect x="44.2" y="583.5" transform="matrix(0.9397 -0.342 0.342 0.9397 -171.4359 202.8489)" fill="#547DBF" width="890.7" height="8.2"/>
				</g>
				<g>
					<polygon fill="#547DBF" points="915,454.5 78,759.1 75.2,751.4 912.2,446.8 					"/>
				</g>
				<g>
					
						<rect x="55.4" y="614.3" transform="matrix(0.9397 -0.342 0.342 0.9397 -181.3043 208.5466)" fill="#547DBF" width="890.7" height="8.2"/>
				</g>
				<g>
					
						<rect x="61" y="629.7" transform="matrix(0.9397 -0.342 0.342 0.9397 -186.2406 211.3961)" fill="#547DBF" width="890.7" height="8.2"/>
				</g>
				<g>
					
						<rect x="66.6" y="645.1" transform="matrix(0.9397 -0.342 0.342 0.9397 -191.1727 214.2444)" fill="#547DBF" width="890.7" height="8.2"/>
				</g>
				<g>
					
						<rect x="72.2" y="660.5" transform="matrix(0.9397 -0.342 0.342 0.9397 -196.1092 217.0933)" fill="#547DBF" width="890.7" height="8.2"/>
				</g>
				<g>
					
						<rect x="77.8" y="676" transform="matrix(0.9397 -0.342 0.342 0.9397 -201.041 219.9421)" fill="#547DBF" width="890.7" height="8.2"/>
				</g>
			</g>
		</g>
		<g>
			<defs>
				<path id="SVGID_25_" d="M306,814.5c-0.1-1.4-0.2-2.9-0.2-4.3c0-24.2,10.4-42.2,31.2-54.2c20.8-12,50.3-18,88.5-18h56.2v12.5
					l63.5-23.1l0.1,0.4l3.5-1.3v-36v-24.4l-67.1,24.4h-67.1c-26.8,0-51.1,2.8-72.7,8.3c-21.6,5.6-40.1,13.8-55.5,24.7
					c-15.3,10.9-27.1,24.4-35.3,40.4c-8.2,16.1-12.3,34.6-12.3,55.7c0,6.9,0.4,13,1.3,18.9L306,814.5z"/>
			</defs>
			<clipPath id="SVGID_26_">
				<use xlink:href="#SVGID_25_"  overflow="visible"/>
			</clipPath>
			<g clip-path="url(#SVGID_26_)">
				<g>
					
						<rect x="5.6" y="544.2" transform="matrix(0.9397 -0.342 0.342 0.9397 -160.335 187.2867)" fill="#DB4436" width="890.7" height="8.2"/>
				</g>
				<g>
					<polygon fill="#DB4436" points="876.4,415.3 39.4,719.9 36.6,712.2 873.6,407.5 					"/>
				</g>
				<g>
					
						<rect x="16.8" y="575" transform="matrix(0.9397 -0.342 0.342 0.9397 -170.2035 192.9845)" fill="#DB4436" width="890.7" height="8.2"/>
				</g>
				<g>
					<polygon fill="#DB4436" points="887.6,446.1 50.7,750.7 47.9,743 884.8,438.4 					"/>
				</g>
				<g>
					
						<rect x="28" y="605.9" transform="matrix(0.9397 -0.342 0.342 0.9397 -180.0719 198.6823)" fill="#DB4436" width="890.7" height="8.2"/>
				</g>
				<g>
					
						<rect x="33.6" y="621.3" transform="matrix(0.9397 -0.342 0.342 0.9397 -185.0056 201.5305)" fill="#DB4436" width="890.7" height="8.2"/>
				</g>
				<g>
					
						<rect x="39.2" y="636.7" transform="matrix(0.9397 -0.342 0.342 0.9397 -189.9401 204.3797)" fill="#DB4436" width="890.7" height="8.2"/>
				</g>
				<g>
					
						<rect x="44.9" y="652.1" transform="matrix(0.9397 -0.342 0.342 0.9397 -194.8741 207.2284)" fill="#DB4436" width="890.7" height="8.2"/>
				</g>
				<g>
					
						<rect x="50.5" y="667.5" transform="matrix(0.9397 -0.342 0.342 0.9397 -199.8094 210.0781)" fill="#DB4436" width="890.7" height="8.2"/>
				</g>
				<g>
					
						<rect x="56.1" y="682.9" transform="matrix(0.9397 -0.342 0.342 0.9397 -204.7417 212.925)" fill="#DB4436" width="890.7" height="8.2"/>
				</g>
				<g>
					<polygon fill="#DB4436" points="926.9,554 89.9,858.6 87.1,850.9 924.1,546.3 					"/>
				</g>
				<g>
					
						<rect x="67.3" y="713.8" transform="matrix(0.9397 -0.342 0.342 0.9397 -214.6101 218.6228)" fill="#DB4436" width="890.7" height="8.2"/>
				</g>
				<g>
					<polygon fill="#DB4436" points="938.1,584.8 101.2,889.5 98.4,881.8 935.3,577.1 					"/>
				</g>
				<g>
					
						<rect x="78.5" y="744.6" transform="matrix(0.9397 -0.342 0.342 0.9397 -224.4786 224.3206)" fill="#DB4436" width="890.7" height="8.2"/>
				</g>
				<g>
					
						<rect x="84.1" y="760" transform="matrix(0.9397 -0.342 0.342 0.9397 -229.4159 227.1713)" fill="#DB4436" width="890.7" height="8.2"/>
				</g>
				<g>
					
						<rect x="89.7" y="775.4" transform="matrix(0.9397 -0.342 0.342 0.9397 -234.347 230.0183)" fill="#DB4436" width="890.7" height="8.2"/>
				</g>
				<g>
					
						<rect x="95.3" y="790.9" transform="matrix(0.9397 -0.342 0.342 0.9397 -239.2836 232.8673)" fill="#DB4436" width="890.7" height="8.2"/>
				</g>
				<g>
					
						<rect x="101" y="806.3" transform="matrix(0.9397 -0.342 0.342 0.9397 -244.2151 235.7157)" fill="#DB4436" width="890.7" height="8.2"/>
				</g>
				<g>
					
						<rect x="106.6" y="821.7" transform="matrix(0.9397 -0.342 0.342 0.9397 -249.1521 238.5651)" fill="#DB4436" width="890.7" height="8.2"/>
				</g>
				<g>
					
						<rect x="112.2" y="837.1" transform="matrix(0.9397 -0.342 0.342 0.9397 -254.0836 241.4138)" fill="#DB4436" width="890.7" height="8.2"/>
				</g>
				<g>
					
						<rect x="117.8" y="852.5" transform="matrix(0.9397 -0.342 0.342 0.9397 -259.0196 244.2615)" fill="#DB4436" width="890.7" height="8.2"/>
				</g>
				<g>
					<polygon fill="#DB4436" points="988.6,723.6 151.7,1028.2 148.9,1020.5 985.8,715.9 					"/>
				</g>
				<g>
					
						<rect x="129" y="883.4" transform="matrix(0.9397 -0.342 0.342 0.9397 -268.888 249.9594)" fill="#DB4436" width="890.7" height="8.2"/>
				</g>
				<g>
					<polygon fill="#DB4436" points="999.9,754.4 162.9,1059 160.1,1051.3 997,746.7 					"/>
				</g>
			</g>
		</g>
		<g>
			<defs>
				<path id="SVGID_27_" d="M548.8,842.9v-72.6l-67.1,24.4v23.9l1.1,68.5c1,8,2.2,15.7,3.6,23c1.4,7.4,3.4,13.5,5.8,18.3h70.3v-5.8
					c-4.6-10.6-8-23.3-10.3-37.9C550,870.1,548.8,856.1,548.8,842.9z"/>
			</defs>
			<clipPath id="SVGID_28_">
				<use xlink:href="#SVGID_27_"  overflow="visible"/>
			</clipPath>
			<g clip-path="url(#SVGID_28_)">
				<g>
					
						<rect x="150.8" y="753" transform="matrix(0.9397 -0.342 0.342 0.9397 -222.9853 249.5392)" fill="#F3B41B" width="890.7" height="8.2"/>
				</g>
				<g>
					<polygon fill="#F3B41B" points="1021.6,624 184.6,928.7 181.8,920.9 1018.8,616.3 					"/>
				</g>
				<g>
					
						<rect x="162" y="783.8" transform="matrix(0.9397 -0.342 0.342 0.9397 -232.8539 255.2372)" fill="#F3B41B" width="890.7" height="8.2"/>
				</g>
				<g>
					<polygon fill="#F3B41B" points="1032.8,654.9 195.9,959.5 193.1,951.8 1030,647.1 					"/>
				</g>
				<g>
					
						<rect x="173.2" y="814.6" transform="matrix(0.9397 -0.342 0.342 0.9397 -242.7215 260.9336)" fill="#F3B41B" width="890.7" height="8.2"/>
				</g>
				<g>
					<polygon fill="#F3B41B" points="1044.1,685.7 207.1,990.3 204.3,982.6 1041.2,678 					"/>
				</g>
				<g>
					
						<rect x="184.4" y="845.5" transform="matrix(0.9397 -0.342 0.342 0.9397 -252.5895 266.6308)" fill="#F3B41B" width="890.7" height="8.2"/>
				</g>
				<g>
					<polygon fill="#F3B41B" points="1055.3,716.5 218.3,1021.1 215.5,1013.4 1052.5,708.8 					"/>
				</g>
				<g>
					
						<rect x="195.7" y="876.3" transform="matrix(0.9397 -0.342 0.342 0.9397 -262.4582 272.3292)" fill="#F3B41B" width="890.7" height="8.2"/>
				</g>
				<g>
					
						<rect x="201.3" y="891.7" transform="matrix(0.9397 -0.342 0.342 0.9397 -267.3922 275.1777)" fill="#F3B41B" width="890.7" height="8.2"/>
				</g>
				<g>
					
						<rect x="206.9" y="907.1" transform="matrix(0.9397 -0.342 0.342 0.9397 -272.3267 278.0269)" fill="#F3B41B" width="890.7" height="8.2"/>
				</g>
				<g>
					
						<rect x="212.5" y="922.5" transform="matrix(0.9397 -0.342 0.342 0.9397 -277.2608 280.8757)" fill="#F3B41B" width="890.7" height="8.2"/>
				</g>
				<g>
					
						<rect x="218.1" y="938" transform="matrix(0.9397 -0.342 0.342 0.9397 -282.1952 283.7246)" fill="#F3B41B" width="890.7" height="8.2"/>
				</g>
				<g>
					
						<rect x="223.7" y="953.4" transform="matrix(0.9397 -0.342 0.342 0.9397 -287.1293 286.5734)" fill="#F3B41B" width="890.7" height="8.2"/>
				</g>
				<g>
					
						<rect x="229.3" y="968.8" transform="matrix(0.9397 -0.342 0.342 0.9397 -292.0634 289.4224)" fill="#F3B41B" width="890.7" height="8.2"/>
				</g>
				<g>
					
						<rect x="234.9" y="984.2" transform="matrix(0.9397 -0.342 0.342 0.9397 -296.9966 292.2696)" fill="#F3B41B" width="890.7" height="8.2"/>
				</g>
				<g>
					<polygon fill="#F3B41B" points="1105.8,855.3 268.8,1159.9 266,1152.2 1103,847.6 					"/>
				</g>
				<g>
					
						<rect x="246.2" y="1015" transform="matrix(0.9397 -0.342 0.342 0.9397 -306.8647 297.9672)" fill="#F3B41B" width="890.7" height="8.2"/>
				</g>
				<g>
					<polygon fill="#F3B41B" points="1117,886.1 280,1190.7 277.2,1183 1114.2,878.4 					"/>
				</g>
				<g>
					
						<rect x="257.4" y="1045.9" transform="matrix(0.9397 -0.342 0.342 0.9397 -316.7334 303.6653)" fill="#F3B41B" width="890.7" height="8.2"/>
				</g>
				<g>
					
						<rect x="263" y="1061.3" transform="matrix(0.9397 -0.342 0.342 0.9397 -321.6704 306.5154)" fill="#F3B41B" width="890.7" height="8.2"/>
				</g>
				<g>
					
						<rect x="268.6" y="1076.7" transform="matrix(0.9397 -0.342 0.342 0.9397 -326.6019 309.363)" fill="#F3B41B" width="890.7" height="8.2"/>
				</g>
				<g>
					
						<rect x="274.2" y="1092.1" transform="matrix(0.9397 -0.342 0.342 0.9397 -331.539 312.2125)" fill="#F3B41B" width="890.7" height="8.2"/>
				</g>
				<g>
					
						<rect x="279.8" y="1107.5" transform="matrix(0.9397 -0.342 0.342 0.9397 -336.4702 315.0608)" fill="#F3B41B" width="890.7" height="8.2"/>
				</g>
			</g>
		</g>
		<g>
			<defs>
				<path id="SVGID_29_" d="M440.7,860.9c-7.8,4.5-16.4,8.4-25.7,11.3c-10.6,3.4-22,5.1-34.1,5.1c-12.3,0-23.2-1.8-32.5-5.3
					c-9.3-3.5-17.2-8.2-23.6-14.1c-1.7-1.5-3.2-3.2-4.7-4.9l-65.8,24c5.5,9.3,12.3,17.6,20.4,25c11.5,10.4,25.4,18.6,41.7,24.7
					c16.3,6,34.5,9.1,54.6,9.1c12.1,0,23.6-1.3,34.5-3.8c10.9-2.5,21-6,30.3-10.5c1.5-0.7,3.1-1.6,4.9-2.7V860.9z"/>
			</defs>
			<clipPath id="SVGID_30_">
				<use xlink:href="#SVGID_29_"  overflow="visible"/>
			</clipPath>
			<g clip-path="url(#SVGID_30_)">
				<g>
					<polygon fill="#0C9D58" points="988.8,618.5 151.8,923.1 149,915.4 986,610.8 					"/>
				</g>
				<g>
					
						<rect x="129.2" y="778.2" transform="matrix(0.9397 -0.342 0.342 0.9397 -232.9307 243.6796)" fill="#0C9D58" width="890.7" height="8.2"/>
				</g>
				<g>
					<polygon fill="#0C9D58" points="1000,649.3 163.1,953.9 160.3,946.2 997.2,641.6 					"/>
				</g>
				<g>
					
						<rect x="140.4" y="809.1" transform="matrix(0.9397 -0.342 0.342 0.9397 -242.7983 249.3761)" fill="#0C9D58" width="890.7" height="8.2"/>
				</g>
				<g>
					<polygon fill="#0C9D58" points="1011.2,680.1 174.3,984.8 171.5,977.1 1008.4,672.4 					"/>
				</g>
				<g>
					
						<rect x="151.6" y="839.9" transform="matrix(0.9397 -0.342 0.342 0.9397 -252.6671 255.074)" fill="#0C9D58" width="890.7" height="8.2"/>
				</g>
				<g>
					<polygon fill="#0C9D58" points="1022.5,711 185.5,1015.6 182.7,1007.9 1019.7,703.3 					"/>
				</g>
				<g>
					
						<rect x="162.8" y="870.7" transform="matrix(0.9397 -0.342 0.342 0.9397 -262.5356 260.7719)" fill="#0C9D58" width="890.7" height="8.2"/>
				</g>
				<g>
					
						<rect x="168.5" y="886.2" transform="matrix(0.9397 -0.342 0.342 0.9397 -267.4695 263.6212)" fill="#0C9D58" width="890.7" height="8.2"/>
				</g>
				<g>
					
						<rect x="174.1" y="901.6" transform="matrix(0.9397 -0.342 0.342 0.9397 -272.404 266.4697)" fill="#0C9D58" width="890.7" height="8.2"/>
				</g>
				<g>
					
						<rect x="179.7" y="917" transform="matrix(0.9397 -0.342 0.342 0.9397 -277.3379 269.3181)" fill="#0C9D58" width="890.7" height="8.2"/>
				</g>
				<g>
					
						<rect x="185.3" y="932.4" transform="matrix(0.9397 -0.342 0.342 0.9397 -282.2725 272.1674)" fill="#0C9D58" width="890.7" height="8.2"/>
				</g>
				<g>
					
						<rect x="190.9" y="947.8" transform="matrix(0.9397 -0.342 0.342 0.9397 -287.2066 275.0162)" fill="#0C9D58" width="890.7" height="8.2"/>
				</g>
				<g>
					
						<rect x="196.5" y="963.2" transform="matrix(0.9397 -0.342 0.342 0.9397 -292.1408 277.8652)" fill="#0C9D58" width="890.7" height="8.2"/>
				</g>
				<g>
					
						<rect x="202.1" y="978.6" transform="matrix(0.9397 -0.342 0.342 0.9397 -297.075 280.7139)" fill="#0C9D58" width="890.7" height="8.2"/>
				</g>
				<g>
					<polygon fill="#0C9D58" points="1073,849.7 236,1154.3 233.2,1146.6 1070.1,842 					"/>
				</g>
				<g>
					
						<rect x="213.3" y="1009.5" transform="matrix(0.9397 -0.342 0.342 0.9397 -306.9424 286.4104)" fill="#0C9D58" width="890.7" height="8.2"/>
				</g>
				<g>
					<polygon fill="#0C9D58" points="1084.2,880.5 247.2,1185.2 244.4,1177.5 1081.4,872.8 					"/>
				</g>
				<g>
					
						<rect x="224.6" y="1040.3" transform="matrix(0.9397 -0.342 0.342 0.9397 -316.8108 292.1081)" fill="#0C9D58" width="890.7" height="8.2"/>
				</g>
				<g>
					<polygon fill="#0C9D58" points="1095.4,911.4 258.4,1216 255.6,1208.3 1092.6,903.7 					"/>
				</g>
				<g>
					
						<rect x="235.8" y="1071.1" transform="matrix(0.9397 -0.342 0.342 0.9397 -326.6792 297.8058)" fill="#0C9D58" width="890.7" height="8.2"/>
				</g>
				<g>
					
						<rect x="241.4" y="1086.6" transform="matrix(0.9397 -0.342 0.342 0.9397 -331.6163 300.6552)" fill="#0C9D58" width="890.7" height="8.2"/>
				</g>
				<g>
					
						<rect x="247" y="1102" transform="matrix(0.9397 -0.342 0.342 0.9397 -336.5475 303.5035)" fill="#0C9D58" width="890.7" height="8.2"/>
				</g>
				<g>
					
						<rect x="252.6" y="1117.4" transform="matrix(0.9397 -0.342 0.342 0.9397 -341.4847 306.3528)" fill="#0C9D58" width="890.7" height="8.2"/>
				</g>
			</g>
		</g>
	</g>
</g>
<g>
	<path fill="#2B439B" d="M681.8,866.8c-3.8-12.2-5.7-25.1-5.7-38.4c0-23.6,4.7-44.7,14-62.9c9.3-18.2,22.8-33.7,40.2-46
		c17-12.1,37.8-21.3,61.6-27.4c23.5-6,50.1-9.1,79.1-9.1h69.3l81.5-29.7V753l-88.9,32.4v-34.3h-50.4c-38.6,0-68.5,6-89,17.8
		c-19.1,11-28.4,27.2-28.4,49.5c0,6.4,0.8,12.6,2.4,18.5l2.1,8l-84.9,30.9L681.8,866.8z"/>
	<path fill="#547DBF" d="M758.7,839.2c-1.8-6.6-2.7-13.5-2.7-20.8c0-25.6,11-44.7,33-57.3c22-12.6,53.1-19,93.5-19h59.4v30.4
		l70.9-25.8v-80.6l-70.9,25.8h-70.9c-28.4,0-54,2.9-76.8,8.8c-22.9,5.9-42.4,14.6-58.6,26.1c-16.2,11.5-28.7,25.7-37.4,42.7
		c-8.7,17-13,36.6-13,58.8c0,12.5,1.8,24.4,5.3,35.7L758.7,839.2z"/>
	<path fill="#0B552B" d="M932.8,657c-0.4-21.3-6.8-37.6-19.4-49.8c-13-12.6-33-18.9-59.3-18.9c-12.3,0-23.7,1.6-33.7,4.8
		c-9.9,3.1-18.5,7.4-25.4,12.6c-6.8,5.1-12.1,11-15.8,17.7c-3.6,6.5-5.4,13.1-5.4,20.3v9h-89.3v-9c0-16.3,4.3-32.5,12.7-48.3
		c8.3-15.6,20.2-29.7,35.4-42c15-12.2,33.4-22.3,54.6-29.8c21.2-7.6,45.1-11.4,71.1-11.4c23.3,0,45.1,3,64.9,9
		c20.2,6.1,37.7,15.5,52.1,27.8c14.5,12.5,26,28.2,34.2,46.7c4.6,10.4,8,22.1,10,34.8l1.2,7.3l-87.6,31.9L932.8,657z"/>
	<path fill="#A52822" d="M825,960c-22.2,0-42.6-3.4-60.8-10.1c-18.2-6.8-34.1-16.1-47-27.8c-7.5-6.8-14.2-14.6-19.9-23l-6.4-9.5
		l86.9-31.6l4,3.9c0.2,0.2,0.4,0.4,0.6,0.6c5.7,5.2,13.1,9.7,21.8,12.9c8.8,3.3,19.2,5,31.1,5c11.8,0,23-1.7,33.3-4.9
		c10.5-3.3,20.1-7.7,28.6-13c2.1-1.3,4.1-2.7,6.1-4.1l14.3-10.2v84.6l-4.3,2.6c-5.2,3.2-10.7,6.2-16.1,8.8c-10.4,5-21.8,9-33.9,11.8
		C851.3,958.6,838.4,960,825,960z"/>
	<path fill="#DB4436" d="M908.6,865.5c-2.1,1.5-4.3,3-6.6,4.4c-9.2,5.7-19.4,10.4-30.7,14c-11.2,3.6-23.2,5.4-36,5.4
		c-13,0-24.5-1.8-34.3-5.6c-9.8-3.7-18.1-8.7-24.9-14.9c-0.2-0.2-0.4-0.4-0.5-0.6L704.7,894c5.2,7.8,11.4,14.9,18.5,21.4
		c12.1,11,26.8,19.7,44.1,26.1c17.2,6.4,36.5,9.6,57.7,9.6c12.8,0,24.9-1.3,36.4-4c11.5-2.7,22.2-6.4,32-11.1
		c5.3-2.5,10.4-5.3,15.2-8.3V865.5z"/>
	<path fill="#E86324" d="M947.4,952.3l-2.5-5c-2.9-5.9-5.2-13-6.9-21.6c-0.5-2.4-0.9-4.9-1.4-7.4l0,0l-2.8-18.4l-0.8-98.6l88.8-32.3
		v83.9c0,13.5,1.2,28,3.5,42.9c2.3,14.7,5.8,27.4,10.3,37.9l0.7,1.7v17H947.4z"/>
	<path fill="#F3B41B" d="M1012.7,852.9v-71l-70.7,25.7l0.7,90.3c0.1-0.1,0.1,1.8,0.2,1.8c1,8.4,2.3,16.5,3.8,24.3
		c1.5,7.8,3.6,14.2,6.1,19.4h74.3v-6.1c-4.9-11.2-8.5-24.6-10.9-40C1014,881.7,1012.7,866.9,1012.7,852.9z"/>
	<path fill="#0C9D58" d="M771.3,618.9c4.3-7.8,10.4-14.6,18.2-20.5c7.8-5.9,17.2-10.5,28.2-14c11-3.4,23.1-5.2,36.4-5.2
		c28.9,0,50.7,7.2,65.5,21.5c14.3,13.8,21.7,32.5,22.2,56.1l68.8-25c-1.9-11.8-5-22.7-9.3-32.6c-7.7-17.4-18.3-31.9-31.8-43.5
		c-13.5-11.6-29.8-20.3-48.9-26.1c-19-5.7-39.8-8.6-62.3-8.6c-25,0-47.7,3.6-68,10.9c-20.3,7.3-37.6,16.7-51.9,28.4
		C724,571.9,713,585,705.2,599.6c-7.8,14.6-11.7,29.3-11.7,44.1h71.3C764.8,635,767,626.7,771.3,618.9z"/>
	<g>
		<defs>
			<path id="SVGID_31_" d="M908.6,865.5c-2.1,1.5-4.3,3-6.6,4.4c-9.2,5.7-19.4,10.4-30.7,14c-11.2,3.6-23.2,5.4-36,5.4
				c-13,0-24.5-1.8-34.3-5.6c-9.8-3.7-18.1-8.7-24.9-14.9c-0.2-0.2-0.4-0.4-0.5-0.6L704.7,894c5.2,7.8,11.4,14.9,18.5,21.4
				c12.1,11,26.8,19.7,44.1,26.1c17.2,6.4,36.5,9.6,57.7,9.6c12.8,0,24.9-1.3,36.4-4c11.5-2.7,22.2-6.4,32-11.1
				c5.3-2.5,10.4-5.3,15.2-8.3V865.5z"/>
		</defs>
		<clipPath id="SVGID_32_">
			<use xlink:href="#SVGID_31_"  overflow="visible"/>
		</clipPath>
		<polygon clip-path="url(#SVGID_32_)" fill="#C53B29" points="1242.3,1071.8 1054.5,1071.8 775.5,868.2 942.1,742.1 		"/>
	</g>
	<g>
		<defs>
			<path id="SVGID_33_" d="M1012.7,852.9v-71l-70.7,25.7l0.7,90.3c0.1-0.1,0.1,1.8,0.2,1.8c1,8.4,2.3,16.5,3.8,24.3
				c1.5,7.8,3.6,14.2,6.1,19.4h74.3v-6.1c-4.9-11.2-8.5-24.6-10.9-40C1014,881.7,1012.7,866.9,1012.7,852.9z"/>
		</defs>
		<clipPath id="SVGID_34_">
			<use xlink:href="#SVGID_33_"  overflow="visible"/>
		</clipPath>
		<polygon clip-path="url(#SVGID_34_)" fill="#EF9421" points="1242.3,1071.8 1054.5,1071.8 775.5,868.2 942.1,742.1 		"/>
	</g>
	<g>
		<defs>
			<path id="SVGID_35_" d="M758.7,839.2c-1.8-6.6-2.7-13.5-2.7-20.8c0-25.6,11-44.7,33-57.3c22-12.6,53.1-19,93.5-19h59.4v30.4
				l70.9-25.8v-80.6l-70.9,25.8h-70.9c-28.4,0-54,2.9-76.8,8.8c-22.9,5.9-42.4,14.6-58.6,26.1c-16.2,11.5-28.7,25.7-37.4,42.7
				c-8.7,17-13,36.6-13,58.8c0,12.5,1.8,24.4,5.3,35.7L758.7,839.2z"/>
		</defs>
		<clipPath id="SVGID_36_">
			<use xlink:href="#SVGID_35_"  overflow="visible"/>
		</clipPath>
		<polygon clip-path="url(#SVGID_36_)" fill="#4468B1" points="1242.3,1071.8 1054.5,1071.8 775.5,868.2 942.1,742.1 		"/>
	</g>
</g>
</svg>
